<svg xmlns="http://www.w3.org/2000/svg" xmlns:xlink="http://www.w3.org/1999/xlink" width="406" zoomAndPan="magnify" viewBox="0 0 304.5 227.999995" height="304" preserveAspectRatio="xMidYMid meet" version="1.0"><defs><g/><clipPath id="c97f82a801"><path d="M 0 0.1875 L 304 0.1875 L 304 227.8125 L 0 227.8125 Z M 0 0.1875 " clip-rule="nonzero"/></clipPath></defs><g clip-path="url(#c97f82a801)"><path fill="#ffffff" d="M 0 0.1875 L 304.5 0.1875 L 304.5 235.6875 L 0 235.6875 Z M 0 0.1875 " fill-opacity="1" fill-rule="nonzero"/><path fill="#ffffff" d="M 0 0.1875 L 304.5 0.1875 L 304.5 228.1875 L 0 228.1875 Z M 0 0.1875 " fill-opacity="1" fill-rule="nonzero"/><path fill="#eaf8ff" d="M 0 0.1875 L 304.5 0.1875 L 304.5 228.1875 L 0 228.1875 Z M 0 0.1875 " fill-opacity="1" fill-rule="nonzero"/></g><path fill="#ffd2bb" d="M 139.851562 111.382812 C 139.859375 111.304688 139.867188 111.230469 139.875 111.152344 C 139.992188 110.199219 139.921875 109.273438 139.707031 108.421875 C 139.367188 108.371094 138.988281 108.25 138.570312 108.050781 C 138.539062 108.046875 138.511719 108.046875 138.480469 108.042969 C 138.511719 108.046875 138.539062 108.046875 138.570312 108.050781 C 138.199219 107.875 137.796875 107.640625 137.363281 107.332031 C 137.378906 108.71875 134.566406 110.082031 133.480469 109.09375 C 134.089844 109.65625 134.242188 111.078125 133.859375 112.03125 C 133.710938 111.25 133.132812 110.667969 132.441406 110.667969 C 132.222656 110.667969 132.015625 110.730469 131.828125 110.835938 C 131.332031 111.117188 130.984375 111.71875 130.984375 112.425781 C 130.984375 113.398438 131.636719 114.183594 132.441406 114.183594 C 132.726562 114.183594 132.992188 114.082031 133.21875 113.910156 C 133.242188 113.910156 133.269531 113.914062 133.292969 113.917969 C 132.476562 115.273438 130.753906 115.703125 128.164062 114.773438 L 126.40625 119.007812 L 126.414062 119.011719 L 133.769531 123.453125 L 133.78125 123.386719 L 133.789062 123.339844 C 133.816406 123.195312 133.863281 122.929688 133.917969 122.625 L 134.667969 118.503906 L 134.910156 117.15625 C 135.011719 117.207031 135.113281 117.253906 135.210938 117.296875 C 136.027344 117.6875 136.808594 117.941406 137.457031 118.019531 C 138.667969 118.164062 139.226562 117.671875 139.488281 116.804688 C 139.730469 116.015625 139.726562 114.917969 139.742188 113.695312 C 139.992188 113.679688 140.214844 113.636719 140.375 113.570312 C 141.097656 113.265625 140.402344 112.589844 140.042969 111.730469 C 139.988281 111.605469 139.921875 111.488281 139.851562 111.382812 Z M 137.933594 111.210938 C 137.964844 110.890625 138.148438 110.644531 138.347656 110.667969 C 138.542969 110.6875 138.679688 110.96875 138.648438 111.289062 C 138.617188 111.609375 138.433594 111.855469 138.234375 111.832031 C 138.039062 111.8125 137.902344 111.535156 137.933594 111.210938 Z M 168.007812 132.269531 C 168.007812 134.109375 166.515625 135.605469 164.671875 135.605469 C 164.125 135.605469 163.605469 135.46875 163.148438 135.234375 C 163.015625 135.164062 162.882812 135.085938 162.761719 135 C 162.546875 134.847656 162.351562 134.671875 162.175781 134.476562 C 161.65625 133.886719 161.335938 133.117188 161.335938 132.269531 C 161.335938 132.03125 161.363281 131.796875 161.410156 131.574219 C 161.730469 130.066406 163.070312 128.933594 164.671875 128.933594 C 166.515625 128.933594 168.007812 130.425781 168.007812 132.269531 Z M 168.007812 132.269531 " fill-opacity="1" fill-rule="nonzero"/><path fill="#00cec9" d="M 112.824219 96.238281 L 104.367188 107.214844 L 100.628906 104.335938 C 97.597656 102 97.035156 97.648438 99.371094 94.617188 C 101.707031 91.585938 106.058594 91.023438 109.089844 93.359375 Z M 132.988281 182.984375 C 136.582031 188.351562 144.710938 200.828125 144.710938 200.828125 C 144.710938 200.828125 136.394531 160.167969 135.324219 155.710938 C 135.289062 156.121094 135.265625 156.347656 135.265625 156.347656 L 121.910156 156.347656 C 121.84375 156.835938 121.824219 157.332031 121.863281 157.832031 C 121.808594 158.609375 121.878906 159.40625 122.105469 160.195312 C 122.71875 162.347656 125.753906 169.042969 128.875 173.929688 C 128.917969 174.3125 128.988281 174.707031 129.074219 175.105469 C 126.953125 176.382812 124.75 178.867188 123.886719 180.417969 C 122.59375 182.75 114.558594 194.546875 113.769531 195.703125 L 113.78125 195.757812 C 114.917969 195.121094 128.117188 187.671875 132.988281 182.984375 Z M 132.988281 182.984375 " fill-opacity="1" fill-rule="nonzero"/><path fill="#e84393" d="M 124.257812 122.785156 L 111.921875 113.117188 L 111.960938 113.066406 L 120.421875 102.09375 L 120.488281 102.003906 L 123.742188 104.535156 C 123.707031 104.613281 123.679688 104.691406 123.648438 104.769531 C 122.660156 107.351562 123.300781 110.113281 124.695312 112.105469 C 125.476562 113.21875 126.488281 114.09375 127.585938 114.550781 C 127.785156 114.632812 127.976562 114.703125 128.164062 114.773438 L 126.410156 119.007812 L 126.414062 119.011719 L 126.40625 119.011719 C 126.40625 120.136719 126.097656 120.6875 125.769531 121.128906 C 125.195312 121.496094 124.695312 122.0625 124.257812 122.785156 Z M 146.261719 135.316406 C 146.773438 134.84375 147.402344 134.457031 148.128906 134.199219 C 149.476562 133.722656 154.539062 132.503906 158.84375 131.878906 L 139.488281 116.804688 C 139.226562 117.671875 138.667969 118.164062 137.457031 118.019531 C 136.808594 117.941406 136.027344 117.6875 135.210938 117.296875 C 135.113281 117.253906 135.015625 117.207031 134.910156 117.15625 L 134.667969 118.503906 L 133.917969 122.625 C 133.863281 122.929688 133.816406 123.195312 133.789062 123.339844 L 133.78125 123.386719 L 133.769531 123.453125 C 134.261719 124.007812 135.695312 125.753906 136.3125 126.796875 C 137.957031 127.863281 142.8125 131.773438 146.261719 135.316406 Z M 150.660156 141.371094 C 152.308594 140.789062 158.964844 137.589844 162.761719 135 C 162.882812 135.085938 163.015625 135.164062 163.148438 135.234375 L 184.3125 151.71875 C 184.296875 151.386719 184.292969 151.054688 184.308594 150.71875 C 179.53125 144.773438 176.128906 138.109375 173.980469 130.507812 C 173.507812 128.824219 173.105469 127.117188 172.757812 125.398438 C 171.011719 116.765625 170.75 107.902344 170.75 100.820312 L 171.691406 100.820312 C 171.691406 110.027344 172.226562 118.472656 173.933594 126.261719 C 175.785156 134.691406 179.003906 142.351562 184.429688 149.363281 C 184.925781 145.699219 186.765625 141.808594 188.46875 138.417969 C 188.636719 138.078125 188.808594 137.746094 188.972656 137.421875 C 189.457031 136.460938 189.914062 135.554688 190.3125 134.714844 C 192.851562 129.339844 199.0625 120.964844 204.917969 119.164062 L 205.195312 120.066406 C 199.609375 121.777344 193.625 129.898438 191.164062 135.113281 C 190.789062 135.90625 190.359375 136.753906 189.910156 137.644531 C 189.878906 137.710938 189.84375 137.777344 189.8125 137.84375 C 187.875 141.675781 185.542969 146.304688 185.269531 150.417969 C 186.539062 151.976562 188.988281 155.421875 188.988281 155.421875 L 188.746094 155.664062 C 188.683594 155.601562 188.625 155.539062 188.566406 155.476562 C 188.550781 155.460938 188.535156 155.445312 188.515625 155.425781 L 180.183594 166.234375 L 180.257812 166.257812 L 180.183594 166.351562 L 148.503906 141.671875 C 148.507812 141.671875 148.519531 141.671875 148.523438 141.671875 C 149.210938 141.71875 149.941406 141.625 150.660156 141.371094 Z M 185.316406 152.449219 L 185.261719 152.457031 L 186.902344 153.738281 C 186.34375 153.128906 185.796875 152.511719 185.269531 151.890625 C 185.28125 152.078125 185.292969 152.265625 185.316406 152.449219 Z M 138.234375 111.832031 C 138.433594 111.855469 138.617188 111.609375 138.648438 111.289062 C 138.679688 110.96875 138.542969 110.6875 138.347656 110.667969 C 138.148438 110.644531 137.964844 110.890625 137.933594 111.210938 C 137.902344 111.535156 138.039062 111.8125 138.234375 111.832031 Z M 144.710938 208.015625 L 155.871094 208.015625 L 144.710938 200.828125 Z M 208.796875 206.476562 C 202.527344 213.914062 181.761719 215.257812 165.261719 215.257812 C 159.371094 215.257812 154.03125 215.085938 150.078125 214.960938 C 147.742188 214.886719 145.890625 214.832031 144.730469 214.828125 C 142.839844 214.828125 139.007812 214.789062 134.15625 214.742188 C 122.996094 214.625 106.125 214.449219 93.222656 214.585938 C 80.355469 214.722656 70.617188 213.488281 69.53125 211.582031 C 69.351562 211.269531 69.359375 210.925781 69.546875 210.617188 C 71.105469 208.054688 89.339844 207.058594 116.0625 208.074219 L 108.660156 200.671875 L 113.742188 195.589844 L 113.769531 195.703125 L 113.78125 195.757812 L 116.449219 208.089844 C 116.488281 208.089844 116.527344 208.09375 116.570312 208.09375 L 116.53125 209.03125 C 79.800781 207.609375 70.648438 210.128906 70.339844 211.121094 C 70.414062 211.359375 71.667969 212.175781 76.519531 212.839844 C 80.84375 213.429688 86.773438 213.714844 93.210938 213.644531 C 106.125 213.507812 123 213.683594 134.164062 213.800781 C 139.011719 213.851562 142.839844 213.886719 144.726562 213.886719 C 144.746094 213.886719 144.765625 213.886719 144.785156 213.886719 C 145.96875 213.886719 147.800781 213.945312 150.109375 214.019531 C 164.996094 214.496094 199.859375 215.613281 208.078125 205.871094 C 209.589844 204.078125 210.089844 202.050781 209.605469 199.671875 C 208.992188 196.667969 206.859375 194.539062 204.1875 193.027344 C 201.125 195.472656 196.230469 196.421875 192.695312 197.105469 L 192.519531 197.136719 C 192.40625 197.160156 180.707031 199.167969 177.90625 195.535156 C 177.128906 194.523438 177.113281 193.222656 177.859375 191.664062 C 179.71875 187.800781 190.53125 188.421875 193.328125 188.796875 C 196.367188 189.207031 200.554688 190.074219 204.0625 191.898438 C 204.722656 191.289062 205.253906 190.585938 205.605469 189.78125 C 206.898438 186.8125 206.867188 181.234375 204.886719 178.203125 C 203.332031 175.828125 198.152344 172.324219 197.480469 171.878906 L 195.738281 171.308594 C 195.074219 171.554688 190.964844 173 186.730469 173 C 186.460938 173 186.191406 172.992188 185.925781 172.980469 C 183.558594 172.871094 181.265625 172.675781 178.984375 172.386719 C 174.414062 171.804688 169.902344 170.839844 164.980469 169.410156 L 165.242188 168.507812 C 170.378906 170 175.066406 170.980469 179.835938 171.542969 C 181.851562 171.78125 183.882812 171.945312 185.96875 172.042969 C 189.152344 172.1875 192.472656 171.351562 194.226562 170.816406 L 191.789062 170.019531 C 192.378906 168.160156 193.5625 166.566406 195.117188 165.457031 L 198.953125 171.746094 C 200.742188 172.996094 204.34375 175.65625 205.671875 177.691406 C 207.875 181.058594 207.859375 186.964844 206.46875 190.15625 C 206.101562 190.996094 205.570312 191.730469 204.921875 192.375 C 207.671875 193.992188 209.871094 196.273438 210.527344 199.484375 C 211.066406 202.125 210.484375 204.476562 208.796875 206.476562 Z M 203.273438 192.546875 C 199.96875 190.910156 196.058594 190.113281 193.203125 189.730469 C 192.105469 189.582031 190.328125 189.449219 188.386719 189.449219 C 184.398438 189.449219 179.703125 190 178.710938 192.070312 C 178.117188 193.300781 178.101562 194.246094 178.652344 194.960938 C 180.652344 197.554688 189.386719 196.789062 192.34375 196.214844 L 192.519531 196.179688 C 195.824219 195.539062 200.375 194.660156 203.273438 192.546875 Z M 203.273438 192.546875 " fill-opacity="1" fill-rule="nonzero"/><path fill="#fbc02d" d="M 162.761719 135 C 158.964844 137.589844 152.308594 140.789062 150.660156 141.371094 C 149.941406 141.625 149.210938 141.71875 148.523438 141.671875 C 148.515625 141.671875 148.507812 141.671875 148.503906 141.671875 C 146.078125 141.808594 141.039062 140.105469 136.882812 138.421875 C 136.261719 145.464844 135.535156 153.433594 135.324219 155.710938 C 135.289062 156.121094 135.265625 156.347656 135.265625 156.347656 L 121.835938 156.347656 C 121.847656 155.835938 119.625 130.410156 124.257812 122.785156 C 124.695312 122.0625 125.195312 121.496094 125.769531 121.128906 C 126.097656 120.6875 126.40625 120.136719 126.40625 119.007812 L 126.414062 119.011719 L 133.769531 123.453125 C 134.261719 124.007812 135.695312 125.753906 136.3125 126.796875 C 137.957031 127.863281 142.8125 131.773438 146.261719 135.316406 C 146.773438 134.84375 147.402344 134.453125 148.128906 134.199219 C 149.476562 133.722656 154.539062 132.503906 158.84375 131.878906 C 159.746094 131.746094 160.613281 131.640625 161.410156 131.574219 C 161.363281 131.796875 161.335938 132.03125 161.335938 132.269531 C 161.335938 133.117188 161.65625 133.886719 162.175781 134.476562 C 162.351562 134.671875 162.546875 134.847656 162.761719 135 Z M 127.585938 114.546875 C 127.785156 114.632812 127.976562 114.703125 128.164062 114.773438 C 130.753906 115.703125 132.476562 115.273438 133.292969 113.917969 C 133.269531 113.914062 133.242188 113.910156 133.21875 113.910156 C 132.992188 114.082031 132.726562 114.183594 132.441406 114.183594 C 131.636719 114.183594 130.984375 113.398438 130.984375 112.425781 C 130.984375 111.71875 131.332031 111.117188 131.828125 110.835938 C 132.015625 110.730469 132.222656 110.664062 132.441406 110.664062 C 133.132812 110.664062 133.710938 111.25 133.859375 112.03125 C 134.242188 111.078125 134.089844 109.65625 133.480469 109.09375 C 134.566406 110.082031 137.378906 108.71875 137.363281 107.332031 C 137.800781 107.640625 138.199219 107.875 138.570312 108.050781 C 138.988281 108.25 139.367188 108.371094 139.707031 108.421875 C 142.84375 108.878906 142.546875 103.402344 139.386719 101.132812 C 138.492188 100.488281 135.476562 98.3125 130.953125 99.03125 C 130.902344 98.605469 130.9375 98.140625 130.90625 97.703125 C 130.160156 97.839844 130.285156 98.578125 130.292969 99.195312 C 129.730469 98.753906 128.746094 98.742188 128.078125 98.953125 C 128.601562 99.050781 129.304688 99.109375 129.550781 99.660156 C 129.410156 99.660156 129.097656 99.640625 128.964844 99.699219 C 126.152344 100.964844 124.523438 102.695312 123.742188 104.535156 C 123.707031 104.613281 123.679688 104.691406 123.648438 104.769531 C 122.660156 107.351562 123.300781 110.113281 124.695312 112.101562 C 125.476562 113.21875 126.488281 114.09375 127.585938 114.546875 Z M 127.585938 114.546875 " fill-opacity="1" fill-rule="nonzero"/><path fill="#0984e3" d="M 188.988281 155.421875 L 195.117188 165.457031 C 193.5625 166.5625 192.378906 168.160156 191.789062 170.019531 L 180.257812 166.257812 L 180.183594 166.234375 L 188.515625 155.425781 C 188.535156 155.445312 188.550781 155.460938 188.566406 155.476562 C 188.625 155.539062 188.683594 155.601562 188.746094 155.664062 Z M 112.824219 96.238281 L 104.367188 107.214844 L 104.328125 107.261719 L 111.921875 113.117188 L 111.960938 113.066406 L 120.421875 102.09375 L 120.488281 102.003906 L 120.519531 101.964844 L 112.925781 96.109375 Z M 106.511719 84.519531 C 107.71875 84.519531 108.699219 83.539062 108.699219 82.335938 L 108.699219 68.34375 C 108.699219 67.136719 107.71875 66.15625 106.511719 66.15625 C 105.308594 66.15625 104.328125 67.136719 104.328125 68.34375 L 104.328125 82.335938 C 104.328125 83.539062 105.308594 84.519531 106.511719 84.519531 Z M 106.511719 116.878906 C 105.308594 116.878906 104.328125 117.855469 104.328125 119.0625 L 104.328125 133.054688 C 104.328125 134.261719 105.308594 135.242188 106.511719 135.242188 C 107.71875 135.242188 108.699219 134.261719 108.699219 133.054688 L 108.699219 119.0625 C 108.699219 117.855469 107.71875 116.878906 106.511719 116.878906 Z M 90.332031 100.699219 C 90.332031 99.492188 89.355469 98.515625 88.148438 98.515625 L 74.15625 98.515625 C 72.949219 98.515625 71.972656 99.492188 71.972656 100.699219 C 71.972656 101.90625 72.949219 102.882812 74.15625 102.882812 L 88.148438 102.882812 C 89.355469 102.882812 90.332031 101.90625 90.332031 100.699219 Z M 85.175781 76.273438 C 84.324219 75.421875 82.941406 75.421875 82.089844 76.273438 C 81.234375 77.128906 81.234375 78.511719 82.089844 79.363281 L 91.984375 89.257812 C 92.410156 89.683594 92.96875 89.898438 93.527344 89.898438 C 94.085938 89.898438 94.644531 89.683594 95.074219 89.257812 C 95.925781 88.40625 95.925781 87.023438 95.074219 86.167969 Z M 91.984375 112.140625 L 82.089844 122.035156 C 81.234375 122.886719 81.234375 124.269531 82.089844 125.125 C 82.515625 125.550781 83.074219 125.761719 83.632812 125.761719 C 84.191406 125.761719 84.75 125.550781 85.175781 125.125 L 95.070312 115.230469 C 95.925781 114.375 95.925781 112.992188 95.070312 112.140625 C 94.21875 111.289062 92.835938 111.289062 91.984375 112.140625 Z M 127.847656 76.273438 L 117.957031 86.167969 C 117.101562 87.023438 117.101562 88.40625 117.957031 89.257812 C 118.382812 89.683594 118.941406 89.898438 119.5 89.898438 C 120.058594 89.898438 120.617188 89.683594 121.042969 89.257812 L 130.9375 79.363281 C 131.792969 78.511719 131.792969 77.128906 130.9375 76.273438 C 130.085938 75.421875 128.703125 75.421875 127.847656 76.273438 Z M 172.757812 125.398438 C 171.011719 116.765625 170.75 107.90625 170.75 100.820312 L 171.691406 100.820312 C 171.691406 110.027344 172.226562 118.472656 173.933594 126.261719 C 175.1875 127.046875 184.457031 112.328125 185.519531 104.835938 C 186.921875 94.96875 185.351562 80.90625 173.660156 78.644531 C 160.210938 76.046875 160.367188 93.824219 162.253906 103.128906 C 163.328125 108.441406 167.074219 120.609375 172.757812 125.398438 Z M 220.675781 101.753906 C 215.59375 93.15625 203.253906 105.953125 197.71875 113.554688 C 193.789062 118.949219 184.574219 133.996094 188.46875 138.417969 C 188.636719 138.078125 188.808594 137.746094 188.972656 137.421875 C 189.457031 136.460938 189.914062 135.554688 190.3125 134.714844 C 192.851562 129.339844 199.0625 120.964844 204.917969 119.164062 L 205.195312 120.066406 C 199.609375 121.777344 193.625 129.898438 191.164062 135.113281 C 190.789062 135.90625 190.359375 136.753906 189.910156 137.644531 C 195.042969 132.824219 203.082031 130.929688 208.464844 126.4375 C 216.078125 120.078125 225.097656 109.230469 220.675781 101.753906 Z M 151.769531 161.75 C 147.59375 167.308594 157.648438 171.324219 163.277344 172.605469 C 166.8125 173.40625 175.671875 174.636719 178.984375 172.386719 C 174.417969 171.804688 169.902344 170.839844 164.980469 169.410156 L 165.242188 168.507812 C 170.382812 170 175.066406 170.980469 179.839844 171.542969 C 179.949219 171.375 172.941406 164.558594 168.929688 162.347656 C 163.644531 159.433594 155.398438 156.917969 151.769531 161.75 Z M 151.769531 161.75 " fill-opacity="1" fill-rule="nonzero"/><g fill="#000000" fill-opacity="1"><g transform="translate(54.95187, 37.587856)"><g><path d="M 0.40625 -7.40625 C 0.40625 -9.550781 1.132812 -11.363281 2.59375 -12.84375 C 4.0625 -14.320312 5.820312 -15.0625 7.875 -15.0625 C 9.945312 -15.0625 11.703125 -14.320312 13.140625 -12.84375 C 14.585938 -11.375 15.3125 -9.5625 15.3125 -7.40625 C 15.3125 -5.238281 14.597656 -3.414062 13.171875 -1.9375 C 11.753906 -0.46875 9.988281 0.265625 7.875 0.265625 C 5.707031 0.265625 3.921875 -0.460938 2.515625 -1.921875 C 1.109375 -3.390625 0.40625 -5.21875 0.40625 -7.40625 Z M 4.046875 -7.40625 C 4.046875 -6.632812 4.164062 -5.925781 4.40625 -5.28125 C 4.644531 -4.644531 5.0625 -4.101562 5.65625 -3.65625 C 6.257812 -3.21875 7 -3 7.875 -3 C 9.132812 -3 10.082031 -3.425781 10.71875 -4.28125 C 11.351562 -5.144531 11.671875 -6.1875 11.671875 -7.40625 C 11.671875 -8.613281 11.34375 -9.648438 10.6875 -10.515625 C 10.039062 -11.390625 9.101562 -11.828125 7.875 -11.828125 C 6.65625 -11.828125 5.710938 -11.390625 5.046875 -10.515625 C 4.378906 -9.648438 4.046875 -8.613281 4.046875 -7.40625 Z M 4.046875 -7.40625 "/></g></g></g><g fill="#000000" fill-opacity="1"><g transform="translate(70.676188, 37.587856)"><g><path d="M 1.078125 0 L 1.078125 -9.203125 L 4.25 -9.203125 L 4.25 -8.234375 L 4.28125 -8.234375 C 5.113281 -9.054688 5.992188 -9.46875 6.921875 -9.46875 C 7.378906 -9.46875 7.832031 -9.40625 8.28125 -9.28125 C 8.726562 -9.164062 9.15625 -8.984375 9.5625 -8.734375 C 9.976562 -8.484375 10.3125 -8.128906 10.5625 -7.671875 C 10.820312 -7.210938 10.953125 -6.675781 10.953125 -6.0625 L 10.953125 0 L 7.78125 0 L 7.78125 -5.203125 C 7.78125 -5.679688 7.628906 -6.097656 7.328125 -6.453125 C 7.023438 -6.816406 6.628906 -7 6.140625 -7 C 5.660156 -7 5.222656 -6.8125 4.828125 -6.4375 C 4.441406 -6.070312 4.25 -5.660156 4.25 -5.203125 L 4.25 0 Z M 1.078125 0 "/></g></g></g><g fill="#000000" fill-opacity="1"><g transform="translate(82.5277, 37.587856)"><g><path d="M 1.078125 0 L 1.078125 -15.421875 L 4.25 -15.421875 L 4.25 0 Z M 1.078125 0 "/></g></g></g><g fill="#000000" fill-opacity="1"><g transform="translate(87.852807, 37.587856)"><g><path d="M 1.375 -14.328125 C 1.75 -14.703125 2.191406 -14.890625 2.703125 -14.890625 C 3.222656 -14.890625 3.664062 -14.703125 4.03125 -14.328125 C 4.40625 -13.960938 4.59375 -13.519531 4.59375 -13 C 4.59375 -12.488281 4.40625 -12.046875 4.03125 -11.671875 C 3.664062 -11.304688 3.222656 -11.125 2.703125 -11.125 C 2.191406 -11.125 1.75 -11.304688 1.375 -11.671875 C 1.007812 -12.046875 0.828125 -12.488281 0.828125 -13 C 0.828125 -13.519531 1.007812 -13.960938 1.375 -14.328125 Z M 1.078125 -9.203125 L 1.078125 0 L 4.25 0 L 4.25 -9.203125 Z M 1.078125 -9.203125 "/></g></g></g><g fill="#000000" fill-opacity="1"><g transform="translate(93.267567, 37.587856)"><g><path d="M 1.078125 0 L 1.078125 -9.203125 L 4.25 -9.203125 L 4.25 -8.234375 L 4.28125 -8.234375 C 5.113281 -9.054688 5.992188 -9.46875 6.921875 -9.46875 C 7.378906 -9.46875 7.832031 -9.40625 8.28125 -9.28125 C 8.726562 -9.164062 9.15625 -8.984375 9.5625 -8.734375 C 9.976562 -8.484375 10.3125 -8.128906 10.5625 -7.671875 C 10.820312 -7.210938 10.953125 -6.675781 10.953125 -6.0625 L 10.953125 0 L 7.78125 0 L 7.78125 -5.203125 C 7.78125 -5.679688 7.628906 -6.097656 7.328125 -6.453125 C 7.023438 -6.816406 6.628906 -7 6.140625 -7 C 5.660156 -7 5.222656 -6.8125 4.828125 -6.4375 C 4.441406 -6.070312 4.25 -5.660156 4.25 -5.203125 L 4.25 0 Z M 1.078125 0 "/></g></g></g><g fill="#000000" fill-opacity="1"><g transform="translate(105.119079, 37.587856)"><g><path d="M 10.390625 -4.15625 L 3.71875 -4.15625 C 3.71875 -3.507812 3.925781 -3.03125 4.34375 -2.71875 C 4.757812 -2.414062 5.210938 -2.265625 5.703125 -2.265625 C 6.210938 -2.265625 6.617188 -2.332031 6.921875 -2.46875 C 7.222656 -2.601562 7.566406 -2.875 7.953125 -3.28125 L 10.25 -2.140625 C 9.289062 -0.535156 7.695312 0.265625 5.46875 0.265625 C 4.082031 0.265625 2.890625 -0.207031 1.890625 -1.15625 C 0.898438 -2.101562 0.40625 -3.242188 0.40625 -4.578125 C 0.40625 -5.921875 0.898438 -7.070312 1.890625 -8.03125 C 2.890625 -8.988281 4.082031 -9.46875 5.46875 -9.46875 C 6.925781 -9.46875 8.113281 -9.046875 9.03125 -8.203125 C 9.945312 -7.359375 10.40625 -6.15625 10.40625 -4.59375 C 10.40625 -4.375 10.398438 -4.226562 10.390625 -4.15625 Z M 3.796875 -5.921875 L 7.296875 -5.921875 C 7.222656 -6.398438 7.035156 -6.765625 6.734375 -7.015625 C 6.429688 -7.273438 6.039062 -7.40625 5.5625 -7.40625 C 5.03125 -7.40625 4.609375 -7.265625 4.296875 -6.984375 C 3.992188 -6.710938 3.828125 -6.359375 3.796875 -5.921875 Z M 3.796875 -5.921875 "/></g></g></g><g fill="#000000" fill-opacity="1"><g transform="translate(115.930666, 37.587856)"><g><path d="M 10.546875 -15.421875 L 3.15625 2.15625 L 0.40625 2.15625 L 7.796875 -15.421875 Z M 10.546875 -15.421875 "/></g></g></g><g fill="#000000" fill-opacity="1"><g transform="translate(126.885694, 37.587856)"><g><path d="M 1.078125 -14.796875 L 5.359375 -14.796875 C 7.421875 -14.796875 9.179688 -14.09375 10.640625 -12.6875 C 12.097656 -11.28125 12.828125 -9.519531 12.828125 -7.40625 C 12.828125 -5.28125 12.097656 -3.515625 10.640625 -2.109375 C 9.191406 -0.703125 7.429688 0 5.359375 0 L 1.078125 0 Z M 4.453125 -3.015625 L 4.96875 -3.015625 C 6.195312 -3.015625 7.203125 -3.425781 7.984375 -4.25 C 8.773438 -5.082031 9.175781 -6.128906 9.1875 -7.390625 C 9.1875 -8.648438 8.789062 -9.695312 8 -10.53125 C 7.21875 -11.363281 6.207031 -11.78125 4.96875 -11.78125 L 4.453125 -11.78125 Z M 4.453125 -3.015625 "/></g></g></g><g fill="#000000" fill-opacity="1"><g transform="translate(140.117786, 37.587856)"><g><path d="M 1.375 -14.328125 C 1.75 -14.703125 2.191406 -14.890625 2.703125 -14.890625 C 3.222656 -14.890625 3.664062 -14.703125 4.03125 -14.328125 C 4.40625 -13.960938 4.59375 -13.519531 4.59375 -13 C 4.59375 -12.488281 4.40625 -12.046875 4.03125 -11.671875 C 3.664062 -11.304688 3.222656 -11.125 2.703125 -11.125 C 2.191406 -11.125 1.75 -11.304688 1.375 -11.671875 C 1.007812 -12.046875 0.828125 -12.488281 0.828125 -13 C 0.828125 -13.519531 1.007812 -13.960938 1.375 -14.328125 Z M 1.078125 -9.203125 L 1.078125 0 L 4.25 0 L 4.25 -9.203125 Z M 1.078125 -9.203125 "/></g></g></g><g fill="#000000" fill-opacity="1"><g transform="translate(145.532546, 37.587856)"><g><path d="M 5.078125 -9.46875 C 5.597656 -9.46875 6.113281 -9.40625 6.625 -9.28125 C 7.144531 -9.164062 7.53125 -9.050781 7.78125 -8.9375 L 8.15625 -8.75 L 7.125 -6.671875 C 6.40625 -7.054688 5.722656 -7.25 5.078125 -7.25 C 4.710938 -7.25 4.457031 -7.207031 4.3125 -7.125 C 4.164062 -7.050781 4.09375 -6.90625 4.09375 -6.6875 C 4.09375 -6.644531 4.097656 -6.597656 4.109375 -6.546875 C 4.117188 -6.492188 4.140625 -6.445312 4.171875 -6.40625 C 4.210938 -6.363281 4.25 -6.328125 4.28125 -6.296875 C 4.3125 -6.273438 4.359375 -6.242188 4.421875 -6.203125 C 4.492188 -6.171875 4.550781 -6.144531 4.59375 -6.125 C 4.632812 -6.101562 4.703125 -6.070312 4.796875 -6.03125 C 4.898438 -6 4.972656 -5.972656 5.015625 -5.953125 C 5.066406 -5.941406 5.148438 -5.914062 5.265625 -5.875 C 5.378906 -5.84375 5.46875 -5.820312 5.53125 -5.8125 C 5.894531 -5.707031 6.210938 -5.585938 6.484375 -5.453125 C 6.765625 -5.316406 7.054688 -5.132812 7.359375 -4.90625 C 7.671875 -4.6875 7.910156 -4.398438 8.078125 -4.046875 C 8.242188 -3.703125 8.328125 -3.3125 8.328125 -2.875 C 8.328125 -0.78125 6.875 0.265625 3.96875 0.265625 C 3.3125 0.265625 2.6875 0.164062 2.09375 -0.03125 C 1.5 -0.238281 1.070312 -0.441406 0.8125 -0.640625 L 0.40625 -0.96875 L 1.703125 -3.140625 C 1.796875 -3.054688 1.921875 -2.957031 2.078125 -2.84375 C 2.234375 -2.726562 2.515625 -2.570312 2.921875 -2.375 C 3.328125 -2.175781 3.679688 -2.078125 3.984375 -2.078125 C 4.640625 -2.078125 4.96875 -2.300781 4.96875 -2.75 C 4.96875 -2.945312 4.882812 -3.101562 4.71875 -3.21875 C 4.550781 -3.332031 4.265625 -3.460938 3.859375 -3.609375 C 3.460938 -3.753906 3.148438 -3.882812 2.921875 -4 C 2.347656 -4.300781 1.894531 -4.640625 1.5625 -5.015625 C 1.226562 -5.390625 1.0625 -5.890625 1.0625 -6.515625 C 1.0625 -7.441406 1.421875 -8.164062 2.140625 -8.6875 C 2.867188 -9.207031 3.847656 -9.46875 5.078125 -9.46875 Z M 5.078125 -9.46875 "/></g></g></g><g fill="#000000" fill-opacity="1"><g transform="translate(154.353949, 37.587856)"><g><path d="M 1.609375 -9.203125 L 1.609375 -12.625 L 4.796875 -12.625 L 4.796875 -9.203125 L 6.71875 -9.203125 L 6.71875 -6.78125 L 4.796875 -6.78125 L 4.796875 -3.859375 C 4.796875 -3.003906 5.03125 -2.578125 5.5 -2.578125 C 5.625 -2.578125 5.75 -2.597656 5.875 -2.640625 C 6.007812 -2.691406 6.113281 -2.742188 6.1875 -2.796875 L 6.296875 -2.875 L 7.078125 -0.3125 C 6.398438 0.0703125 5.625 0.265625 4.75 0.265625 C 4.15625 0.265625 3.640625 0.160156 3.203125 -0.046875 C 2.773438 -0.253906 2.453125 -0.535156 2.234375 -0.890625 C 2.015625 -1.242188 1.851562 -1.613281 1.75 -2 C 1.65625 -2.382812 1.609375 -2.800781 1.609375 -3.25 L 1.609375 -6.78125 L 0.28125 -6.78125 L 0.28125 -9.203125 Z M 1.609375 -9.203125 "/></g></g></g><g fill="#000000" fill-opacity="1"><g transform="translate(161.43617, 37.587856)"><g><path d="M 1.703125 -1.140625 C 0.835938 -2.078125 0.40625 -3.226562 0.40625 -4.59375 C 0.40625 -5.957031 0.835938 -7.109375 1.703125 -8.046875 C 2.566406 -8.992188 3.660156 -9.46875 4.984375 -9.46875 C 6.203125 -9.46875 7.207031 -9.085938 8 -8.328125 L 8 -9.203125 L 11.171875 -9.203125 L 11.171875 0 L 8.03125 0 L 8.03125 -1.046875 L 8 -1.046875 C 7.207031 -0.171875 6.203125 0.265625 4.984375 0.265625 C 3.660156 0.265625 2.566406 -0.203125 1.703125 -1.140625 Z M 4.390625 -6.15625 C 3.984375 -5.75 3.78125 -5.226562 3.78125 -4.59375 C 3.78125 -3.957031 3.976562 -3.4375 4.375 -3.03125 C 4.769531 -2.632812 5.289062 -2.4375 5.9375 -2.4375 C 6.5625 -2.4375 7.070312 -2.640625 7.46875 -3.046875 C 7.875 -3.453125 8.078125 -3.96875 8.078125 -4.59375 C 8.078125 -5.226562 7.867188 -5.75 7.453125 -6.15625 C 7.035156 -6.5625 6.53125 -6.765625 5.9375 -6.765625 C 5.320312 -6.765625 4.804688 -6.5625 4.390625 -6.15625 Z M 4.390625 -6.15625 "/></g></g></g><g fill="#000000" fill-opacity="1"><g transform="translate(173.682137, 37.587856)"><g><path d="M 1.078125 0 L 1.078125 -9.203125 L 4.25 -9.203125 L 4.25 -8.234375 L 4.28125 -8.234375 C 5.113281 -9.054688 5.992188 -9.46875 6.921875 -9.46875 C 7.378906 -9.46875 7.832031 -9.40625 8.28125 -9.28125 C 8.726562 -9.164062 9.15625 -8.984375 9.5625 -8.734375 C 9.976562 -8.484375 10.3125 -8.128906 10.5625 -7.671875 C 10.820312 -7.210938 10.953125 -6.675781 10.953125 -6.0625 L 10.953125 0 L 7.78125 0 L 7.78125 -5.203125 C 7.78125 -5.679688 7.628906 -6.097656 7.328125 -6.453125 C 7.023438 -6.816406 6.628906 -7 6.140625 -7 C 5.660156 -7 5.222656 -6.8125 4.828125 -6.4375 C 4.441406 -6.070312 4.25 -5.660156 4.25 -5.203125 L 4.25 0 Z M 1.078125 0 "/></g></g></g><g fill="#000000" fill-opacity="1"><g transform="translate(185.533649, 37.587856)"><g><path d="M 5.96875 -6.875 C 5.375 -6.875 4.859375 -6.648438 4.421875 -6.203125 C 3.992188 -5.765625 3.78125 -5.234375 3.78125 -4.609375 C 3.78125 -3.972656 3.992188 -3.429688 4.421875 -2.984375 C 4.859375 -2.546875 5.375 -2.328125 5.96875 -2.328125 C 6.257812 -2.328125 6.53125 -2.363281 6.78125 -2.4375 C 7.039062 -2.507812 7.234375 -2.582031 7.359375 -2.65625 L 7.515625 -2.765625 L 8.59375 -0.5625 C 8.507812 -0.5 8.390625 -0.421875 8.234375 -0.328125 C 8.085938 -0.242188 7.75 -0.125 7.21875 0.03125 C 6.6875 0.1875 6.113281 0.265625 5.5 0.265625 C 4.15625 0.265625 2.96875 -0.207031 1.9375 -1.15625 C 0.914062 -2.101562 0.40625 -3.242188 0.40625 -4.578125 C 0.40625 -5.910156 0.914062 -7.054688 1.9375 -8.015625 C 2.96875 -8.984375 4.15625 -9.46875 5.5 -9.46875 C 6.113281 -9.46875 6.675781 -9.394531 7.1875 -9.25 C 7.707031 -9.113281 8.070312 -8.972656 8.28125 -8.828125 L 8.59375 -8.609375 L 7.515625 -6.4375 C 7.117188 -6.726562 6.601562 -6.875 5.96875 -6.875 Z M 5.96875 -6.875 "/></g></g></g><g fill="#000000" fill-opacity="1"><g transform="translate(194.337119, 37.587856)"><g><path d="M 10.390625 -4.15625 L 3.71875 -4.15625 C 3.71875 -3.507812 3.925781 -3.03125 4.34375 -2.71875 C 4.757812 -2.414062 5.210938 -2.265625 5.703125 -2.265625 C 6.210938 -2.265625 6.617188 -2.332031 6.921875 -2.46875 C 7.222656 -2.601562 7.566406 -2.875 7.953125 -3.28125 L 10.25 -2.140625 C 9.289062 -0.535156 7.695312 0.265625 5.46875 0.265625 C 4.082031 0.265625 2.890625 -0.207031 1.890625 -1.15625 C 0.898438 -2.101562 0.40625 -3.242188 0.40625 -4.578125 C 0.40625 -5.921875 0.898438 -7.070312 1.890625 -8.03125 C 2.890625 -8.988281 4.082031 -9.46875 5.46875 -9.46875 C 6.925781 -9.46875 8.113281 -9.046875 9.03125 -8.203125 C 9.945312 -7.359375 10.40625 -6.15625 10.40625 -4.59375 C 10.40625 -4.375 10.398438 -4.226562 10.390625 -4.15625 Z M 3.796875 -5.921875 L 7.296875 -5.921875 C 7.222656 -6.398438 7.035156 -6.765625 6.734375 -7.015625 C 6.429688 -7.273438 6.039062 -7.40625 5.5625 -7.40625 C 5.03125 -7.40625 4.609375 -7.265625 4.296875 -6.984375 C 3.992188 -6.710938 3.828125 -6.359375 3.796875 -5.921875 Z M 3.796875 -5.921875 "/></g></g></g><g fill="#000000" fill-opacity="1"><g transform="translate(205.148706, 37.587856)"><g/></g></g><g fill="#104e91" fill-opacity="1"><g transform="translate(210.037793, 37.587856)"><g><path d="M 13.3125 0 L 12.609375 -8.765625 L 12.515625 -8.765625 L 9.484375 -0.09375 L 7.484375 -0.09375 L 4.453125 -8.765625 L 4.359375 -8.765625 L 3.65625 0 L 0.28125 0 L 1.609375 -14.796875 L 5.203125 -14.796875 L 8.484375 -6.265625 L 11.765625 -14.796875 L 15.359375 -14.796875 L 16.6875 0 Z M 13.3125 0 "/></g></g></g><g fill="#104e91" fill-opacity="1"><g transform="translate(226.999263, 37.587856)"><g><path d="M 8.59375 -14.796875 L 14.5625 0 L 10.9375 0 L 9.84375 -2.953125 L 4.21875 -2.953125 L 3.125 0 L -0.5 0 L 5.46875 -14.796875 Z M 8.703125 -5.921875 L 7.046875 -10.21875 L 7.015625 -10.21875 L 5.359375 -5.921875 Z M 8.703125 -5.921875 "/></g></g></g></svg>