<svg xmlns="http://www.w3.org/2000/svg" xmlns:xlink="http://www.w3.org/1999/xlink" width="406" zoomAndPan="magnify" viewBox="0 0 304.5 227.999995" height="304" preserveAspectRatio="xMidYMid meet" version="1.0"><defs><g/><clipPath id="e1b2cb90b3"><path d="M 0 0.1875 L 304 0.1875 L 304 227.8125 L 0 227.8125 Z M 0 0.1875 " clip-rule="nonzero"/></clipPath></defs><g clip-path="url(#e1b2cb90b3)"><path fill="#ffffff" d="M 0 0.1875 L 304.5 0.1875 L 304.5 235.6875 L 0 235.6875 Z M 0 0.1875 " fill-opacity="1" fill-rule="nonzero"/><path fill="#ffffff" d="M 0 0.1875 L 304.5 0.1875 L 304.5 228.1875 L 0 228.1875 Z M 0 0.1875 " fill-opacity="1" fill-rule="nonzero"/><path fill="#eaf8ff" d="M 0 0.1875 L 304.5 0.1875 L 304.5 228.1875 L 0 228.1875 Z M 0 0.1875 " fill-opacity="1" fill-rule="nonzero"/></g><path fill="#ffd2bb" d="M 142.246094 141.257812 C 141.878906 141.878906 140.914062 143.550781 139.949219 145.5625 L 138.566406 147.359375 C 137.589844 148.632812 135.789062 148.890625 134.492188 147.964844 C 133.066406 147.363281 132.332031 145.75 132.851562 144.265625 L 138.300781 132.65625 C 138.03125 132.480469 137.792969 132.25 137.601562 131.972656 C 136.890625 130.933594 137.066406 129.550781 137.960938 128.722656 L 137.734375 127.234375 C 137.6875 126.925781 137.898438 126.636719 138.207031 126.589844 C 138.515625 126.542969 138.804688 126.753906 138.851562 127.0625 L 139.015625 128.136719 C 140.015625 127.871094 141.117188 128.242188 141.734375 129.144531 C 142.328125 130.011719 142.300781 131.117188 141.757812 131.941406 C 142.003906 132.121094 141.824219 132.355469 141.527344 133.152344 C 139.667969 135.222656 137.769531 137.355469 137.769531 137.355469 C 137.847656 137.4375 138.050781 137.652344 138.324219 137.945312 C 138.753906 138.398438 139.367188 139.03125 139.988281 139.628906 C 140.925781 140.523438 141.882812 141.328125 142.246094 141.257812 Z M 157.175781 134.144531 L 151.316406 131.757812 L 153.046875 128.613281 C 152.972656 128.421875 152.914062 128.230469 152.859375 128.03125 C 152.929688 128.25 153.011719 128.367188 153.105469 128.164062 C 153.238281 127.878906 153.914062 127.039062 153.824219 126.148438 C 153.734375 125.230469 153.824219 123.976562 154.832031 123.976562 C 155.511719 123.976562 155.359375 125.890625 155.359375 125.890625 C 155.359375 125.890625 155.75 125.285156 155.9375 124.832031 C 156.125 124.378906 156.457031 123.628906 157.925781 122.941406 C 158.746094 122.554688 159.019531 121.457031 159.097656 120.566406 C 159.117188 120.566406 159.132812 120.566406 159.148438 120.566406 C 159.21875 120.566406 159.28125 120.5625 159.347656 120.558594 C 159.507812 121.304688 159.78125 122.074219 160.242188 122.742188 C 161.273438 124.246094 162.613281 125.644531 163.398438 126.410156 L 162.492188 128.621094 C 162.335938 129 162.179688 129.363281 162.015625 129.707031 C 161.828125 130.097656 161.632812 130.460938 161.425781 130.785156 C 160.671875 131.976562 159.734375 132.671875 158.324219 132.359375 C 158.105469 132.308594 157.878906 132.242188 157.640625 132.148438 L 155.832031 131.402344 C 155.722656 131.355469 155.613281 131.3125 155.515625 131.257812 C 155.503906 131.253906 155.496094 131.25 155.488281 131.242188 C 155.414062 131.582031 155.394531 131.835938 155.503906 131.882812 L 156.992188 132.492188 C 157.191406 132.574219 157.378906 132.625 157.558594 132.660156 Z M 161.597656 127.15625 C 161.769531 127.207031 161.976562 127.023438 162.058594 126.746094 C 162.140625 126.472656 162.074219 126.207031 161.902344 126.15625 C 161.734375 126.109375 161.523438 126.292969 161.441406 126.566406 C 161.359375 126.84375 161.425781 127.109375 161.597656 127.15625 Z M 158.203125 125.761719 C 158.371094 125.808594 158.578125 125.625 158.660156 125.347656 C 158.742188 125.074219 158.675781 124.808594 158.503906 124.761719 C 158.335938 124.710938 158.128906 124.894531 158.042969 125.171875 C 157.960938 125.445312 158.03125 125.710938 158.203125 125.761719 Z M 152.769531 127.660156 C 152.730469 127.441406 152.699219 127.21875 152.6875 127.105469 C 152.695312 127.210938 152.703125 127.316406 152.722656 127.421875 C 152.734375 127.5 152.753906 127.578125 152.769531 127.660156 Z M 215.292969 135.226562 C 214.917969 135.136719 214.699219 135.097656 214.699219 135.097656 L 208.402344 139.015625 L 207.925781 139.144531 L 207.691406 137.917969 C 206.890625 138.3125 206.09375 137.054688 205.472656 137.125 C 203.496094 137.347656 202.515625 134.628906 202.503906 132.433594 C 202.292969 132.414062 202.105469 132.378906 201.964844 132.320312 C 201.347656 132.054688 201.949219 131.480469 202.261719 130.746094 C 202.308594 130.640625 202.363281 130.542969 202.425781 130.453125 C 202.421875 130.386719 202.414062 130.324219 202.40625 130.257812 C 202.304688 129.351562 202.394531 128.492188 202.632812 127.699219 L 202.667969 127.695312 C 202.910156 127.667969 206.625 127.605469 206.328125 127.730469 C 205.886719 129.078125 205.949219 130.394531 206.53125 131.332031 C 206.640625 130.929688 206.839844 130.558594 207.136719 130.273438 C 207.707031 129.734375 208.691406 129.570312 209.324219 130.113281 C 209.796875 130.523438 209.792969 131.167969 209.480469 131.675781 C 209.34375 131.898438 209.171875 132.089844 208.972656 132.238281 C 208.78125 132.382812 208.570312 132.492188 208.34375 132.5625 C 208.722656 132.636719 209.125 132.640625 209.542969 132.578125 C 210.328125 132.464844 213.734375 131.398438 213.800781 131.34375 C 213.800781 131.34375 214.273438 131.558594 214.847656 133.558594 C 215.027344 134.1875 215.175781 134.746094 215.292969 135.226562 Z M 204.730469 130.515625 C 204.707031 130.242188 204.550781 130.03125 204.378906 130.046875 C 204.210938 130.066406 204.09375 130.300781 204.117188 130.578125 C 204.144531 130.855469 204.300781 131.0625 204.46875 131.046875 C 204.636719 131.03125 204.753906 130.792969 204.730469 130.515625 Z M 176.371094 143.753906 C 176.078125 143.105469 179.570312 142.5625 179.25 141.664062 C 178.925781 140.761719 175.964844 143.273438 175.59375 142.664062 C 175.222656 142.058594 178.179688 141.480469 177.84375 140.632812 C 177.546875 139.886719 174.675781 142.277344 173.945312 141.871094 C 173.289062 141.503906 174.925781 140.550781 174.390625 140.195312 C 173.71875 139.75 171.980469 142.3125 171.765625 143.253906 C 171.660156 143.71875 171.589844 144.121094 171.582031 144.46875 C 171.527344 144.535156 171.46875 144.605469 171.402344 144.675781 L 165.167969 150.332031 L 164.152344 146.207031 L 158.574219 146.722656 C 158.574219 146.722656 158.621094 147.101562 158.417969 147.734375 L 160.554688 156.417969 C 160.917969 158.015625 162.507812 159.019531 164.105469 158.65625 C 164.535156 158.558594 164.917969 158.371094 165.246094 158.121094 C 165.546875 157.960938 165.828125 157.746094 166.070312 157.476562 L 173.816406 146.722656 C 173.878906 146.65625 173.929688 146.59375 173.984375 146.535156 C 174.730469 146.550781 175.652344 146.394531 176.535156 146.148438 C 177.964844 145.746094 179.203125 145.191406 179.015625 144.785156 C 178.695312 144.097656 176.636719 145.699219 176.277344 145.03125 C 176.0625 144.632812 179.851562 144.089844 179.496094 143.1875 C 179.179688 142.378906 176.664062 144.402344 176.371094 143.753906 Z M 162.835938 172.113281 C 161.675781 171.070312 160.035156 169.382812 157.992188 167.839844 C 156.210938 169.824219 154.894531 172.144531 153.597656 174.601562 C 153.28125 175.203125 152.941406 175.792969 152.589844 176.378906 C 154.421875 176.367188 155.796875 176.34375 156.285156 176.414062 C 156.074219 176.988281 155.953125 177.605469 155.953125 178.253906 C 155.953125 180.332031 156.179688 192.691406 156.3125 199.859375 C 156.582031 199.898438 156.855469 199.925781 157.132812 199.925781 C 157.757812 199.925781 158.359375 199.820312 158.925781 199.636719 C 160.132812 196.949219 161.597656 193.515625 162.925781 189.941406 Z M 156.40625 204.949219 C 156.410156 204.980469 156.410156 205.003906 156.410156 205.003906 C 156.410156 205.003906 156.410156 204.980469 156.40625 204.949219 Z M 161.769531 201.871094 C 162.164062 202.058594 162.574219 202.25 162.984375 202.4375 C 162.574219 202.25 162.164062 202.058594 161.769531 201.871094 Z M 107.949219 100.738281 L 107.949219 100.742188 C 108.5 100.554688 109.089844 100.445312 109.703125 100.445312 C 111.203125 100.445312 112.554688 101.050781 113.539062 102.03125 C 113.542969 102.035156 113.546875 102.039062 113.546875 102.039062 C 113.546875 102.039062 113.542969 102.035156 113.542969 102.03125 C 112.558594 101.050781 111.203125 100.445312 109.707031 100.445312 C 109.089844 100.445312 108.496094 100.546875 107.949219 100.738281 C 107.878906 100.757812 107.8125 100.785156 107.746094 100.8125 C 107.617188 100.859375 107.492188 100.914062 107.371094 100.972656 C 107.492188 100.914062 107.617188 100.859375 107.742188 100.8125 C 107.808594 100.785156 107.878906 100.757812 107.949219 100.738281 Z M 115.035156 104.882812 C 115.09375 105.203125 115.128906 105.53125 115.128906 105.867188 L 115.128906 109.128906 C 115.128906 109.566406 115.125 109.984375 115.097656 110.390625 C 115.074219 110.847656 115.03125 111.285156 114.957031 111.6875 C 114.695312 113.160156 114.054688 114.226562 112.542969 114.484375 C 112.308594 114.527344 112.0625 114.554688 111.785156 114.554688 L 109.707031 114.554688 C 109.59375 114.554688 109.484375 114.550781 109.375 114.539062 C 109.457031 114.902344 109.554688 115.15625 109.707031 115.15625 L 111.785156 115.15625 C 112.0625 115.15625 112.308594 115.128906 112.542969 115.089844 L 112.8125 116.703125 L 104.652344 116.726562 L 105.269531 112.242188 C 105.191406 112.128906 105.113281 112.015625 105.042969 111.894531 C 104.96875 111.773438 104.902344 111.648438 104.839844 111.523438 C 104.839844 111.519531 104.839844 111.519531 104.835938 111.519531 C 104.835938 111.425781 104.753906 107.683594 105.777344 107.09375 C 106.402344 106.734375 107.015625 109.328125 107.015625 109.328125 C 107.015625 109.328125 107.15625 108.574219 107.15625 108.054688 C 107.15625 107.53125 107.183594 106.660156 108.347656 105.390625 C 108.75 104.953125 108.832031 104.328125 108.773438 103.699219 C 109.425781 104.511719 110.628906 105.363281 112.796875 105.390625 C 113.710938 105.402344 114.445312 105.195312 115.035156 104.882812 Z M 110.042969 107.460938 C 110.015625 107.15625 109.839844 106.925781 109.652344 106.945312 C 109.464844 106.96875 109.335938 107.230469 109.367188 107.535156 C 109.394531 107.839844 109.570312 108.074219 109.757812 108.050781 C 109.945312 108.03125 110.074219 107.769531 110.042969 107.460938 Z M 113.945312 107.460938 C 113.917969 107.15625 113.742188 106.925781 113.554688 106.945312 C 113.367188 106.96875 113.238281 107.230469 113.269531 107.535156 C 113.300781 107.839844 113.472656 108.074219 113.660156 108.050781 C 113.847656 108.03125 113.976562 107.769531 113.945312 107.460938 Z M 144.839844 109.875 C 144.839844 109.875 144.839844 109.875 144.839844 109.871094 C 144.832031 109.898438 144.824219 109.917969 144.816406 109.945312 C 144.824219 109.921875 144.832031 109.898438 144.839844 109.875 Z M 147.84375 106.277344 C 147.457031 106 150.792969 103.734375 150.039062 103.042969 C 149.363281 102.421875 147.917969 105.503906 147.339844 105.023438 C 146.765625 104.546875 149.816406 102.417969 149.097656 101.714844 C 148.417969 101.054688 146.933594 104.3125 146.226562 104.386719 C 146.222656 104.386719 146.21875 104.382812 146.210938 104.382812 C 146.171875 104.382812 146.132812 104.378906 146.097656 104.355469 C 145.464844 103.953125 148 102.035156 147.289062 101.390625 C 146.664062 100.820312 145.050781 104.414062 144.171875 104.367188 C 143.378906 104.324219 144.488281 102.660156 143.820312 102.574219 C 143.039062 102.472656 142.589844 105.214844 142.707031 106.417969 C 142.71875 106.519531 142.730469 106.613281 142.75 106.6875 C 142.753906 106.714844 142.761719 106.734375 142.765625 106.757812 C 142.570312 106.859375 142.363281 106.980469 142.152344 107.105469 C 142.714844 108.296875 143.667969 109.273438 144.839844 109.875 C 144.925781 109.59375 145.003906 109.324219 145.070312 109.066406 C 145.203125 109.0625 145.34375 109.054688 145.492188 109.039062 C 146.359375 108.941406 147.570312 108.140625 148.605469 107.21875 C 149.773438 106.175781 150.6875 105.074219 150.320312 104.777344 C 149.699219 104.273438 148.496094 106.746094 147.84375 106.277344 Z M 141.808594 107.3125 C 141.925781 107.238281 142.039062 107.171875 142.152344 107.105469 C 142.152344 107.105469 142.152344 107.105469 142.152344 107.101562 C 142.039062 107.171875 141.921875 107.238281 141.808594 107.3125 Z M 138.828125 121.933594 C 138.640625 122.175781 137.691406 122.796875 136.339844 123.609375 C 137.292969 123.351562 138.179688 122.789062 138.828125 121.933594 Z M 137.320312 110.789062 C 138.046875 110.152344 138.789062 109.527344 139.515625 108.957031 C 138.789062 109.527344 138.046875 110.148438 137.320312 110.789062 Z M 135.21875 112.707031 C 135.882812 112.078125 136.59375 111.425781 137.320312 110.789062 C 136.59375 111.425781 135.882812 112.078125 135.21875 112.707031 Z M 94.632812 152.546875 C 94.699219 152.054688 94.757812 151.546875 94.804688 151.023438 C 94.757812 151.546875 94.699219 152.054688 94.632812 152.546875 Z M 94.632812 152.546875 C 94.570312 153.035156 94.496094 153.507812 94.414062 153.953125 C 94.496094 153.507812 94.570312 153.035156 94.632812 152.546875 Z M 90.328125 154.96875 C 90.328125 154.96875 90.328125 154.96875 90.332031 154.96875 C 90.28125 154.875 90.234375 154.789062 90.1875 154.695312 C 90.234375 154.785156 90.28125 154.878906 90.328125 154.96875 Z M 94.285156 155.882812 C 94.203125 155.820312 94.128906 155.761719 94.0625 155.722656 C 94.039062 155.707031 94.019531 155.695312 94 155.683594 C 94.066406 155.472656 94.128906 155.242188 94.1875 155.003906 C 92.945312 154.566406 91.578125 154.554688 90.332031 154.96875 C 90.46875 155.226562 90.605469 155.472656 90.738281 155.699219 C 90.648438 155.796875 90.554688 155.902344 90.460938 156.019531 C 89.921875 156.703125 89.640625 158.128906 89.570312 159.511719 C 89.488281 161.074219 89.628906 162.5 90.097656 162.449219 C 90.894531 162.363281 89.984375 159.765625 90.773438 159.632812 C 91.242188 159.550781 90.511719 163.519531 91.53125 163.46875 C 92.445312 163.421875 91.269531 160.226562 92.015625 160.15625 C 92.761719 160.082031 92.128906 163.75 93.136719 163.730469 C 94.082031 163.714844 92.8125 160.367188 93.253906 159.8125 C 93.257812 159.808594 93.265625 159.808594 93.269531 159.804688 C 93.296875 159.777344 93.324219 159.75 93.367188 159.742188 C 94.097656 159.574219 93.679688 162.722656 94.636719 162.675781 C 95.480469 162.632812 94.058594 158.957031 94.714844 158.367188 C 95.300781 157.832031 95.703125 159.789062 96.238281 159.375 C 96.855469 158.894531 95.222656 156.644531 94.285156 155.882812 Z M 94.207031 154.917969 C 94.199219 154.945312 94.195312 154.976562 94.1875 155.003906 C 94.195312 154.976562 94.203125 154.945312 94.207031 154.917969 Z M 85.980469 142.210938 C 85.929688 141.859375 86.503906 140.292969 87.359375 138.207031 C 86.320312 139.195312 85.757812 140.667969 85.980469 142.210938 Z M 188.660156 137.121094 L 188.007812 135.761719 C 187.875 135.480469 187.535156 135.363281 187.253906 135.5 C 186.972656 135.632812 186.855469 135.972656 186.988281 136.253906 L 187.460938 137.234375 C 186.484375 137.578125 185.785156 138.503906 185.785156 139.597656 C 185.785156 140.914062 186.796875 141.992188 188.085938 142.097656 C 188.035156 141.910156 187.984375 141.722656 187.933594 141.542969 C 188.269531 141.316406 188.574219 140.933594 188.917969 140.410156 C 188.953125 140.355469 188.988281 140.289062 189.023438 140.210938 C 189.5 140.398438 189.964844 140.636719 190.425781 140.90625 C 190.65625 140.523438 190.792969 140.078125 190.792969 139.597656 C 190.792969 138.339844 189.867188 137.300781 188.660156 137.121094 Z M 188.660156 137.121094 " fill-opacity="1" fill-rule="nonzero"/><path fill="#e84393" d="M 121.597656 76.386719 L 121.597656 71.964844 C 121.597656 71.582031 121.90625 71.273438 122.289062 71.273438 C 122.671875 71.273438 122.980469 71.582031 122.980469 71.964844 L 122.980469 76.386719 C 122.980469 76.769531 122.671875 77.078125 122.289062 77.078125 C 121.90625 77.078125 121.597656 76.769531 121.597656 76.386719 Z M 122.289062 93.113281 C 122.671875 93.113281 122.980469 92.804688 122.980469 92.421875 L 122.980469 88 C 122.980469 87.617188 122.671875 87.308594 122.289062 87.308594 C 121.90625 87.308594 121.597656 87.617188 121.597656 88 L 121.597656 92.421875 C 121.597656 92.804688 121.90625 93.113281 122.289062 93.113281 Z M 112.0625 82.882812 L 116.484375 82.882812 C 116.867188 82.882812 117.175781 82.574219 117.175781 82.195312 C 117.175781 81.8125 116.867188 81.503906 116.484375 81.503906 L 112.0625 81.503906 C 111.679688 81.503906 111.371094 81.8125 111.371094 82.195312 C 111.371094 82.574219 111.679688 82.882812 112.0625 82.882812 Z M 127.402344 82.195312 C 127.402344 82.574219 127.714844 82.882812 128.09375 82.882812 L 132.519531 82.882812 C 132.898438 82.882812 133.207031 82.574219 133.207031 82.195312 C 133.207031 81.8125 132.898438 81.503906 132.519531 81.503906 L 128.09375 81.503906 C 127.714844 81.503906 127.402344 81.8125 127.402344 82.195312 Z M 117.695312 78.578125 C 117.832031 78.710938 118.007812 78.777344 118.183594 78.777344 C 118.359375 78.777344 118.539062 78.710938 118.671875 78.578125 C 118.941406 78.308594 118.941406 77.871094 118.671875 77.601562 L 115.542969 74.472656 C 115.273438 74.203125 114.839844 74.203125 114.570312 74.472656 C 114.296875 74.742188 114.296875 75.179688 114.570312 75.449219 Z M 129.035156 89.914062 C 129.167969 90.050781 129.34375 90.117188 129.523438 90.117188 C 129.699219 90.117188 129.875 90.050781 130.011719 89.914062 C 130.28125 89.644531 130.28125 89.207031 130.011719 88.9375 L 126.882812 85.808594 C 126.613281 85.539062 126.175781 85.539062 125.90625 85.808594 C 125.636719 86.078125 125.636719 86.515625 125.90625 86.785156 Z M 117.695312 85.808594 L 114.570312 88.9375 C 114.296875 89.207031 114.296875 89.644531 114.570312 89.914062 C 114.703125 90.050781 114.878906 90.117188 115.054688 90.117188 C 115.234375 90.117188 115.410156 90.050781 115.542969 89.914062 L 118.671875 86.785156 C 118.941406 86.515625 118.941406 86.078125 118.671875 85.808594 C 118.402344 85.539062 117.964844 85.539062 117.695312 85.808594 Z M 126.394531 78.777344 C 126.570312 78.777344 126.746094 78.710938 126.882812 78.578125 L 130.011719 75.449219 C 130.28125 75.179688 130.28125 74.742188 130.011719 74.472656 C 129.742188 74.203125 129.304688 74.203125 129.035156 74.472656 L 125.90625 77.601562 C 125.636719 77.871094 125.636719 78.308594 125.90625 78.578125 C 126.039062 78.710938 126.21875 78.777344 126.394531 78.777344 Z M 229.332031 110.671875 C 229.699219 110.671875 229.992188 110.375 229.992188 110.011719 L 229.992188 105.785156 C 229.992188 105.421875 229.699219 105.128906 229.332031 105.128906 C 228.96875 105.128906 228.675781 105.421875 228.675781 105.785156 L 228.675781 110.011719 C 228.675781 110.375 228.96875 110.671875 229.332031 110.671875 Z M 229.332031 125.988281 C 229.699219 125.988281 229.992188 125.695312 229.992188 125.328125 L 229.992188 121.101562 C 229.992188 120.738281 229.699219 120.445312 229.332031 120.445312 C 228.96875 120.445312 228.675781 120.738281 228.675781 121.101562 L 228.675781 125.328125 C 228.675781 125.695312 228.96875 125.988281 229.332031 125.988281 Z M 219.5625 116.21875 L 223.789062 116.21875 C 224.152344 116.21875 224.445312 115.921875 224.445312 115.558594 C 224.445312 115.195312 224.152344 114.898438 223.789062 114.898438 L 219.5625 114.898438 C 219.199219 114.898438 218.902344 115.195312 218.902344 115.558594 C 218.902344 115.921875 219.199219 116.21875 219.5625 116.21875 Z M 239.105469 114.898438 L 234.878906 114.898438 C 234.515625 114.898438 234.21875 115.195312 234.21875 115.558594 C 234.21875 115.921875 234.515625 116.21875 234.878906 116.21875 L 239.105469 116.21875 C 239.46875 116.21875 239.765625 115.921875 239.765625 115.558594 C 239.765625 115.195312 239.46875 114.898438 239.105469 114.898438 Z M 224.945312 112.101562 C 225.074219 112.230469 225.242188 112.296875 225.410156 112.296875 C 225.582031 112.296875 225.75 112.230469 225.878906 112.101562 C 226.136719 111.847656 226.136719 111.429688 225.878906 111.171875 L 222.890625 108.183594 C 222.632812 107.925781 222.214844 107.925781 221.957031 108.183594 C 221.699219 108.441406 221.699219 108.859375 221.957031 109.117188 Z M 235.777344 122.933594 C 235.90625 123.0625 236.074219 123.128906 236.242188 123.128906 C 236.410156 123.128906 236.582031 123.0625 236.710938 122.933594 C 236.964844 122.675781 236.964844 122.257812 236.710938 122 L 233.722656 119.011719 C 233.464844 118.753906 233.046875 118.753906 232.789062 119.011719 C 232.53125 119.269531 232.53125 119.6875 232.789062 119.945312 Z M 224.945312 119.011719 L 221.957031 122 C 221.699219 122.257812 221.699219 122.675781 221.957031 122.933594 C 222.085938 123.0625 222.253906 123.128906 222.421875 123.128906 C 222.59375 123.128906 222.761719 123.0625 222.890625 122.933594 L 225.878906 119.945312 C 226.136719 119.6875 226.136719 119.269531 225.878906 119.011719 C 225.621094 118.753906 225.203125 118.753906 224.945312 119.011719 Z M 233.253906 112.296875 C 233.421875 112.296875 233.59375 112.230469 233.722656 112.101562 L 236.707031 109.117188 C 236.964844 108.859375 236.964844 108.441406 236.707031 108.183594 C 236.453125 107.925781 236.035156 107.925781 235.777344 108.183594 L 232.789062 111.171875 C 232.53125 111.429688 232.53125 111.847656 232.789062 112.101562 C 232.917969 112.230469 233.085938 112.296875 233.253906 112.296875 Z M 88.691406 197.859375 C 88.707031 197.84375 88.71875 197.832031 88.734375 197.816406 L 88.617188 197.738281 C 88.644531 197.777344 88.667969 197.816406 88.691406 197.859375 Z M 80.59375 198.28125 C 81.304688 196.707031 82.898438 195.613281 84.753906 195.613281 C 85.234375 195.613281 85.699219 195.6875 86.136719 195.824219 L 87.445312 193.859375 C 87.265625 193.957031 87.105469 194.058594 86.972656 194.160156 C 89.113281 191.03125 94.15625 183.101562 91.222656 181.972656 C 88.777344 181.035156 87.058594 183.019531 86.183594 184.453125 C 87.988281 180.863281 92.585938 171.164062 88.820312 172.457031 C 84.214844 174.035156 83.699219 180.101562 83.699219 180.101562 C 83.699219 180.101562 82.296875 178.761719 82.582031 174.621094 C 82.871094 170.480469 85.597656 158.519531 79.476562 161.210938 C 73.355469 163.898438 73.480469 171.367188 75.992188 175.210938 C 78.507812 179.058594 72.253906 170.316406 70.160156 173.761719 C 68.390625 176.667969 72.75 183.332031 74.726562 185.433594 C 72.203125 184.367188 68.054688 183.046875 70.109375 186.910156 C 72.980469 192.304688 80.160156 194.335938 80.160156 194.335938 C 80.160156 194.335938 79.441406 194.234375 78.464844 194.140625 C 79.65625 195.171875 80.449219 196.632812 80.59375 198.28125 Z M 185.621094 102.414062 C 185.660156 102.167969 185.726562 99 185.066406 99.398438 C 183.300781 100.460938 183.890625 102.492188 185.1875 103.820312 C 185.394531 103.386719 185.539062 102.90625 185.621094 102.414062 Z M 163.351562 96.097656 C 163.316406 86.046875 171.5 77.835938 181.550781 77.835938 C 191.601562 77.835938 199.75 85.984375 199.75 96.035156 C 199.75 101.117188 197.667969 105.710938 194.308594 109.011719 C 191.683594 111.59375 189.757812 114.796875 188.796875 118.351562 L 187.992188 121.328125 L 188.019531 121.042969 L 174.847656 121.128906 L 174.851562 121.167969 L 174.011719 118.066406 C 173.070312 114.585938 171.210938 111.4375 168.664062 108.882812 C 165.394531 105.605469 163.371094 101.089844 163.351562 96.097656 Z M 172.839844 102.25 C 174.382812 108.269531 175.828125 114.320312 177.109375 120.402344 C 177.265625 121.128906 178.398438 120.914062 178.242188 120.1875 C 177.097656 114.792969 175.824219 109.429688 174.386719 104.109375 C 174.96875 104.886719 175.746094 105.5 176.742188 105.859375 C 177.738281 106.21875 178.90625 106.167969 179.917969 105.785156 C 181.230469 106.726562 183.246094 106.90625 184.621094 106.058594 C 184.9375 105.863281 185.210938 105.617188 185.445312 105.339844 C 185.707031 105.511719 185.976562 105.664062 186.246094 105.789062 C 187.472656 106.347656 188.59375 106.195312 189.464844 105.554688 C 187.820312 110.472656 186.105469 115.371094 184.277344 120.222656 C 184.015625 120.921875 185.089844 121.347656 185.351562 120.652344 C 187.53125 114.824219 189.558594 108.945312 191.371094 102.996094 C 191.558594 102.382812 190.640625 102.003906 190.441406 102.625 C 190.382812 102.792969 190.328125 102.957031 190.273438 103.125 C 190.085938 103.144531 189.90625 103.246094 189.820312 103.464844 C 189.03125 105.460938 187.355469 105.394531 186 104.496094 C 186.347656 103.8125 186.554688 103.042969 186.65625 102.320312 C 186.816406 101.171875 186.871094 99.148438 185.667969 98.476562 C 184.160156 97.640625 182.921875 100.195312 182.925781 101.328125 C 182.933594 102.59375 183.652344 103.792969 184.613281 104.683594 C 184.117188 105.238281 183.441406 105.597656 182.566406 105.589844 C 181.964844 105.582031 181.433594 105.449219 180.972656 105.21875 C 181.054688 105.160156 181.132812 105.097656 181.207031 105.035156 C 182.582031 103.863281 182.941406 102.148438 182.558594 100.429688 C 182.316406 99.328125 181.4375 97.671875 180.050781 98.25 C 178.855469 98.746094 178.308594 100.324219 178.171875 101.503906 C 178.019531 102.804688 178.304688 104.03125 179.085938 104.996094 C 177.386719 105.425781 175.652344 104.421875 174.796875 102.914062 C 174.535156 102.453125 174.386719 101.941406 174.257812 101.429688 C 174.097656 100.796875 173.136719 101.058594 173.273438 101.683594 C 173 101.703125 172.753906 101.90625 172.839844 102.25 Z M 181.207031 99.703125 C 180.226562 98.070312 179.230469 100.855469 179.164062 101.699219 C 179.078125 102.824219 179.417969 103.847656 180.09375 104.5625 C 181.699219 103.546875 182.230469 101.410156 181.207031 99.703125 Z M 174.847656 121.128906 L 174.851562 121.167969 L 175.480469 123.492188 L 187.410156 123.492188 L 187.992188 121.328125 L 188.019531 121.042969 Z M 181.640625 73.972656 C 182.410156 73.972656 183.035156 69.753906 183.035156 68.582031 C 183.035156 67.410156 182.410156 66.460938 181.640625 66.460938 C 180.871094 66.460938 180.25 67.410156 180.25 68.582031 C 180.25 69.753906 180.871094 73.972656 181.640625 73.972656 Z M 202.203125 77.171875 C 203.09375 76.40625 203.40625 75.3125 202.90625 74.730469 C 202.40625 74.148438 201.277344 74.292969 200.386719 75.058594 C 199.5 75.820312 196.707031 79.042969 197.207031 79.625 C 197.710938 80.210938 201.3125 77.933594 202.203125 77.171875 Z M 201.628906 93.167969 C 201.726562 93.933594 205.988281 94.019531 207.152344 93.871094 C 208.316406 93.722656 209.179688 92.984375 209.082031 92.222656 C 208.984375 91.460938 207.964844 90.960938 206.800781 91.109375 C 205.636719 91.257812 201.535156 92.40625 201.628906 93.167969 Z M 162.769531 75.851562 C 163.695312 76.574219 167.398438 78.683594 167.871094 78.078125 C 168.34375 77.472656 165.410156 74.382812 164.488281 73.65625 C 163.5625 72.933594 162.429688 72.839844 161.957031 73.445312 C 161.484375 74.050781 161.847656 75.128906 162.769531 75.851562 Z M 155.675781 90.859375 C 156.839844 91.003906 161.097656 90.917969 161.195312 90.15625 C 161.292969 89.390625 157.1875 88.242188 156.023438 88.09375 C 154.863281 87.945312 153.839844 88.445312 153.742188 89.207031 C 153.648438 89.972656 154.511719 90.710938 155.675781 90.859375 Z M 155.675781 90.859375 " fill-opacity="1" fill-rule="nonzero"/><path fill="#fbc02d" d="M 164.042969 143.773438 C 164.070312 144.1875 164.410156 145.875 164.195312 146.203125 L 164.152344 146.207031 L 158.574219 146.722656 C 158.574219 146.722656 158.621094 147.101562 158.417969 147.734375 C 158.300781 148.097656 158.105469 148.542969 157.765625 149.050781 C 156.496094 150.953125 153.742188 151.8125 153.742188 151.8125 L 150.914062 160.214844 L 135.863281 160.214844 C 135.863281 160.214844 137.816406 151.082031 138.03125 150.351562 C 138.5 148.765625 139.222656 147.070312 139.949219 145.5625 C 140.914062 143.550781 141.878906 141.878906 142.246094 141.257812 C 141.882812 141.328125 140.925781 140.527344 139.988281 139.628906 C 139.367188 139.03125 138.753906 138.398438 138.324219 137.945312 C 138.050781 137.652344 137.847656 137.4375 137.769531 137.355469 C 137.769531 137.355469 139.667969 135.222656 141.527344 133.152344 C 141.914062 132.722656 142.300781 132.292969 142.667969 131.886719 C 143.601562 131.125 144.832031 131.394531 145.679688 131.773438 L 150.066406 132.492188 L 150.652344 131.488281 L 151.316406 131.757812 L 157.175781 134.144531 L 157.765625 134.386719 L 157.558594 135.28125 L 162.539062 138.644531 C 164.027344 139.3125 163.824219 140.328125 164.042969 143.773438 Z M 93.417969 199.902344 C 93.308594 199.894531 93.195312 199.894531 93.085938 199.894531 C 92.75 199.894531 92.417969 199.921875 92.097656 199.96875 C 91.015625 200.128906 90.023438 200.546875 89.175781 201.152344 C 89.257812 200.816406 89.304688 200.464844 89.304688 200.105469 C 89.304688 199.285156 89.082031 198.519531 88.691406 197.859375 C 88.667969 197.816406 88.644531 197.777344 88.617188 197.738281 L 86.019531 196 L 86.136719 195.824219 C 85.699219 195.6875 85.234375 195.613281 84.753906 195.613281 C 82.898438 195.613281 81.304688 196.710938 80.59375 198.28125 C 80.449219 196.632812 79.65625 195.171875 78.46875 194.140625 C 77.355469 193.175781 75.894531 192.585938 74.296875 192.585938 C 70.800781 192.585938 67.96875 195.378906 67.96875 198.828125 C 67.96875 199.574219 68.109375 200.289062 68.355469 200.957031 C 68.226562 200.945312 68.097656 200.9375 67.96875 200.9375 C 65.613281 200.9375 63.699219 202.785156 63.628906 205.09375 L 99.597656 205.09375 C 98.980469 202.226562 96.46875 200.046875 93.417969 199.902344 Z M 211.863281 152.015625 C 211.78125 152.03125 211.699219 152.050781 211.609375 152.0625 C 211.191406 152.117188 208.957031 153.007812 206.160156 154.105469 C 205.125 158.488281 205.734375 162.457031 205.734375 162.457031 C 205.832031 166.460938 208.222656 167.050781 215.355469 166.984375 C 215.046875 163.363281 214.191406 157.703125 211.863281 152.015625 Z M 113.191406 118.980469 L 117.84375 118.964844 L 116.621094 119.1875 C 116.273438 119.660156 116.332031 120.90625 116.621094 122.460938 L 116.621094 146.199219 L 116.238281 147.65625 L 111.484375 147.546875 C 111.484375 147.519531 111.488281 147.503906 111.488281 147.503906 L 109.667969 147.503906 L 103.109375 147.355469 C 103.109375 147.355469 103.042969 147.109375 102.933594 146.707031 L 102.933594 119.007812 L 104.339844 119.003906 L 104.652344 116.726562 L 112.816406 116.703125 Z M 111.96875 142.8125 L 111.335938 124.726562 L 111.882812 124.726562 L 111.882812 121.773438 L 110.40625 120.757812 L 108.925781 121.773438 L 108.925781 124.726562 L 109.476562 124.726562 L 108.84375 142.8125 L 110.402344 143.773438 Z M 111.96875 142.8125 " fill-opacity="1" fill-rule="nonzero"/><path fill="#0984e3" d="M 158.503906 124.761719 C 158.675781 124.808594 158.742188 125.074219 158.660156 125.347656 C 158.578125 125.625 158.371094 125.808594 158.203125 125.761719 C 158.03125 125.710938 157.960938 125.445312 158.042969 125.171875 C 158.128906 124.894531 158.335938 124.710938 158.503906 124.761719 Z M 161.441406 126.566406 C 161.359375 126.84375 161.425781 127.109375 161.597656 127.15625 C 161.769531 127.207031 161.976562 127.023438 162.058594 126.746094 C 162.140625 126.472656 162.074219 126.207031 161.902344 126.15625 C 161.734375 126.109375 161.523438 126.292969 161.441406 126.566406 Z M 152.6875 127.105469 C 152.699219 127.21875 152.730469 127.441406 152.769531 127.660156 C 152.78125 127.710938 152.792969 127.761719 152.804688 127.816406 C 152.878906 128.15625 152.984375 128.425781 153.105469 128.164062 C 153.238281 127.878906 153.914062 127.035156 153.824219 126.148438 C 153.734375 125.230469 153.824219 123.976562 154.832031 123.976562 C 155.511719 123.976562 155.359375 125.890625 155.359375 125.890625 C 155.359375 125.890625 155.75 125.285156 155.9375 124.832031 C 156.125 124.378906 156.457031 123.628906 157.925781 122.941406 C 158.746094 122.554688 159.019531 121.457031 159.097656 120.5625 C 159.117188 120.566406 159.132812 120.566406 159.148438 120.566406 C 159.21875 120.566406 159.28125 120.5625 159.347656 120.554688 C 159.507812 121.304688 159.78125 122.074219 160.242188 122.742188 C 161.273438 124.246094 162.613281 125.640625 163.398438 126.410156 L 163.65625 125.78125 C 164.195312 124.476562 164.152344 123.078125 163.652344 121.871094 C 163.589844 121.730469 163.523438 121.59375 163.453125 121.457031 C 163.425781 121.40625 163.394531 121.359375 163.367188 121.3125 C 163.320312 121.226562 163.269531 121.140625 163.21875 121.058594 C 163.179688 121 163.140625 120.945312 163.097656 120.890625 C 163.050781 120.820312 163 120.753906 162.949219 120.6875 C 162.902344 120.628906 162.851562 120.570312 162.804688 120.511719 C 162.753906 120.453125 162.699219 120.394531 162.648438 120.339844 C 162.589844 120.28125 162.535156 120.222656 162.476562 120.167969 C 162.425781 120.117188 162.371094 120.066406 162.316406 120.019531 C 162.25 119.960938 162.1875 119.90625 162.117188 119.851562 C 162.066406 119.808594 162.011719 119.769531 161.953125 119.730469 C 161.882812 119.675781 161.808594 119.621094 161.730469 119.570312 C 161.679688 119.539062 161.625 119.507812 161.570312 119.476562 C 161.488281 119.425781 161.402344 119.371094 161.3125 119.328125 C 161.3125 119.324219 161.3125 119.324219 161.3125 119.324219 C 161.53125 118.953125 161.660156 118.519531 161.660156 118.054688 C 161.660156 116.667969 160.535156 115.546875 159.148438 115.546875 C 157.761719 115.546875 156.640625 116.671875 156.640625 118.054688 C 156.640625 118.453125 156.734375 118.828125 156.898438 119.164062 C 156.894531 119.164062 156.890625 119.167969 156.886719 119.167969 C 156.609375 119.289062 156.34375 119.4375 156.09375 119.605469 C 156.0625 119.625 156.035156 119.644531 156.007812 119.664062 C 155.914062 119.730469 155.820312 119.800781 155.730469 119.875 C 155.699219 119.898438 155.667969 119.921875 155.636719 119.949219 C 155.539062 120.03125 155.445312 120.117188 155.355469 120.207031 C 155.339844 120.222656 155.320312 120.238281 155.304688 120.253906 C 155.203125 120.359375 155.101562 120.46875 155.007812 120.585938 C 154.980469 120.617188 154.957031 120.648438 154.933594 120.679688 C 154.863281 120.765625 154.796875 120.855469 154.734375 120.945312 C 154.707031 120.988281 154.675781 121.035156 154.648438 121.078125 C 154.589844 121.167969 154.539062 121.257812 154.488281 121.347656 C 154.460938 121.394531 154.4375 121.433594 154.414062 121.480469 C 154.34375 121.617188 154.277344 121.753906 154.214844 121.902344 L 153.050781 124.742188 C 152.742188 125.488281 152.625 126.265625 152.675781 127.023438 C 152.675781 127.023438 152.679688 127.054688 152.6875 127.105469 Z M 204.378906 130.050781 C 204.214844 130.066406 204.09375 130.304688 204.117188 130.578125 C 204.144531 130.855469 204.300781 131.0625 204.46875 131.046875 C 204.636719 131.03125 204.753906 130.792969 204.730469 130.515625 C 204.707031 130.242188 204.550781 130.03125 204.378906 130.050781 Z M 202.632812 127.691406 C 202.632812 127.695312 202.632812 127.699219 202.632812 127.699219 L 202.667969 127.695312 C 202.910156 127.667969 206.625 127.605469 206.328125 127.730469 C 205.886719 129.074219 205.949219 130.394531 206.535156 131.332031 C 206.640625 130.929688 206.839844 130.558594 207.140625 130.273438 C 207.707031 129.734375 208.695312 129.570312 209.328125 130.113281 C 209.796875 130.523438 209.792969 131.167969 209.480469 131.675781 C 209.34375 131.898438 209.171875 132.089844 208.972656 132.238281 C 208.785156 132.382812 208.570312 132.492188 208.34375 132.5625 C 208.722656 132.636719 209.128906 132.640625 209.546875 132.574219 C 210.332031 132.464844 213.734375 131.398438 213.800781 131.34375 C 214.09375 131.117188 216.433594 129.207031 214.90625 124.40625 C 214.191406 122.144531 211.171875 120.382812 207.5625 121.34375 C 205.804688 121.8125 204.671875 122.652344 203.941406 123.582031 C 203.554688 123.882812 203.058594 124.117188 202.539062 123.960938 C 201.714844 123.710938 201.851562 122.554688 201.851562 122.554688 C 201.851562 122.554688 200.476562 122.964844 200.195312 124.679688 C 199.769531 127.269531 202.289062 127.652344 202.632812 127.691406 Z M 135.863281 160.214844 C 135.863281 160.214844 133.648438 170.34375 134.667969 172.851562 C 134.707031 172.949219 134.757812 173.042969 134.808594 173.136719 C 134.824219 173.160156 134.835938 173.179688 134.847656 173.203125 C 134.90625 173.292969 134.964844 173.382812 135.035156 173.46875 C 135.039062 173.472656 135.046875 173.476562 135.050781 173.484375 C 135.117188 173.566406 135.191406 173.644531 135.269531 173.71875 C 135.289062 173.738281 135.308594 173.757812 135.328125 173.777344 C 135.414062 173.855469 135.5 173.933594 135.597656 174.007812 C 135.609375 174.015625 135.621094 174.023438 135.632812 174.035156 C 135.722656 174.101562 135.816406 174.164062 135.914062 174.226562 C 135.9375 174.246094 135.964844 174.261719 135.988281 174.277344 C 136.097656 174.34375 136.210938 174.414062 136.332031 174.476562 C 136.351562 174.484375 136.371094 174.496094 136.390625 174.507812 C 136.5 174.5625 136.609375 174.617188 136.722656 174.667969 C 136.753906 174.683594 136.78125 174.695312 136.8125 174.710938 C 136.945312 174.769531 137.078125 174.824219 137.21875 174.878906 C 137.246094 174.890625 137.273438 174.902344 137.300781 174.910156 C 137.421875 174.957031 137.550781 175.003906 137.679688 175.046875 C 137.710938 175.058594 137.742188 175.070312 137.777344 175.082031 C 137.929688 175.128906 138.082031 175.175781 138.238281 175.222656 C 138.273438 175.234375 138.308594 175.242188 138.339844 175.253906 C 138.480469 175.292969 138.617188 175.328125 138.761719 175.367188 C 138.796875 175.375 138.828125 175.382812 138.863281 175.390625 C 139.03125 175.433594 139.199219 175.472656 139.371094 175.511719 C 139.410156 175.519531 139.449219 175.527344 139.488281 175.535156 C 139.640625 175.570312 139.796875 175.601562 139.953125 175.632812 C 139.984375 175.636719 140.015625 175.644531 140.050781 175.652344 C 140.230469 175.683594 140.414062 175.71875 140.597656 175.75 C 140.640625 175.757812 140.6875 175.761719 140.730469 175.769531 C 140.894531 175.796875 141.0625 175.824219 141.226562 175.847656 C 141.257812 175.851562 141.289062 175.855469 141.320312 175.859375 C 141.511719 175.890625 141.703125 175.914062 141.898438 175.941406 C 141.945312 175.945312 141.992188 175.953125 142.039062 175.957031 C 142.21875 175.980469 142.402344 176 142.585938 176.019531 C 142.605469 176.023438 142.625 176.027344 142.644531 176.027344 C 142.847656 176.050781 143.050781 176.070312 143.253906 176.089844 C 143.300781 176.09375 143.347656 176.097656 143.394531 176.101562 C 143.59375 176.121094 143.792969 176.140625 143.992188 176.15625 C 144 176.15625 144.007812 176.15625 144.015625 176.15625 C 144.222656 176.171875 144.433594 176.1875 144.640625 176.203125 C 144.6875 176.207031 144.738281 176.210938 144.785156 176.210938 C 145.203125 176.238281 145.625 176.265625 146.042969 176.285156 C 146.089844 176.285156 146.132812 176.289062 146.179688 176.289062 C 146.386719 176.300781 146.597656 176.308594 146.808594 176.316406 C 146.816406 176.316406 146.824219 176.316406 146.832031 176.316406 C 147.035156 176.324219 147.234375 176.332031 147.4375 176.339844 C 147.480469 176.339844 147.523438 176.339844 147.570312 176.34375 C 147.773438 176.347656 147.980469 176.355469 148.183594 176.359375 C 148.199219 176.359375 148.21875 176.359375 148.238281 176.359375 C 148.425781 176.363281 148.617188 176.367188 148.804688 176.371094 C 148.84375 176.371094 148.886719 176.371094 148.925781 176.371094 C 149.125 176.375 149.324219 176.378906 149.515625 176.378906 C 149.542969 176.378906 149.570312 176.378906 149.597656 176.382812 C 149.773438 176.382812 149.949219 176.382812 150.121094 176.386719 C 150.160156 176.386719 150.195312 176.386719 150.234375 176.386719 C 150.421875 176.386719 150.605469 176.386719 150.789062 176.386719 C 150.828125 176.386719 150.863281 176.386719 150.902344 176.386719 C 151.054688 176.386719 151.203125 176.386719 151.355469 176.386719 C 151.398438 176.386719 151.441406 176.386719 151.484375 176.386719 C 151.652344 176.386719 151.8125 176.386719 151.972656 176.386719 C 152.035156 176.386719 152.101562 176.386719 152.164062 176.382812 C 152.257812 176.382812 152.351562 176.382812 152.445312 176.382812 C 152.492188 176.382812 152.539062 176.382812 152.589844 176.382812 C 152.941406 175.792969 153.28125 175.203125 153.597656 174.601562 C 154.894531 172.148438 156.210938 169.824219 157.992188 167.839844 C 157.988281 167.839844 157.984375 167.839844 157.984375 167.835938 C 157.859375 167.742188 157.730469 167.648438 157.601562 167.554688 C 157.59375 167.546875 157.585938 167.542969 157.578125 167.539062 C 157.453125 167.445312 157.328125 167.359375 157.203125 167.269531 C 157.1875 167.261719 157.175781 167.25 157.160156 167.242188 C 157.039062 167.15625 156.917969 167.074219 156.792969 166.992188 C 156.773438 166.976562 156.753906 166.964844 156.730469 166.949219 C 156.613281 166.871094 156.496094 166.796875 156.375 166.71875 C 156.34375 166.699219 156.316406 166.683594 156.289062 166.664062 C 156.175781 166.59375 156.058594 166.523438 155.945312 166.453125 C 155.90625 166.433594 155.871094 166.414062 155.835938 166.390625 C 155.726562 166.324219 155.617188 166.261719 155.503906 166.199219 C 155.460938 166.175781 155.414062 166.148438 155.371094 166.125 C 155.265625 166.066406 155.160156 166.011719 155.058594 165.953125 C 155.003906 165.925781 154.953125 165.902344 154.898438 165.875 C 154.800781 165.824219 154.699219 165.773438 154.597656 165.722656 C 154.539062 165.691406 154.476562 165.664062 154.417969 165.636719 C 154.324219 165.589844 154.226562 165.546875 154.128906 165.5 C 154.0625 165.472656 153.992188 165.441406 153.925781 165.414062 C 153.835938 165.375 153.746094 165.332031 153.652344 165.296875 C 153.578125 165.265625 153.5 165.234375 153.421875 165.203125 C 153.335938 165.171875 153.253906 165.136719 153.167969 165.105469 C 153.082031 165.074219 152.992188 165.042969 152.90625 165.011719 C 152.828125 164.984375 152.75 164.957031 152.671875 164.929688 C 152.574219 164.898438 152.476562 164.871094 152.378906 164.839844 C 152.308594 164.820312 152.238281 164.796875 152.167969 164.777344 C 152.0625 164.746094 151.953125 164.71875 151.84375 164.6875 C 151.78125 164.671875 151.71875 164.65625 151.652344 164.640625 C 151.53125 164.609375 151.402344 164.582031 151.277344 164.554688 C 151.230469 164.546875 151.179688 164.535156 151.132812 164.523438 C 150.957031 164.488281 150.78125 164.457031 150.601562 164.429688 L 150.914062 160.214844 Z M 238.683594 146.074219 L 238.683594 205.347656 L 236.613281 205.347656 L 236.613281 183.253906 L 214.554688 183.253906 L 214.554688 205.347656 L 212.484375 205.347656 L 212.484375 181.183594 L 212.804688 181.183594 C 212.960938 178.601562 215.035156 176.539062 217.625 176.414062 C 215.273438 176.414062 212.640625 176.414062 210.144531 176.414062 C 210.355469 176.988281 211.335938 177.835938 211.589844 180.320312 C 212.109375 185.414062 211.417969 205.195312 211.417969 205.195312 C 211.417969 205.195312 203.359375 205.039062 202.285156 205.039062 L 203.359375 205.039062 L 197.816406 205.039062 L 198.167969 166.488281 L 168.230469 166.488281 L 168.226562 205.039062 L 163 205.039062 L 163 205.003906 L 156.410156 205.003906 C 156.410156 205.003906 156.410156 204.980469 156.40625 204.949219 C 156.402344 204.625 156.363281 202.632812 156.3125 199.859375 C 156.582031 199.898438 156.855469 199.925781 157.132812 199.925781 C 157.757812 199.925781 158.359375 199.820312 158.925781 199.636719 C 158.90625 199.675781 158.886719 199.722656 158.871094 199.765625 C 158.851562 199.800781 158.84375 199.839844 158.847656 199.882812 C 158.847656 199.902344 158.859375 199.929688 158.863281 199.953125 C 158.871094 199.972656 158.871094 199.988281 158.878906 200.007812 C 158.890625 200.039062 158.914062 200.070312 158.933594 200.101562 C 158.941406 200.117188 158.945312 200.128906 158.957031 200.144531 C 158.980469 200.175781 159.011719 200.210938 159.042969 200.242188 C 159.058594 200.257812 159.070312 200.273438 159.085938 200.289062 C 159.117188 200.324219 159.160156 200.355469 159.195312 200.390625 C 159.21875 200.410156 159.234375 200.425781 159.253906 200.441406 C 159.296875 200.476562 159.347656 200.515625 159.394531 200.550781 C 159.417969 200.566406 159.441406 200.585938 159.464844 200.601562 C 159.515625 200.636719 159.570312 200.675781 159.625 200.710938 C 159.652344 200.730469 159.679688 200.75 159.710938 200.769531 C 159.761719 200.804688 159.820312 200.835938 159.875 200.871094 C 159.914062 200.894531 159.949219 200.917969 159.992188 200.941406 C 160.046875 200.976562 160.105469 201.007812 160.164062 201.042969 C 160.207031 201.066406 160.25 201.09375 160.300781 201.121094 C 160.351562 201.148438 160.40625 201.179688 160.457031 201.207031 C 160.515625 201.238281 160.574219 201.269531 160.636719 201.304688 C 160.671875 201.324219 160.714844 201.34375 160.753906 201.363281 C 160.832031 201.40625 160.910156 201.445312 160.992188 201.488281 C 161.023438 201.503906 161.054688 201.519531 161.082031 201.535156 C 161.175781 201.582031 161.273438 201.628906 161.371094 201.675781 C 161.390625 201.6875 161.40625 201.695312 161.425781 201.703125 C 161.539062 201.757812 161.648438 201.8125 161.761719 201.867188 C 161.765625 201.871094 161.769531 201.871094 161.769531 201.871094 C 162.164062 202.058594 162.574219 202.25 162.984375 202.4375 L 162.925781 189.941406 L 162.835938 172.113281 L 162.773438 158.746094 C 162.78125 158.757812 203.359375 158.777344 203.359375 158.777344 L 203.359375 168.152344 C 205.847656 165.941406 210.015625 167.394531 216.699219 166.96875 C 216.535156 166.972656 216.375 166.972656 216.214844 166.976562 C 216.171875 166.976562 216.128906 166.976562 216.085938 166.976562 C 215.835938 166.980469 215.59375 166.984375 215.355469 166.984375 C 215.046875 163.363281 214.191406 157.699219 211.867188 152.015625 C 211.78125 152.03125 211.699219 152.050781 211.609375 152.0625 C 211.191406 152.117188 208.957031 153.007812 206.160156 154.105469 C 200.621094 156.28125 192.867188 159.277344 192.574219 158.265625 C 192.160156 156.851562 189.640625 147.738281 188.085938 142.097656 C 188.035156 141.910156 187.984375 141.722656 187.933594 141.542969 C 188.269531 141.316406 188.574219 140.933594 188.917969 140.410156 C 188.953125 140.355469 188.988281 140.289062 189.027344 140.210938 C 189.5 140.398438 189.96875 140.636719 190.425781 140.90625 C 193.277344 142.582031 195.722656 145.636719 196.972656 147.773438 C 198.945312 146.738281 206.019531 140.128906 207.878906 139.34375 L 208.40625 139.015625 L 214.699219 135.097656 C 214.699219 135.097656 214.917969 135.136719 215.292969 135.226562 C 216.820312 135.59375 220.960938 136.851562 223.414062 140.105469 C 223.546875 140.277344 223.675781 140.453125 223.800781 140.628906 C 223.84375 140.683594 223.882812 140.746094 223.925781 140.800781 C 224.007812 140.921875 224.09375 141.039062 224.175781 141.15625 C 224.222656 141.226562 224.269531 141.296875 224.316406 141.367188 C 224.390625 141.476562 224.464844 141.582031 224.535156 141.691406 C 224.585938 141.765625 224.632812 141.84375 224.683594 141.917969 C 224.75 142.023438 224.820312 142.125 224.886719 142.230469 C 224.933594 142.308594 224.984375 142.386719 225.03125 142.464844 C 225.097656 142.566406 225.160156 142.671875 225.222656 142.773438 C 225.273438 142.851562 225.320312 142.933594 225.367188 143.011719 C 225.429688 143.113281 225.488281 143.21875 225.550781 143.320312 C 225.597656 143.402344 225.644531 143.484375 225.6875 143.566406 C 225.746094 143.667969 225.808594 143.769531 225.863281 143.875 C 225.910156 143.953125 225.953125 144.035156 226 144.117188 C 226.054688 144.222656 226.113281 144.324219 226.167969 144.429688 C 226.210938 144.511719 226.253906 144.59375 226.296875 144.675781 C 226.351562 144.777344 226.40625 144.882812 226.460938 144.984375 C 226.503906 145.066406 226.546875 145.152344 226.585938 145.234375 C 226.640625 145.339844 226.691406 145.441406 226.742188 145.546875 C 226.785156 145.628906 226.824219 145.710938 226.863281 145.792969 C 226.914062 145.898438 226.964844 146.003906 227.015625 146.109375 C 227.054688 146.191406 227.089844 146.273438 227.128906 146.351562 C 227.179688 146.460938 227.226562 146.566406 227.277344 146.671875 C 227.3125 146.753906 227.347656 146.835938 227.386719 146.917969 C 227.433594 147.023438 227.480469 147.128906 227.527344 147.238281 C 227.5625 147.316406 227.597656 147.398438 227.632812 147.480469 C 227.675781 147.589844 227.722656 147.695312 227.765625 147.800781 C 227.800781 147.882812 227.835938 147.964844 227.867188 148.046875 C 227.910156 148.152344 227.957031 148.261719 228 148.367188 C 228.03125 148.449219 228.0625 148.527344 228.09375 148.609375 C 228.136719 148.71875 228.179688 148.828125 228.222656 148.933594 C 228.25 149.015625 228.28125 149.089844 228.308594 149.167969 C 228.351562 149.28125 228.394531 149.390625 228.433594 149.503906 C 228.460938 149.578125 228.488281 149.652344 228.515625 149.730469 C 228.558594 149.84375 228.597656 149.953125 228.636719 150.066406 C 228.664062 150.140625 228.691406 150.214844 228.714844 150.289062 C 228.753906 150.402344 228.792969 150.515625 228.832031 150.628906 C 228.855469 150.703125 228.882812 150.777344 228.90625 150.847656 C 228.941406 150.964844 228.980469 151.078125 229.019531 151.191406 C 229.039062 151.261719 229.0625 151.335938 229.085938 151.40625 C 229.121094 151.519531 229.160156 151.632812 229.195312 151.75 C 229.214844 151.820312 229.238281 151.890625 229.257812 151.960938 C 229.296875 152.074219 229.328125 152.191406 229.363281 152.308594 C 229.382812 152.375 229.402344 152.441406 229.421875 152.507812 C 229.457031 152.628906 229.492188 152.746094 229.527344 152.867188 C 229.542969 152.929688 229.5625 152.992188 229.578125 153.054688 C 229.613281 153.175781 229.644531 153.296875 229.679688 153.417969 C 229.695312 153.476562 229.710938 153.535156 229.726562 153.597656 C 229.761719 153.71875 229.792969 153.839844 229.824219 153.964844 C 229.839844 154.019531 229.855469 154.078125 229.867188 154.136719 C 229.902344 154.261719 229.929688 154.386719 229.960938 154.511719 C 229.976562 154.5625 229.988281 154.617188 230 154.667969 C 230.03125 154.796875 230.0625 154.925781 230.09375 155.050781 C 230.105469 155.101562 230.117188 155.148438 230.128906 155.195312 C 230.160156 155.328125 230.1875 155.460938 230.21875 155.589844 C 230.226562 155.632812 230.238281 155.675781 230.246094 155.71875 C 230.277344 155.855469 230.304688 155.992188 230.335938 156.125 C 230.34375 156.164062 230.351562 156.199219 230.359375 156.234375 C 230.386719 156.375 230.417969 156.515625 230.445312 156.65625 C 230.453125 156.6875 230.457031 156.714844 230.464844 156.746094 C 230.496094 156.902344 230.527344 157.054688 230.554688 157.207031 C 230.558594 157.21875 230.5625 157.234375 230.5625 157.246094 C 230.855469 158.757812 231.058594 160.167969 231.203125 161.417969 C 231.203125 161.421875 231.203125 161.425781 231.203125 161.429688 C 231.21875 161.5625 231.234375 161.695312 231.25 161.824219 C 231.25 161.835938 231.25 161.84375 231.25 161.855469 C 231.265625 161.976562 231.277344 162.097656 231.289062 162.21875 C 231.292969 162.234375 231.292969 162.253906 231.292969 162.269531 C 231.304688 162.382812 231.316406 162.492188 231.328125 162.597656 C 231.328125 162.621094 231.332031 162.640625 231.332031 162.664062 C 231.34375 162.765625 231.351562 162.871094 231.359375 162.972656 C 231.363281 162.992188 231.363281 163.011719 231.367188 163.03125 C 231.375 163.132812 231.382812 163.230469 231.390625 163.328125 C 231.390625 163.347656 231.394531 163.371094 231.394531 163.390625 C 231.402344 163.484375 231.410156 163.578125 231.417969 163.667969 C 231.417969 163.691406 231.417969 163.71875 231.421875 163.742188 C 231.429688 163.828125 231.433594 163.914062 231.4375 163.996094 C 231.441406 164.019531 231.441406 164.042969 231.445312 164.070312 C 231.449219 164.148438 231.453125 164.230469 231.460938 164.308594 C 231.460938 164.332031 231.460938 164.355469 231.464844 164.382812 C 231.46875 164.457031 231.472656 164.535156 231.476562 164.609375 C 231.476562 164.628906 231.480469 164.652344 231.480469 164.675781 C 231.484375 164.75 231.488281 164.820312 231.492188 164.890625 C 231.492188 164.914062 231.492188 164.933594 231.496094 164.957031 C 231.496094 165.023438 231.5 165.089844 231.503906 165.15625 C 231.503906 165.179688 231.503906 165.199219 231.507812 165.21875 C 231.507812 165.28125 231.511719 165.34375 231.511719 165.402344 C 231.515625 165.425781 231.515625 165.449219 231.515625 165.46875 C 231.519531 165.527344 231.519531 165.582031 231.523438 165.636719 C 231.523438 165.65625 231.523438 165.675781 231.523438 165.695312 C 231.527344 165.75 231.527344 165.800781 231.527344 165.851562 C 231.527344 165.871094 231.53125 165.890625 231.53125 165.90625 C 231.53125 165.957031 231.53125 166.003906 231.53125 166.050781 C 231.535156 166.066406 231.535156 166.085938 231.535156 166.101562 C 231.535156 166.144531 231.535156 166.1875 231.535156 166.230469 C 231.535156 166.242188 231.535156 166.257812 231.539062 166.273438 C 231.539062 166.316406 231.539062 166.355469 231.539062 166.394531 C 231.539062 166.402344 231.539062 166.414062 231.539062 166.425781 C 231.539062 166.46875 231.539062 166.503906 231.539062 166.542969 C 231.539062 166.546875 231.539062 166.554688 231.539062 166.558594 C 231.539062 166.59375 231.539062 166.628906 231.539062 166.65625 C 231.539062 166.664062 231.539062 166.671875 231.539062 166.679688 C 231.539062 166.707031 231.539062 166.734375 231.539062 166.761719 C 231.539062 166.765625 231.539062 166.769531 231.539062 166.773438 C 231.539062 166.800781 231.539062 166.824219 231.539062 166.84375 C 231.539062 166.84375 231.539062 166.847656 231.539062 166.847656 C 231.539062 166.871094 231.539062 166.886719 231.539062 166.902344 C 231.539062 166.90625 231.539062 166.910156 231.539062 166.910156 C 231.582031 166.910156 231.609375 166.914062 231.609375 166.914062 C 231.609375 166.914062 232.902344 176.136719 224.882812 176.402344 L 231.222656 176.402344 C 233.929688 176.402344 236.132812 178.515625 236.296875 181.183594 L 236.617188 181.183594 L 236.617188 167.3125 C 233.980469 167.144531 231.898438 165.246094 231.898438 162.914062 L 231.898438 151.34375 C 231.898438 149.015625 233.980469 147.117188 236.617188 146.949219 L 236.617188 146.074219 Z M 207.300781 199.925781 C 206.179688 197.039062 204.75 193.316406 203.359375 189.550781 L 203.359375 201.609375 C 205.523438 200.960938 207.457031 200.324219 207.300781 199.925781 Z M 150.171875 176.496094 C 149.851562 176.433594 149.523438 176.402344 149.1875 176.402344 L 135.847656 176.402344 C 134.667969 176.402344 133.585938 176.804688 132.722656 177.476562 C 131.605469 178.347656 130.863281 179.675781 130.773438 181.183594 L 130.453125 181.183594 L 130.453125 167.3125 C 131.933594 167.21875 133.238281 166.578125 134.097656 165.621094 C 134.765625 164.875 135.167969 163.9375 135.167969 162.914062 L 135.167969 151.34375 C 135.167969 149.015625 133.085938 147.117188 130.453125 146.949219 L 130.453125 146.074219 L 128.382812 146.074219 L 128.382812 203.949219 C 127.394531 203.855469 126.382812 203.800781 125.804688 203.570312 C 125.148438 203.308594 123.675781 201.707031 123.675781 201.707031 L 123.625 201.707031 L 119.183594 152.117188 C 120.242188 151.476562 121.296875 150.457031 121.597656 148.871094 C 121.996094 146.792969 122.640625 137.890625 123.101562 131.003906 C 123.101562 131.003906 131.886719 126.28125 136.335938 123.609375 C 137.691406 122.796875 138.640625 122.175781 138.824219 121.933594 C 138.859375 121.886719 138.898438 121.835938 138.941406 121.78125 C 138.953125 121.761719 138.96875 121.738281 138.980469 121.71875 C 139.007812 121.679688 139.039062 121.636719 139.070312 121.59375 C 139.085938 121.566406 139.105469 121.539062 139.121094 121.515625 C 139.152344 121.472656 139.179688 121.425781 139.210938 121.378906 C 139.230469 121.347656 139.253906 121.316406 139.273438 121.28125 C 139.304688 121.234375 139.335938 121.1875 139.367188 121.136719 C 139.390625 121.101562 139.414062 121.066406 139.433594 121.03125 C 139.46875 120.976562 139.5 120.925781 139.535156 120.871094 C 139.558594 120.832031 139.585938 120.789062 139.609375 120.75 C 139.644531 120.695312 139.679688 120.636719 139.714844 120.578125 C 139.738281 120.535156 139.765625 120.496094 139.789062 120.453125 C 139.828125 120.390625 139.867188 120.328125 139.90625 120.261719 C 139.929688 120.21875 139.957031 120.171875 139.984375 120.128906 C 140.023438 120.0625 140.0625 119.996094 140.101562 119.925781 C 140.128906 119.878906 140.160156 119.832031 140.1875 119.785156 C 140.226562 119.714844 140.269531 119.644531 140.308594 119.570312 C 140.339844 119.519531 140.367188 119.46875 140.394531 119.417969 C 140.4375 119.347656 140.480469 119.273438 140.519531 119.199219 C 140.550781 119.144531 140.582031 119.09375 140.613281 119.039062 C 140.65625 118.960938 140.699219 118.882812 140.742188 118.804688 C 140.773438 118.75 140.800781 118.699219 140.832031 118.644531 C 140.878906 118.558594 140.925781 118.476562 140.972656 118.390625 C 141 118.335938 141.027344 118.285156 141.058594 118.234375 C 141.109375 118.140625 141.160156 118.046875 141.210938 117.953125 C 141.234375 117.90625 141.261719 117.859375 141.289062 117.808594 C 141.34375 117.703125 141.402344 117.59375 141.460938 117.484375 C 141.480469 117.449219 141.5 117.410156 141.519531 117.375 C 141.597656 117.226562 141.675781 117.078125 141.753906 116.925781 C 141.832031 116.777344 141.910156 116.625 141.988281 116.472656 C 142.011719 116.429688 142.035156 116.382812 142.054688 116.339844 C 142.113281 116.230469 142.167969 116.121094 142.222656 116.011719 C 142.25 115.957031 142.28125 115.898438 142.308594 115.84375 C 142.355469 115.742188 142.40625 115.644531 142.453125 115.546875 C 142.488281 115.484375 142.515625 115.417969 142.546875 115.355469 C 142.59375 115.261719 142.640625 115.171875 142.683594 115.078125 C 142.71875 115.007812 142.75 114.941406 142.785156 114.871094 C 142.824219 114.78125 142.867188 114.695312 142.910156 114.605469 C 142.945312 114.535156 142.976562 114.464844 143.011719 114.390625 C 143.050781 114.304688 143.089844 114.21875 143.132812 114.136719 C 143.164062 114.0625 143.199219 113.988281 143.234375 113.914062 C 143.273438 113.828125 143.3125 113.746094 143.347656 113.660156 C 143.382812 113.585938 143.414062 113.511719 143.449219 113.4375 C 143.484375 113.355469 143.523438 113.273438 143.558594 113.191406 C 143.59375 113.117188 143.625 113.039062 143.65625 112.964844 C 143.691406 112.886719 143.726562 112.804688 143.761719 112.722656 C 143.792969 112.648438 143.828125 112.574219 143.859375 112.5 C 143.890625 112.417969 143.925781 112.339844 143.957031 112.261719 C 143.988281 112.1875 144.019531 112.109375 144.050781 112.039062 C 144.082031 111.957031 144.113281 111.878906 144.144531 111.800781 C 144.171875 111.726562 144.203125 111.65625 144.230469 111.582031 C 144.261719 111.503906 144.292969 111.425781 144.320312 111.347656 C 144.347656 111.277344 144.375 111.207031 144.402344 111.136719 C 144.429688 111.058594 144.460938 110.980469 144.488281 110.90625 C 144.511719 110.835938 144.539062 110.769531 144.5625 110.699219 C 144.589844 110.621094 144.617188 110.542969 144.644531 110.460938 C 144.667969 110.402344 144.6875 110.339844 144.707031 110.277344 C 144.746094 110.164062 144.78125 110.054688 144.816406 109.941406 C 144.824219 109.921875 144.832031 109.894531 144.839844 109.871094 C 143.667969 109.273438 142.714844 108.292969 142.148438 107.101562 C 142.039062 107.167969 141.921875 107.238281 141.808594 107.3125 C 141.804688 107.316406 141.800781 107.316406 141.796875 107.320312 C 141.683594 107.390625 141.570312 107.464844 141.453125 107.542969 C 141.445312 107.546875 141.4375 107.550781 141.433594 107.554688 C 141.316406 107.632812 141.199219 107.710938 141.082031 107.792969 C 141.074219 107.796875 141.066406 107.804688 141.058594 107.808594 C 140.941406 107.890625 140.824219 107.972656 140.703125 108.058594 C 140.695312 108.066406 140.6875 108.074219 140.675781 108.078125 C 140.558594 108.164062 140.4375 108.253906 140.316406 108.34375 C 140.308594 108.351562 140.300781 108.355469 140.292969 108.363281 C 140.167969 108.453125 140.042969 108.546875 139.917969 108.644531 C 139.914062 108.648438 139.910156 108.652344 139.902344 108.652344 C 139.773438 108.753906 139.648438 108.851562 139.515625 108.953125 C 139.515625 108.957031 139.515625 108.957031 139.515625 108.957031 C 138.0625 110.097656 136.542969 111.449219 135.21875 112.707031 C 135.207031 112.71875 135.195312 112.730469 135.183594 112.742188 C 135.082031 112.839844 134.980469 112.9375 134.878906 113.03125 C 134.859375 113.050781 134.835938 113.074219 134.8125 113.09375 C 134.722656 113.183594 134.632812 113.269531 134.542969 113.359375 C 134.511719 113.386719 134.484375 113.414062 134.457031 113.441406 C 134.375 113.523438 134.292969 113.601562 134.210938 113.683594 C 134.175781 113.714844 134.144531 113.75 134.109375 113.785156 C 134.035156 113.855469 133.960938 113.929688 133.890625 114 C 133.851562 114.039062 133.8125 114.078125 133.777344 114.117188 C 133.710938 114.183594 133.644531 114.246094 133.582031 114.3125 C 133.539062 114.351562 133.5 114.394531 133.460938 114.433594 C 133.402344 114.496094 133.339844 114.554688 133.285156 114.617188 C 133.242188 114.660156 133.203125 114.699219 133.160156 114.742188 C 133.109375 114.796875 133.054688 114.851562 133.003906 114.90625 C 132.960938 114.949219 132.921875 114.992188 132.882812 115.035156 C 132.832031 115.085938 132.785156 115.136719 132.738281 115.183594 C 132.699219 115.226562 132.660156 115.265625 132.625 115.308594 C 132.578125 115.355469 132.535156 115.402344 132.496094 115.445312 C 132.457031 115.488281 132.417969 115.527344 132.382812 115.570312 C 132.34375 115.609375 132.308594 115.652344 132.269531 115.691406 C 132.234375 115.730469 132.199219 115.769531 132.164062 115.808594 C 132.132812 115.847656 132.101562 115.882812 132.070312 115.917969 C 132.035156 115.957031 132.003906 115.996094 131.96875 116.035156 C 131.945312 116.0625 131.917969 116.09375 131.894531 116.121094 C 131.859375 116.164062 131.828125 116.199219 131.796875 116.238281 C 131.777344 116.257812 131.757812 116.28125 131.742188 116.304688 C 131.695312 116.359375 131.65625 116.414062 131.617188 116.460938 L 117.84375 118.964844 L 116.621094 119.1875 C 116.269531 119.660156 116.332031 120.90625 116.621094 122.460938 L 116.621094 147.65625 L 111.476562 147.65625 C 111.480469 147.605469 111.484375 147.570312 111.484375 147.546875 C 111.484375 147.519531 111.488281 147.503906 111.488281 147.503906 L 102.933594 147.503906 L 102.933594 119.007812 L 99.878906 119.015625 C 98.894531 118.988281 97.578125 119.21875 96.96875 120.347656 C 96.878906 120.414062 96.8125 120.503906 96.757812 120.601562 C 95.976562 121.179688 95.058594 122.070312 93.984375 123.351562 C 93.984375 123.351562 89.652344 132.640625 87.363281 138.207031 C 86.503906 140.292969 85.929688 141.859375 85.980469 142.210938 C 85.988281 142.269531 85.996094 142.335938 86.007812 142.402344 C 86.011719 142.421875 86.015625 142.441406 86.019531 142.460938 C 86.03125 142.515625 86.039062 142.566406 86.050781 142.625 C 86.054688 142.648438 86.0625 142.675781 86.066406 142.703125 C 86.078125 142.757812 86.089844 142.820312 86.101562 142.882812 C 86.109375 142.910156 86.117188 142.941406 86.121094 142.96875 C 86.136719 143.03125 86.152344 143.097656 86.167969 143.164062 C 86.171875 143.195312 86.179688 143.230469 86.1875 143.261719 C 86.203125 143.332031 86.21875 143.398438 86.238281 143.472656 C 86.246094 143.507812 86.257812 143.546875 86.265625 143.582031 C 86.28125 143.65625 86.300781 143.730469 86.320312 143.808594 C 86.332031 143.847656 86.339844 143.886719 86.351562 143.921875 C 86.371094 144.003906 86.390625 144.082031 86.410156 144.167969 C 86.421875 144.207031 86.433594 144.25 86.445312 144.289062 C 86.464844 144.375 86.488281 144.460938 86.511719 144.546875 C 86.523438 144.589844 86.535156 144.632812 86.546875 144.675781 C 86.570312 144.765625 86.597656 144.855469 86.621094 144.949219 C 86.632812 144.992188 86.644531 145.035156 86.660156 145.082031 C 86.683594 145.175781 86.710938 145.269531 86.738281 145.367188 C 86.75 145.414062 86.765625 145.457031 86.777344 145.503906 C 86.804688 145.601562 86.832031 145.699219 86.863281 145.796875 C 86.875 145.847656 86.890625 145.894531 86.90625 145.945312 C 86.933594 146.042969 86.964844 146.144531 86.992188 146.242188 C 87.007812 146.292969 87.023438 146.347656 87.039062 146.398438 C 87.070312 146.503906 87.101562 146.609375 87.136719 146.714844 C 87.148438 146.765625 87.164062 146.8125 87.179688 146.859375 C 87.214844 146.976562 87.25 147.09375 87.289062 147.210938 C 87.300781 147.253906 87.3125 147.292969 87.328125 147.332031 C 87.375 147.492188 87.425781 147.652344 87.480469 147.8125 C 87.488281 147.839844 87.496094 147.867188 87.503906 147.894531 C 87.546875 148.027344 87.59375 148.160156 87.636719 148.296875 C 87.660156 148.367188 87.683594 148.441406 87.707031 148.515625 C 87.738281 148.601562 87.765625 148.691406 87.796875 148.78125 C 87.824219 148.863281 87.855469 148.949219 87.882812 149.03125 C 87.910156 149.113281 87.9375 149.191406 87.964844 149.269531 C 87.992188 149.355469 88.023438 149.441406 88.054688 149.527344 C 88.082031 149.605469 88.109375 149.683594 88.136719 149.761719 C 88.167969 149.851562 88.199219 149.9375 88.230469 150.027344 C 88.257812 150.101562 88.285156 150.175781 88.3125 150.25 C 88.34375 150.339844 88.375 150.433594 88.410156 150.523438 C 88.4375 150.59375 88.460938 150.664062 88.488281 150.738281 C 88.523438 150.828125 88.558594 150.921875 88.59375 151.011719 C 88.617188 151.082031 88.644531 151.152344 88.671875 151.222656 C 88.707031 151.3125 88.742188 151.402344 88.777344 151.492188 C 88.804688 151.5625 88.832031 151.632812 88.859375 151.703125 C 88.894531 151.792969 88.929688 151.882812 88.964844 151.96875 C 88.992188 152.039062 89.019531 152.105469 89.046875 152.175781 C 89.082031 152.261719 89.121094 152.351562 89.15625 152.4375 C 89.183594 152.503906 89.210938 152.570312 89.238281 152.632812 C 89.273438 152.722656 89.3125 152.808594 89.347656 152.898438 C 89.375 152.960938 89.402344 153.023438 89.429688 153.089844 C 89.46875 153.171875 89.503906 153.257812 89.542969 153.34375 C 89.570312 153.40625 89.597656 153.46875 89.625 153.53125 C 89.664062 153.613281 89.699219 153.695312 89.738281 153.773438 C 89.765625 153.835938 89.792969 153.894531 89.824219 153.957031 C 89.859375 154.035156 89.898438 154.117188 89.933594 154.191406 C 89.960938 154.25 89.988281 154.304688 90.015625 154.359375 C 90.054688 154.4375 90.09375 154.519531 90.132812 154.59375 C 90.148438 154.628906 90.167969 154.660156 90.183594 154.695312 C 90.230469 154.785156 90.277344 154.878906 90.324219 154.96875 C 91.574219 154.554688 92.941406 154.566406 94.1875 155.003906 C 94.828125 152.417969 95.066406 148.308594 95.089844 145.128906 C 95.089844 145.121094 95.089844 145.117188 95.089844 145.109375 C 95.089844 144.964844 95.089844 144.820312 95.089844 144.679688 C 95.089844 144.660156 95.089844 144.644531 95.089844 144.625 C 95.089844 144.492188 95.089844 144.363281 95.089844 144.234375 C 95.089844 144.210938 95.085938 144.183594 95.085938 144.160156 C 95.085938 144.035156 95.085938 143.914062 95.085938 143.796875 C 95.082031 143.769531 95.082031 143.742188 95.082031 143.714844 C 95.082031 143.601562 95.078125 143.492188 95.078125 143.386719 C 95.078125 143.351562 95.074219 143.316406 95.074219 143.28125 C 95.074219 143.183594 95.070312 143.082031 95.066406 142.988281 C 95.066406 142.949219 95.066406 142.914062 95.0625 142.878906 C 95.0625 142.785156 95.058594 142.695312 95.054688 142.609375 C 95.054688 142.570312 95.050781 142.535156 95.050781 142.5 C 95.046875 142.417969 95.042969 142.335938 95.039062 142.257812 C 95.039062 142.21875 95.039062 142.179688 95.035156 142.140625 C 95.03125 142.070312 95.027344 142 95.023438 141.933594 C 95.023438 141.890625 95.019531 141.851562 95.015625 141.8125 C 95.011719 141.753906 95.007812 141.691406 95.003906 141.632812 C 95 141.59375 95 141.554688 94.996094 141.511719 C 94.992188 141.464844 94.988281 141.414062 94.984375 141.367188 C 94.980469 141.320312 94.976562 141.28125 94.972656 141.238281 C 94.96875 141.203125 94.964844 141.164062 94.960938 141.132812 C 94.953125 141.0625 94.945312 140.996094 94.9375 140.933594 L 97.78125 136.773438 C 98.351562 143.382812 99.023438 150.992188 99.59375 156.757812 C 99.605469 156.875 99.988281 156.914062 100.484375 156.914062 L 99.746094 175.402344 L 87.445312 193.859375 L 86.132812 195.824219 L 86.015625 196 L 88.617188 197.738281 L 88.730469 197.816406 L 90.578125 199.046875 C 90.578125 199.046875 109.285156 176.792969 109.703125 173.765625 C 109.851562 172.707031 110.113281 169.183594 110.390625 165.042969 L 119.503906 201.9375 L 120.660156 201.9375 L 120.242188 206.136719 L 129.175781 206.136719 C 129.175781 206.136719 131.199219 206.183594 131.160156 205.1875 C 131.144531 204.789062 130.871094 204.527344 130.449219 204.347656 L 130.449219 183.253906 L 152.511719 183.253906 L 152.511719 205.347656 L 154.582031 205.347656 L 154.582031 181.179688 L 154.261719 181.179688 C 154.117188 178.847656 152.414062 176.9375 150.171875 176.496094 Z M 109.757812 108.050781 C 109.945312 108.03125 110.074219 107.769531 110.042969 107.460938 C 110.015625 107.15625 109.839844 106.925781 109.652344 106.945312 C 109.464844 106.96875 109.335938 107.230469 109.367188 107.535156 C 109.394531 107.839844 109.570312 108.070312 109.757812 108.050781 Z M 113.554688 106.945312 C 113.367188 106.96875 113.238281 107.230469 113.269531 107.535156 C 113.300781 107.839844 113.472656 108.074219 113.660156 108.050781 C 113.847656 108.03125 113.976562 107.769531 113.945312 107.460938 C 113.917969 107.15625 113.742188 106.925781 113.554688 106.945312 Z M 104.835938 111.519531 C 104.835938 111.425781 104.753906 107.683594 105.777344 107.09375 C 106.402344 106.734375 107.015625 109.328125 107.015625 109.328125 C 107.015625 109.328125 107.15625 108.574219 107.15625 108.054688 C 107.15625 107.53125 107.183594 106.664062 108.347656 105.390625 C 108.75 104.953125 108.832031 104.328125 108.773438 103.699219 C 109.425781 104.511719 110.628906 105.363281 112.796875 105.390625 C 113.710938 105.402344 114.445312 105.195312 115.035156 104.878906 C 116.8125 103.929688 117.265625 101.984375 117.265625 101.984375 C 117.265625 100.492188 114.535156 103 113.550781 102.039062 C 113.546875 102.039062 113.542969 102.035156 113.542969 102.03125 C 112.558594 101.050781 111.203125 100.445312 109.707031 100.445312 C 109.089844 100.445312 108.5 100.554688 107.949219 100.742188 L 107.949219 100.738281 C 107.878906 100.757812 107.8125 100.785156 107.746094 100.8125 C 107.617188 100.859375 107.496094 100.914062 107.375 100.972656 C 105.546875 101.839844 104.28125 103.707031 104.28125 105.867188 L 104.28125 109.128906 C 104.28125 109.988281 104.484375 110.800781 104.839844 111.523438 C 104.835938 111.523438 104.835938 111.519531 104.835938 111.519531 Z M 110.40625 143.773438 L 111.96875 142.8125 L 111.335938 124.726562 L 111.882812 124.726562 L 111.882812 121.773438 L 110.40625 120.757812 L 108.925781 121.773438 L 108.925781 124.726562 L 109.476562 124.726562 L 108.84375 142.8125 Z M 187.410156 123.492188 L 187.992188 121.328125 L 187.457031 127.085938 C 187.363281 128.632812 185.953125 129.847656 184.304688 129.847656 L 178.488281 129.847656 C 176.839844 129.847656 175.433594 128.632812 175.335938 127.085938 L 174.851562 121.167969 L 175.480469 123.492188 Z M 186.835938 125.238281 C 183.15625 125.398438 179.464844 125.210938 175.785156 125.371094 C 175.457031 125.386719 175.480469 125.863281 175.800781 125.875 C 179.484375 125.996094 183.175781 125.769531 186.859375 125.886719 C 187.273438 125.898438 187.253906 125.222656 186.835938 125.238281 Z M 186.835938 123.640625 C 183.15625 123.800781 179.464844 123.609375 175.785156 123.773438 C 175.457031 123.789062 175.480469 124.265625 175.800781 124.273438 C 179.484375 124.398438 183.175781 124.167969 186.859375 124.285156 C 187.273438 124.300781 187.253906 123.625 186.835938 123.640625 Z M 186.835938 123.640625 " fill-opacity="1" fill-rule="nonzero"/><g fill="#000000" fill-opacity="1"><g transform="translate(48.937744, 38.39897)"><g><path d="M 0.40625 -7.40625 C 0.40625 -9.550781 1.132812 -11.363281 2.59375 -12.84375 C 4.0625 -14.320312 5.820312 -15.0625 7.875 -15.0625 C 9.945312 -15.0625 11.703125 -14.320312 13.140625 -12.84375 C 14.585938 -11.375 15.3125 -9.5625 15.3125 -7.40625 C 15.3125 -5.238281 14.597656 -3.414062 13.171875 -1.9375 C 11.753906 -0.46875 9.988281 0.265625 7.875 0.265625 C 5.707031 0.265625 3.921875 -0.460938 2.515625 -1.921875 C 1.109375 -3.390625 0.40625 -5.21875 0.40625 -7.40625 Z M 4.046875 -7.40625 C 4.046875 -6.632812 4.164062 -5.925781 4.40625 -5.28125 C 4.644531 -4.644531 5.0625 -4.101562 5.65625 -3.65625 C 6.257812 -3.21875 7 -3 7.875 -3 C 9.132812 -3 10.082031 -3.425781 10.71875 -4.28125 C 11.351562 -5.144531 11.671875 -6.1875 11.671875 -7.40625 C 11.671875 -8.613281 11.34375 -9.648438 10.6875 -10.515625 C 10.039062 -11.390625 9.101562 -11.828125 7.875 -11.828125 C 6.65625 -11.828125 5.710938 -11.390625 5.046875 -10.515625 C 4.378906 -9.648438 4.046875 -8.613281 4.046875 -7.40625 Z M 4.046875 -7.40625 "/></g></g></g><g fill="#000000" fill-opacity="1"><g transform="translate(64.669244, 38.39897)"><g><path d="M 1.078125 0 L 1.078125 -9.203125 L 4.25 -9.203125 L 4.25 -8.234375 L 4.28125 -8.234375 C 5.113281 -9.054688 5.992188 -9.46875 6.921875 -9.46875 C 7.378906 -9.46875 7.832031 -9.40625 8.28125 -9.28125 C 8.726562 -9.164062 9.15625 -8.984375 9.5625 -8.734375 C 9.976562 -8.484375 10.3125 -8.128906 10.5625 -7.671875 C 10.820312 -7.210938 10.953125 -6.675781 10.953125 -6.0625 L 10.953125 0 L 7.78125 0 L 7.78125 -5.203125 C 7.78125 -5.679688 7.628906 -6.097656 7.328125 -6.453125 C 7.023438 -6.816406 6.628906 -7 6.140625 -7 C 5.660156 -7 5.222656 -6.8125 4.828125 -6.4375 C 4.441406 -6.070312 4.25 -5.660156 4.25 -5.203125 L 4.25 0 Z M 1.078125 0 "/></g></g></g><g fill="#000000" fill-opacity="1"><g transform="translate(76.526168, 38.39897)"><g><path d="M 1.078125 0 L 1.078125 -15.421875 L 4.25 -15.421875 L 4.25 0 Z M 1.078125 0 "/></g></g></g><g fill="#000000" fill-opacity="1"><g transform="translate(81.853711, 38.39897)"><g><path d="M 1.375 -14.328125 C 1.75 -14.703125 2.191406 -14.890625 2.703125 -14.890625 C 3.222656 -14.890625 3.664062 -14.703125 4.03125 -14.328125 C 4.40625 -13.960938 4.59375 -13.519531 4.59375 -13 C 4.59375 -12.488281 4.40625 -12.046875 4.03125 -11.671875 C 3.664062 -11.304688 3.222656 -11.125 2.703125 -11.125 C 2.191406 -11.125 1.75 -11.304688 1.375 -11.671875 C 1.007812 -12.046875 0.828125 -12.488281 0.828125 -13 C 0.828125 -13.519531 1.007812 -13.960938 1.375 -14.328125 Z M 1.078125 -9.203125 L 1.078125 0 L 4.25 0 L 4.25 -9.203125 Z M 1.078125 -9.203125 "/></g></g></g><g fill="#000000" fill-opacity="1"><g transform="translate(87.270945, 38.39897)"><g><path d="M 1.078125 0 L 1.078125 -9.203125 L 4.25 -9.203125 L 4.25 -8.234375 L 4.28125 -8.234375 C 5.113281 -9.054688 5.992188 -9.46875 6.921875 -9.46875 C 7.378906 -9.46875 7.832031 -9.40625 8.28125 -9.28125 C 8.726562 -9.164062 9.15625 -8.984375 9.5625 -8.734375 C 9.976562 -8.484375 10.3125 -8.128906 10.5625 -7.671875 C 10.820312 -7.210938 10.953125 -6.675781 10.953125 -6.0625 L 10.953125 0 L 7.78125 0 L 7.78125 -5.203125 C 7.78125 -5.679688 7.628906 -6.097656 7.328125 -6.453125 C 7.023438 -6.816406 6.628906 -7 6.140625 -7 C 5.660156 -7 5.222656 -6.8125 4.828125 -6.4375 C 4.441406 -6.070312 4.25 -5.660156 4.25 -5.203125 L 4.25 0 Z M 1.078125 0 "/></g></g></g><g fill="#000000" fill-opacity="1"><g transform="translate(99.127869, 38.39897)"><g><path d="M 10.390625 -4.15625 L 3.71875 -4.15625 C 3.71875 -3.507812 3.925781 -3.03125 4.34375 -2.71875 C 4.757812 -2.414062 5.210938 -2.265625 5.703125 -2.265625 C 6.210938 -2.265625 6.617188 -2.332031 6.921875 -2.46875 C 7.222656 -2.601562 7.566406 -2.875 7.953125 -3.28125 L 10.25 -2.140625 C 9.289062 -0.535156 7.695312 0.265625 5.46875 0.265625 C 4.082031 0.265625 2.890625 -0.207031 1.890625 -1.15625 C 0.898438 -2.101562 0.40625 -3.242188 0.40625 -4.578125 C 0.40625 -5.921875 0.898438 -7.070312 1.890625 -8.03125 C 2.890625 -8.988281 4.082031 -9.46875 5.46875 -9.46875 C 6.925781 -9.46875 8.113281 -9.046875 9.03125 -8.203125 C 9.945312 -7.359375 10.40625 -6.15625 10.40625 -4.59375 C 10.40625 -4.375 10.398438 -4.226562 10.390625 -4.15625 Z M 3.796875 -5.921875 L 7.296875 -5.921875 C 7.222656 -6.398438 7.035156 -6.765625 6.734375 -7.015625 C 6.429688 -7.273438 6.039062 -7.40625 5.5625 -7.40625 C 5.03125 -7.40625 4.609375 -7.265625 4.296875 -6.984375 C 3.992188 -6.710938 3.828125 -6.359375 3.796875 -5.921875 Z M 3.796875 -5.921875 "/></g></g></g><g fill="#000000" fill-opacity="1"><g transform="translate(109.944397, 38.39897)"><g><path d="M 10.546875 -15.421875 L 3.15625 2.15625 L 0.40625 2.15625 L 7.796875 -15.421875 Z M 10.546875 -15.421875 "/></g></g></g><g fill="#000000" fill-opacity="1"><g transform="translate(120.904424, 38.39897)"><g><path d="M 1.078125 -14.796875 L 5.359375 -14.796875 C 7.421875 -14.796875 9.179688 -14.09375 10.640625 -12.6875 C 12.097656 -11.28125 12.828125 -9.519531 12.828125 -7.40625 C 12.828125 -5.28125 12.097656 -3.515625 10.640625 -2.109375 C 9.191406 -0.703125 7.429688 0 5.359375 0 L 1.078125 0 Z M 4.453125 -3.015625 L 4.96875 -3.015625 C 6.195312 -3.015625 7.203125 -3.425781 7.984375 -4.25 C 8.773438 -5.082031 9.175781 -6.128906 9.1875 -7.390625 C 9.1875 -8.648438 8.789062 -9.695312 8 -10.53125 C 7.21875 -11.363281 6.207031 -11.78125 4.96875 -11.78125 L 4.453125 -11.78125 Z M 4.453125 -3.015625 "/></g></g></g><g fill="#000000" fill-opacity="1"><g transform="translate(134.14256, 38.39897)"><g><path d="M 1.375 -14.328125 C 1.75 -14.703125 2.191406 -14.890625 2.703125 -14.890625 C 3.222656 -14.890625 3.664062 -14.703125 4.03125 -14.328125 C 4.40625 -13.960938 4.59375 -13.519531 4.59375 -13 C 4.59375 -12.488281 4.40625 -12.046875 4.03125 -11.671875 C 3.664062 -11.304688 3.222656 -11.125 2.703125 -11.125 C 2.191406 -11.125 1.75 -11.304688 1.375 -11.671875 C 1.007812 -12.046875 0.828125 -12.488281 0.828125 -13 C 0.828125 -13.519531 1.007812 -13.960938 1.375 -14.328125 Z M 1.078125 -9.203125 L 1.078125 0 L 4.25 0 L 4.25 -9.203125 Z M 1.078125 -9.203125 "/></g></g></g><g fill="#000000" fill-opacity="1"><g transform="translate(139.559794, 38.39897)"><g><path d="M 5.078125 -9.46875 C 5.597656 -9.46875 6.113281 -9.40625 6.625 -9.28125 C 7.144531 -9.164062 7.53125 -9.050781 7.78125 -8.9375 L 8.15625 -8.75 L 7.125 -6.671875 C 6.40625 -7.054688 5.722656 -7.25 5.078125 -7.25 C 4.710938 -7.25 4.457031 -7.207031 4.3125 -7.125 C 4.164062 -7.050781 4.09375 -6.90625 4.09375 -6.6875 C 4.09375 -6.644531 4.097656 -6.597656 4.109375 -6.546875 C 4.117188 -6.492188 4.140625 -6.445312 4.171875 -6.40625 C 4.210938 -6.363281 4.25 -6.328125 4.28125 -6.296875 C 4.3125 -6.273438 4.359375 -6.242188 4.421875 -6.203125 C 4.492188 -6.171875 4.550781 -6.144531 4.59375 -6.125 C 4.632812 -6.101562 4.703125 -6.070312 4.796875 -6.03125 C 4.898438 -6 4.972656 -5.972656 5.015625 -5.953125 C 5.066406 -5.941406 5.148438 -5.914062 5.265625 -5.875 C 5.378906 -5.84375 5.46875 -5.820312 5.53125 -5.8125 C 5.894531 -5.707031 6.210938 -5.585938 6.484375 -5.453125 C 6.765625 -5.316406 7.054688 -5.132812 7.359375 -4.90625 C 7.671875 -4.6875 7.910156 -4.398438 8.078125 -4.046875 C 8.242188 -3.703125 8.328125 -3.3125 8.328125 -2.875 C 8.328125 -0.78125 6.875 0.265625 3.96875 0.265625 C 3.3125 0.265625 2.6875 0.164062 2.09375 -0.03125 C 1.5 -0.238281 1.070312 -0.441406 0.8125 -0.640625 L 0.40625 -0.96875 L 1.703125 -3.140625 C 1.796875 -3.054688 1.921875 -2.957031 2.078125 -2.84375 C 2.234375 -2.726562 2.515625 -2.570312 2.921875 -2.375 C 3.328125 -2.175781 3.679688 -2.078125 3.984375 -2.078125 C 4.640625 -2.078125 4.96875 -2.300781 4.96875 -2.75 C 4.96875 -2.945312 4.882812 -3.101562 4.71875 -3.21875 C 4.550781 -3.332031 4.265625 -3.460938 3.859375 -3.609375 C 3.460938 -3.753906 3.148438 -3.882812 2.921875 -4 C 2.347656 -4.300781 1.894531 -4.640625 1.5625 -5.015625 C 1.226562 -5.390625 1.0625 -5.890625 1.0625 -6.515625 C 1.0625 -7.441406 1.421875 -8.164062 2.140625 -8.6875 C 2.867188 -9.207031 3.847656 -9.46875 5.078125 -9.46875 Z M 5.078125 -9.46875 "/></g></g></g><g fill="#000000" fill-opacity="1"><g transform="translate(148.385221, 38.39897)"><g><path d="M 1.609375 -9.203125 L 1.609375 -12.625 L 4.796875 -12.625 L 4.796875 -9.203125 L 6.71875 -9.203125 L 6.71875 -6.78125 L 4.796875 -6.78125 L 4.796875 -3.859375 C 4.796875 -3.003906 5.03125 -2.578125 5.5 -2.578125 C 5.625 -2.578125 5.75 -2.597656 5.875 -2.640625 C 6.007812 -2.691406 6.113281 -2.742188 6.1875 -2.796875 L 6.296875 -2.875 L 7.078125 -0.3125 C 6.398438 0.0703125 5.625 0.265625 4.75 0.265625 C 4.15625 0.265625 3.640625 0.160156 3.203125 -0.046875 C 2.773438 -0.253906 2.453125 -0.535156 2.234375 -0.890625 C 2.015625 -1.242188 1.851562 -1.613281 1.75 -2 C 1.65625 -2.382812 1.609375 -2.800781 1.609375 -3.25 L 1.609375 -6.78125 L 0.28125 -6.78125 L 0.28125 -9.203125 Z M 1.609375 -9.203125 "/></g></g></g><g fill="#000000" fill-opacity="1"><g transform="translate(155.470675, 38.39897)"><g><path d="M 1.703125 -1.140625 C 0.835938 -2.078125 0.40625 -3.226562 0.40625 -4.59375 C 0.40625 -5.957031 0.835938 -7.109375 1.703125 -8.046875 C 2.566406 -8.992188 3.660156 -9.46875 4.984375 -9.46875 C 6.203125 -9.46875 7.207031 -9.085938 8 -8.328125 L 8 -9.203125 L 11.171875 -9.203125 L 11.171875 0 L 8.03125 0 L 8.03125 -1.046875 L 8 -1.046875 C 7.207031 -0.171875 6.203125 0.265625 4.984375 0.265625 C 3.660156 0.265625 2.566406 -0.203125 1.703125 -1.140625 Z M 4.390625 -6.15625 C 3.984375 -5.75 3.78125 -5.226562 3.78125 -4.59375 C 3.78125 -3.957031 3.976562 -3.4375 4.375 -3.03125 C 4.769531 -2.632812 5.289062 -2.4375 5.9375 -2.4375 C 6.5625 -2.4375 7.070312 -2.640625 7.46875 -3.046875 C 7.875 -3.453125 8.078125 -3.96875 8.078125 -4.59375 C 8.078125 -5.226562 7.867188 -5.75 7.453125 -6.15625 C 7.035156 -6.5625 6.53125 -6.765625 5.9375 -6.765625 C 5.320312 -6.765625 4.804688 -6.5625 4.390625 -6.15625 Z M 4.390625 -6.15625 "/></g></g></g><g fill="#000000" fill-opacity="1"><g transform="translate(167.722237, 38.39897)"><g><path d="M 1.078125 0 L 1.078125 -9.203125 L 4.25 -9.203125 L 4.25 -8.234375 L 4.28125 -8.234375 C 5.113281 -9.054688 5.992188 -9.46875 6.921875 -9.46875 C 7.378906 -9.46875 7.832031 -9.40625 8.28125 -9.28125 C 8.726562 -9.164062 9.15625 -8.984375 9.5625 -8.734375 C 9.976562 -8.484375 10.3125 -8.128906 10.5625 -7.671875 C 10.820312 -7.210938 10.953125 -6.675781 10.953125 -6.0625 L 10.953125 0 L 7.78125 0 L 7.78125 -5.203125 C 7.78125 -5.679688 7.628906 -6.097656 7.328125 -6.453125 C 7.023438 -6.816406 6.628906 -7 6.140625 -7 C 5.660156 -7 5.222656 -6.8125 4.828125 -6.4375 C 4.441406 -6.070312 4.25 -5.660156 4.25 -5.203125 L 4.25 0 Z M 1.078125 0 "/></g></g></g><g fill="#000000" fill-opacity="1"><g transform="translate(179.579158, 38.39897)"><g><path d="M 5.96875 -6.875 C 5.375 -6.875 4.859375 -6.648438 4.421875 -6.203125 C 3.992188 -5.765625 3.78125 -5.234375 3.78125 -4.609375 C 3.78125 -3.972656 3.992188 -3.429688 4.421875 -2.984375 C 4.859375 -2.546875 5.375 -2.328125 5.96875 -2.328125 C 6.257812 -2.328125 6.53125 -2.363281 6.78125 -2.4375 C 7.039062 -2.507812 7.234375 -2.582031 7.359375 -2.65625 L 7.515625 -2.765625 L 8.59375 -0.5625 C 8.507812 -0.5 8.390625 -0.421875 8.234375 -0.328125 C 8.085938 -0.242188 7.75 -0.125 7.21875 0.03125 C 6.6875 0.1875 6.113281 0.265625 5.5 0.265625 C 4.15625 0.265625 2.96875 -0.207031 1.9375 -1.15625 C 0.914062 -2.101562 0.40625 -3.242188 0.40625 -4.578125 C 0.40625 -5.910156 0.914062 -7.054688 1.9375 -8.015625 C 2.96875 -8.984375 4.15625 -9.46875 5.5 -9.46875 C 6.113281 -9.46875 6.675781 -9.394531 7.1875 -9.25 C 7.707031 -9.113281 8.070312 -8.972656 8.28125 -8.828125 L 8.59375 -8.609375 L 7.515625 -6.4375 C 7.117188 -6.726562 6.601562 -6.875 5.96875 -6.875 Z M 5.96875 -6.875 "/></g></g></g><g fill="#000000" fill-opacity="1"><g transform="translate(188.386642, 38.39897)"><g><path d="M 10.390625 -4.15625 L 3.71875 -4.15625 C 3.71875 -3.507812 3.925781 -3.03125 4.34375 -2.71875 C 4.757812 -2.414062 5.210938 -2.265625 5.703125 -2.265625 C 6.210938 -2.265625 6.617188 -2.332031 6.921875 -2.46875 C 7.222656 -2.601562 7.566406 -2.875 7.953125 -3.28125 L 10.25 -2.140625 C 9.289062 -0.535156 7.695312 0.265625 5.46875 0.265625 C 4.082031 0.265625 2.890625 -0.207031 1.890625 -1.15625 C 0.898438 -2.101562 0.40625 -3.242188 0.40625 -4.578125 C 0.40625 -5.921875 0.898438 -7.070312 1.890625 -8.03125 C 2.890625 -8.988281 4.082031 -9.46875 5.46875 -9.46875 C 6.925781 -9.46875 8.113281 -9.046875 9.03125 -8.203125 C 9.945312 -7.359375 10.40625 -6.15625 10.40625 -4.59375 C 10.40625 -4.375 10.398438 -4.226562 10.390625 -4.15625 Z M 3.796875 -5.921875 L 7.296875 -5.921875 C 7.222656 -6.398438 7.035156 -6.765625 6.734375 -7.015625 C 6.429688 -7.273438 6.039062 -7.40625 5.5625 -7.40625 C 5.03125 -7.40625 4.609375 -7.265625 4.296875 -6.984375 C 3.992188 -6.710938 3.828125 -6.359375 3.796875 -5.921875 Z M 3.796875 -5.921875 "/></g></g></g><g fill="#000000" fill-opacity="1"><g transform="translate(199.203173, 38.39897)"><g/></g></g><g fill="#104e91" fill-opacity="1"><g transform="translate(204.097796, 38.39897)"><g><path d="M 13.3125 0 L 12.609375 -8.765625 L 12.515625 -8.765625 L 9.484375 -0.09375 L 7.484375 -0.09375 L 4.453125 -8.765625 L 4.359375 -8.765625 L 3.65625 0 L 0.28125 0 L 1.609375 -14.796875 L 5.203125 -14.796875 L 8.484375 -6.265625 L 11.765625 -14.796875 L 15.359375 -14.796875 L 16.6875 0 Z M 13.3125 0 "/></g></g></g><g fill="#104e91" fill-opacity="1"><g transform="translate(221.06701, 38.39897)"><g><path d="M 1.078125 -14.796875 L 5.671875 -14.796875 C 7.054688 -14.796875 8.160156 -14.5 8.984375 -13.90625 C 9.804688 -13.3125 10.21875 -12.351562 10.21875 -11.03125 C 10.21875 -9.550781 9.601562 -8.492188 8.375 -7.859375 C 10.476562 -7.484375 11.53125 -6.238281 11.53125 -4.125 C 11.53125 -2.882812 11.097656 -1.882812 10.234375 -1.125 C 9.378906 -0.375 8.195312 0 6.6875 0 L 1.078125 0 Z M 4.453125 -9 L 4.71875 -9 C 5.46875 -9 6.023438 -9.128906 6.390625 -9.390625 C 6.765625 -9.660156 6.953125 -10.09375 6.953125 -10.6875 C 6.953125 -11.695312 6.207031 -12.203125 4.71875 -12.203125 L 4.453125 -12.203125 Z M 4.453125 -2.59375 L 5.5 -2.59375 C 7.15625 -2.59375 7.984375 -3.144531 7.984375 -4.25 C 7.984375 -4.90625 7.773438 -5.375 7.359375 -5.65625 C 6.953125 -5.945312 6.332031 -6.09375 5.5 -6.09375 L 4.453125 -6.09375 Z M 4.453125 -2.59375 "/></g></g></g><g fill="#104e91" fill-opacity="1"><g transform="translate(233.013621, 38.39897)"><g><path d="M 8.59375 -14.796875 L 14.5625 0 L 10.9375 0 L 9.84375 -2.953125 L 4.21875 -2.953125 L 3.125 0 L -0.5 0 L 5.46875 -14.796875 Z M 8.703125 -5.921875 L 7.046875 -10.21875 L 7.015625 -10.21875 L 5.359375 -5.921875 Z M 8.703125 -5.921875 "/></g></g></g></svg>