<svg xmlns="http://www.w3.org/2000/svg" xmlns:xlink="http://www.w3.org/1999/xlink" width="406" zoomAndPan="magnify" viewBox="0 0 304.5 227.999995" height="304" preserveAspectRatio="xMidYMid meet" version="1.0"><defs><g/><clipPath id="075fae6951"><path d="M 0 0.1875 L 304 0.1875 L 304 227.8125 L 0 227.8125 Z M 0 0.1875 " clip-rule="nonzero"/></clipPath></defs><g clip-path="url(#075fae6951)"><path fill="#ffffff" d="M 0 0.1875 L 304.5 0.1875 L 304.5 235.6875 L 0 235.6875 Z M 0 0.1875 " fill-opacity="1" fill-rule="nonzero"/><path fill="#ffffff" d="M 0 0.1875 L 304.5 0.1875 L 304.5 228.1875 L 0 228.1875 Z M 0 0.1875 " fill-opacity="1" fill-rule="nonzero"/><path fill="#eaf8ff" d="M 0 0.1875 L 304.5 0.1875 L 304.5 228.1875 L 0 228.1875 Z M 0 0.1875 " fill-opacity="1" fill-rule="nonzero"/></g><path fill="#ffd2bb" d="M 116.335938 101.867188 C 116.332031 101.863281 116.328125 101.859375 116.328125 101.859375 C 116.328125 101.859375 115.523438 100.554688 115.523438 98.566406 C 115.523438 97.199219 114.765625 96.714844 113.28125 96.71875 C 112.609375 96.71875 111.789062 96.820312 110.820312 96.988281 C 110.527344 97.039062 110.261719 97.054688 110.011719 97.046875 C 108.011719 96.976562 107.21875 95.230469 105.90625 95.273438 C 105.632812 95.28125 105.339844 95.367188 105.003906 95.5625 C 102.863281 96.8125 103.398438 97.523438 102.316406 100.375 C 102.03125 101.136719 101.554688 101.539062 101.007812 101.726562 C 100.597656 102.070312 100.175781 102.550781 100.070312 103.109375 C 99.824219 104.476562 100.855469 108.53125 100.070312 110.09375 C 100.058594 110.121094 100.035156 110.148438 100.019531 110.175781 C 100.003906 110.199219 99.992188 110.21875 99.972656 110.242188 C 99.949219 110.273438 99.921875 110.304688 99.890625 110.335938 C 99.875 110.355469 99.855469 110.378906 99.835938 110.398438 C 99.800781 110.433594 99.761719 110.472656 99.71875 110.507812 C 99.703125 110.523438 99.691406 110.535156 99.675781 110.550781 C 99.605469 110.613281 99.535156 110.675781 99.457031 110.738281 C 99.421875 110.769531 99.386719 110.800781 99.347656 110.832031 C 99.324219 110.851562 99.300781 110.875 99.273438 110.894531 C 99.226562 110.9375 99.179688 110.976562 99.136719 111.019531 C 99.117188 111.035156 99.097656 111.050781 99.082031 111.070312 C 99.019531 111.125 98.960938 111.179688 98.90625 111.238281 C 98.894531 111.25 98.886719 111.261719 98.871094 111.273438 C 98.828125 111.320312 98.789062 111.371094 98.75 111.417969 C 98.734375 111.4375 98.71875 111.457031 98.707031 111.472656 C 98.667969 111.527344 98.632812 111.578125 98.601562 111.632812 C 98.59375 111.644531 98.585938 111.65625 98.578125 111.667969 C 98.546875 111.730469 98.515625 111.796875 98.496094 111.867188 C 98.492188 111.882812 98.488281 111.902344 98.484375 111.921875 C 98.46875 111.972656 98.460938 112.027344 98.457031 112.082031 C 98.457031 112.105469 98.453125 112.125 98.453125 112.148438 C 98.453125 112.148438 98.453125 112.152344 98.453125 112.152344 C 98.453125 112.222656 98.460938 112.296875 98.480469 112.371094 C 98.480469 112.371094 98.480469 112.371094 98.480469 112.375 C 98.867188 114.28125 99.859375 116.074219 101.253906 117.476562 C 101.453125 117.675781 101.660156 117.867188 101.875 118.050781 L 101 120.941406 C 101.011719 120.953125 101.023438 120.964844 101.03125 120.976562 L 101.042969 120.941406 L 101.90625 118.078125 C 103.503906 119.429688 105.511719 120.285156 107.703125 120.308594 C 107.734375 120.308594 107.761719 120.3125 107.792969 120.3125 C 108.101562 120.3125 108.398438 120.296875 108.6875 120.273438 C 110.785156 120.101562 112.441406 119.324219 113.722656 118.242188 L 113.753906 118.214844 C 114.914062 117.226562 115.757812 115.988281 116.332031 114.722656 C 116.335938 114.652344 116.484375 112.570312 116.734375 110.796875 C 117.019531 110.609375 117.035156 104.925781 116.914062 104.097656 C 116.660156 102.398438 116.371094 101.921875 116.335938 101.867188 Z M 103.265625 107.519531 C 102.851562 107.523438 102.496094 106.976562 102.476562 106.292969 C 102.460938 105.613281 102.785156 105.058594 103.207031 105.050781 C 103.625 105.046875 103.980469 105.59375 103.996094 106.277344 C 104.007812 106.957031 103.6875 107.515625 103.265625 107.519531 Z M 112.320312 107.519531 C 111.902344 107.515625 111.578125 106.957031 111.59375 106.277344 C 111.609375 105.59375 111.964844 105.046875 112.382812 105.050781 C 112.800781 105.058594 113.125 105.613281 113.109375 106.292969 C 113.09375 106.976562 112.738281 107.523438 112.320312 107.519531 Z M 114.632812 121.183594 L 114.628906 121.167969 L 113.753906 118.214844 C 113.746094 118.222656 113.734375 118.230469 113.722656 118.242188 C 112.441406 119.324219 110.785156 120.101562 108.6875 120.273438 C 108.394531 120.296875 108.101562 120.3125 107.792969 120.3125 C 107.761719 120.3125 107.734375 120.308594 107.703125 120.308594 C 105.511719 120.285156 103.503906 119.429688 101.90625 118.078125 L 101.042969 120.941406 L 101.03125 120.976562 L 99.660156 124.125 L 98.808594 126.09375 L 116.253906 126.09375 L 116.285156 125.730469 L 116.019531 124.996094 Z M 107.898438 124.152344 C 107.382812 124.152344 106.875 124.105469 106.382812 124.015625 C 106.875 124.105469 107.382812 124.152344 107.898438 124.152344 Z M 101.183594 121.144531 C 102.242188 122.257812 103.542969 123.136719 105.003906 123.652344 C 103.542969 123.136719 102.242188 122.257812 101.183594 121.144531 Z M 165.632812 131.640625 L 164.332031 136.105469 L 163.324219 139.558594 C 162.648438 139.5 162.015625 139.316406 161.453125 139.039062 C 160.417969 138.535156 159.625 137.710938 159.253906 136.722656 C 159.179688 136.523438 159.125 136.316406 159.085938 136.105469 C 159.046875 135.894531 159.019531 135.679688 159.019531 135.460938 C 159.019531 133.183594 161.175781 131.339844 163.835938 131.339844 C 164.46875 131.339844 165.074219 131.445312 165.632812 131.640625 Z M 168.648438 135.460938 C 168.648438 135.679688 168.621094 135.894531 168.582031 136.105469 C 168.28125 137.738281 166.871094 139.046875 165.027344 139.449219 L 166 136.105469 L 167.074219 132.421875 C 168.039062 133.171875 168.648438 134.253906 168.648438 135.460938 Z M 168.648438 135.460938 " fill-opacity="1" fill-rule="nonzero"/><path fill="#e84393" d="M 69.269531 74.460938 L 69.269531 176.144531 L 93.382812 176.144531 L 95.203125 173.550781 C 87.382812 170.933594 78.964844 167.460938 76.589844 166.230469 C 74.652344 165.226562 73.226562 163.878906 72.40625 162.449219 C 72.179688 162.40625 71.980469 162.339844 71.816406 162.230469 C 67.609375 159.519531 84.867188 136.273438 88.664062 132.410156 C 89.898438 131.152344 98.820312 126.417969 98.820312 126.417969 L 116.253906 126.160156 C 119.003906 126.386719 126.054688 130.46875 127.308594 132.753906 C 128.75 135.394531 132.8125 145.367188 135.480469 154.261719 C 138.066406 151.769531 145.398438 145.605469 151.675781 141.203125 C 151.324219 140.683594 151.121094 140.054688 151.121094 139.378906 C 151.121094 137.570312 152.585938 136.105469 154.394531 136.105469 L 159.085938 136.105469 C 159.046875 135.894531 159.019531 135.679688 159.019531 135.460938 C 159.019531 133.183594 161.175781 131.339844 163.832031 131.339844 C 164.46875 131.339844 165.074219 131.445312 165.632812 131.640625 L 167.023438 126.859375 L 154.394531 126.859375 C 152.585938 126.859375 151.117188 125.394531 151.117188 123.585938 C 151.117188 121.777344 152.585938 120.3125 154.394531 120.3125 L 168.929688 120.3125 L 171.625 111.066406 L 154.394531 111.066406 C 152.585938 111.066406 151.121094 109.601562 151.121094 107.792969 C 151.121094 105.984375 152.585938 104.519531 154.394531 104.519531 L 173.53125 104.519531 L 173.695312 103.957031 C 173.769531 103.691406 174.175781 103.582031 174.601562 103.703125 C 175.027344 103.828125 175.3125 104.140625 175.234375 104.402344 L 175.203125 104.519531 L 216.179688 104.519531 C 217.988281 104.519531 219.453125 105.984375 219.453125 107.792969 C 219.453125 109.601562 217.988281 111.066406 216.179688 111.066406 L 173.292969 111.066406 L 170.601562 120.3125 L 216.179688 120.3125 C 217.988281 120.3125 219.453125 121.777344 219.453125 123.585938 C 219.453125 125.394531 217.988281 126.859375 216.179688 126.859375 L 168.695312 126.859375 L 167.074219 132.421875 C 168.039062 133.171875 168.648438 134.253906 168.648438 135.460938 C 168.648438 135.679688 168.621094 135.894531 168.582031 136.105469 L 216.179688 136.105469 C 217.988281 136.105469 219.453125 137.570312 219.453125 139.378906 C 219.453125 141.1875 217.988281 142.652344 216.179688 142.652344 L 164.09375 142.652344 L 163.601562 144.351562 C 163.523438 144.617188 163.117188 144.726562 162.691406 144.605469 C 162.265625 144.480469 161.984375 144.167969 162.058594 143.90625 L 162.421875 142.652344 L 159.671875 142.652344 C 158.089844 145.40625 155.808594 148.75 153.402344 152.054688 C 153.714844 151.953125 154.046875 151.898438 154.394531 151.898438 L 216.179688 151.898438 C 217.988281 151.898438 219.453125 153.363281 219.453125 155.175781 C 219.453125 156.980469 217.988281 158.449219 216.179688 158.449219 L 154.394531 158.449219 C 152.585938 158.449219 151.121094 156.980469 151.121094 155.175781 C 151.121094 155.15625 151.121094 155.136719 151.121094 155.121094 C 147.390625 160.050781 143.78125 164.398438 142.378906 165.839844 C 140.855469 167.402344 139.15625 168.378906 137.546875 168.75 C 137.441406 168.953125 137.316406 169.125 137.167969 169.25 C 134.839844 171.230469 127.492188 163.320312 121.535156 155.785156 L 117.394531 168.921875 L 123.0625 176.144531 L 175.726562 176.144531 L 175.726562 172.628906 C 175.859375 172.613281 175.996094 172.605469 176.132812 172.605469 L 197.636719 172.605469 C 199.71875 172.605469 201.433594 174.144531 201.726562 176.144531 L 232.96875 176.144531 L 232.96875 74.460938 Z M 127.75 118.511719 C 127.15625 118.933594 126.421875 119.257812 125.507812 119.394531 C 125.507812 119.394531 125.503906 119.394531 125.5 119.394531 C 125.476562 119.398438 125.457031 119.402344 125.433594 119.402344 C 124.585938 119.519531 123.597656 119.472656 122.429688 119.179688 C 119.492188 118.445312 119.660156 119.75 116.796875 124.023438 C 116.539062 124.40625 116.28125 124.722656 116.019531 124.996094 L 116.285156 125.730469 L 116.253906 126.09375 L 98.820312 126.417969 L 99.660156 124.125 C 99.636719 124.09375 99.613281 124.058594 99.589844 124.023438 C 96.722656 119.75 96.894531 118.445312 93.957031 119.179688 C 90.839844 119.957031 88.960938 119.015625 87.847656 117.816406 C 85.808594 116.355469 84.628906 114.054688 87.296875 111.429688 C 90.742188 108.042969 91.925781 108.023438 90.894531 105.265625 C 88.601562 99.128906 93.757812 97.238281 93.757812 97.238281 C 95.285156 95.800781 97.59375 94.917969 98.480469 92.710938 C 98.828125 91.84375 97.546875 90.894531 99.386719 88.433594 C 102.316406 84.511719 105.359375 87.542969 107.308594 87.898438 C 109.253906 88.253906 111.800781 84.789062 114.589844 85.894531 C 119.621094 87.898438 117.484375 91.996094 117.484375 91.996094 C 117.484375 91.996094 117.484375 91.996094 118.59375 94.136719 C 119.707031 96.277344 123.160156 95.714844 124.792969 97.703125 C 130.058594 104.125 122.570312 107.28125 128.621094 109.019531 C 133.054688 110.292969 131.359375 116.183594 127.75 118.511719 Z M 188.195312 171.613281 C 184.945312 171.613281 182.3125 168.976562 182.3125 165.730469 C 182.3125 162.480469 184.945312 162.308594 188.195312 162.308594 C 191.445312 162.308594 194.078125 162.480469 194.078125 165.730469 C 194.078125 168.980469 191.445312 171.613281 188.195312 171.613281 Z M 216.179688 95.273438 L 154.394531 95.273438 C 152.585938 95.273438 151.121094 93.804688 151.121094 91.996094 C 151.121094 90.191406 152.585938 88.722656 154.394531 88.722656 L 216.179688 88.722656 C 217.988281 88.722656 219.453125 90.191406 219.453125 91.996094 C 219.453125 93.804688 217.988281 95.273438 216.179688 95.273438 Z M 233.894531 191.105469 L 233.894531 191.085938 L 229.222656 191.085938 C 229.460938 191.847656 229.644531 192.6875 229.703125 193.574219 C 229.945312 197.21875 228.050781 200.3125 228.050781 200.3125 C 228.050781 200.3125 225.765625 197.496094 225.523438 193.851562 C 225.457031 192.871094 225.546875 191.9375 225.714844 191.085938 L 137.960938 191.085938 L 137.960938 219.777344 L 233.894531 219.777344 L 233.894531 216.085938 C 233.015625 216.667969 232.066406 217.207031 231.050781 217.671875 C 224.242188 220.789062 216.933594 219.410156 216.933594 219.410156 C 216.933594 219.410156 220.667969 212.980469 227.476562 209.863281 C 229.648438 208.867188 231.871094 208.332031 233.894531 208.0625 L 233.894531 205.847656 C 233.117188 206.445312 232.234375 207.003906 231.246094 207.453125 C 227.039062 209.359375 222.539062 208.488281 222.539062 208.488281 C 222.539062 208.488281 224.855469 204.535156 229.0625 202.628906 C 230.726562 201.878906 232.433594 201.558594 233.894531 201.449219 L 233.894531 197.082031 C 232.105469 198.445312 230.378906 199.003906 230.378906 199.003906 C 230.378906 199.003906 230.476562 195.378906 232.667969 192.457031 C 233.046875 191.953125 233.464844 191.503906 233.894531 191.105469 Z M 180.480469 215.019531 L 142.976562 215.019531 L 142.976562 200.3125 L 180.480469 200.3125 Z M 214.832031 218.972656 C 214.832031 218.972656 211.203125 214.507812 210.820312 208.726562 C 210.433594 202.945312 213.441406 198.039062 213.441406 198.039062 C 213.441406 198.039062 217.066406 202.503906 217.449219 208.285156 C 217.835938 214.066406 214.832031 218.972656 214.832031 218.972656 Z M 221.542969 208.6875 C 221.542969 208.6875 218.652344 205.128906 218.347656 200.523438 C 218.039062 195.917969 220.433594 192.007812 220.433594 192.007812 C 220.433594 192.007812 223.320312 195.566406 223.628906 200.171875 C 223.933594 204.777344 221.542969 208.6875 221.542969 208.6875 Z M 175.175781 183.410156 L 201.101562 183.410156 C 202.875 183.410156 204.3125 184.847656 204.3125 186.621094 C 204.3125 188.390625 202.875 189.828125 201.101562 189.828125 L 175.175781 189.828125 C 175.070312 189.828125 172.464844 189.824219 172.359375 189.8125 L 172.359375 183.425781 C 172.464844 183.414062 175.070312 183.410156 175.175781 183.410156 Z M 196.824219 179.953125 L 178.703125 179.953125 C 178.597656 179.953125 175.992188 179.949219 175.886719 179.941406 L 175.886719 173.550781 C 175.992188 173.542969 178.597656 173.539062 178.703125 173.539062 L 196.824219 173.539062 C 198.390625 173.539062 199.691406 174.660156 199.972656 176.144531 C 200.011719 176.339844 200.03125 176.539062 200.03125 176.746094 C 200.03125 178.246094 199.003906 179.5 197.613281 179.851562 C 197.359375 179.917969 197.097656 179.953125 196.824219 179.953125 Z M 177.410156 212.144531 L 145.289062 212.144531 L 145.289062 203.417969 L 177.410156 203.417969 Z M 177.410156 212.144531 " fill-opacity="1" fill-rule="nonzero"/><path fill="#fbc02d" d="M 102.476562 106.292969 C 102.460938 105.613281 102.785156 105.058594 103.207031 105.050781 C 103.625 105.046875 103.980469 105.59375 103.996094 106.277344 C 104.007812 106.957031 103.6875 107.515625 103.265625 107.519531 C 102.851562 107.523438 102.492188 106.976562 102.476562 106.292969 Z M 112.320312 107.519531 C 112.738281 107.523438 113.09375 106.976562 113.109375 106.292969 C 113.125 105.613281 112.800781 105.058594 112.382812 105.050781 C 111.964844 105.046875 111.609375 105.59375 111.59375 106.277344 C 111.578125 106.957031 111.902344 107.515625 112.320312 107.519531 Z M 108.128906 133.671875 C 108.757812 133.671875 109.265625 133.164062 109.265625 132.535156 C 109.265625 131.910156 108.757812 131.398438 108.128906 131.398438 C 107.503906 131.398438 106.992188 131.910156 106.992188 132.535156 C 106.992188 133.164062 107.503906 133.671875 108.128906 133.671875 Z M 108.128906 144.792969 C 108.757812 144.792969 109.265625 144.285156 109.265625 143.65625 C 109.265625 143.03125 108.757812 142.519531 108.128906 142.519531 C 107.503906 142.519531 106.992188 143.03125 106.992188 143.65625 C 106.992188 144.285156 107.503906 144.792969 108.128906 144.792969 Z M 162.691406 144.601562 C 163.117188 144.726562 163.523438 144.613281 163.601562 144.351562 L 164.09375 142.652344 L 165.027344 139.449219 L 166.003906 136.105469 L 167.074219 132.421875 L 168.695312 126.859375 L 170.601562 120.3125 L 173.292969 111.066406 L 175.203125 104.519531 L 175.234375 104.402344 C 175.3125 104.140625 175.027344 103.828125 174.605469 103.703125 C 174.179688 103.582031 173.769531 103.691406 173.695312 103.957031 L 173.53125 104.519531 L 171.625 111.066406 L 168.929688 120.3125 L 167.023438 126.859375 L 165.632812 131.640625 L 164.332031 136.105469 L 163.324219 139.558594 L 162.425781 142.652344 L 162.0625 143.902344 C 161.984375 144.164062 162.265625 144.480469 162.691406 144.601562 Z M 206.054688 186.621094 C 206.054688 188.90625 204.199219 190.757812 201.914062 190.757812 L 172.605469 190.757812 C 172.46875 190.757812 172.332031 190.75 172.199219 190.738281 L 172.199219 182.5 C 172.332031 182.488281 172.46875 182.480469 172.605469 182.480469 L 201.914062 182.480469 C 204.199219 182.480469 206.054688 184.335938 206.054688 186.621094 Z M 204.3125 186.621094 C 204.3125 184.847656 202.875 183.410156 201.101562 183.410156 L 175.175781 183.410156 C 175.070312 183.410156 172.464844 183.414062 172.359375 183.425781 L 172.359375 189.8125 C 172.464844 189.824219 175.070312 189.828125 175.175781 189.828125 L 201.101562 189.828125 C 202.875 189.828125 204.3125 188.390625 204.3125 186.621094 Z M 233.894531 208.0625 C 231.871094 208.332031 229.648438 208.867188 227.476562 209.863281 C 220.667969 212.980469 216.9375 219.410156 216.9375 219.410156 C 216.9375 219.410156 224.242188 220.789062 231.050781 217.671875 C 232.070312 217.207031 233.015625 216.667969 233.894531 216.085938 C 238.890625 212.777344 241.59375 208.125 241.59375 208.125 C 241.59375 208.125 238.203125 207.488281 233.894531 208.0625 Z M 217.449219 208.285156 C 217.066406 202.503906 213.441406 198.039062 213.441406 198.039062 C 213.441406 198.039062 210.433594 202.945312 210.820312 208.726562 C 211.203125 214.507812 214.832031 218.972656 214.832031 218.972656 C 214.832031 218.972656 217.835938 214.066406 217.449219 208.285156 Z M 220.433594 192.007812 C 220.433594 192.007812 218.039062 195.917969 218.347656 200.523438 C 218.652344 205.128906 221.542969 208.6875 221.542969 208.6875 C 221.542969 208.6875 223.933594 204.777344 223.628906 200.171875 C 223.320312 195.566406 220.433594 192.007812 220.433594 192.007812 Z M 229.703125 193.574219 C 229.644531 192.6875 229.460938 191.847656 229.222656 191.085938 C 228.480469 188.726562 227.171875 187.113281 227.171875 187.113281 C 227.171875 187.113281 226.164062 188.773438 225.714844 191.085938 C 225.546875 191.9375 225.457031 192.871094 225.523438 193.851562 C 225.765625 197.496094 228.050781 200.3125 228.050781 200.3125 C 228.050781 200.3125 229.945312 197.21875 229.703125 193.574219 Z M 233.894531 191.105469 C 233.464844 191.503906 233.046875 191.953125 232.667969 192.457031 C 230.476562 195.378906 230.378906 199.003906 230.378906 199.003906 C 230.378906 199.003906 232.105469 198.445312 233.894531 197.082031 C 234.632812 196.519531 235.378906 195.824219 236.019531 194.96875 C 238.210938 192.046875 238.3125 188.421875 238.3125 188.421875 C 238.3125 188.421875 235.949219 189.1875 233.894531 191.105469 Z M 231.246094 207.453125 C 232.234375 207.003906 233.117188 206.445312 233.894531 205.847656 C 236.410156 203.90625 237.769531 201.59375 237.769531 201.59375 C 237.769531 201.59375 236.121094 201.277344 233.894531 201.449219 C 232.433594 201.558594 230.726562 201.878906 229.0625 202.628906 C 224.855469 204.535156 222.539062 208.488281 222.539062 208.488281 C 222.539062 208.488281 227.039062 209.359375 231.246094 207.453125 Z M 236.957031 70.753906 L 236.957031 179.851562 L 200.363281 179.851562 C 199.636719 180.492188 198.683594 180.882812 197.636719 180.882812 L 176.132812 180.882812 C 175.996094 180.882812 175.859375 180.878906 175.726562 180.863281 L 175.726562 179.851562 L 125.96875 179.851562 L 131.277344 186.621094 L 128.625 186.621094 C 130.316406 190.488281 131.277344 194.902344 131.277344 199.589844 C 131.277344 207.554688 128.507812 214.730469 124.078125 219.777344 L 92.976562 219.777344 C 88.550781 214.730469 85.78125 207.554688 85.78125 199.589844 C 85.78125 194.902344 86.742188 190.488281 88.429688 186.621094 L 86.035156 186.621094 L 90.78125 179.851562 L 65.285156 179.851562 L 65.285156 70.753906 Z M 200.03125 176.746094 C 200.03125 176.539062 200.011719 176.339844 199.972656 176.144531 C 199.691406 174.660156 198.390625 173.535156 196.824219 173.535156 L 178.703125 173.535156 C 178.597656 173.535156 175.992188 173.542969 175.886719 173.550781 L 175.886719 179.9375 C 175.992188 179.949219 178.597656 179.953125 178.703125 179.953125 L 196.824219 179.953125 C 197.097656 179.953125 197.359375 179.917969 197.613281 179.851562 C 199.003906 179.5 200.03125 178.246094 200.03125 176.746094 Z M 232.96875 74.460938 L 69.269531 74.460938 L 69.269531 176.144531 L 93.382812 176.144531 L 95.203125 173.550781 C 87.382812 170.933594 78.964844 167.460938 76.589844 166.230469 C 74.652344 165.226562 71.980469 162.339844 71.816406 162.230469 C 67.609375 159.519531 84.867188 136.273438 88.664062 132.410156 C 89.898438 131.152344 96.257812 126.929688 98.820312 126.417969 C 98.851562 127.164062 98.902344 127.976562 98.960938 128.855469 C 99.039062 129.96875 99.140625 131.175781 99.261719 132.46875 C 99.667969 137.554688 100.140625 141.886719 100.660156 144.585938 C 100.679688 144.742188 100.699219 144.894531 100.722656 145.046875 C 101.855469 153.542969 103.328125 162.703125 104.726562 169.496094 C 104.921875 170.445312 105.113281 171.34375 105.304688 172.191406 C 105.644531 173.695312 105.972656 175.03125 106.289062 176.144531 C 106.332031 176.296875 106.375 176.441406 106.417969 176.582031 C 107.03125 178.660156 107.582031 179.871094 108.023438 179.851562 C 108.4375 179.835938 108.929688 178.644531 109.472656 176.605469 C 109.511719 176.457031 109.550781 176.300781 109.589844 176.144531 C 109.695312 175.726562 109.804688 175.28125 109.914062 174.800781 C 110.105469 173.960938 110.300781 173.027344 110.5 172.023438 C 111.828125 165.320312 113.273438 155.308594 114.394531 145.964844 C 115.117188 139.914062 115.703125 134.148438 116.03125 129.75 C 116.132812 128.414062 116.207031 127.210938 116.253906 126.15625 C 122.027344 126.085938 126.054688 130.464844 127.308594 132.753906 C 128.75 135.394531 132.8125 145.363281 135.480469 154.261719 C 138.066406 151.769531 145.398438 145.601562 151.675781 141.203125 C 154.640625 139.121094 157.371094 137.4375 159.253906 136.722656 C 159.625 137.710938 160.417969 138.535156 161.453125 139.039062 C 161.085938 140.039062 160.464844 141.269531 159.671875 142.652344 C 158.089844 145.402344 155.808594 148.75 153.402344 152.054688 C 152.648438 153.085938 151.882812 154.113281 151.121094 155.117188 C 147.390625 160.050781 143.78125 164.398438 142.378906 165.839844 C 140.855469 167.402344 137.316406 169.125 137.167969 169.25 C 134.839844 171.230469 127.492188 163.320312 121.535156 155.785156 L 117.394531 168.921875 L 123.0625 176.144531 L 175.726562 176.144531 L 175.726562 172.628906 C 175.859375 172.613281 175.996094 172.605469 176.132812 172.605469 L 197.636719 172.605469 C 199.71875 172.605469 201.433594 174.144531 201.726562 176.144531 L 232.96875 176.144531 Z M 92.203125 151.699219 C 90.078125 153.261719 87.851562 154.832031 85.675781 156.277344 C 87.757812 157.441406 91.996094 160.140625 96.378906 163.210938 Z M 92.203125 151.699219 " fill-opacity="1" fill-rule="nonzero"/><path fill="#0984e3" d="M 101.03125 120.976562 L 99.660156 124.125 C 99.636719 124.09375 99.613281 124.058594 99.589844 124.023438 C 96.722656 119.75 96.894531 118.445312 93.957031 119.179688 C 90.839844 119.957031 88.960938 119.015625 87.847656 117.816406 C 85.808594 116.355469 84.628906 114.054688 87.296875 111.429688 C 90.742188 108.042969 91.925781 108.023438 90.894531 105.265625 C 88.601562 99.128906 93.757812 97.238281 93.757812 97.238281 C 95.285156 95.800781 97.59375 94.917969 98.480469 92.710938 C 98.828125 91.84375 97.546875 90.894531 99.386719 88.433594 C 102.316406 84.511719 105.359375 87.542969 107.308594 87.898438 C 109.253906 88.253906 111.800781 84.789062 114.589844 85.894531 C 119.621094 87.898438 117.484375 91.996094 117.484375 91.996094 C 117.484375 91.996094 117.484375 91.996094 118.59375 94.136719 C 119.707031 96.277344 123.160156 95.714844 124.792969 97.703125 C 130.058594 104.125 122.570312 107.28125 128.621094 109.019531 C 133.054688 110.292969 131.359375 116.1875 127.75 118.511719 C 127.15625 118.933594 126.421875 119.257812 125.507812 119.394531 C 125.507812 119.394531 125.503906 119.394531 125.5 119.398438 C 125.476562 119.402344 125.453125 119.402344 125.433594 119.402344 C 124.585938 119.519531 123.597656 119.472656 122.429688 119.179688 C 119.488281 118.449219 119.660156 119.75 116.792969 124.023438 C 116.539062 124.40625 116.28125 124.722656 116.019531 124.996094 L 114.632812 121.183594 L 114.628906 121.171875 L 113.757812 118.214844 C 114.914062 117.226562 115.757812 115.988281 116.332031 114.722656 C 116.332031 114.722656 116.332031 114.722656 116.332031 114.71875 C 116.992188 113.257812 117.289062 111.769531 117.289062 110.601562 L 117.289062 107.621094 C 117.445312 106.363281 117.414062 105.332031 117.289062 104.507812 C 117.03125 102.757812 116.382812 101.925781 116.335938 101.867188 C 116.332031 101.863281 116.332031 101.859375 116.332031 101.859375 C 116.332031 101.859375 115.523438 100.554688 115.523438 98.566406 C 115.523438 97.199219 114.765625 96.714844 113.28125 96.71875 C 112.609375 96.71875 111.785156 96.820312 110.816406 96.988281 C 110.527344 97.039062 110.261719 97.054688 110.011719 97.046875 C 108.011719 96.976562 107.222656 95.230469 105.90625 95.273438 C 105.632812 95.28125 105.339844 95.367188 105.003906 95.5625 C 102.863281 96.8125 103.398438 97.523438 102.316406 100.375 C 102.027344 101.136719 101.550781 101.539062 101.007812 101.726562 C 100.597656 102.070312 100.171875 102.550781 100.070312 103.109375 C 99.820312 104.476562 100.851562 108.53125 100.070312 110.09375 C 100.058594 110.121094 100.035156 110.148438 100.019531 110.175781 C 100.003906 110.199219 99.992188 110.21875 99.972656 110.242188 C 99.949219 110.273438 99.921875 110.304688 99.890625 110.335938 C 99.875 110.355469 99.855469 110.378906 99.835938 110.398438 C 99.800781 110.433594 99.761719 110.472656 99.71875 110.507812 C 99.703125 110.523438 99.691406 110.539062 99.675781 110.550781 C 99.621094 110.601562 99.5625 110.648438 99.503906 110.699219 C 99.023438 111.109375 98.449219 111.566406 98.453125 112.152344 C 98.453125 112.222656 98.460938 112.296875 98.480469 112.371094 C 98.480469 112.371094 98.480469 112.371094 98.480469 112.375 C 98.867188 114.277344 99.859375 116.074219 101.253906 117.476562 C 101.453125 117.675781 101.660156 117.867188 101.875 118.050781 L 101 120.941406 C 101.011719 120.953125 101.023438 120.964844 101.03125 120.976562 Z M 117.289062 107.621094 C 117.445312 106.363281 117.414062 105.332031 117.289062 104.507812 Z M 101.875 118.050781 L 101 120.941406 C 101.011719 120.953125 101.023438 120.964844 101.03125 120.976562 C 101.019531 120.964844 101.011719 120.953125 101 120.941406 Z M 110.011719 97.046875 C 110.261719 97.054688 110.527344 97.039062 110.820312 96.988281 C 111.789062 96.820312 112.609375 96.71875 113.285156 96.71875 C 112.609375 96.71875 111.789062 96.820312 110.820312 96.988281 C 110.527344 97.039062 110.261719 97.054688 110.011719 97.046875 Z M 116.914062 104.097656 C 116.660156 102.398438 116.371094 101.921875 116.335938 101.867188 C 116.382812 101.925781 117.03125 102.757812 117.289062 104.507812 L 117.289062 110.601562 C 117.289062 111.769531 116.992188 113.257812 116.332031 114.71875 C 116.335938 114.652344 116.484375 112.566406 116.730469 110.796875 C 117.019531 110.609375 117.035156 104.921875 116.914062 104.097656 Z M 116.925781 109.613281 C 116.925781 109.617188 116.925781 109.617188 116.921875 109.621094 C 116.925781 109.617188 116.925781 109.617188 116.925781 109.613281 Z M 99.972656 110.242188 C 99.949219 110.273438 99.921875 110.304688 99.890625 110.335938 C 99.921875 110.304688 99.949219 110.273438 99.972656 110.242188 Z M 100.074219 103.109375 C 100.175781 102.550781 100.597656 102.070312 101.007812 101.726562 C 101.554688 101.539062 102.03125 101.136719 102.316406 100.375 C 103.398438 97.523438 102.867188 96.8125 105.003906 95.5625 C 105.339844 95.367188 105.636719 95.28125 105.910156 95.273438 C 105.632812 95.28125 105.339844 95.367188 105.003906 95.5625 C 102.863281 96.8125 103.398438 97.523438 102.316406 100.375 C 102.03125 101.136719 101.550781 101.539062 101.007812 101.726562 C 100.597656 102.070312 100.171875 102.550781 100.070312 103.109375 C 99.824219 104.476562 100.851562 108.53125 100.070312 110.09375 C 100.058594 110.121094 100.039062 110.148438 100.019531 110.175781 C 100.039062 110.148438 100.058594 110.121094 100.074219 110.09375 C 100.855469 108.53125 99.824219 104.476562 100.074219 103.109375 Z M 98.480469 112.371094 C 98.480469 112.371094 98.480469 112.371094 98.480469 112.375 C 98.867188 114.277344 99.859375 116.074219 101.253906 117.476562 C 99.859375 116.074219 98.867188 114.28125 98.480469 112.375 C 98.480469 112.371094 98.480469 112.371094 98.480469 112.371094 Z M 99.835938 110.398438 C 99.800781 110.433594 99.761719 110.472656 99.71875 110.507812 C 99.761719 110.472656 99.800781 110.433594 99.835938 110.398438 Z M 98.457031 112.082031 C 98.460938 112.027344 98.46875 111.972656 98.484375 111.921875 C 98.488281 111.902344 98.492188 111.882812 98.496094 111.867188 C 98.515625 111.796875 98.542969 111.730469 98.578125 111.667969 C 98.585938 111.65625 98.59375 111.644531 98.601562 111.632812 C 98.632812 111.578125 98.667969 111.527344 98.707031 111.472656 C 98.71875 111.457031 98.734375 111.4375 98.75 111.417969 C 98.789062 111.367188 98.828125 111.320312 98.871094 111.273438 C 98.882812 111.261719 98.894531 111.25 98.90625 111.238281 C 98.960938 111.179688 99.019531 111.125 99.082031 111.070312 C 99.097656 111.050781 99.117188 111.035156 99.132812 111.019531 C 99.179688 110.976562 99.226562 110.9375 99.273438 110.894531 C 99.300781 110.875 99.324219 110.851562 99.347656 110.832031 C 99.386719 110.800781 99.421875 110.769531 99.457031 110.738281 C 99.53125 110.675781 99.605469 110.613281 99.675781 110.550781 C 99.621094 110.601562 99.5625 110.648438 99.503906 110.699219 C 99.023438 111.109375 98.445312 111.566406 98.453125 112.152344 C 98.453125 112.152344 98.453125 112.148438 98.453125 112.148438 C 98.453125 112.125 98.453125 112.105469 98.457031 112.082031 Z M 188.195312 162.308594 C 184.945312 162.308594 182.3125 162.480469 182.3125 165.730469 C 182.3125 168.980469 184.945312 171.613281 188.195312 171.613281 C 191.445312 171.613281 194.078125 168.980469 194.078125 165.730469 C 194.078125 162.480469 191.445312 162.308594 188.195312 162.308594 Z M 188.195312 162.308594 " fill-opacity="1" fill-rule="nonzero"/><g fill="#000000" fill-opacity="1"><g transform="translate(47.535206, 37.587856)"><g><path d="M 0.40625 -7.40625 C 0.40625 -9.550781 1.132812 -11.363281 2.59375 -12.84375 C 4.0625 -14.320312 5.820312 -15.0625 7.875 -15.0625 C 9.945312 -15.0625 11.703125 -14.320312 13.140625 -12.84375 C 14.585938 -11.375 15.3125 -9.5625 15.3125 -7.40625 C 15.3125 -5.238281 14.597656 -3.414062 13.171875 -1.9375 C 11.753906 -0.46875 9.988281 0.265625 7.875 0.265625 C 5.707031 0.265625 3.921875 -0.460938 2.515625 -1.921875 C 1.109375 -3.390625 0.40625 -5.21875 0.40625 -7.40625 Z M 4.046875 -7.40625 C 4.046875 -6.632812 4.164062 -5.925781 4.40625 -5.28125 C 4.644531 -4.644531 5.0625 -4.101562 5.65625 -3.65625 C 6.257812 -3.21875 7 -3 7.875 -3 C 9.132812 -3 10.082031 -3.425781 10.71875 -4.28125 C 11.351562 -5.144531 11.671875 -6.1875 11.671875 -7.40625 C 11.671875 -8.613281 11.34375 -9.648438 10.6875 -10.515625 C 10.039062 -11.390625 9.101562 -11.828125 7.875 -11.828125 C 6.65625 -11.828125 5.710938 -11.390625 5.046875 -10.515625 C 4.378906 -9.648438 4.046875 -8.613281 4.046875 -7.40625 Z M 4.046875 -7.40625 "/></g></g></g><g fill="#000000" fill-opacity="1"><g transform="translate(63.259524, 37.587856)"><g><path d="M 1.078125 0 L 1.078125 -9.203125 L 4.25 -9.203125 L 4.25 -8.234375 L 4.28125 -8.234375 C 5.113281 -9.054688 5.992188 -9.46875 6.921875 -9.46875 C 7.378906 -9.46875 7.832031 -9.40625 8.28125 -9.28125 C 8.726562 -9.164062 9.15625 -8.984375 9.5625 -8.734375 C 9.976562 -8.484375 10.3125 -8.128906 10.5625 -7.671875 C 10.820312 -7.210938 10.953125 -6.675781 10.953125 -6.0625 L 10.953125 0 L 7.78125 0 L 7.78125 -5.203125 C 7.78125 -5.679688 7.628906 -6.097656 7.328125 -6.453125 C 7.023438 -6.816406 6.628906 -7 6.140625 -7 C 5.660156 -7 5.222656 -6.8125 4.828125 -6.4375 C 4.441406 -6.070312 4.25 -5.660156 4.25 -5.203125 L 4.25 0 Z M 1.078125 0 "/></g></g></g><g fill="#000000" fill-opacity="1"><g transform="translate(75.111036, 37.587856)"><g><path d="M 1.078125 0 L 1.078125 -15.421875 L 4.25 -15.421875 L 4.25 0 Z M 1.078125 0 "/></g></g></g><g fill="#000000" fill-opacity="1"><g transform="translate(80.436143, 37.587856)"><g><path d="M 1.375 -14.328125 C 1.75 -14.703125 2.191406 -14.890625 2.703125 -14.890625 C 3.222656 -14.890625 3.664062 -14.703125 4.03125 -14.328125 C 4.40625 -13.960938 4.59375 -13.519531 4.59375 -13 C 4.59375 -12.488281 4.40625 -12.046875 4.03125 -11.671875 C 3.664062 -11.304688 3.222656 -11.125 2.703125 -11.125 C 2.191406 -11.125 1.75 -11.304688 1.375 -11.671875 C 1.007812 -12.046875 0.828125 -12.488281 0.828125 -13 C 0.828125 -13.519531 1.007812 -13.960938 1.375 -14.328125 Z M 1.078125 -9.203125 L 1.078125 0 L 4.25 0 L 4.25 -9.203125 Z M 1.078125 -9.203125 "/></g></g></g><g fill="#000000" fill-opacity="1"><g transform="translate(85.850903, 37.587856)"><g><path d="M 1.078125 0 L 1.078125 -9.203125 L 4.25 -9.203125 L 4.25 -8.234375 L 4.28125 -8.234375 C 5.113281 -9.054688 5.992188 -9.46875 6.921875 -9.46875 C 7.378906 -9.46875 7.832031 -9.40625 8.28125 -9.28125 C 8.726562 -9.164062 9.15625 -8.984375 9.5625 -8.734375 C 9.976562 -8.484375 10.3125 -8.128906 10.5625 -7.671875 C 10.820312 -7.210938 10.953125 -6.675781 10.953125 -6.0625 L 10.953125 0 L 7.78125 0 L 7.78125 -5.203125 C 7.78125 -5.679688 7.628906 -6.097656 7.328125 -6.453125 C 7.023438 -6.816406 6.628906 -7 6.140625 -7 C 5.660156 -7 5.222656 -6.8125 4.828125 -6.4375 C 4.441406 -6.070312 4.25 -5.660156 4.25 -5.203125 L 4.25 0 Z M 1.078125 0 "/></g></g></g><g fill="#000000" fill-opacity="1"><g transform="translate(97.702415, 37.587856)"><g><path d="M 10.390625 -4.15625 L 3.71875 -4.15625 C 3.71875 -3.507812 3.925781 -3.03125 4.34375 -2.71875 C 4.757812 -2.414062 5.210938 -2.265625 5.703125 -2.265625 C 6.210938 -2.265625 6.617188 -2.332031 6.921875 -2.46875 C 7.222656 -2.601562 7.566406 -2.875 7.953125 -3.28125 L 10.25 -2.140625 C 9.289062 -0.535156 7.695312 0.265625 5.46875 0.265625 C 4.082031 0.265625 2.890625 -0.207031 1.890625 -1.15625 C 0.898438 -2.101562 0.40625 -3.242188 0.40625 -4.578125 C 0.40625 -5.921875 0.898438 -7.070312 1.890625 -8.03125 C 2.890625 -8.988281 4.082031 -9.46875 5.46875 -9.46875 C 6.925781 -9.46875 8.113281 -9.046875 9.03125 -8.203125 C 9.945312 -7.359375 10.40625 -6.15625 10.40625 -4.59375 C 10.40625 -4.375 10.398438 -4.226562 10.390625 -4.15625 Z M 3.796875 -5.921875 L 7.296875 -5.921875 C 7.222656 -6.398438 7.035156 -6.765625 6.734375 -7.015625 C 6.429688 -7.273438 6.039062 -7.40625 5.5625 -7.40625 C 5.03125 -7.40625 4.609375 -7.265625 4.296875 -6.984375 C 3.992188 -6.710938 3.828125 -6.359375 3.796875 -5.921875 Z M 3.796875 -5.921875 "/></g></g></g><g fill="#000000" fill-opacity="1"><g transform="translate(108.514002, 37.587856)"><g><path d="M 10.546875 -15.421875 L 3.15625 2.15625 L 0.40625 2.15625 L 7.796875 -15.421875 Z M 10.546875 -15.421875 "/></g></g></g><g fill="#000000" fill-opacity="1"><g transform="translate(119.46903, 37.587856)"><g><path d="M 1.078125 -14.796875 L 5.359375 -14.796875 C 7.421875 -14.796875 9.179688 -14.09375 10.640625 -12.6875 C 12.097656 -11.28125 12.828125 -9.519531 12.828125 -7.40625 C 12.828125 -5.28125 12.097656 -3.515625 10.640625 -2.109375 C 9.191406 -0.703125 7.429688 0 5.359375 0 L 1.078125 0 Z M 4.453125 -3.015625 L 4.96875 -3.015625 C 6.195312 -3.015625 7.203125 -3.425781 7.984375 -4.25 C 8.773438 -5.082031 9.175781 -6.128906 9.1875 -7.390625 C 9.1875 -8.648438 8.789062 -9.695312 8 -10.53125 C 7.21875 -11.363281 6.207031 -11.78125 4.96875 -11.78125 L 4.453125 -11.78125 Z M 4.453125 -3.015625 "/></g></g></g><g fill="#000000" fill-opacity="1"><g transform="translate(132.701122, 37.587856)"><g><path d="M 1.375 -14.328125 C 1.75 -14.703125 2.191406 -14.890625 2.703125 -14.890625 C 3.222656 -14.890625 3.664062 -14.703125 4.03125 -14.328125 C 4.40625 -13.960938 4.59375 -13.519531 4.59375 -13 C 4.59375 -12.488281 4.40625 -12.046875 4.03125 -11.671875 C 3.664062 -11.304688 3.222656 -11.125 2.703125 -11.125 C 2.191406 -11.125 1.75 -11.304688 1.375 -11.671875 C 1.007812 -12.046875 0.828125 -12.488281 0.828125 -13 C 0.828125 -13.519531 1.007812 -13.960938 1.375 -14.328125 Z M 1.078125 -9.203125 L 1.078125 0 L 4.25 0 L 4.25 -9.203125 Z M 1.078125 -9.203125 "/></g></g></g><g fill="#000000" fill-opacity="1"><g transform="translate(138.115882, 37.587856)"><g><path d="M 5.078125 -9.46875 C 5.597656 -9.46875 6.113281 -9.40625 6.625 -9.28125 C 7.144531 -9.164062 7.53125 -9.050781 7.78125 -8.9375 L 8.15625 -8.75 L 7.125 -6.671875 C 6.40625 -7.054688 5.722656 -7.25 5.078125 -7.25 C 4.710938 -7.25 4.457031 -7.207031 4.3125 -7.125 C 4.164062 -7.050781 4.09375 -6.90625 4.09375 -6.6875 C 4.09375 -6.644531 4.097656 -6.597656 4.109375 -6.546875 C 4.117188 -6.492188 4.140625 -6.445312 4.171875 -6.40625 C 4.210938 -6.363281 4.25 -6.328125 4.28125 -6.296875 C 4.3125 -6.273438 4.359375 -6.242188 4.421875 -6.203125 C 4.492188 -6.171875 4.550781 -6.144531 4.59375 -6.125 C 4.632812 -6.101562 4.703125 -6.070312 4.796875 -6.03125 C 4.898438 -6 4.972656 -5.972656 5.015625 -5.953125 C 5.066406 -5.941406 5.148438 -5.914062 5.265625 -5.875 C 5.378906 -5.84375 5.46875 -5.820312 5.53125 -5.8125 C 5.894531 -5.707031 6.210938 -5.585938 6.484375 -5.453125 C 6.765625 -5.316406 7.054688 -5.132812 7.359375 -4.90625 C 7.671875 -4.6875 7.910156 -4.398438 8.078125 -4.046875 C 8.242188 -3.703125 8.328125 -3.3125 8.328125 -2.875 C 8.328125 -0.78125 6.875 0.265625 3.96875 0.265625 C 3.3125 0.265625 2.6875 0.164062 2.09375 -0.03125 C 1.5 -0.238281 1.070312 -0.441406 0.8125 -0.640625 L 0.40625 -0.96875 L 1.703125 -3.140625 C 1.796875 -3.054688 1.921875 -2.957031 2.078125 -2.84375 C 2.234375 -2.726562 2.515625 -2.570312 2.921875 -2.375 C 3.328125 -2.175781 3.679688 -2.078125 3.984375 -2.078125 C 4.640625 -2.078125 4.96875 -2.300781 4.96875 -2.75 C 4.96875 -2.945312 4.882812 -3.101562 4.71875 -3.21875 C 4.550781 -3.332031 4.265625 -3.460938 3.859375 -3.609375 C 3.460938 -3.753906 3.148438 -3.882812 2.921875 -4 C 2.347656 -4.300781 1.894531 -4.640625 1.5625 -5.015625 C 1.226562 -5.390625 1.0625 -5.890625 1.0625 -6.515625 C 1.0625 -7.441406 1.421875 -8.164062 2.140625 -8.6875 C 2.867188 -9.207031 3.847656 -9.46875 5.078125 -9.46875 Z M 5.078125 -9.46875 "/></g></g></g><g fill="#000000" fill-opacity="1"><g transform="translate(146.937285, 37.587856)"><g><path d="M 1.609375 -9.203125 L 1.609375 -12.625 L 4.796875 -12.625 L 4.796875 -9.203125 L 6.71875 -9.203125 L 6.71875 -6.78125 L 4.796875 -6.78125 L 4.796875 -3.859375 C 4.796875 -3.003906 5.03125 -2.578125 5.5 -2.578125 C 5.625 -2.578125 5.75 -2.597656 5.875 -2.640625 C 6.007812 -2.691406 6.113281 -2.742188 6.1875 -2.796875 L 6.296875 -2.875 L 7.078125 -0.3125 C 6.398438 0.0703125 5.625 0.265625 4.75 0.265625 C 4.15625 0.265625 3.640625 0.160156 3.203125 -0.046875 C 2.773438 -0.253906 2.453125 -0.535156 2.234375 -0.890625 C 2.015625 -1.242188 1.851562 -1.613281 1.75 -2 C 1.65625 -2.382812 1.609375 -2.800781 1.609375 -3.25 L 1.609375 -6.78125 L 0.28125 -6.78125 L 0.28125 -9.203125 Z M 1.609375 -9.203125 "/></g></g></g><g fill="#000000" fill-opacity="1"><g transform="translate(154.019506, 37.587856)"><g><path d="M 1.703125 -1.140625 C 0.835938 -2.078125 0.40625 -3.226562 0.40625 -4.59375 C 0.40625 -5.957031 0.835938 -7.109375 1.703125 -8.046875 C 2.566406 -8.992188 3.660156 -9.46875 4.984375 -9.46875 C 6.203125 -9.46875 7.207031 -9.085938 8 -8.328125 L 8 -9.203125 L 11.171875 -9.203125 L 11.171875 0 L 8.03125 0 L 8.03125 -1.046875 L 8 -1.046875 C 7.207031 -0.171875 6.203125 0.265625 4.984375 0.265625 C 3.660156 0.265625 2.566406 -0.203125 1.703125 -1.140625 Z M 4.390625 -6.15625 C 3.984375 -5.75 3.78125 -5.226562 3.78125 -4.59375 C 3.78125 -3.957031 3.976562 -3.4375 4.375 -3.03125 C 4.769531 -2.632812 5.289062 -2.4375 5.9375 -2.4375 C 6.5625 -2.4375 7.070312 -2.640625 7.46875 -3.046875 C 7.875 -3.453125 8.078125 -3.96875 8.078125 -4.59375 C 8.078125 -5.226562 7.867188 -5.75 7.453125 -6.15625 C 7.035156 -6.5625 6.53125 -6.765625 5.9375 -6.765625 C 5.320312 -6.765625 4.804688 -6.5625 4.390625 -6.15625 Z M 4.390625 -6.15625 "/></g></g></g><g fill="#000000" fill-opacity="1"><g transform="translate(166.265473, 37.587856)"><g><path d="M 1.078125 0 L 1.078125 -9.203125 L 4.25 -9.203125 L 4.25 -8.234375 L 4.28125 -8.234375 C 5.113281 -9.054688 5.992188 -9.46875 6.921875 -9.46875 C 7.378906 -9.46875 7.832031 -9.40625 8.28125 -9.28125 C 8.726562 -9.164062 9.15625 -8.984375 9.5625 -8.734375 C 9.976562 -8.484375 10.3125 -8.128906 10.5625 -7.671875 C 10.820312 -7.210938 10.953125 -6.675781 10.953125 -6.0625 L 10.953125 0 L 7.78125 0 L 7.78125 -5.203125 C 7.78125 -5.679688 7.628906 -6.097656 7.328125 -6.453125 C 7.023438 -6.816406 6.628906 -7 6.140625 -7 C 5.660156 -7 5.222656 -6.8125 4.828125 -6.4375 C 4.441406 -6.070312 4.25 -5.660156 4.25 -5.203125 L 4.25 0 Z M 1.078125 0 "/></g></g></g><g fill="#000000" fill-opacity="1"><g transform="translate(178.116985, 37.587856)"><g><path d="M 5.96875 -6.875 C 5.375 -6.875 4.859375 -6.648438 4.421875 -6.203125 C 3.992188 -5.765625 3.78125 -5.234375 3.78125 -4.609375 C 3.78125 -3.972656 3.992188 -3.429688 4.421875 -2.984375 C 4.859375 -2.546875 5.375 -2.328125 5.96875 -2.328125 C 6.257812 -2.328125 6.53125 -2.363281 6.78125 -2.4375 C 7.039062 -2.507812 7.234375 -2.582031 7.359375 -2.65625 L 7.515625 -2.765625 L 8.59375 -0.5625 C 8.507812 -0.5 8.390625 -0.421875 8.234375 -0.328125 C 8.085938 -0.242188 7.75 -0.125 7.21875 0.03125 C 6.6875 0.1875 6.113281 0.265625 5.5 0.265625 C 4.15625 0.265625 2.96875 -0.207031 1.9375 -1.15625 C 0.914062 -2.101562 0.40625 -3.242188 0.40625 -4.578125 C 0.40625 -5.910156 0.914062 -7.054688 1.9375 -8.015625 C 2.96875 -8.984375 4.15625 -9.46875 5.5 -9.46875 C 6.113281 -9.46875 6.675781 -9.394531 7.1875 -9.25 C 7.707031 -9.113281 8.070312 -8.972656 8.28125 -8.828125 L 8.59375 -8.609375 L 7.515625 -6.4375 C 7.117188 -6.726562 6.601562 -6.875 5.96875 -6.875 Z M 5.96875 -6.875 "/></g></g></g><g fill="#000000" fill-opacity="1"><g transform="translate(186.920455, 37.587856)"><g><path d="M 10.390625 -4.15625 L 3.71875 -4.15625 C 3.71875 -3.507812 3.925781 -3.03125 4.34375 -2.71875 C 4.757812 -2.414062 5.210938 -2.265625 5.703125 -2.265625 C 6.210938 -2.265625 6.617188 -2.332031 6.921875 -2.46875 C 7.222656 -2.601562 7.566406 -2.875 7.953125 -3.28125 L 10.25 -2.140625 C 9.289062 -0.535156 7.695312 0.265625 5.46875 0.265625 C 4.082031 0.265625 2.890625 -0.207031 1.890625 -1.15625 C 0.898438 -2.101562 0.40625 -3.242188 0.40625 -4.578125 C 0.40625 -5.921875 0.898438 -7.070312 1.890625 -8.03125 C 2.890625 -8.988281 4.082031 -9.46875 5.46875 -9.46875 C 6.925781 -9.46875 8.113281 -9.046875 9.03125 -8.203125 C 9.945312 -7.359375 10.40625 -6.15625 10.40625 -4.59375 C 10.40625 -4.375 10.398438 -4.226562 10.390625 -4.15625 Z M 3.796875 -5.921875 L 7.296875 -5.921875 C 7.222656 -6.398438 7.035156 -6.765625 6.734375 -7.015625 C 6.429688 -7.273438 6.039062 -7.40625 5.5625 -7.40625 C 5.03125 -7.40625 4.609375 -7.265625 4.296875 -6.984375 C 3.992188 -6.710938 3.828125 -6.359375 3.796875 -5.921875 Z M 3.796875 -5.921875 "/></g></g></g><g fill="#000000" fill-opacity="1"><g transform="translate(197.732042, 37.587856)"><g/></g></g><g fill="#104e91" fill-opacity="1"><g transform="translate(202.621133, 37.587856)"><g><path d="M 13.3125 0 L 12.609375 -8.765625 L 12.515625 -8.765625 L 9.484375 -0.09375 L 7.484375 -0.09375 L 4.453125 -8.765625 L 4.359375 -8.765625 L 3.65625 0 L 0.28125 0 L 1.609375 -14.796875 L 5.203125 -14.796875 L 8.484375 -6.265625 L 11.765625 -14.796875 L 15.359375 -14.796875 L 16.6875 0 Z M 13.3125 0 "/></g></g></g><g fill="#104e91" fill-opacity="1"><g transform="translate(219.582603, 37.587856)"><g><path d="M 3.125 -3.84375 C 3.695312 -3.84375 4.179688 -3.640625 4.578125 -3.234375 C 4.984375 -2.835938 5.1875 -2.351562 5.1875 -1.78125 C 5.1875 -1.21875 4.984375 -0.734375 4.578125 -0.328125 C 4.179688 0.0664062 3.695312 0.265625 3.125 0.265625 C 2.5625 0.265625 2.078125 0.0664062 1.671875 -0.328125 C 1.273438 -0.734375 1.078125 -1.21875 1.078125 -1.78125 C 1.078125 -2.351562 1.273438 -2.835938 1.671875 -3.234375 C 2.078125 -3.640625 2.5625 -3.84375 3.125 -3.84375 Z M 3.125 -3.84375 "/></g></g></g><g fill="#104e91" fill-opacity="1"><g transform="translate(225.84006, 37.587856)"><g><path d="M 9.546875 -14.796875 L 9.546875 -11.84375 L 4.453125 -11.84375 L 4.453125 -8.890625 L 9.328125 -8.890625 L 9.328125 -5.9375 L 4.453125 -5.9375 L 4.453125 -2.953125 L 9.546875 -2.953125 L 9.546875 0 L 1.078125 0 L 1.078125 -14.796875 Z M 9.546875 -14.796875 "/></g></g></g><g fill="#104e91" fill-opacity="1"><g transform="translate(236.239271, 37.587856)"><g><path d="M 1.703125 -1.140625 C 0.835938 -2.078125 0.40625 -3.226562 0.40625 -4.59375 C 0.40625 -5.957031 0.835938 -7.109375 1.703125 -8.046875 C 2.566406 -8.992188 3.660156 -9.46875 4.984375 -9.46875 C 6.203125 -9.46875 7.207031 -9.085938 8 -8.328125 L 8 -15.421875 L 11.171875 -15.421875 L 11.171875 0 L 8.03125 0 L 8.03125 -1.046875 L 8 -1.046875 C 7.207031 -0.171875 6.203125 0.265625 4.984375 0.265625 C 3.660156 0.265625 2.566406 -0.203125 1.703125 -1.140625 Z M 4.390625 -6.15625 C 3.984375 -5.75 3.78125 -5.226562 3.78125 -4.59375 C 3.78125 -3.957031 3.976562 -3.4375 4.375 -3.03125 C 4.769531 -2.632812 5.289062 -2.4375 5.9375 -2.4375 C 6.5625 -2.4375 7.070312 -2.640625 7.46875 -3.046875 C 7.875 -3.453125 8.078125 -3.96875 8.078125 -4.59375 C 8.078125 -5.226562 7.867188 -5.75 7.453125 -6.15625 C 7.035156 -6.5625 6.53125 -6.765625 5.9375 -6.765625 C 5.320312 -6.765625 4.804688 -6.5625 4.390625 -6.15625 Z M 4.390625 -6.15625 "/></g></g></g></svg>