<svg xmlns="http://www.w3.org/2000/svg" xmlns:xlink="http://www.w3.org/1999/xlink" width="406" zoomAndPan="magnify" viewBox="0 0 304.5 227.999995" height="304" preserveAspectRatio="xMidYMid meet" version="1.0"><defs><g/><clipPath id="117f898174"><path d="M 0 0.1875 L 304 0.1875 L 304 227.8125 L 0 227.8125 Z M 0 0.1875 " clip-rule="nonzero"/></clipPath></defs><g clip-path="url(#117f898174)"><path fill="#ffffff" d="M 0 0.1875 L 304.5 0.1875 L 304.5 235.6875 L 0 235.6875 Z M 0 0.1875 " fill-opacity="1" fill-rule="nonzero"/><path fill="#ffffff" d="M 0 0.1875 L 304.5 0.1875 L 304.5 228.1875 L 0 228.1875 Z M 0 0.1875 " fill-opacity="1" fill-rule="nonzero"/><path fill="#eaf8ff" d="M 0 0.1875 L 304.5 0.1875 L 304.5 228.1875 L 0 228.1875 Z M 0 0.1875 " fill-opacity="1" fill-rule="nonzero"/></g><path fill="#ffd2bb" d="M 148.953125 184.902344 C 148.953125 184.902344 150.75 187.042969 149.160156 188.144531 C 147.683594 189.164062 144.484375 188.171875 142.703125 187.453125 L 142.523438 187.648438 C 142.367188 187.503906 142.222656 187.355469 142.113281 187.203125 C 141.40625 186.996094 140.617188 186.660156 139.785156 186.230469 C 139.941406 183.746094 139.980469 181.425781 139.8125 179.578125 C 140.039062 179.867188 140.171875 180.039062 140.171875 180.039062 C 140.171875 180.039062 142.148438 182.203125 143.480469 184.183594 C 144.585938 183.152344 145.972656 182.152344 146.800781 182.160156 C 146.964844 182.164062 147.144531 182.261719 147.328125 182.425781 L 147.132812 182.636719 C 147.785156 183.503906 148.953125 184.902344 148.953125 184.902344 Z M 226.308594 115.464844 C 225.929688 115.570312 225.5625 115.707031 225.210938 115.863281 C 225.203125 115.867188 225.199219 115.867188 225.195312 115.871094 C 225.035156 115.941406 224.878906 116.019531 224.722656 116.101562 C 224.703125 116.113281 224.683594 116.121094 224.664062 116.128906 C 224.492188 116.222656 224.328125 116.320312 224.160156 116.421875 L 223.585938 113.25 C 222.75 113.667969 221.953125 113.941406 221.304688 114.023438 C 219.234375 114.273438 219.285156 112.453125 219.253906 110.152344 C 219.035156 110.136719 218.835938 110.097656 218.691406 110.035156 C 218.039062 109.765625 218.664062 109.15625 218.988281 108.390625 C 219.035156 108.277344 219.09375 108.171875 219.160156 108.078125 C 219.152344 108.007812 219.144531 107.941406 219.136719 107.875 C 219.023438 106.925781 219.109375 106.011719 219.351562 105.179688 L 219.390625 105.175781 C 219.644531 105.144531 222.839844 104.863281 222.527344 104.996094 C 222.078125 106.40625 222.152344 107.785156 222.773438 108.765625 C 224.101562 111.402344 225.238281 113.617188 226.308594 115.464844 Z M 220.878906 107.921875 C 220.851562 107.636719 220.6875 107.417969 220.507812 107.4375 C 220.332031 107.457031 220.207031 107.703125 220.238281 107.992188 C 220.265625 108.28125 220.429688 108.5 220.609375 108.480469 C 220.785156 108.460938 220.90625 108.210938 220.878906 107.921875 Z M 140.953125 151.660156 C 139.90625 153.988281 139.152344 155.859375 137.160156 154.6875 C 136.273438 154.167969 135.253906 153.109375 134.367188 151.816406 L 132.878906 152.214844 L 126.867188 145.9375 L 131.25 144.164062 C 131.25 144.175781 131.253906 144.191406 131.257812 144.203125 C 131.316406 144.441406 131.390625 144.671875 131.46875 144.902344 C 131.527344 145.070312 131.601562 145.230469 131.667969 145.394531 C 131.789062 145.683594 131.921875 145.960938 132.070312 146.226562 C 132.09375 146.273438 132.117188 146.324219 132.148438 146.371094 C 132.152344 146.378906 132.15625 146.390625 132.164062 146.402344 C 132.722656 147.355469 133.433594 148.109375 134.214844 148.597656 C 134.597656 148.84375 134.996094 149.019531 135.402344 149.125 C 135.433594 149.136719 135.460938 149.144531 135.496094 149.148438 C 135.289062 148.964844 135.113281 148.75 134.980469 148.507812 C 134.839844 148.253906 134.746094 147.972656 134.710938 147.671875 C 134.617188 146.988281 134.917969 146.300781 135.605469 146.089844 C 136.476562 145.824219 137.382812 146.371094 137.78125 147.132812 C 137.804688 147.183594 137.832031 147.238281 137.851562 147.289062 C 137.878906 147.351562 137.894531 147.414062 137.914062 147.480469 C 137.929688 147.53125 137.949219 147.578125 137.960938 147.628906 C 137.984375 147.722656 138 147.820312 138.011719 147.914062 C 138.011719 147.9375 138.019531 147.957031 138.019531 147.980469 C 138.042969 148.214844 138.03125 148.457031 137.996094 148.695312 C 138.886719 148.09375 139.703125 146.6875 140.039062 145.285156 C 141.039062 146.089844 142.011719 146.863281 142.867188 147.546875 C 142.695312 148.175781 142.4375 148.800781 142.085938 149.402344 C 142.046875 149.464844 142.007812 149.53125 141.972656 149.597656 C 141.996094 149.722656 142.007812 149.855469 142.007812 149.988281 C 141.996094 150.914062 142.359375 151.804688 141.582031 151.796875 C 141.40625 151.792969 141.1875 151.746094 140.953125 151.660156 Z M 140.914062 149.035156 C 141.070312 148.753906 141.054688 148.445312 140.882812 148.347656 C 140.710938 148.25 140.449219 148.398438 140.292969 148.679688 C 140.136719 148.960938 140.148438 149.269531 140.320312 149.367188 C 140.492188 149.464844 140.757812 149.3125 140.914062 149.035156 Z M 191.304688 124.304688 C 191.113281 124.269531 190.914062 124.253906 190.710938 124.253906 C 189.125 124.253906 187.808594 125.367188 187.527344 126.835938 C 187.523438 126.859375 187.515625 126.886719 187.511719 126.910156 C 187.484375 127.074219 187.46875 127.242188 187.46875 127.414062 C 187.46875 128.910156 188.53125 130.164062 189.964844 130.492188 C 190.203125 130.546875 190.453125 130.578125 190.710938 130.578125 C 191.675781 130.578125 192.539062 130.167969 193.132812 129.515625 C 193.210938 129.429688 193.28125 129.34375 193.351562 129.25 C 193.527344 129.003906 193.671875 128.738281 193.773438 128.449219 C 193.886719 128.125 193.953125 127.777344 193.953125 127.417969 C 193.953125 127.28125 193.941406 127.152344 193.925781 127.023438 C 193.75 125.652344 192.679688 124.554688 191.304688 124.304688 Z M 168.332031 164.808594 C 168.121094 164.703125 167.898438 164.625 167.691406 164.566406 C 167.199219 164.429688 166.78125 164.40625 166.78125 164.40625 C 166.78125 164.40625 166.476562 164.308594 166.050781 164.199219 C 165.5625 164.074219 164.914062 163.933594 164.359375 163.898438 C 163.894531 163.871094 163.492188 163.914062 163.308594 164.109375 C 163.019531 164.414062 162.824219 165.003906 162.699219 165.707031 L 160.859375 167.707031 C 158.980469 167.527344 157.238281 167.507812 157.238281 167.507812 C 157.238281 167.507812 153.28125 167.136719 149.980469 167.054688 C 148.902344 167.03125 147.898438 167.035156 147.121094 167.089844 C 147.117188 167.089844 147.117188 167.089844 147.117188 167.089844 C 146.613281 167.128906 146.203125 167.1875 145.9375 167.273438 C 145.773438 167.328125 145.617188 167.390625 145.46875 167.460938 C 145.453125 167.46875 145.4375 167.476562 145.417969 167.484375 C 145.296875 167.546875 145.179688 167.617188 145.070312 167.691406 C 145.046875 167.703125 145.023438 167.714844 145 167.730469 C 144.925781 167.78125 144.859375 167.835938 144.792969 167.890625 C 144.757812 167.917969 144.71875 167.945312 144.6875 167.972656 C 144.667969 167.988281 144.652344 168 144.632812 168.015625 C 144.621094 168.027344 144.609375 168.039062 144.597656 168.054688 C 144.503906 168.136719 144.417969 168.222656 144.335938 168.316406 C 144.328125 168.320312 144.324219 168.328125 144.316406 168.335938 C 144.222656 168.445312 144.132812 168.558594 144.050781 168.675781 C 144.050781 168.679688 144.046875 168.683594 144.042969 168.6875 C 143.960938 168.804688 143.886719 168.929688 143.820312 169.054688 C 143.820312 169.058594 143.816406 169.0625 143.8125 169.070312 C 143.757812 169.175781 143.707031 169.285156 143.660156 169.398438 C 143.652344 169.417969 143.644531 169.433594 143.636719 169.457031 C 143.632812 169.460938 143.632812 169.464844 143.628906 169.46875 C 143.566406 169.625 143.515625 169.785156 143.472656 169.945312 C 143.460938 169.996094 143.449219 170.042969 143.441406 170.089844 C 143.414062 170.207031 143.390625 170.324219 143.371094 170.445312 C 143.363281 170.5 143.355469 170.554688 143.347656 170.609375 C 143.335938 170.726562 143.328125 170.84375 143.324219 170.964844 C 143.320312 171.011719 143.316406 171.058594 143.316406 171.109375 C 143.316406 171.4375 143.347656 171.761719 143.414062 172.070312 C 143.425781 172.117188 143.4375 172.164062 143.449219 172.210938 C 143.476562 172.316406 143.507812 172.421875 143.542969 172.523438 C 143.558594 172.574219 143.578125 172.625 143.597656 172.671875 C 143.636719 172.773438 143.679688 172.871094 143.726562 172.964844 C 143.75 173.003906 143.765625 173.046875 143.789062 173.085938 C 143.863281 173.21875 143.941406 173.339844 144.027344 173.457031 C 144.15625 173.582031 144.296875 173.675781 144.449219 173.726562 C 145.011719 173.917969 145.796875 174.039062 146.738281 174.101562 C 147.027344 174.121094 147.332031 174.132812 147.652344 174.140625 C 149.890625 174.191406 152.761719 173.957031 155.542969 173.488281 C 156.355469 173.351562 157.15625 173.195312 157.9375 173.019531 C 158.484375 172.898438 159.019531 172.765625 159.535156 172.625 C 160.144531 172.460938 160.734375 172.28125 161.28125 172.089844 C 161.5 172.015625 161.714844 171.9375 161.921875 171.855469 C 162.632812 171.582031 163.269531 171.289062 163.796875 170.976562 C 164.582031 171.074219 165.636719 170.792969 166.617188 170.199219 C 167.316406 169.773438 167.980469 169.191406 168.476562 168.476562 C 168.847656 167.945312 169.117188 167.339844 169.25 166.671875 C 169.261719 166.601562 169.28125 166.535156 169.292969 166.464844 C 169.421875 165.601562 168.921875 165.101562 168.332031 164.808594 Z M 168.332031 164.808594 " fill-opacity="1" fill-rule="nonzero"/><path fill="#e84393" d="M 221.003906 166.328125 C 219.769531 167.230469 218.5 168.082031 217.203125 168.851562 C 217.664062 170.335938 217.921875 172.21875 217.886719 174.324219 C 217.8125 179.089844 213.945312 200.296875 213.125 204.753906 C 213.027344 205.28125 212.972656 205.578125 212.972656 205.578125 C 212.972656 205.578125 209.5625 181.378906 209.648438 176.046875 C 209.675781 174.492188 209.855469 172.992188 210.152344 171.632812 C 209.582031 171.042969 210.957031 168.339844 213.125 164.890625 C 214.191406 163.195312 215.449219 161.320312 216.761719 159.425781 C 216.765625 159.429688 218.332031 163.097656 221.003906 166.328125 Z M 230.121094 175.164062 C 229.847656 174.207031 229.503906 173.332031 229.117188 172.550781 C 229.296875 172.277344 229.472656 172.007812 229.648438 171.738281 C 228.347656 171.402344 227.003906 170.929688 225.664062 170.265625 C 224.378906 169.628906 223.207031 168.683594 222.160156 167.617188 C 222.457031 169.765625 222.804688 171.886719 223.199219 173.75 C 223.039062 175.488281 223.21875 177.484375 223.785156 179.472656 C 225.125 184.15625 234.53125 205.578125 234.53125 205.578125 C 234.53125 205.578125 231.457031 179.851562 230.121094 175.164062 Z M 126.867188 145.9375 L 126.804688 145.871094 C 126.804688 145.871094 125.605469 144.476562 122.8125 146.023438 C 121.851562 146.550781 112.566406 155.355469 105.40625 162.207031 C 102.320312 165.15625 99.632812 167.742188 98.171875 169.148438 C 97.429688 169.863281 97 170.277344 97 170.277344 C 96.925781 170.371094 91.261719 176.832031 93.929688 191.542969 C 93.972656 191.570312 94.445312 196.457031 95.414062 201.34375 C 90.785156 200.792969 84.371094 200.5625 84.371094 200.5625 L 73.882812 201.953125 L 82.09375 206.011719 C 88.40625 208.605469 96.164062 211.398438 99.730469 211.125 C 99.921875 211.148438 100.117188 211.132812 100.320312 211.066406 C 100.535156 210.992188 100.746094 210.878906 100.953125 210.734375 C 104.507812 208.226562 106.789062 195.234375 107.734375 188.613281 C 108.070312 186.269531 108.242188 184.726562 108.242188 184.726562 C 108.242188 184.726562 121.449219 183.191406 130.664062 180.984375 C 130.792969 183.0625 131.339844 186.28125 131.871094 189.058594 C 132.441406 192.035156 132.992188 194.5 132.992188 194.5 L 133.261719 195.210938 L 134.546875 198.464844 L 137.355469 205.578125 C 137.589844 203.847656 138.328125 198.4375 138.933594 193.691406 L 138.914062 193.710938 C 139.09375 192.246094 139.304688 190.503906 139.476562 189.058594 C 139.636719 187.675781 139.761719 186.5625 139.785156 186.230469 C 139.941406 183.746094 139.980469 181.425781 139.8125 179.578125 C 139.722656 178.628906 139.585938 177.804688 139.378906 177.144531 C 139.410156 176.980469 139.398438 176.820312 139.332031 176.65625 C 138.441406 174.480469 136.089844 172.90625 132.996094 171.867188 C 132.207031 171.601562 131.371094 171.371094 130.496094 171.171875 C 127.285156 170.445312 123.574219 170.160156 119.945312 170.265625 C 120.324219 170.082031 125.726562 167.390625 129.640625 163.453125 C 129.851562 163.667969 142.847656 173.464844 144.03125 173.464844 C 144.03125 173.460938 144.027344 173.460938 144.027344 173.457031 C 143.9375 173.34375 143.863281 173.21875 143.789062 173.089844 C 143.765625 173.050781 143.75 173.007812 143.726562 172.964844 C 143.679688 172.871094 143.636719 172.777344 143.597656 172.675781 C 143.578125 172.625 143.558594 172.578125 143.542969 172.527344 C 143.507812 172.425781 143.476562 172.320312 143.449219 172.210938 C 143.4375 172.164062 143.425781 172.121094 143.414062 172.070312 C 143.347656 171.761719 143.3125 171.4375 143.316406 171.109375 C 143.316406 171.0625 143.320312 171.015625 143.324219 170.964844 C 143.328125 170.847656 143.335938 170.730469 143.347656 170.609375 C 143.355469 170.554688 143.363281 170.5 143.371094 170.445312 C 143.390625 170.328125 143.410156 170.210938 143.441406 170.09375 C 143.449219 170.042969 143.460938 169.996094 143.472656 169.949219 C 143.519531 169.78125 143.570312 169.617188 143.632812 169.457031 C 143.640625 169.4375 143.652344 169.417969 143.660156 169.398438 C 143.710938 169.28125 143.761719 169.167969 143.820312 169.054688 C 143.890625 168.929688 143.960938 168.804688 144.042969 168.6875 C 144.046875 168.683594 144.046875 168.679688 144.050781 168.679688 C 144.050781 168.675781 144.050781 168.675781 144.054688 168.675781 C 144.132812 168.558594 144.222656 168.445312 144.316406 168.335938 C 144.402344 168.238281 144.496094 168.144531 144.59375 168.054688 C 144.609375 168.042969 144.621094 168.027344 144.632812 168.015625 C 144.648438 168.003906 144.667969 167.988281 144.683594 167.976562 C 144.683594 167.976562 144.6875 167.972656 144.6875 167.972656 C 144.722656 167.945312 144.757812 167.921875 144.792969 167.890625 C 144.984375 167.742188 145.1875 167.601562 145.417969 167.488281 C 145.433594 167.480469 145.453125 167.472656 145.46875 167.464844 C 145.617188 167.390625 145.769531 167.328125 145.933594 167.273438 C 146.203125 167.1875 146.613281 167.128906 147.117188 167.09375 C 147.117188 167.089844 147.117188 167.089844 147.117188 167.089844 L 132.878906 152.214844 Z M 146.96875 148.484375 L 144.777344 145.828125 C 145.214844 144.894531 145.460938 143.855469 145.460938 142.761719 C 145.460938 141.542969 145.164062 140.398438 144.632812 139.394531 C 143.429688 137.082031 141.015625 135.507812 138.234375 135.507812 C 137.085938 135.507812 136 135.773438 135.035156 136.253906 C 134.621094 136.457031 134.230469 136.703125 133.867188 136.980469 C 133.390625 137.34375 132.960938 137.769531 132.589844 138.238281 C 132.472656 138.394531 132.363281 138.554688 132.261719 138.710938 C 132.261719 138.714844 132.261719 138.714844 132.261719 138.714844 C 132.558594 139.210938 136.476562 142.421875 140.039062 145.285156 C 141.039062 146.089844 142.011719 146.863281 142.867188 147.546875 C 144.632812 148.953125 145.902344 149.957031 145.902344 149.957031 C 146.335938 150.242188 146.921875 150.144531 147.21875 149.738281 C 147.511719 149.328125 147.402344 148.769531 146.96875 148.484375 Z M 146.96875 148.484375 " fill-opacity="1" fill-rule="nonzero"/><path fill="#fbc02d" d="M 229.648438 171.738281 C 228.347656 171.402344 227.003906 170.929688 225.664062 170.265625 C 224.378906 169.628906 223.207031 168.683594 222.160156 167.617188 C 221.753906 167.203125 221.367188 166.769531 221.003906 166.328125 C 218.332031 163.101562 216.765625 159.429688 216.761719 159.425781 C 216.761719 159.425781 226.046875 143.628906 225.058594 141.113281 C 223.742188 137.761719 221.96875 133.742188 220.847656 133.203125 C 220.777344 133.265625 220.703125 133.328125 220.632812 133.390625 C 217.707031 135.894531 214.765625 138.109375 213.125 138.609375 C 212.644531 138.753906 212.277344 138.753906 212.050781 138.570312 C 212.003906 138.53125 209.261719 137.367188 205.890625 135.839844 C 202.292969 134.210938 197.976562 132.167969 195.433594 130.625 C 194.628906 130.136719 193.917969 129.671875 193.351562 129.25 C 193.527344 129.003906 193.671875 128.738281 193.773438 128.449219 C 193.886719 128.125 193.953125 127.777344 193.953125 127.414062 C 193.953125 127.28125 193.941406 127.152344 193.925781 127.023438 C 195.140625 127.054688 196.800781 127.277344 198.640625 127.597656 C 200.957031 128.003906 203.554688 128.570312 205.890625 129.121094 C 209.039062 129.863281 211.710938 130.578125 212.570312 130.839844 C 212.761719 130.898438 212.945312 130.964844 213.125 131.042969 C 213.503906 131.199219 213.859375 131.390625 214.183594 131.613281 C 214.402344 131.195312 214.632812 130.773438 214.867188 130.34375 C 216.839844 126.78125 219.269531 122.988281 220.636719 120.953125 C 221.246094 119.058594 222.511719 117.460938 224.160156 116.421875 C 224.324219 116.320312 224.492188 116.222656 224.664062 116.128906 C 224.683594 116.121094 224.703125 116.113281 224.722656 116.101562 C 224.878906 116.019531 225.035156 115.941406 225.195312 115.871094 C 225.199219 115.867188 225.203125 115.867188 225.207031 115.863281 C 225.5625 115.707031 225.929688 115.570312 226.308594 115.464844 C 229.375 120.742188 231.921875 122.957031 237 123.148438 C 237.335938 125.328125 237.488281 128.511719 236.742188 132.550781 C 235.21875 140.832031 240.582031 171.863281 240.582031 171.863281 C 240.582031 171.863281 235.554688 173.257812 229.648438 171.738281 Z M 225.664062 210.988281 C 225.660156 210.992188 225.675781 210.988281 225.675781 210.988281 L 236.742188 210.988281 L 234.53125 205.578125 C 229.726562 208.34375 225.851562 210.867188 225.664062 210.988281 Z M 212.972656 205.578125 C 208.167969 208.34375 204.296875 210.867188 204.109375 210.988281 C 204.101562 210.992188 204.121094 210.988281 204.121094 210.988281 L 215.1875 210.988281 L 213.125 205.949219 Z M 66.433594 209.152344 C 66.433594 209.152344 66.425781 209.167969 66.429688 209.164062 C 66.59375 209.011719 69.992188 205.898438 73.882812 201.953125 L 69.164062 198.429688 Z M 135.140625 210.988281 L 146.210938 210.988281 C 146.210938 210.988281 146.226562 210.992188 146.222656 210.988281 C 146.03125 210.867188 142.160156 208.34375 137.355469 205.578125 Z M 138.878906 117.203125 C 139.164062 116.730469 139.328125 116.175781 139.328125 115.585938 C 139.328125 115.5625 139.324219 115.542969 139.324219 115.519531 C 139.289062 113.800781 137.890625 112.417969 136.160156 112.417969 C 134.414062 112.417969 132.996094 113.835938 132.996094 115.582031 C 132.996094 117.332031 134.414062 118.75 136.160156 118.75 C 137.316406 118.75 138.328125 118.128906 138.878906 117.203125 Z M 152.480469 96.886719 C 151.238281 96.886719 150.167969 97.601562 149.648438 98.644531 C 149.4375 99.066406 149.3125 99.546875 149.3125 100.050781 C 149.3125 100.179688 149.324219 100.300781 149.335938 100.425781 C 149.523438 101.996094 150.859375 103.21875 152.480469 103.21875 C 154.230469 103.21875 155.648438 101.800781 155.648438 100.050781 C 155.648438 98.304688 154.230469 96.886719 152.480469 96.886719 Z M 175.738281 113.359375 C 175.484375 113.292969 175.222656 113.257812 174.949219 113.257812 C 174.585938 113.257812 174.242188 113.320312 173.914062 113.433594 C 172.675781 113.863281 171.785156 115.039062 171.785156 116.421875 C 171.785156 118.171875 173.203125 119.589844 174.949219 119.589844 C 176.699219 119.589844 178.117188 118.171875 178.117188 116.421875 C 178.117188 114.945312 177.105469 113.710938 175.738281 113.359375 Z M 189.71875 120.964844 C 189.265625 120.714844 188.746094 120.570312 188.191406 120.570312 C 186.550781 120.570312 185.203125 121.816406 185.039062 123.414062 C 185.03125 123.519531 185.023438 123.628906 185.023438 123.738281 C 185.023438 124.261719 185.152344 124.753906 185.378906 125.191406 C 185.808594 126.019531 186.589844 126.632812 187.527344 126.835938 C 187.808594 125.367188 189.125 124.25 190.710938 124.25 C 190.914062 124.25 191.113281 124.269531 191.304688 124.304688 C 191.335938 124.121094 191.359375 123.929688 191.359375 123.738281 C 191.359375 123.199219 191.222656 122.695312 190.984375 122.25 C 190.695312 121.707031 190.253906 121.261719 189.71875 120.964844 Z M 168.734375 91.398438 C 168.8125 91.128906 168.855469 90.84375 168.855469 90.550781 C 168.855469 90.214844 168.800781 89.894531 168.707031 89.589844 C 168.296875 88.3125 167.101562 87.382812 165.6875 87.382812 C 163.9375 87.382812 162.519531 88.800781 162.519531 90.550781 C 162.519531 92.300781 163.9375 93.71875 165.6875 93.71875 C 167.140625 93.71875 168.363281 92.738281 168.734375 91.398438 Z M 170.035156 126.214844 C 168.289062 126.214844 166.871094 127.632812 166.871094 129.382812 C 166.871094 131.132812 168.289062 132.550781 170.035156 132.550781 C 170.203125 132.550781 170.363281 132.535156 170.519531 132.507812 C 171.144531 132.414062 171.707031 132.136719 172.152344 131.734375 C 172.796875 131.152344 173.203125 130.316406 173.203125 129.382812 C 173.203125 127.632812 171.785156 126.214844 170.035156 126.214844 Z M 188.191406 164.46875 C 188.027344 164.46875 187.867188 164.484375 187.707031 164.507812 C 187.085938 164.605469 186.523438 164.878906 186.074219 165.285156 C 185.644531 165.671875 185.320312 166.171875 185.152344 166.742188 C 185.070312 167.027344 185.023438 167.324219 185.023438 167.632812 C 185.023438 167.945312 185.070312 168.242188 185.152344 168.527344 C 185.539062 169.839844 186.753906 170.800781 188.191406 170.800781 C 189.941406 170.800781 191.359375 169.382812 191.359375 167.632812 C 191.359375 165.886719 189.941406 164.46875 188.191406 164.46875 Z M 168.464844 164.46875 C 168.199219 164.46875 167.9375 164.503906 167.691406 164.566406 C 167.898438 164.625 168.121094 164.703125 168.332031 164.808594 C 168.917969 165.101562 169.421875 165.601562 169.292969 166.46875 C 169.285156 166.539062 169.261719 166.605469 169.25 166.675781 C 169.121094 167.339844 168.847656 167.945312 168.476562 168.480469 C 167.980469 169.191406 167.320312 169.777344 166.617188 170.199219 C 167.136719 170.578125 167.773438 170.800781 168.464844 170.800781 C 169.917969 170.800781 171.140625 169.824219 171.511719 168.492188 C 171.589844 168.21875 171.632812 167.929688 171.632812 167.632812 C 171.632812 167.300781 171.582031 166.984375 171.488281 166.683594 C 171.082031 165.398438 169.882812 164.46875 168.464844 164.46875 Z M 168.464844 164.46875 " fill-opacity="1" fill-rule="nonzero"/><path fill="#0984e3" d="M 213.125 53.820312 L 213.125 131.042969 C 212.945312 130.964844 212.761719 130.898438 212.570312 130.839844 C 211.710938 130.578125 209.039062 129.863281 205.890625 129.121094 L 205.890625 61.925781 C 205.890625 59.988281 203.859375 58.417969 201.355469 58.417969 L 109.941406 58.417969 C 107.4375 58.417969 105.40625 59.988281 105.40625 61.925781 L 105.40625 162.207031 C 102.320312 165.15625 99.632812 167.742188 98.171875 169.148438 L 98.171875 53.820312 C 98.171875 51.425781 100.492188 49.480469 103.359375 49.480469 L 207.9375 49.480469 C 210.800781 49.480469 213.125 51.425781 213.125 53.820312 Z M 213.125 138.605469 L 213.125 164.890625 C 210.957031 168.339844 209.582031 171.042969 210.15625 171.632812 C 209.855469 172.992188 209.675781 174.492188 209.648438 176.046875 C 209.5625 181.378906 212.972656 205.578125 212.972656 205.578125 C 208.167969 208.34375 204.296875 210.867188 204.109375 210.988281 C 204.101562 210.992188 204.121094 210.988281 204.121094 210.988281 L 209.632812 210.988281 C 209.101562 211.140625 208.53125 211.230469 207.9375 211.230469 L 103.359375 211.230469 C 102.492188 211.230469 101.675781 211.046875 100.957031 210.734375 C 104.507812 208.226562 106.789062 195.234375 107.738281 188.613281 C 108.390625 188.894531 109.140625 189.058594 109.941406 189.058594 L 131.871094 189.058594 C 132.441406 192.035156 132.996094 194.5 132.996094 194.5 L 133.261719 195.210938 L 134.546875 198.464844 L 137.355469 205.578125 L 135.140625 210.988281 L 146.210938 210.988281 C 146.210938 210.988281 146.226562 210.992188 146.222656 210.988281 C 146.03125 210.867188 142.160156 208.34375 137.355469 205.578125 C 137.589844 203.847656 138.328125 198.4375 138.933594 193.691406 L 138.917969 193.710938 C 139.09375 192.246094 139.304688 190.503906 139.476562 189.058594 L 201.355469 189.058594 C 203.859375 189.058594 205.890625 187.488281 205.890625 185.550781 L 205.890625 135.839844 C 209.261719 137.367188 212.003906 138.53125 212.050781 138.570312 C 212.277344 138.753906 212.644531 138.753906 213.125 138.605469 Z M 158.890625 200.945312 C 158.890625 199.15625 157.4375 197.703125 155.648438 197.703125 C 153.855469 197.703125 152.40625 199.15625 152.40625 200.945312 C 152.40625 202.738281 153.855469 204.191406 155.648438 204.191406 C 157.4375 204.191406 158.890625 202.738281 158.890625 200.945312 Z M 213.125 204.753906 C 213.027344 205.28125 212.972656 205.578125 212.972656 205.578125 L 213.125 205.949219 Z M 242.496094 112.410156 C 239.421875 109.878906 237.976562 111.414062 235.082031 108.160156 C 232.632812 105.40625 231.183594 102.253906 230.796875 101.351562 C 230.765625 101.265625 230.730469 101.183594 230.691406 101.097656 C 230.042969 99.648438 228.613281 98.402344 225.503906 98.511719 L 225.484375 98.515625 C 225.425781 98.519531 225.363281 98.527344 225.300781 98.535156 C 224.0625 98.683594 224.515625 98.785156 223.4375 98.964844 C 223.226562 99 222.953125 99.113281 222.601562 99.078125 C 216.28125 98.507812 217.59375 105.371094 219.351562 105.179688 L 219.390625 105.175781 C 219.644531 105.144531 222.839844 104.863281 222.53125 104.996094 C 222.078125 106.40625 222.152344 107.785156 222.773438 108.765625 C 224.101562 111.402344 225.238281 113.617188 226.308594 115.464844 C 229.375 120.742188 231.921875 122.957031 237 123.148438 C 237.167969 123.15625 237.324219 123.164062 237.496094 123.167969 C 245.261719 123.257812 245.570312 114.941406 242.496094 112.410156 Z M 220.507812 107.4375 C 220.332031 107.457031 220.207031 107.703125 220.238281 107.992188 C 220.265625 108.28125 220.429688 108.5 220.609375 108.480469 C 220.785156 108.460938 220.90625 108.210938 220.878906 107.921875 C 220.851562 107.636719 220.6875 107.417969 220.507812 107.4375 Z M 140.292969 148.679688 C 140.136719 148.960938 140.148438 149.269531 140.320312 149.367188 C 140.492188 149.464844 140.753906 149.3125 140.914062 149.035156 C 141.070312 148.753906 141.054688 148.445312 140.882812 148.347656 C 140.710938 148.25 140.449219 148.398438 140.292969 148.679688 Z M 137.996094 148.695312 C 138.886719 148.09375 139.699219 146.6875 140.039062 145.285156 C 136.476562 142.421875 132.558594 139.210938 132.261719 138.710938 C 132.082031 138.996094 131.925781 139.277344 131.792969 139.550781 C 131.011719 141.132812 131.023438 143.253906 131.246094 144.160156 C 131.246094 144.160156 131.246094 144.160156 131.246094 144.164062 C 131.25 144.175781 131.253906 144.191406 131.257812 144.203125 C 131.316406 144.441406 131.390625 144.671875 131.46875 144.898438 C 131.527344 145.070312 131.597656 145.230469 131.667969 145.394531 C 131.789062 145.679688 131.921875 145.960938 132.070312 146.222656 C 132.09375 146.269531 132.117188 146.320312 132.144531 146.367188 C 132.148438 146.378906 132.15625 146.390625 132.164062 146.402344 C 132.722656 147.351562 133.433594 148.105469 134.214844 148.59375 C 134.597656 148.839844 134.996094 149.019531 135.398438 149.125 C 135.433594 149.132812 135.460938 149.140625 135.492188 149.148438 L 135.496094 149.148438 C 135.289062 148.964844 135.113281 148.75 134.980469 148.507812 C 134.839844 148.253906 134.746094 147.972656 134.710938 147.671875 C 134.617188 146.984375 134.914062 146.296875 135.605469 146.085938 C 136.476562 145.824219 137.382812 146.371094 137.78125 147.132812 C 137.804688 147.183594 137.832031 147.234375 137.851562 147.289062 C 137.878906 147.351562 137.894531 147.414062 137.914062 147.476562 C 137.929688 147.527344 137.949219 147.578125 137.960938 147.628906 C 137.984375 147.722656 138 147.816406 138.007812 147.914062 C 138.011719 147.9375 138.019531 147.957031 138.019531 147.976562 C 138.042969 148.214844 138.03125 148.457031 137.996094 148.695312 Z M 190.304688 100.542969 C 190.304688 102.1875 189.933594 103.804688 189.226562 105.277344 C 192.351562 107.277344 194.257812 110.722656 194.257812 114.46875 C 194.257812 117.511719 193.003906 120.269531 190.988281 122.25 C 190.695312 121.707031 190.253906 121.261719 189.71875 120.964844 C 191.402344 119.308594 192.449219 117.011719 192.449219 114.46875 C 192.449219 111.089844 190.589844 108.003906 187.59375 106.417969 C 187.375 106.300781 187.214844 106.101562 187.148438 105.863281 C 187.082031 105.625 187.113281 105.371094 187.238281 105.160156 C 188.0625 103.765625 188.496094 102.167969 188.496094 100.542969 C 188.496094 95.519531 184.410156 91.433594 179.390625 91.433594 L 178.304688 91.433594 C 178.242188 91.449219 178.179688 91.457031 178.117188 91.457031 C 178.117188 91.457031 178.113281 91.457031 178.113281 91.457031 L 174.792969 91.433594 L 173.414062 91.433594 C 173.386719 91.433594 173.359375 91.429688 173.328125 91.425781 L 168.738281 91.398438 C 168.8125 91.128906 168.855469 90.84375 168.855469 90.550781 C 168.855469 90.214844 168.800781 89.894531 168.707031 89.589844 L 172.472656 89.613281 C 172.046875 84.992188 168.144531 81.355469 163.40625 81.355469 L 151.363281 81.355469 C 148.410156 81.355469 145.699219 82.773438 144.007812 85.085938 C 143.039062 86.496094 142.46875 88.203125 142.46875 90.039062 C 142.46875 94.328125 145.570312 97.902344 149.648438 98.640625 C 149.4375 99.066406 149.3125 99.542969 149.3125 100.050781 C 149.3125 100.175781 149.324219 100.300781 149.339844 100.421875 C 148.621094 100.292969 147.925781 100.09375 147.265625 99.824219 C 148.894531 101.683594 149.882812 104.113281 149.882812 106.769531 C 149.882812 112.589844 145.148438 117.328125 139.328125 117.328125 C 139.164062 117.328125 139.011719 117.28125 138.878906 117.203125 C 139.164062 116.726562 139.328125 116.175781 139.328125 115.582031 C 139.328125 115.5625 139.324219 115.539062 139.324219 115.519531 C 139.328125 115.519531 139.328125 115.519531 139.328125 115.519531 C 144.152344 115.519531 148.074219 111.59375 148.074219 106.769531 C 148.074219 101.949219 144.152344 98.023438 139.328125 98.023438 L 123.492188 98.023438 C 123.144531 98.023438 122.84375 97.820312 122.691406 97.53125 C 118.207031 98.089844 114.71875 101.925781 114.71875 106.566406 C 114.71875 111.585938 118.804688 115.671875 123.828125 115.671875 L 124.507812 115.671875 C 124.882812 115.671875 125.222656 115.90625 125.355469 116.257812 C 126.679688 119.792969 130.105469 122.167969 133.882812 122.167969 L 137.84375 122.167969 C 138.324219 122.167969 138.722656 122.546875 138.746094 123.027344 C 138.972656 127.894531 142.96875 131.703125 147.839844 131.703125 C 150.488281 131.703125 153.003906 130.550781 154.738281 128.542969 C 154.738281 128.539062 154.742188 128.539062 154.746094 128.535156 L 154.746094 114.929688 C 154.746094 109.109375 159.480469 104.375 165.300781 104.375 C 170.585938 104.375 174.976562 108.28125 175.738281 113.359375 C 175.484375 113.292969 175.222656 113.257812 174.953125 113.257812 C 174.589844 113.257812 174.242188 113.320312 173.917969 113.433594 C 173.203125 109.320312 169.613281 106.183594 165.300781 106.183594 C 160.476562 106.183594 156.554688 110.109375 156.554688 114.929688 L 156.554688 129.722656 C 157.84375 133.296875 161.25 135.730469 165.113281 135.730469 C 165.523438 135.730469 165.949219 135.699219 166.375 135.640625 C 166.417969 135.632812 166.457031 135.632812 166.5 135.632812 C 166.863281 135.632812 167.199219 135.855469 167.335938 136.199219 L 170.820312 144.929688 C 171.785156 147.351562 174.097656 148.917969 176.703125 148.917969 C 177.21875 148.917969 177.722656 148.847656 178.21875 148.726562 L 170.519531 132.507812 C 171.144531 132.414062 171.707031 132.136719 172.15625 131.734375 L 179.894531 148.042969 C 181.0625 147.367188 181.980469 146.34375 182.523438 145.082031 C 183.191406 143.527344 183.214844 141.804688 182.585938 140.234375 L 176.433594 124.816406 C 176.324219 124.535156 176.359375 124.21875 176.527344 123.972656 C 176.695312 123.722656 176.976562 123.574219 177.273438 123.574219 L 183.339844 123.574219 C 183.921875 123.574219 184.492188 123.519531 185.042969 123.414062 C 185.03125 123.519531 185.023438 123.628906 185.023438 123.738281 C 185.023438 124.261719 185.15625 124.753906 185.378906 125.191406 C 184.71875 125.316406 184.039062 125.382812 183.339844 125.382812 L 178.609375 125.382812 L 184.265625 139.5625 C 185.070312 141.582031 185.042969 143.796875 184.183594 145.792969 C 183.464844 147.464844 182.234375 148.8125 180.671875 149.679688 L 187.707031 164.507812 C 187.085938 164.601562 186.523438 164.878906 186.074219 165.28125 L 179.007812 150.390625 C 178.257812 150.613281 177.488281 150.726562 176.703125 150.726562 C 173.351562 150.726562 170.382812 148.710938 169.140625 145.597656 L 165.910156 137.507812 C 165.640625 137.527344 165.375 137.535156 165.113281 137.535156 C 160.964844 137.535156 157.261719 135.199219 155.417969 131.636719 C 155.109375 131.554688 154.871094 131.320312 154.78125 131.011719 C 152.839844 132.617188 150.394531 133.511719 147.839844 133.511719 C 142.289062 133.511719 137.691406 129.386719 137.011719 123.972656 L 133.882812 123.972656 C 129.570312 123.972656 125.636719 121.386719 123.898438 117.476562 L 123.828125 117.476562 C 117.808594 117.476562 112.910156 112.582031 112.910156 106.5625 C 112.910156 100.824219 117.367188 96.101562 123 95.679688 C 123.445312 90.066406 128.15625 85.636719 133.878906 85.636719 L 141.566406 85.636719 C 141.824219 85.113281 142.125 84.621094 142.453125 84.152344 C 144.351562 81.335938 147.570312 79.480469 151.214844 79.480469 C 151.332031 79.480469 151.441406 79.503906 151.542969 79.546875 L 163.40625 79.546875 C 169.144531 79.546875 173.859375 83.996094 174.289062 89.625 L 179.390625 89.625 C 185.410156 89.628906 190.304688 94.523438 190.304688 100.542969 Z M 140.660156 90.039062 C 140.660156 89.144531 140.773438 88.277344 140.984375 87.449219 L 133.882812 87.449219 C 128.972656 87.449219 124.960938 91.351562 124.785156 96.214844 L 139.328125 96.214844 C 140.722656 96.214844 142.058594 96.492188 143.277344 96.984375 C 141.648438 95.128906 140.660156 92.699219 140.660156 90.039062 Z M 185.027344 166.730469 L 171.488281 166.683594 C 171.582031 166.984375 171.632812 167.300781 171.632812 167.632812 C 171.632812 167.929688 171.589844 168.21875 171.511719 168.492188 L 185.019531 168.539062 C 185.023438 168.539062 185.023438 168.539062 185.023438 168.539062 C 185.070312 168.539062 185.109375 168.53125 185.152344 168.523438 C 185.070312 168.242188 185.023438 167.945312 185.023438 167.632812 C 185.023438 167.324219 185.070312 167.027344 185.152344 166.742188 C 185.113281 166.738281 185.070312 166.730469 185.027344 166.730469 Z M 185.027344 166.730469 " fill-opacity="1" fill-rule="nonzero"/><g fill="#000000" fill-opacity="1"><g transform="translate(50.718803, 37.587856)"><g><path d="M 0.40625 -7.40625 C 0.40625 -9.550781 1.132812 -11.363281 2.59375 -12.84375 C 4.0625 -14.320312 5.820312 -15.0625 7.875 -15.0625 C 9.945312 -15.0625 11.703125 -14.320312 13.140625 -12.84375 C 14.585938 -11.375 15.3125 -9.5625 15.3125 -7.40625 C 15.3125 -5.238281 14.597656 -3.414062 13.171875 -1.9375 C 11.753906 -0.46875 9.988281 0.265625 7.875 0.265625 C 5.707031 0.265625 3.921875 -0.460938 2.515625 -1.921875 C 1.109375 -3.390625 0.40625 -5.21875 0.40625 -7.40625 Z M 4.046875 -7.40625 C 4.046875 -6.632812 4.164062 -5.925781 4.40625 -5.28125 C 4.644531 -4.644531 5.0625 -4.101562 5.65625 -3.65625 C 6.257812 -3.21875 7 -3 7.875 -3 C 9.132812 -3 10.082031 -3.425781 10.71875 -4.28125 C 11.351562 -5.144531 11.671875 -6.1875 11.671875 -7.40625 C 11.671875 -8.613281 11.34375 -9.648438 10.6875 -10.515625 C 10.039062 -11.390625 9.101562 -11.828125 7.875 -11.828125 C 6.65625 -11.828125 5.710938 -11.390625 5.046875 -10.515625 C 4.378906 -9.648438 4.046875 -8.613281 4.046875 -7.40625 Z M 4.046875 -7.40625 "/></g></g></g><g fill="#000000" fill-opacity="1"><g transform="translate(66.443121, 37.587856)"><g><path d="M 1.078125 0 L 1.078125 -9.203125 L 4.25 -9.203125 L 4.25 -8.234375 L 4.28125 -8.234375 C 5.113281 -9.054688 5.992188 -9.46875 6.921875 -9.46875 C 7.378906 -9.46875 7.832031 -9.40625 8.28125 -9.28125 C 8.726562 -9.164062 9.15625 -8.984375 9.5625 -8.734375 C 9.976562 -8.484375 10.3125 -8.128906 10.5625 -7.671875 C 10.820312 -7.210938 10.953125 -6.675781 10.953125 -6.0625 L 10.953125 0 L 7.78125 0 L 7.78125 -5.203125 C 7.78125 -5.679688 7.628906 -6.097656 7.328125 -6.453125 C 7.023438 -6.816406 6.628906 -7 6.140625 -7 C 5.660156 -7 5.222656 -6.8125 4.828125 -6.4375 C 4.441406 -6.070312 4.25 -5.660156 4.25 -5.203125 L 4.25 0 Z M 1.078125 0 "/></g></g></g><g fill="#000000" fill-opacity="1"><g transform="translate(78.294633, 37.587856)"><g><path d="M 1.078125 0 L 1.078125 -15.421875 L 4.25 -15.421875 L 4.25 0 Z M 1.078125 0 "/></g></g></g><g fill="#000000" fill-opacity="1"><g transform="translate(83.61974, 37.587856)"><g><path d="M 1.375 -14.328125 C 1.75 -14.703125 2.191406 -14.890625 2.703125 -14.890625 C 3.222656 -14.890625 3.664062 -14.703125 4.03125 -14.328125 C 4.40625 -13.960938 4.59375 -13.519531 4.59375 -13 C 4.59375 -12.488281 4.40625 -12.046875 4.03125 -11.671875 C 3.664062 -11.304688 3.222656 -11.125 2.703125 -11.125 C 2.191406 -11.125 1.75 -11.304688 1.375 -11.671875 C 1.007812 -12.046875 0.828125 -12.488281 0.828125 -13 C 0.828125 -13.519531 1.007812 -13.960938 1.375 -14.328125 Z M 1.078125 -9.203125 L 1.078125 0 L 4.25 0 L 4.25 -9.203125 Z M 1.078125 -9.203125 "/></g></g></g><g fill="#000000" fill-opacity="1"><g transform="translate(89.0345, 37.587856)"><g><path d="M 1.078125 0 L 1.078125 -9.203125 L 4.25 -9.203125 L 4.25 -8.234375 L 4.28125 -8.234375 C 5.113281 -9.054688 5.992188 -9.46875 6.921875 -9.46875 C 7.378906 -9.46875 7.832031 -9.40625 8.28125 -9.28125 C 8.726562 -9.164062 9.15625 -8.984375 9.5625 -8.734375 C 9.976562 -8.484375 10.3125 -8.128906 10.5625 -7.671875 C 10.820312 -7.210938 10.953125 -6.675781 10.953125 -6.0625 L 10.953125 0 L 7.78125 0 L 7.78125 -5.203125 C 7.78125 -5.679688 7.628906 -6.097656 7.328125 -6.453125 C 7.023438 -6.816406 6.628906 -7 6.140625 -7 C 5.660156 -7 5.222656 -6.8125 4.828125 -6.4375 C 4.441406 -6.070312 4.25 -5.660156 4.25 -5.203125 L 4.25 0 Z M 1.078125 0 "/></g></g></g><g fill="#000000" fill-opacity="1"><g transform="translate(100.886012, 37.587856)"><g><path d="M 10.390625 -4.15625 L 3.71875 -4.15625 C 3.71875 -3.507812 3.925781 -3.03125 4.34375 -2.71875 C 4.757812 -2.414062 5.210938 -2.265625 5.703125 -2.265625 C 6.210938 -2.265625 6.617188 -2.332031 6.921875 -2.46875 C 7.222656 -2.601562 7.566406 -2.875 7.953125 -3.28125 L 10.25 -2.140625 C 9.289062 -0.535156 7.695312 0.265625 5.46875 0.265625 C 4.082031 0.265625 2.890625 -0.207031 1.890625 -1.15625 C 0.898438 -2.101562 0.40625 -3.242188 0.40625 -4.578125 C 0.40625 -5.921875 0.898438 -7.070312 1.890625 -8.03125 C 2.890625 -8.988281 4.082031 -9.46875 5.46875 -9.46875 C 6.925781 -9.46875 8.113281 -9.046875 9.03125 -8.203125 C 9.945312 -7.359375 10.40625 -6.15625 10.40625 -4.59375 C 10.40625 -4.375 10.398438 -4.226562 10.390625 -4.15625 Z M 3.796875 -5.921875 L 7.296875 -5.921875 C 7.222656 -6.398438 7.035156 -6.765625 6.734375 -7.015625 C 6.429688 -7.273438 6.039062 -7.40625 5.5625 -7.40625 C 5.03125 -7.40625 4.609375 -7.265625 4.296875 -6.984375 C 3.992188 -6.710938 3.828125 -6.359375 3.796875 -5.921875 Z M 3.796875 -5.921875 "/></g></g></g><g fill="#000000" fill-opacity="1"><g transform="translate(111.697599, 37.587856)"><g><path d="M 10.546875 -15.421875 L 3.15625 2.15625 L 0.40625 2.15625 L 7.796875 -15.421875 Z M 10.546875 -15.421875 "/></g></g></g><g fill="#000000" fill-opacity="1"><g transform="translate(122.652627, 37.587856)"><g><path d="M 1.078125 -14.796875 L 5.359375 -14.796875 C 7.421875 -14.796875 9.179688 -14.09375 10.640625 -12.6875 C 12.097656 -11.28125 12.828125 -9.519531 12.828125 -7.40625 C 12.828125 -5.28125 12.097656 -3.515625 10.640625 -2.109375 C 9.191406 -0.703125 7.429688 0 5.359375 0 L 1.078125 0 Z M 4.453125 -3.015625 L 4.96875 -3.015625 C 6.195312 -3.015625 7.203125 -3.425781 7.984375 -4.25 C 8.773438 -5.082031 9.175781 -6.128906 9.1875 -7.390625 C 9.1875 -8.648438 8.789062 -9.695312 8 -10.53125 C 7.21875 -11.363281 6.207031 -11.78125 4.96875 -11.78125 L 4.453125 -11.78125 Z M 4.453125 -3.015625 "/></g></g></g><g fill="#000000" fill-opacity="1"><g transform="translate(135.884719, 37.587856)"><g><path d="M 1.375 -14.328125 C 1.75 -14.703125 2.191406 -14.890625 2.703125 -14.890625 C 3.222656 -14.890625 3.664062 -14.703125 4.03125 -14.328125 C 4.40625 -13.960938 4.59375 -13.519531 4.59375 -13 C 4.59375 -12.488281 4.40625 -12.046875 4.03125 -11.671875 C 3.664062 -11.304688 3.222656 -11.125 2.703125 -11.125 C 2.191406 -11.125 1.75 -11.304688 1.375 -11.671875 C 1.007812 -12.046875 0.828125 -12.488281 0.828125 -13 C 0.828125 -13.519531 1.007812 -13.960938 1.375 -14.328125 Z M 1.078125 -9.203125 L 1.078125 0 L 4.25 0 L 4.25 -9.203125 Z M 1.078125 -9.203125 "/></g></g></g><g fill="#000000" fill-opacity="1"><g transform="translate(141.299479, 37.587856)"><g><path d="M 5.078125 -9.46875 C 5.597656 -9.46875 6.113281 -9.40625 6.625 -9.28125 C 7.144531 -9.164062 7.53125 -9.050781 7.78125 -8.9375 L 8.15625 -8.75 L 7.125 -6.671875 C 6.40625 -7.054688 5.722656 -7.25 5.078125 -7.25 C 4.710938 -7.25 4.457031 -7.207031 4.3125 -7.125 C 4.164062 -7.050781 4.09375 -6.90625 4.09375 -6.6875 C 4.09375 -6.644531 4.097656 -6.597656 4.109375 -6.546875 C 4.117188 -6.492188 4.140625 -6.445312 4.171875 -6.40625 C 4.210938 -6.363281 4.25 -6.328125 4.28125 -6.296875 C 4.3125 -6.273438 4.359375 -6.242188 4.421875 -6.203125 C 4.492188 -6.171875 4.550781 -6.144531 4.59375 -6.125 C 4.632812 -6.101562 4.703125 -6.070312 4.796875 -6.03125 C 4.898438 -6 4.972656 -5.972656 5.015625 -5.953125 C 5.066406 -5.941406 5.148438 -5.914062 5.265625 -5.875 C 5.378906 -5.84375 5.46875 -5.820312 5.53125 -5.8125 C 5.894531 -5.707031 6.210938 -5.585938 6.484375 -5.453125 C 6.765625 -5.316406 7.054688 -5.132812 7.359375 -4.90625 C 7.671875 -4.6875 7.910156 -4.398438 8.078125 -4.046875 C 8.242188 -3.703125 8.328125 -3.3125 8.328125 -2.875 C 8.328125 -0.78125 6.875 0.265625 3.96875 0.265625 C 3.3125 0.265625 2.6875 0.164062 2.09375 -0.03125 C 1.5 -0.238281 1.070312 -0.441406 0.8125 -0.640625 L 0.40625 -0.96875 L 1.703125 -3.140625 C 1.796875 -3.054688 1.921875 -2.957031 2.078125 -2.84375 C 2.234375 -2.726562 2.515625 -2.570312 2.921875 -2.375 C 3.328125 -2.175781 3.679688 -2.078125 3.984375 -2.078125 C 4.640625 -2.078125 4.96875 -2.300781 4.96875 -2.75 C 4.96875 -2.945312 4.882812 -3.101562 4.71875 -3.21875 C 4.550781 -3.332031 4.265625 -3.460938 3.859375 -3.609375 C 3.460938 -3.753906 3.148438 -3.882812 2.921875 -4 C 2.347656 -4.300781 1.894531 -4.640625 1.5625 -5.015625 C 1.226562 -5.390625 1.0625 -5.890625 1.0625 -6.515625 C 1.0625 -7.441406 1.421875 -8.164062 2.140625 -8.6875 C 2.867188 -9.207031 3.847656 -9.46875 5.078125 -9.46875 Z M 5.078125 -9.46875 "/></g></g></g><g fill="#000000" fill-opacity="1"><g transform="translate(150.120882, 37.587856)"><g><path d="M 1.609375 -9.203125 L 1.609375 -12.625 L 4.796875 -12.625 L 4.796875 -9.203125 L 6.71875 -9.203125 L 6.71875 -6.78125 L 4.796875 -6.78125 L 4.796875 -3.859375 C 4.796875 -3.003906 5.03125 -2.578125 5.5 -2.578125 C 5.625 -2.578125 5.75 -2.597656 5.875 -2.640625 C 6.007812 -2.691406 6.113281 -2.742188 6.1875 -2.796875 L 6.296875 -2.875 L 7.078125 -0.3125 C 6.398438 0.0703125 5.625 0.265625 4.75 0.265625 C 4.15625 0.265625 3.640625 0.160156 3.203125 -0.046875 C 2.773438 -0.253906 2.453125 -0.535156 2.234375 -0.890625 C 2.015625 -1.242188 1.851562 -1.613281 1.75 -2 C 1.65625 -2.382812 1.609375 -2.800781 1.609375 -3.25 L 1.609375 -6.78125 L 0.28125 -6.78125 L 0.28125 -9.203125 Z M 1.609375 -9.203125 "/></g></g></g><g fill="#000000" fill-opacity="1"><g transform="translate(157.203103, 37.587856)"><g><path d="M 1.703125 -1.140625 C 0.835938 -2.078125 0.40625 -3.226562 0.40625 -4.59375 C 0.40625 -5.957031 0.835938 -7.109375 1.703125 -8.046875 C 2.566406 -8.992188 3.660156 -9.46875 4.984375 -9.46875 C 6.203125 -9.46875 7.207031 -9.085938 8 -8.328125 L 8 -9.203125 L 11.171875 -9.203125 L 11.171875 0 L 8.03125 0 L 8.03125 -1.046875 L 8 -1.046875 C 7.207031 -0.171875 6.203125 0.265625 4.984375 0.265625 C 3.660156 0.265625 2.566406 -0.203125 1.703125 -1.140625 Z M 4.390625 -6.15625 C 3.984375 -5.75 3.78125 -5.226562 3.78125 -4.59375 C 3.78125 -3.957031 3.976562 -3.4375 4.375 -3.03125 C 4.769531 -2.632812 5.289062 -2.4375 5.9375 -2.4375 C 6.5625 -2.4375 7.070312 -2.640625 7.46875 -3.046875 C 7.875 -3.453125 8.078125 -3.96875 8.078125 -4.59375 C 8.078125 -5.226562 7.867188 -5.75 7.453125 -6.15625 C 7.035156 -6.5625 6.53125 -6.765625 5.9375 -6.765625 C 5.320312 -6.765625 4.804688 -6.5625 4.390625 -6.15625 Z M 4.390625 -6.15625 "/></g></g></g><g fill="#000000" fill-opacity="1"><g transform="translate(169.44907, 37.587856)"><g><path d="M 1.078125 0 L 1.078125 -9.203125 L 4.25 -9.203125 L 4.25 -8.234375 L 4.28125 -8.234375 C 5.113281 -9.054688 5.992188 -9.46875 6.921875 -9.46875 C 7.378906 -9.46875 7.832031 -9.40625 8.28125 -9.28125 C 8.726562 -9.164062 9.15625 -8.984375 9.5625 -8.734375 C 9.976562 -8.484375 10.3125 -8.128906 10.5625 -7.671875 C 10.820312 -7.210938 10.953125 -6.675781 10.953125 -6.0625 L 10.953125 0 L 7.78125 0 L 7.78125 -5.203125 C 7.78125 -5.679688 7.628906 -6.097656 7.328125 -6.453125 C 7.023438 -6.816406 6.628906 -7 6.140625 -7 C 5.660156 -7 5.222656 -6.8125 4.828125 -6.4375 C 4.441406 -6.070312 4.25 -5.660156 4.25 -5.203125 L 4.25 0 Z M 1.078125 0 "/></g></g></g><g fill="#000000" fill-opacity="1"><g transform="translate(181.300582, 37.587856)"><g><path d="M 5.96875 -6.875 C 5.375 -6.875 4.859375 -6.648438 4.421875 -6.203125 C 3.992188 -5.765625 3.78125 -5.234375 3.78125 -4.609375 C 3.78125 -3.972656 3.992188 -3.429688 4.421875 -2.984375 C 4.859375 -2.546875 5.375 -2.328125 5.96875 -2.328125 C 6.257812 -2.328125 6.53125 -2.363281 6.78125 -2.4375 C 7.039062 -2.507812 7.234375 -2.582031 7.359375 -2.65625 L 7.515625 -2.765625 L 8.59375 -0.5625 C 8.507812 -0.5 8.390625 -0.421875 8.234375 -0.328125 C 8.085938 -0.242188 7.75 -0.125 7.21875 0.03125 C 6.6875 0.1875 6.113281 0.265625 5.5 0.265625 C 4.15625 0.265625 2.96875 -0.207031 1.9375 -1.15625 C 0.914062 -2.101562 0.40625 -3.242188 0.40625 -4.578125 C 0.40625 -5.910156 0.914062 -7.054688 1.9375 -8.015625 C 2.96875 -8.984375 4.15625 -9.46875 5.5 -9.46875 C 6.113281 -9.46875 6.675781 -9.394531 7.1875 -9.25 C 7.707031 -9.113281 8.070312 -8.972656 8.28125 -8.828125 L 8.59375 -8.609375 L 7.515625 -6.4375 C 7.117188 -6.726562 6.601562 -6.875 5.96875 -6.875 Z M 5.96875 -6.875 "/></g></g></g><g fill="#000000" fill-opacity="1"><g transform="translate(190.104052, 37.587856)"><g><path d="M 10.390625 -4.15625 L 3.71875 -4.15625 C 3.71875 -3.507812 3.925781 -3.03125 4.34375 -2.71875 C 4.757812 -2.414062 5.210938 -2.265625 5.703125 -2.265625 C 6.210938 -2.265625 6.617188 -2.332031 6.921875 -2.46875 C 7.222656 -2.601562 7.566406 -2.875 7.953125 -3.28125 L 10.25 -2.140625 C 9.289062 -0.535156 7.695312 0.265625 5.46875 0.265625 C 4.082031 0.265625 2.890625 -0.207031 1.890625 -1.15625 C 0.898438 -2.101562 0.40625 -3.242188 0.40625 -4.578125 C 0.40625 -5.921875 0.898438 -7.070312 1.890625 -8.03125 C 2.890625 -8.988281 4.082031 -9.46875 5.46875 -9.46875 C 6.925781 -9.46875 8.113281 -9.046875 9.03125 -8.203125 C 9.945312 -7.359375 10.40625 -6.15625 10.40625 -4.59375 C 10.40625 -4.375 10.398438 -4.226562 10.390625 -4.15625 Z M 3.796875 -5.921875 L 7.296875 -5.921875 C 7.222656 -6.398438 7.035156 -6.765625 6.734375 -7.015625 C 6.429688 -7.273438 6.039062 -7.40625 5.5625 -7.40625 C 5.03125 -7.40625 4.609375 -7.265625 4.296875 -6.984375 C 3.992188 -6.710938 3.828125 -6.359375 3.796875 -5.921875 Z M 3.796875 -5.921875 "/></g></g></g><g fill="#000000" fill-opacity="1"><g transform="translate(200.915639, 37.587856)"><g/></g></g><g fill="#104e91" fill-opacity="1"><g transform="translate(205.80473, 37.587856)"><g><path d="M 1.078125 -14.796875 L 5.671875 -14.796875 C 7.054688 -14.796875 8.160156 -14.5 8.984375 -13.90625 C 9.804688 -13.3125 10.21875 -12.351562 10.21875 -11.03125 C 10.21875 -9.550781 9.601562 -8.492188 8.375 -7.859375 C 10.476562 -7.484375 11.53125 -6.238281 11.53125 -4.125 C 11.53125 -2.882812 11.097656 -1.882812 10.234375 -1.125 C 9.378906 -0.375 8.195312 0 6.6875 0 L 1.078125 0 Z M 4.453125 -9 L 4.71875 -9 C 5.46875 -9 6.023438 -9.128906 6.390625 -9.390625 C 6.765625 -9.660156 6.953125 -10.09375 6.953125 -10.6875 C 6.953125 -11.695312 6.207031 -12.203125 4.71875 -12.203125 L 4.453125 -12.203125 Z M 4.453125 -2.59375 L 5.5 -2.59375 C 7.15625 -2.59375 7.984375 -3.144531 7.984375 -4.25 C 7.984375 -4.90625 7.773438 -5.375 7.359375 -5.65625 C 6.953125 -5.945312 6.332031 -6.09375 5.5 -6.09375 L 4.453125 -6.09375 Z M 4.453125 -2.59375 "/></g></g></g><g fill="#104e91" fill-opacity="1"><g transform="translate(217.745895, 37.587856)"><g><path d="M 8.953125 -3.046875 C 9.460938 -3.046875 9.957031 -3.125 10.4375 -3.28125 C 10.925781 -3.4375 11.285156 -3.585938 11.515625 -3.734375 L 11.859375 -3.96875 L 13.296875 -1.09375 C 13.242188 -1.0625 13.175781 -1.015625 13.09375 -0.953125 C 13.007812 -0.890625 12.8125 -0.773438 12.5 -0.609375 C 12.195312 -0.453125 11.875 -0.3125 11.53125 -0.1875 C 11.1875 -0.0703125 10.734375 0.03125 10.171875 0.125 C 9.609375 0.21875 9.03125 0.265625 8.4375 0.265625 C 7.0625 0.265625 5.753906 -0.0703125 4.515625 -0.75 C 3.285156 -1.425781 2.289062 -2.351562 1.53125 -3.53125 C 0.78125 -4.71875 0.40625 -6 0.40625 -7.375 C 0.40625 -8.414062 0.625 -9.410156 1.0625 -10.359375 C 1.507812 -11.316406 2.101562 -12.132812 2.84375 -12.8125 C 3.582031 -13.5 4.441406 -14.046875 5.421875 -14.453125 C 6.398438 -14.859375 7.40625 -15.0625 8.4375 -15.0625 C 9.382812 -15.0625 10.257812 -14.945312 11.0625 -14.71875 C 11.875 -14.5 12.453125 -14.273438 12.796875 -14.046875 L 13.296875 -13.703125 L 11.859375 -10.828125 C 11.773438 -10.898438 11.648438 -10.988281 11.484375 -11.09375 C 11.316406 -11.195312 10.976562 -11.332031 10.46875 -11.5 C 9.96875 -11.664062 9.460938 -11.75 8.953125 -11.75 C 8.140625 -11.75 7.410156 -11.613281 6.765625 -11.34375 C 6.117188 -11.082031 5.601562 -10.738281 5.21875 -10.3125 C 4.84375 -9.882812 4.554688 -9.421875 4.359375 -8.921875 C 4.171875 -8.421875 4.078125 -7.914062 4.078125 -7.40625 C 4.078125 -6.28125 4.492188 -5.269531 5.328125 -4.375 C 6.171875 -3.488281 7.378906 -3.046875 8.953125 -3.046875 Z M 8.953125 -3.046875 "/></g></g></g><g fill="#104e91" fill-opacity="1"><g transform="translate(231.246935, 37.587856)"><g><path d="M 8.59375 -14.796875 L 14.5625 0 L 10.9375 0 L 9.84375 -2.953125 L 4.21875 -2.953125 L 3.125 0 L -0.5 0 L 5.46875 -14.796875 Z M 8.703125 -5.921875 L 7.046875 -10.21875 L 7.015625 -10.21875 L 5.359375 -5.921875 Z M 8.703125 -5.921875 "/></g></g></g></svg>