<svg xmlns="http://www.w3.org/2000/svg" xmlns:xlink="http://www.w3.org/1999/xlink" width="406" zoomAndPan="magnify" viewBox="0 0 304.5 227.999995" height="304" preserveAspectRatio="xMidYMid meet" version="1.0"><defs><g/><clipPath id="c5e7b138ff"><path d="M 0 0.1875 L 304 0.1875 L 304 227.8125 L 0 227.8125 Z M 0 0.1875 " clip-rule="nonzero"/></clipPath></defs><g clip-path="url(#c5e7b138ff)"><path fill="#ffffff" d="M 0 0.1875 L 304.5 0.1875 L 304.5 235.6875 L 0 235.6875 Z M 0 0.1875 " fill-opacity="1" fill-rule="nonzero"/><path fill="#ffffff" d="M 0 0.1875 L 304.5 0.1875 L 304.5 228.1875 L 0 228.1875 Z M 0 0.1875 " fill-opacity="1" fill-rule="nonzero"/><path fill="#eaf8ff" d="M 0 0.1875 L 304.5 0.1875 L 304.5 228.1875 L 0 228.1875 Z M 0 0.1875 " fill-opacity="1" fill-rule="nonzero"/></g><path fill="#ffd2bb" d="M 86.820312 145.566406 C 86.578125 146.066406 86.167969 146.546875 85.632812 146.941406 C 85.628906 146.949219 85.621094 146.953125 85.617188 146.953125 C 85.617188 146.957031 85.617188 146.957031 85.617188 146.957031 C 85.363281 147.144531 85.078125 147.3125 84.773438 147.457031 C 84.65625 147.515625 84.53125 147.566406 84.40625 147.617188 L 83.140625 149.703125 L 84.289062 149.308594 C 84.375 149.265625 84.472656 149.222656 84.578125 149.175781 C 85.402344 148.824219 86.8125 148.367188 88.390625 147.902344 L 88.296875 145.632812 C 88.882812 145.191406 89.398438 144.691406 89.78125 144.214844 C 90.003906 143.929688 90.183594 143.65625 90.300781 143.402344 C 90.875 142.128906 89.699219 141.792969 88.230469 141.3125 C 88.265625 141.167969 88.28125 141.035156 88.273438 140.929688 C 88.226562 140.457031 87.714844 140.734375 87.15625 140.789062 C 87.074219 140.796875 87 140.8125 86.921875 140.835938 C 86.882812 140.816406 86.839844 140.800781 86.796875 140.78125 C 86.214844 140.515625 85.613281 140.390625 85.03125 140.378906 L 85.019531 140.402344 C 84.949219 140.558594 84.128906 142.546875 84.273438 142.375 C 85.269531 142.367188 86.136719 142.691406 86.640625 143.285156 C 86.347656 143.273438 86.054688 143.324219 85.800781 143.460938 C 85.316406 143.726562 84.992188 144.351562 85.222656 144.890625 C 85.332031 145.144531 85.539062 145.289062 85.78125 145.339844 C 85.925781 145.371094 86.082031 145.367188 86.234375 145.328125 C 86.347656 145.300781 86.453125 145.257812 86.554688 145.207031 C 86.613281 145.175781 86.667969 145.148438 86.71875 145.113281 C 86.855469 145.015625 86.976562 144.898438 87.070312 144.761719 C 87.050781 144.929688 87.003906 145.097656 86.941406 145.265625 C 86.90625 145.367188 86.871094 145.46875 86.820312 145.566406 Z M 86.890625 141.84375 C 86.84375 141.953125 86.660156 141.980469 86.480469 141.902344 C 86.300781 141.828125 86.195312 141.679688 86.242188 141.566406 C 86.289062 141.460938 86.476562 141.429688 86.652344 141.507812 C 86.832031 141.582031 86.9375 141.734375 86.890625 141.84375 Z M 108.675781 133.941406 C 108.832031 134.519531 107.46875 136.113281 107.46875 136.113281 C 107.46875 136.113281 107.050781 136.921875 106.488281 137.210938 C 106.472656 140.378906 103.847656 146.65625 102.273438 148.085938 C 102.121094 148.226562 101.882812 148.28125 101.605469 148.269531 C 100.5625 148.214844 98.964844 147.105469 99.292969 145.410156 C 99.308594 145.316406 99.34375 145.207031 99.390625 145.078125 C 99.984375 143.511719 102.726562 139.492188 102.726562 139.492188 C 102.726562 139.492188 103.917969 137.386719 104.933594 136.28125 C 104.417969 135.335938 104.324219 134.101562 104.511719 133.140625 C 104.65625 132.414062 104.957031 131.847656 105.355469 131.710938 C 105.679688 131.59375 107.230469 132.335938 108.101562 133.140625 C 108.394531 133.410156 108.605469 133.6875 108.675781 133.941406 Z M 99.203125 141.417969 C 98.425781 141.703125 97.464844 141.679688 96.714844 140.945312 C 96.449219 140.683594 96.0625 140.019531 95.660156 139.21875 C 94.726562 137.375 93.683594 134.8125 93.683594 134.8125 C 93.683594 134.8125 93.300781 134.058594 92.914062 133.140625 C 92.644531 132.507812 92.378906 131.796875 92.230469 131.199219 C 90.339844 131.039062 88.410156 129.269531 88.652344 128.320312 C 88.765625 127.875 91.351562 126.453125 92.347656 126.785156 C 92.914062 126.976562 93.492188 128.992188 93.492188 128.992188 C 93.492188 128.992188 93.933594 129.789062 93.863281 130.417969 C 94.726562 130.996094 95.710938 131.988281 96.65625 133.140625 C 97.78125 134.507812 98.847656 136.09375 99.589844 137.464844 C 99.773438 137.796875 99.9375 138.121094 100.074219 138.421875 C 100.351562 139.023438 100.535156 139.546875 100.597656 139.941406 C 100.675781 140.457031 100.046875 141.117188 99.203125 141.417969 Z M 224.332031 201.058594 L 224.292969 200.96875 L 222.214844 201.691406 C 220.519531 198.625 218.015625 192.800781 216.378906 188.820312 C 216.15625 193.582031 215.703125 200.207031 214.976562 202.363281 L 214.964844 202.265625 L 212.769531 202.269531 C 212.113281 198.488281 211.632812 191.28125 211.414062 187.046875 C 211.359375 186.003906 211.320312 185.148438 211.300781 184.5625 L 212.707031 184.578125 L 214.714844 184.601562 L 216.53125 184.621094 L 220.261719 184.664062 C 221.515625 188.675781 224.304688 198.175781 224.332031 201.058594 Z M 208.050781 142.519531 C 207.898438 142.535156 207.785156 142.542969 207.753906 142.546875 L 207.730469 142.550781 C 207.566406 143.101562 207.511719 143.707031 207.585938 144.335938 C 207.589844 144.382812 207.597656 144.425781 207.601562 144.472656 C 207.558594 144.535156 207.519531 144.601562 207.488281 144.675781 C 207.445312 144.78125 207.390625 144.882812 207.339844 144.976562 C 207.140625 145.339844 206.949219 145.625 207.289062 145.769531 C 207.386719 145.808594 207.519531 145.835938 207.664062 145.84375 C 207.675781 146.640625 207.671875 147.34375 207.859375 147.816406 C 208.011719 148.195312 208.28125 148.425781 208.785156 148.425781 C 208.789062 148.328125 208.792969 148.230469 208.796875 148.128906 C 208.800781 148.027344 208.808594 147.921875 208.820312 147.816406 C 208.878906 147.078125 209.019531 146.214844 209.171875 145.402344 C 209.464844 143.855469 209.820312 142.492188 209.820312 142.492188 C 209.824219 142.46875 209.828125 142.445312 209.835938 142.429688 C 210 142.359375 208.667969 142.464844 208.050781 142.519531 Z M 208.738281 144.367188 C 208.757812 144.558594 208.675781 144.726562 208.5625 144.738281 C 208.441406 144.75 208.335938 144.605469 208.316406 144.414062 C 208.296875 144.222656 208.375 144.058594 208.492188 144.046875 C 208.613281 144.035156 208.722656 144.179688 208.738281 144.367188 Z M 198.804688 139.949219 L 198.800781 138.828125 C 198.851562 139.011719 198.882812 139.203125 198.882812 139.402344 C 198.882812 139.402344 198.878906 139.40625 198.878906 139.410156 C 198.878906 139.597656 198.851562 139.777344 198.804688 139.949219 Z M 200.433594 152.566406 C 200.433594 152.957031 200.285156 153.308594 200.046875 153.582031 C 199.921875 153.726562 199.769531 153.847656 199.597656 153.9375 C 199.382812 154.050781 199.144531 154.121094 198.886719 154.121094 C 198.882812 154.121094 198.882812 154.121094 198.882812 154.121094 C 198.023438 154.121094 197.328125 153.425781 197.328125 152.566406 C 197.328125 151.847656 197.820312 151.25 198.480469 151.074219 C 198.609375 151.039062 198.742188 151.015625 198.882812 151.015625 C 199.738281 151.015625 200.433594 151.710938 200.433594 152.566406 Z M 88.402344 184.4375 L 91.8125 184.398438 C 91.710938 187.367188 91.160156 197.398438 90.34375 202.101562 L 88.148438 202.101562 L 88.136719 202.199219 C 87.410156 200.042969 86.960938 193.417969 86.738281 188.65625 C 85.097656 192.636719 82.59375 198.460938 80.898438 201.527344 L 78.820312 200.804688 L 78.78125 200.890625 C 78.808594 198.011719 81.597656 188.511719 82.851562 184.5 L 86.582031 184.457031 Z M 88.402344 184.4375 " fill-opacity="1" fill-rule="nonzero"/><path fill="#00cec9" d="M 143.679688 95.351562 C 143.679688 88.222656 154.304688 85.066406 167.410156 85.066406 C 180.515625 85.066406 191.140625 88.222656 191.140625 95.351562 C 191.140625 99.671875 187.246094 106.285156 181.261719 110.839844 C 180.957031 110.714844 180.628906 110.644531 180.277344 110.644531 L 155.925781 110.644531 C 155.257812 110.644531 154.652344 110.898438 154.1875 111.308594 C 147.847656 106.753906 143.679688 99.820312 143.679688 95.351562 Z M 211.410156 187.046875 C 208.914062 191.199219 205.222656 194.554688 200.628906 197.15625 C 203.988281 193.421875 206.03125 188.484375 206.03125 183.066406 C 206.03125 171.417969 196.589844 161.976562 184.941406 161.976562 C 173.292969 161.976562 163.851562 171.417969 163.851562 183.066406 C 163.851562 192.890625 170.566406 201.144531 179.660156 203.492188 C 176.019531 203.9375 172.207031 204.15625 168.28125 204.15625 C 161.515625 204.15625 155.085938 203.503906 149.28125 202.160156 C 150.308594 201.050781 150.941406 199.574219 150.941406 197.941406 L 150.941406 148.683594 C 150.941406 145.25 148.160156 142.46875 144.726562 142.46875 L 130.484375 142.46875 C 136.351562 131.242188 144.722656 120.824219 154.453125 115.445312 C 154.875 115.730469 155.378906 115.898438 155.925781 115.898438 L 180.277344 115.898438 C 180.890625 115.898438 181.453125 115.6875 181.902344 115.332031 C 191.488281 120.550781 199.769531 130.664062 205.652344 141.664062 L 194.816406 141.667969 L 198.480469 151.074219 C 197.820312 151.25 197.328125 151.847656 197.328125 152.566406 C 197.328125 153.425781 198.023438 154.121094 198.878906 154.121094 C 198.882812 154.121094 198.882812 154.121094 198.886719 154.121094 C 198.96875 155.941406 200.542969 160.007812 201.625 161.308594 C 202.460938 162.3125 202.675781 163.679688 203.984375 163.6875 C 204.066406 163.6875 204.148438 163.683594 204.226562 163.675781 C 204.398438 163.703125 204.617188 163.644531 204.878906 163.515625 C 205.167969 163.398438 205.429688 163.226562 205.648438 163.011719 C 206.449219 162.398438 207.40625 161.429688 208.320312 160.363281 L 209.234375 160.363281 C 209.800781 162.027344 210.355469 163.675781 210.53125 165.28125 C 210.777344 167.570312 210.703125 168.941406 210.601562 169.675781 C 210.539062 169.867188 210.496094 170.082031 210.476562 170.320312 C 210.460938 170.367188 210.453125 170.390625 210.453125 170.390625 L 210.472656 170.390625 C 210.464844 170.488281 210.453125 170.578125 210.453125 170.683594 C 210.453125 173.628906 210.558594 184.554688 210.558594 184.554688 L 211.300781 184.5625 C 211.320312 185.148438 211.359375 186.003906 211.410156 187.046875 Z M 198.800781 138.828125 L 198.804688 139.949219 C 198.851562 139.777344 198.878906 139.597656 198.878906 139.410156 C 198.878906 139.40625 198.882812 139.402344 198.882812 139.402344 C 198.882812 139.203125 198.847656 139.011719 198.800781 138.828125 Z M 198.800781 138.828125 " fill-opacity="1" fill-rule="nonzero"/><path fill="#e84393" d="M 182.90625 113.273438 C 182.90625 114.109375 182.511719 114.851562 181.902344 115.332031 C 181.453125 115.6875 180.890625 115.898438 180.277344 115.898438 L 155.925781 115.898438 C 155.382812 115.898438 154.875 115.730469 154.453125 115.445312 C 153.757812 114.972656 153.300781 114.175781 153.300781 113.273438 C 153.300781 112.492188 153.644531 111.789062 154.1875 111.308594 C 154.652344 110.898438 155.257812 110.644531 155.925781 110.644531 L 180.277344 110.644531 C 180.628906 110.644531 180.957031 110.714844 181.261719 110.839844 C 182.226562 111.226562 182.90625 112.171875 182.90625 113.273438 Z M 86.71875 145.109375 C 86.667969 145.148438 86.613281 145.175781 86.554688 145.203125 C 86.457031 145.257812 86.347656 145.300781 86.234375 145.328125 C 86.082031 145.367188 85.925781 145.371094 85.78125 145.339844 C 85.539062 145.289062 85.332031 145.140625 85.222656 144.890625 C 84.992188 144.351562 85.316406 143.726562 85.800781 143.460938 C 86.054688 143.324219 86.347656 143.269531 86.640625 143.285156 C 86.136719 142.691406 85.269531 142.367188 84.273438 142.371094 C 84.128906 142.542969 84.949219 140.554688 85.019531 140.398438 L 85.03125 140.375 C 85.503906 139.289062 85.007812 138.019531 83.90625 137.523438 C 82.800781 137.023438 81.507812 137.5 81.015625 138.589844 C 80.652344 139.398438 80.898438 140.273438 80.472656 141.230469 C 80.375 141.449219 80.296875 141.617188 80.230469 141.742188 C 80.230469 141.75 80.226562 141.753906 80.226562 141.757812 C 80.199219 141.527344 80.132812 141.300781 80.019531 141.085938 C 79.519531 140.128906 78.335938 139.757812 77.378906 140.261719 C 76.421875 140.765625 76.054688 141.945312 76.558594 142.902344 C 77.058594 143.859375 78.242188 144.226562 79.199219 143.722656 C 79.25 143.699219 79.289062 143.664062 79.335938 143.632812 C 78.734375 146.167969 80.335938 147.167969 81.535156 147.609375 C 82.550781 147.984375 83.851562 147.828125 84.367188 147.632812 C 84.382812 147.625 84.394531 147.621094 84.40625 147.617188 C 84.53125 147.566406 84.65625 147.515625 84.773438 147.460938 C 85.078125 147.316406 85.363281 147.144531 85.617188 146.957031 C 85.625 146.953125 85.628906 146.949219 85.632812 146.945312 C 86.167969 146.546875 86.578125 146.066406 86.824219 145.566406 C 86.871094 145.46875 86.90625 145.367188 86.941406 145.265625 C 87.003906 145.097656 87.050781 144.929688 87.070312 144.761719 C 86.976562 144.894531 86.855469 145.015625 86.71875 145.109375 Z M 225.058594 149.273438 C 224.386719 149.007812 222.84375 148.632812 221.253906 148.125 C 218.769531 147.167969 220.382812 145.722656 218.945312 144.125 C 217.507812 142.527344 216.550781 143.488281 215.75 142.847656 C 215.71875 142.820312 215.6875 142.789062 215.65625 142.757812 C 215.613281 142.484375 215.578125 142.21875 215.554688 141.976562 C 215.578125 141.78125 215.585938 141.585938 215.578125 141.394531 C 215.511719 140.03125 214.972656 138.019531 211.804688 138.132812 L 211.792969 138.136719 C 211.753906 138.136719 211.710938 138.144531 211.671875 138.148438 C 210.851562 138.246094 211.152344 138.316406 210.4375 138.433594 C 210.296875 138.457031 210.117188 138.480469 209.878906 138.507812 C 208.851562 138.628906 208.101562 138.132812 207.234375 138.238281 C 207.1875 138.246094 207.140625 138.238281 207.101562 138.261719 C 204.878906 139.6875 205.085938 140.898438 205.753906 141.664062 C 206.1875 142.160156 206.820312 142.472656 207.101562 142.527344 C 207.304688 142.566406 207.515625 142.574219 207.726562 142.550781 L 207.730469 142.550781 L 207.753906 142.546875 C 207.789062 142.542969 207.898438 142.535156 208.050781 142.519531 C 208.667969 142.464844 210 142.359375 209.835938 142.429688 C 209.828125 142.445312 209.824219 142.46875 209.820312 142.492188 C 209.820312 142.492188 209.464844 143.859375 209.171875 145.402344 C 209.019531 146.214844 208.878906 147.078125 208.820312 147.816406 C 208.808594 147.921875 208.804688 148.027344 208.796875 148.128906 C 208.792969 148.230469 208.789062 148.328125 208.785156 148.425781 C 208.777344 148.828125 208.804688 149.164062 208.882812 149.398438 C 208.984375 149.703125 209.144531 149.980469 209.335938 150.242188 C 209.402344 150.328125 209.46875 150.417969 209.539062 150.5 C 209.683594 150.667969 209.835938 150.828125 209.992188 150.976562 C 210.621094 151.585938 211.3125 152.089844 211.597656 152.59375 C 211.917969 153.148438 211.679688 154.144531 211.640625 155.277344 C 211.636719 155.332031 211.636719 155.386719 211.636719 155.441406 C 211.617188 156.4375 211.777344 157.535156 212.609375 158.527344 C 212.691406 158.625 212.78125 158.722656 212.875 158.820312 C 213.5625 159.507812 214.222656 159.8125 214.820312 159.894531 C 216.382812 160.113281 217.507812 158.820312 217.507812 158.820312 L 217.59375 158.835938 C 217.910156 159.03125 218.222656 159.210938 218.527344 159.367188 C 219.128906 159.679688 219.710938 159.90625 220.273438 160.066406 C 220.605469 160.164062 220.933594 160.238281 221.253906 160.28125 C 221.53125 160.316406 221.800781 160.332031 222.070312 160.328125 C 222.808594 160.320312 223.515625 160.160156 224.199219 159.84375 C 224.207031 159.839844 224.214844 159.835938 224.226562 159.832031 L 224.3125 159.84375 C 224.3125 159.84375 224.3125 159.824219 224.308594 159.789062 C 225.308594 159.300781 226.253906 158.480469 227.152344 157.304688 C 229.785156 153.875 228.082031 150.472656 225.058594 149.273438 Z M 124.179688 104.832031 L 112.902344 113.300781 L 112.96875 108.484375 C 112.972656 108.207031 112.816406 107.949219 112.5625 107.824219 C 112.308594 107.703125 112.007812 107.738281 111.789062 107.914062 L 99.574219 117.851562 L 99.574219 113.992188 C 99.574219 113.710938 99.410156 113.457031 99.15625 113.335938 C 98.898438 113.21875 98.597656 113.261719 98.382812 113.441406 L 90.785156 119.882812 C 90.480469 120.144531 90.441406 120.597656 90.703125 120.902344 C 90.84375 121.074219 91.046875 121.160156 91.253906 121.160156 C 91.417969 121.160156 91.585938 121.101562 91.71875 120.988281 L 98.128906 115.554688 L 98.128906 119.371094 C 98.128906 119.648438 98.289062 119.902344 98.539062 120.023438 C 98.792969 120.144531 99.089844 120.105469 99.308594 119.929688 L 111.5 110.015625 L 111.433594 114.753906 C 111.429688 115.027344 111.582031 115.28125 111.828125 115.40625 C 112.074219 115.53125 112.371094 115.507812 112.589844 115.339844 L 125.046875 105.988281 C 125.363281 105.75 125.429688 105.292969 125.191406 104.976562 C 124.949219 104.65625 124.496094 104.589844 124.179688 104.832031 Z M 124.179688 104.832031 " fill-opacity="1" fill-rule="nonzero"/><path fill="#fbc02d" d="M 144.726562 142.46875 L 110.660156 142.46875 C 107.226562 142.46875 104.445312 145.25 104.445312 148.683594 L 104.445312 158.242188 L 150.941406 158.242188 L 150.941406 148.683594 C 150.941406 145.25 148.160156 142.46875 144.726562 142.46875 Z M 144.269531 155.046875 L 111.117188 155.046875 L 111.117188 146.9375 L 144.269531 146.9375 Z M 114.609375 164.40625 L 114.609375 167.449219 C 114.609375 168.035156 114.136719 168.511719 113.546875 168.511719 L 110.507812 168.511719 C 109.921875 168.511719 109.445312 168.035156 109.445312 167.449219 L 109.445312 164.40625 C 109.445312 163.820312 109.921875 163.347656 110.507812 163.347656 L 113.546875 163.347656 C 114.136719 163.347656 114.609375 163.820312 114.609375 164.40625 Z M 122.367188 164.40625 L 122.367188 167.449219 C 122.367188 167.832031 122.160156 168.164062 121.859375 168.347656 C 121.695312 168.449219 121.507812 168.507812 121.304688 168.507812 L 118.261719 168.507812 C 117.675781 168.507812 117.203125 168.035156 117.203125 167.449219 L 117.203125 164.40625 C 117.203125 163.820312 117.675781 163.34375 118.261719 163.34375 L 121.304688 163.34375 C 121.890625 163.347656 122.367188 163.820312 122.367188 164.40625 Z M 130.121094 164.40625 L 130.121094 167.449219 C 130.121094 168.035156 129.644531 168.511719 129.058594 168.511719 L 126.019531 168.511719 C 125.433594 168.511719 124.957031 168.035156 124.957031 167.449219 L 124.957031 164.40625 C 124.957031 163.820312 125.429688 163.347656 126.019531 163.347656 L 129.058594 163.347656 C 129.644531 163.347656 130.121094 163.820312 130.121094 164.40625 Z M 137.875 164.40625 L 137.875 167.449219 C 137.875 168.035156 137.398438 168.511719 136.8125 168.511719 L 133.773438 168.511719 C 133.1875 168.511719 132.710938 168.035156 132.710938 167.449219 L 132.710938 164.40625 C 132.710938 163.820312 133.1875 163.347656 133.773438 163.347656 L 136.8125 163.347656 C 137.398438 163.347656 137.875 163.820312 137.875 164.40625 Z M 145.628906 164.40625 L 145.628906 167.449219 C 145.628906 168.035156 145.15625 168.511719 144.566406 168.511719 L 141.527344 168.511719 C 140.941406 168.511719 140.464844 168.035156 140.464844 167.449219 L 140.464844 164.40625 C 140.464844 163.820312 140.941406 163.347656 141.527344 163.347656 L 144.566406 163.347656 C 145.15625 163.347656 145.628906 163.820312 145.628906 164.40625 Z M 114.609375 171.792969 L 114.609375 174.832031 C 114.609375 175.417969 114.136719 175.894531 113.546875 175.894531 L 110.507812 175.894531 C 109.921875 175.894531 109.445312 175.417969 109.445312 174.832031 L 109.445312 171.792969 C 109.445312 171.207031 109.921875 170.730469 110.507812 170.730469 L 113.546875 170.730469 C 114.136719 170.730469 114.609375 171.207031 114.609375 171.792969 Z M 122.367188 171.792969 L 122.367188 174.832031 C 122.367188 175.300781 122.058594 175.695312 121.636719 175.835938 C 121.53125 175.871094 121.421875 175.894531 121.304688 175.894531 L 118.261719 175.894531 C 117.675781 175.894531 117.203125 175.417969 117.203125 174.832031 L 117.203125 171.792969 C 117.203125 171.207031 117.675781 170.730469 118.261719 170.730469 L 121.304688 170.730469 C 121.414062 170.730469 121.523438 170.75 121.621094 170.785156 C 122.050781 170.921875 122.367188 171.316406 122.367188 171.792969 Z M 130.121094 171.792969 L 130.121094 174.832031 C 130.121094 175.417969 129.644531 175.894531 129.058594 175.894531 L 126.019531 175.894531 C 125.433594 175.894531 124.957031 175.417969 124.957031 174.832031 L 124.957031 171.792969 C 124.957031 171.207031 125.429688 170.730469 126.019531 170.730469 L 129.058594 170.730469 C 129.644531 170.730469 130.121094 171.207031 130.121094 171.792969 Z M 137.875 171.792969 L 137.875 174.832031 C 137.875 175.417969 137.398438 175.894531 136.8125 175.894531 L 133.773438 175.894531 C 133.1875 175.894531 132.710938 175.417969 132.710938 174.832031 L 132.710938 171.792969 C 132.710938 171.207031 133.1875 170.730469 133.773438 170.730469 L 136.8125 170.730469 C 137.398438 170.730469 137.875 171.207031 137.875 171.792969 Z M 145.628906 171.792969 L 145.628906 174.832031 C 145.628906 175.417969 145.15625 175.894531 144.566406 175.894531 L 141.527344 175.894531 C 140.941406 175.894531 140.464844 175.417969 140.464844 174.832031 L 140.464844 171.792969 C 140.464844 171.207031 140.941406 170.730469 141.527344 170.730469 L 144.566406 170.730469 C 145.15625 170.730469 145.628906 171.207031 145.628906 171.792969 Z M 114.609375 179.175781 L 114.609375 182.214844 C 114.609375 182.804688 114.136719 183.277344 113.546875 183.277344 L 110.507812 183.277344 C 109.921875 183.277344 109.445312 182.804688 109.445312 182.214844 L 109.445312 179.175781 C 109.445312 178.589844 109.921875 178.113281 110.507812 178.113281 L 113.546875 178.113281 C 114.136719 178.113281 114.609375 178.589844 114.609375 179.175781 Z M 122.367188 179.175781 L 122.367188 182.214844 C 122.367188 182.804688 121.890625 183.277344 121.304688 183.277344 L 118.261719 183.277344 C 117.675781 183.277344 117.203125 182.804688 117.203125 182.214844 L 117.203125 179.175781 C 117.203125 178.589844 117.675781 178.113281 118.261719 178.113281 L 121.304688 178.113281 C 121.550781 178.113281 121.773438 178.199219 121.953125 178.339844 C 122.203125 178.535156 122.367188 178.835938 122.367188 179.175781 Z M 130.121094 179.175781 L 130.121094 182.214844 C 130.121094 182.804688 129.644531 183.277344 129.058594 183.277344 L 126.019531 183.277344 C 125.433594 183.277344 124.957031 182.804688 124.957031 182.214844 L 124.957031 179.175781 C 124.957031 178.589844 125.429688 178.113281 126.019531 178.113281 L 129.058594 178.113281 C 129.644531 178.113281 130.121094 178.589844 130.121094 179.175781 Z M 137.875 179.175781 L 137.875 182.214844 C 137.875 182.804688 137.398438 183.277344 136.8125 183.277344 L 133.773438 183.277344 C 133.1875 183.277344 132.710938 182.804688 132.710938 182.214844 L 132.710938 179.175781 C 132.710938 178.589844 133.1875 178.113281 133.773438 178.113281 L 136.8125 178.113281 C 137.398438 178.113281 137.875 178.589844 137.875 179.175781 Z M 145.628906 179.175781 L 145.628906 182.214844 C 145.628906 182.804688 145.15625 183.277344 144.566406 183.277344 L 141.527344 183.277344 C 140.941406 183.277344 140.464844 182.804688 140.464844 182.214844 L 140.464844 179.175781 C 140.464844 178.589844 140.941406 178.113281 141.527344 178.113281 L 144.566406 178.113281 C 145.15625 178.113281 145.628906 178.589844 145.628906 179.175781 Z M 145.628906 186.5625 L 145.628906 196.929688 C 145.628906 197.515625 145.15625 197.992188 144.566406 197.992188 L 141.527344 197.992188 C 140.941406 197.992188 140.464844 197.515625 140.464844 196.929688 L 140.464844 186.5625 C 140.464844 185.972656 140.941406 185.5 141.527344 185.5 L 144.566406 185.5 C 145.15625 185.5 145.628906 185.972656 145.628906 186.5625 Z M 114.609375 186.5625 L 114.609375 189.601562 C 114.609375 190.1875 114.136719 190.664062 113.546875 190.664062 L 110.507812 190.664062 C 109.921875 190.664062 109.445312 190.1875 109.445312 189.601562 L 109.445312 186.5625 C 109.445312 185.972656 109.921875 185.5 110.507812 185.5 L 113.546875 185.5 C 114.136719 185.5 114.609375 185.972656 114.609375 186.5625 Z M 122.367188 186.5625 L 122.367188 189.601562 C 122.367188 190.1875 121.890625 190.664062 121.304688 190.664062 L 118.261719 190.664062 C 117.675781 190.664062 117.203125 190.1875 117.203125 189.601562 L 117.203125 186.5625 C 117.203125 185.972656 117.675781 185.5 118.261719 185.5 L 121.304688 185.5 C 121.890625 185.5 122.367188 185.972656 122.367188 186.5625 Z M 130.121094 186.5625 L 130.121094 189.601562 C 130.121094 190.1875 129.644531 190.664062 129.058594 190.664062 L 126.019531 190.664062 C 125.433594 190.664062 124.957031 190.1875 124.957031 189.601562 L 124.957031 186.5625 C 124.957031 185.972656 125.429688 185.5 126.019531 185.5 L 129.058594 185.5 C 129.644531 185.5 130.121094 185.972656 130.121094 186.5625 Z M 137.875 186.5625 L 137.875 189.601562 C 137.875 190.1875 137.398438 190.664062 136.8125 190.664062 L 133.773438 190.664062 C 133.1875 190.664062 132.710938 190.1875 132.710938 189.601562 L 132.710938 186.5625 C 132.710938 185.972656 133.1875 185.5 133.773438 185.5 L 136.8125 185.5 C 137.398438 185.5 137.875 185.972656 137.875 186.5625 Z M 114.609375 193.980469 L 114.609375 197.019531 C 114.609375 197.605469 114.136719 198.082031 113.546875 198.082031 L 110.507812 198.082031 C 109.921875 198.082031 109.445312 197.605469 109.445312 197.019531 L 109.445312 193.980469 C 109.445312 193.394531 109.921875 192.917969 110.507812 192.917969 L 113.546875 192.917969 C 114.136719 192.917969 114.609375 193.394531 114.609375 193.980469 Z M 122.367188 193.980469 L 122.367188 197.019531 C 122.367188 197.605469 121.890625 198.082031 121.304688 198.082031 L 118.261719 198.082031 C 117.675781 198.082031 117.203125 197.605469 117.203125 197.019531 L 117.203125 193.980469 C 117.203125 193.394531 117.675781 192.917969 118.261719 192.917969 L 121.304688 192.917969 C 121.890625 192.917969 122.367188 193.394531 122.367188 193.980469 Z M 130.121094 193.980469 L 130.121094 197.019531 C 130.121094 197.605469 129.644531 198.082031 129.058594 198.082031 L 126.019531 198.082031 C 125.433594 198.082031 124.957031 197.605469 124.957031 197.019531 L 124.957031 193.980469 C 124.957031 193.394531 125.429688 192.917969 126.019531 192.917969 L 129.058594 192.917969 C 129.644531 192.917969 130.121094 193.394531 130.121094 193.980469 Z M 137.875 193.980469 L 137.875 197.019531 C 137.875 197.40625 137.667969 197.742188 137.359375 197.925781 C 137.199219 198.023438 137.011719 198.082031 136.8125 198.082031 L 133.773438 198.082031 C 133.1875 198.082031 132.710938 197.605469 132.710938 197.019531 L 132.710938 193.980469 C 132.710938 193.394531 133.1875 192.917969 133.773438 192.917969 L 136.8125 192.917969 C 137.398438 192.917969 137.875 193.394531 137.875 193.980469 Z M 184.941406 161.976562 C 173.292969 161.976562 163.851562 171.417969 163.851562 183.066406 C 163.851562 192.890625 170.566406 201.144531 179.660156 203.492188 C 181.347656 203.925781 183.117188 204.15625 184.941406 204.15625 C 191.171875 204.15625 196.769531 201.453125 200.628906 197.15625 C 203.988281 193.421875 206.03125 188.484375 206.03125 183.066406 C 206.03125 171.417969 196.589844 161.976562 184.941406 161.976562 Z M 184.941406 199.761719 C 175.71875 199.761719 168.246094 192.285156 168.246094 183.066406 C 168.246094 173.847656 175.71875 166.371094 184.941406 166.371094 C 194.160156 166.371094 201.636719 173.847656 201.636719 183.066406 C 201.636719 192.285156 194.160156 199.761719 184.941406 199.761719 Z M 190.140625 185.617188 C 190.140625 187.863281 188.589844 189.78125 185.757812 190.285156 L 185.757812 192.859375 L 183.34375 192.859375 L 183.34375 190.460938 C 181.695312 190.382812 180.097656 189.929688 179.160156 189.375 L 179.898438 186.421875 C 180.933594 187.003906 182.386719 187.535156 183.984375 187.535156 C 185.390625 187.535156 186.347656 186.976562 186.347656 185.96875 C 186.347656 185.011719 185.5625 184.40625 183.738281 183.773438 C 181.105469 182.867188 179.308594 181.605469 179.308594 179.15625 C 179.308594 176.9375 180.835938 175.195312 183.46875 174.664062 L 183.46875 172.269531 L 185.882812 172.269531 L 185.882812 174.488281 C 187.53125 174.566406 188.636719 174.917969 189.449219 175.320312 L 188.738281 178.171875 C 188.097656 177.894531 186.964844 177.316406 185.191406 177.316406 C 183.589844 177.316406 183.074219 178.019531 183.074219 178.726562 C 183.074219 179.5625 183.9375 180.089844 186.027344 180.898438 C 188.957031 181.957031 190.140625 183.34375 190.140625 185.617188 Z M 225.664062 203.933594 L 219.46875 206.089844 C 219.46875 206.089844 218.078125 206.613281 217.863281 205.914062 C 217.535156 204.835938 220.359375 204.222656 221.191406 203.5 C 221.582031 203.15625 222.214844 201.691406 222.214844 201.691406 L 224.292969 200.96875 L 224.332031 201.058594 Z M 220.261719 184.664062 L 216.53125 184.621094 L 214.714844 184.601562 L 212.707031 184.578125 L 211.300781 184.5625 L 210.558594 184.554688 C 210.558594 184.554688 210.453125 173.628906 210.453125 170.683594 C 210.453125 170.578125 210.464844 170.488281 210.472656 170.390625 L 221.136719 170.390625 C 221.136719 170.390625 221.054688 170.226562 220.929688 169.933594 C 221.984375 170.894531 222.636719 172.195312 222.636719 173.628906 C 222.636719 175.101562 221.070312 184.671875 221.070312 184.671875 Z M 210.601562 169.675781 C 210.554688 170.015625 210.503906 170.222656 210.476562 170.320312 C 210.496094 170.082031 210.539062 169.867188 210.601562 169.675781 Z M 214.976562 202.363281 L 215.289062 205.519531 L 208.730469 205.523438 C 208.730469 205.523438 207.246094 205.558594 207.273438 204.828125 C 207.3125 203.703125 210.183594 204.046875 211.207031 203.636719 C 211.6875 203.445312 212.769531 202.269531 212.769531 202.269531 L 214.964844 202.265625 Z M 208.316406 144.414062 C 208.296875 144.222656 208.378906 144.058594 208.496094 144.046875 C 208.613281 144.035156 208.722656 144.179688 208.742188 144.367188 C 208.757812 144.558594 208.675781 144.726562 208.5625 144.738281 C 208.441406 144.75 208.335938 144.605469 208.316406 144.414062 Z M 85.25 205.746094 C 85.035156 206.449219 83.644531 205.925781 83.644531 205.925781 L 77.449219 203.769531 L 78.78125 200.890625 L 78.824219 200.804688 L 80.898438 201.527344 C 80.898438 201.527344 81.53125 202.992188 81.925781 203.332031 C 82.757812 204.054688 85.578125 204.667969 85.25 205.746094 Z M 88.402344 184.4375 L 86.582031 184.457031 L 82.851562 184.5 L 82.046875 184.507812 C 82.046875 184.507812 80.476562 174.9375 80.476562 173.464844 C 80.476562 172.464844 80.800781 171.53125 81.347656 170.730469 C 82.410156 169.175781 84.347656 168.132812 86.570312 168.132812 C 88.992188 168.132812 91.078125 167.851562 92.058594 168.789062 C 92.441406 169.152344 92.660156 169.695312 92.660156 170.519531 C 92.660156 173.464844 92.554688 184.386719 92.554688 184.386719 L 91.8125 184.398438 Z M 95.839844 204.664062 C 95.867188 205.394531 94.382812 205.359375 94.382812 205.359375 L 87.824219 205.355469 L 88.136719 202.199219 L 88.148438 202.101562 L 90.34375 202.101562 C 90.34375 202.101562 91.425781 203.28125 91.90625 203.472656 C 92.933594 203.882812 95.800781 203.535156 95.839844 204.664062 Z M 95.839844 204.664062 " fill-opacity="1" fill-rule="nonzero"/><path fill="#0984e3" d="M 92.230469 131.199219 C 90.339844 131.039062 88.410156 129.269531 88.652344 128.320312 C 88.765625 127.875 91.351562 126.453125 92.347656 126.785156 C 92.914062 126.976562 93.492188 128.992188 93.492188 128.992188 C 93.492188 128.992188 93.933594 129.789062 93.863281 130.417969 C 94.726562 130.996094 95.710938 131.988281 96.65625 133.140625 L 104.511719 133.140625 C 104.65625 132.414062 104.957031 131.847656 105.355469 131.710938 C 105.679688 131.59375 107.230469 132.335938 108.101562 133.140625 L 132.710938 133.140625 L 132.710938 92.703125 L 80.476562 92.703125 L 80.476562 133.140625 L 92.914062 133.140625 C 92.648438 132.507812 92.378906 131.796875 92.230469 131.199219 Z M 90.785156 119.882812 L 98.382812 113.441406 C 98.597656 113.261719 98.898438 113.21875 99.15625 113.335938 C 99.410156 113.457031 99.574219 113.710938 99.574219 113.992188 L 99.574219 117.851562 L 111.792969 107.914062 C 112.007812 107.738281 112.308594 107.703125 112.5625 107.824219 C 112.816406 107.949219 112.976562 108.207031 112.972656 108.484375 L 112.902344 113.300781 L 124.179688 104.832031 C 124.5 104.589844 124.953125 104.65625 125.191406 104.976562 C 125.429688 105.292969 125.367188 105.75 125.046875 105.988281 L 112.59375 115.339844 C 112.371094 115.507812 112.078125 115.53125 111.828125 115.40625 C 111.585938 115.28125 111.429688 115.027344 111.433594 114.753906 L 111.503906 110.015625 L 99.308594 119.929688 C 99.09375 120.105469 98.792969 120.144531 98.542969 120.023438 C 98.289062 119.902344 98.128906 119.648438 98.128906 119.371094 L 98.128906 115.554688 L 91.722656 120.988281 C 91.585938 121.101562 91.417969 121.160156 91.253906 121.160156 C 91.050781 121.160156 90.84375 121.074219 90.703125 120.902344 C 90.445312 120.597656 90.480469 120.144531 90.785156 119.882812 Z M 104.445312 158.242188 L 104.445312 197.941406 C 104.445312 201.375 107.226562 204.15625 110.660156 204.15625 L 144.726562 204.15625 C 146.527344 204.15625 148.144531 203.386719 149.28125 202.160156 C 150.308594 201.050781 150.941406 199.574219 150.941406 197.941406 L 150.941406 158.242188 Z M 117.203125 164.40625 C 117.203125 163.820312 117.675781 163.347656 118.261719 163.347656 L 121.304688 163.347656 C 121.890625 163.347656 122.367188 163.820312 122.367188 164.40625 L 122.367188 167.449219 C 122.367188 167.832031 122.160156 168.164062 121.859375 168.347656 C 121.695312 168.449219 121.507812 168.507812 121.304688 168.507812 L 118.261719 168.507812 C 117.675781 168.507812 117.203125 168.035156 117.203125 167.449219 Z M 117.203125 171.792969 C 117.203125 171.207031 117.675781 170.730469 118.261719 170.730469 L 121.304688 170.730469 C 121.414062 170.730469 121.523438 170.753906 121.621094 170.785156 C 122.050781 170.921875 122.367188 171.316406 122.367188 171.792969 L 122.367188 174.832031 C 122.367188 175.300781 122.058594 175.695312 121.636719 175.835938 C 121.53125 175.871094 121.421875 175.894531 121.304688 175.894531 L 118.261719 175.894531 C 117.675781 175.894531 117.203125 175.417969 117.203125 174.832031 Z M 117.203125 179.175781 C 117.203125 178.589844 117.675781 178.113281 118.261719 178.113281 L 121.304688 178.113281 C 121.550781 178.113281 121.773438 178.199219 121.953125 178.339844 C 122.203125 178.535156 122.367188 178.835938 122.367188 179.175781 L 122.367188 182.214844 C 122.367188 182.804688 121.890625 183.277344 121.304688 183.277344 L 118.261719 183.277344 C 117.675781 183.277344 117.203125 182.804688 117.203125 182.214844 Z M 117.203125 186.5625 C 117.203125 185.972656 117.675781 185.5 118.261719 185.5 L 121.304688 185.5 C 121.890625 185.5 122.367188 185.972656 122.367188 186.5625 L 122.367188 189.601562 C 122.367188 190.1875 121.890625 190.664062 121.304688 190.664062 L 118.261719 190.664062 C 117.675781 190.664062 117.203125 190.1875 117.203125 189.601562 Z M 109.445312 164.40625 C 109.445312 163.820312 109.921875 163.347656 110.507812 163.347656 L 113.546875 163.347656 C 114.136719 163.347656 114.609375 163.820312 114.609375 164.40625 L 114.609375 167.449219 C 114.609375 168.035156 114.136719 168.511719 113.546875 168.511719 L 110.507812 168.511719 C 109.921875 168.511719 109.445312 168.035156 109.445312 167.449219 Z M 109.445312 171.792969 C 109.445312 171.207031 109.921875 170.730469 110.507812 170.730469 L 113.546875 170.730469 C 114.136719 170.730469 114.609375 171.207031 114.609375 171.792969 L 114.609375 174.832031 C 114.609375 175.417969 114.136719 175.894531 113.546875 175.894531 L 110.507812 175.894531 C 109.921875 175.894531 109.445312 175.417969 109.445312 174.832031 Z M 109.445312 179.175781 C 109.445312 178.589844 109.921875 178.113281 110.507812 178.113281 L 113.546875 178.113281 C 114.136719 178.113281 114.609375 178.589844 114.609375 179.175781 L 114.609375 182.214844 C 114.609375 182.804688 114.136719 183.277344 113.546875 183.277344 L 110.507812 183.277344 C 109.921875 183.277344 109.445312 182.804688 109.445312 182.214844 Z M 109.445312 186.5625 C 109.445312 185.972656 109.921875 185.5 110.507812 185.5 L 113.546875 185.5 C 114.136719 185.5 114.609375 185.972656 114.609375 186.5625 L 114.609375 189.601562 C 114.609375 190.1875 114.136719 190.664062 113.546875 190.664062 L 110.507812 190.664062 C 109.921875 190.664062 109.445312 190.1875 109.445312 189.601562 Z M 114.609375 197.019531 C 114.609375 197.605469 114.136719 198.082031 113.546875 198.082031 L 110.507812 198.082031 C 109.921875 198.082031 109.445312 197.605469 109.445312 197.019531 L 109.445312 193.980469 C 109.445312 193.394531 109.921875 192.917969 110.507812 192.917969 L 113.546875 192.917969 C 114.136719 192.917969 114.609375 193.394531 114.609375 193.980469 Z M 122.367188 197.019531 C 122.367188 197.605469 121.890625 198.082031 121.304688 198.082031 L 118.261719 198.082031 C 117.675781 198.082031 117.203125 197.605469 117.203125 197.019531 L 117.203125 193.980469 C 117.203125 193.394531 117.675781 192.917969 118.261719 192.917969 L 121.304688 192.917969 C 121.890625 192.917969 122.367188 193.394531 122.367188 193.980469 Z M 130.121094 197.019531 C 130.121094 197.605469 129.644531 198.082031 129.058594 198.082031 L 126.019531 198.082031 C 125.433594 198.082031 124.957031 197.605469 124.957031 197.019531 L 124.957031 193.980469 C 124.957031 193.394531 125.429688 192.917969 126.019531 192.917969 L 129.058594 192.917969 C 129.644531 192.917969 130.121094 193.394531 130.121094 193.980469 Z M 140.464844 164.40625 C 140.464844 163.820312 140.941406 163.347656 141.527344 163.347656 L 144.566406 163.347656 C 145.15625 163.347656 145.628906 163.820312 145.628906 164.40625 L 145.628906 167.449219 C 145.628906 168.035156 145.15625 168.511719 144.566406 168.511719 L 141.527344 168.511719 C 140.941406 168.511719 140.464844 168.035156 140.464844 167.449219 Z M 140.464844 171.792969 C 140.464844 171.207031 140.941406 170.730469 141.527344 170.730469 L 144.566406 170.730469 C 145.15625 170.730469 145.628906 171.207031 145.628906 171.792969 L 145.628906 174.832031 C 145.628906 175.417969 145.15625 175.894531 144.566406 175.894531 L 141.527344 175.894531 C 140.941406 175.894531 140.464844 175.417969 140.464844 174.832031 Z M 140.464844 179.175781 C 140.464844 178.589844 140.941406 178.113281 141.527344 178.113281 L 144.566406 178.113281 C 145.15625 178.113281 145.628906 178.589844 145.628906 179.175781 L 145.628906 182.214844 C 145.628906 182.804688 145.15625 183.277344 144.566406 183.277344 L 141.527344 183.277344 C 140.941406 183.277344 140.464844 182.804688 140.464844 182.214844 Z M 140.464844 186.5625 C 140.464844 185.972656 140.941406 185.5 141.527344 185.5 L 144.566406 185.5 C 145.15625 185.5 145.628906 185.972656 145.628906 186.5625 L 145.628906 196.929688 C 145.628906 197.515625 145.15625 197.992188 144.566406 197.992188 L 141.527344 197.992188 C 140.941406 197.992188 140.464844 197.515625 140.464844 196.929688 Z M 132.710938 164.40625 C 132.710938 163.820312 133.1875 163.347656 133.773438 163.347656 L 136.8125 163.347656 C 137.398438 163.347656 137.875 163.820312 137.875 164.40625 L 137.875 167.449219 C 137.875 168.035156 137.398438 168.511719 136.8125 168.511719 L 133.773438 168.511719 C 133.1875 168.511719 132.710938 168.035156 132.710938 167.449219 Z M 132.710938 171.792969 C 132.710938 171.207031 133.1875 170.730469 133.773438 170.730469 L 136.8125 170.730469 C 137.398438 170.730469 137.875 171.207031 137.875 171.792969 L 137.875 174.832031 C 137.875 175.417969 137.398438 175.894531 136.8125 175.894531 L 133.773438 175.894531 C 133.1875 175.894531 132.710938 175.417969 132.710938 174.832031 Z M 132.710938 179.175781 C 132.710938 178.589844 133.1875 178.113281 133.773438 178.113281 L 136.8125 178.113281 C 137.398438 178.113281 137.875 178.589844 137.875 179.175781 L 137.875 182.214844 C 137.875 182.804688 137.398438 183.277344 136.8125 183.277344 L 133.773438 183.277344 C 133.1875 183.277344 132.710938 182.804688 132.710938 182.214844 Z M 132.710938 186.5625 C 132.710938 185.972656 133.1875 185.5 133.773438 185.5 L 136.8125 185.5 C 137.398438 185.5 137.875 185.972656 137.875 186.5625 L 137.875 189.601562 C 137.875 190.1875 137.398438 190.664062 136.8125 190.664062 L 133.773438 190.664062 C 133.1875 190.664062 132.710938 190.1875 132.710938 189.601562 Z M 132.710938 193.980469 C 132.710938 193.394531 133.1875 192.917969 133.773438 192.917969 L 136.8125 192.917969 C 137.398438 192.917969 137.875 193.394531 137.875 193.980469 L 137.875 197.019531 C 137.875 197.40625 137.667969 197.742188 137.359375 197.925781 C 137.199219 198.023438 137.011719 198.082031 136.8125 198.082031 L 133.773438 198.082031 C 133.1875 198.082031 132.710938 197.605469 132.710938 197.019531 Z M 124.957031 164.40625 C 124.957031 163.820312 125.433594 163.347656 126.019531 163.347656 L 129.058594 163.347656 C 129.644531 163.347656 130.121094 163.820312 130.121094 164.40625 L 130.121094 167.449219 C 130.121094 168.035156 129.644531 168.511719 129.058594 168.511719 L 126.019531 168.511719 C 125.433594 168.511719 124.957031 168.035156 124.957031 167.449219 Z M 124.957031 171.792969 C 124.957031 171.207031 125.433594 170.730469 126.019531 170.730469 L 129.058594 170.730469 C 129.644531 170.730469 130.121094 171.207031 130.121094 171.792969 L 130.121094 174.832031 C 130.121094 175.417969 129.644531 175.894531 129.058594 175.894531 L 126.019531 175.894531 C 125.433594 175.894531 124.957031 175.417969 124.957031 174.832031 Z M 124.957031 179.175781 C 124.957031 178.589844 125.433594 178.113281 126.019531 178.113281 L 129.058594 178.113281 C 129.644531 178.113281 130.121094 178.589844 130.121094 179.175781 L 130.121094 182.214844 C 130.121094 182.804688 129.644531 183.277344 129.058594 183.277344 L 126.019531 183.277344 C 125.433594 183.277344 124.957031 182.804688 124.957031 182.214844 Z M 124.957031 186.5625 C 124.957031 185.972656 125.433594 185.5 126.019531 185.5 L 129.058594 185.5 C 129.644531 185.5 130.121094 185.972656 130.121094 186.5625 L 130.121094 189.601562 C 130.121094 190.1875 129.644531 190.664062 129.058594 190.664062 L 126.019531 190.664062 C 125.433594 190.664062 124.957031 190.1875 124.957031 189.601562 Z M 184.941406 166.371094 C 175.71875 166.371094 168.246094 173.847656 168.246094 183.066406 C 168.246094 192.285156 175.71875 199.761719 184.941406 199.761719 C 194.160156 199.761719 201.636719 192.285156 201.636719 183.066406 C 201.636719 173.847656 194.160156 166.371094 184.941406 166.371094 Z M 185.757812 190.285156 L 185.757812 192.859375 L 183.34375 192.859375 L 183.34375 190.460938 C 181.695312 190.386719 180.097656 189.929688 179.160156 189.375 L 179.898438 186.421875 C 180.933594 187.003906 182.386719 187.535156 183.984375 187.535156 C 185.390625 187.535156 186.347656 186.980469 186.347656 185.96875 C 186.347656 185.011719 185.5625 184.40625 183.738281 183.773438 C 181.105469 182.867188 179.308594 181.605469 179.308594 179.15625 C 179.308594 176.9375 180.835938 175.195312 183.46875 174.664062 L 183.46875 172.269531 L 185.882812 172.269531 L 185.882812 174.488281 C 187.53125 174.566406 188.636719 174.917969 189.449219 175.320312 L 188.738281 178.171875 C 188.097656 177.894531 186.964844 177.316406 185.191406 177.316406 C 183.589844 177.316406 183.074219 178.023438 183.074219 178.726562 C 183.074219 179.5625 183.9375 180.089844 186.027344 180.898438 C 188.957031 181.957031 190.140625 183.347656 190.140625 185.617188 C 190.140625 187.863281 188.589844 189.78125 185.757812 190.285156 Z M 99.890625 137.765625 C 99.992188 137.964844 100.050781 138.183594 100.074219 138.421875 C 99.9375 138.121094 99.773438 137.796875 99.589844 137.464844 C 99.714844 137.523438 99.820312 137.621094 99.890625 137.765625 Z M 101.605469 148.269531 C 99.097656 150.3125 94.246094 152.074219 91.054688 152.585938 C 91.054688 152.589844 91.054688 152.589844 91.054688 152.589844 C 91.109375 152.746094 91.152344 152.917969 91.191406 153.101562 C 91.964844 153.273438 92.625 153.730469 92.992188 154.425781 C 93.71875 155.8125 92.992188 157.632812 91.367188 158.488281 C 91.3125 158.511719 91.257812 158.539062 91.203125 158.5625 C 90.996094 161.039062 90.664062 163.671875 90.6875 165.601562 C 90.714844 168.210938 92.394531 168.667969 92.394531 168.667969 L 92.230469 168.75 C 92.175781 168.761719 92.113281 168.777344 92.058594 168.785156 C 91.078125 167.847656 88.992188 168.132812 86.570312 168.132812 C 84.347656 168.132812 82.410156 169.175781 81.347656 170.730469 C 81.34375 170.730469 81.34375 170.730469 81.339844 170.730469 C 81.347656 170.277344 84.8125 166.628906 83.476562 163.34375 C 79.15625 152.738281 82.96875 149.761719 82.96875 149.761719 L 83.140625 149.703125 L 84.289062 149.308594 C 84.375 149.265625 84.472656 149.222656 84.578125 149.175781 C 85.402344 148.820312 86.8125 148.367188 88.390625 147.902344 L 88.296875 145.632812 C 88.882812 145.191406 89.398438 144.691406 89.777344 144.214844 C 91.945312 142.296875 93.914062 140.636719 93.914062 140.636719 C 93.914062 140.636719 94.675781 139.957031 95.660156 139.21875 C 96.0625 140.019531 96.449219 140.683594 96.714844 140.945312 C 97.464844 141.679688 98.425781 141.703125 99.203125 141.421875 C 98.410156 142.871094 97.160156 144.457031 95.804688 145.886719 C 96.308594 145.757812 96.605469 145.683594 96.605469 145.683594 C 96.605469 145.683594 97.929688 145.316406 99.394531 145.078125 C 99.34375 145.207031 99.308594 145.316406 99.292969 145.410156 C 98.964844 147.105469 100.5625 148.214844 101.605469 148.269531 Z M 221.132812 170.390625 L 210.453125 170.390625 C 210.453125 170.390625 210.464844 170.367188 210.476562 170.320312 C 210.503906 170.222656 210.554688 170.015625 210.601562 169.675781 C 210.703125 168.9375 210.777344 167.570312 210.53125 165.28125 C 210.355469 163.675781 209.800781 162.027344 209.238281 160.363281 C 209.148438 160.105469 209.058594 159.84375 208.972656 159.582031 C 208.761719 159.847656 208.542969 160.109375 208.320312 160.363281 C 207.40625 161.429688 206.449219 162.398438 205.648438 163.011719 C 205.429688 163.226562 205.167969 163.398438 204.878906 163.515625 C 204.617188 163.644531 204.398438 163.703125 204.226562 163.675781 C 204.148438 163.683594 204.066406 163.6875 203.984375 163.6875 C 202.675781 163.679688 202.460938 162.3125 201.625 161.308594 C 200.542969 160.007812 198.96875 155.941406 198.886719 154.121094 C 199.144531 154.121094 199.382812 154.050781 199.597656 153.9375 C 199.769531 153.847656 199.921875 153.726562 200.046875 153.582031 C 201.269531 154.4375 203.320312 156.671875 204.75 158.558594 C 205.832031 155.097656 207.578125 151.058594 208.449219 150.566406 C 208.734375 150.410156 209.03125 150.300781 209.335938 150.242188 C 209.398438 150.328125 209.46875 150.417969 209.539062 150.5 C 209.683594 150.667969 209.835938 150.828125 209.992188 150.980469 C 210.621094 151.585938 211.3125 152.089844 211.597656 152.59375 C 211.917969 153.148438 211.679688 154.144531 211.636719 155.277344 C 211.636719 155.332031 211.636719 155.386719 211.632812 155.441406 C 211.617188 156.441406 211.777344 157.535156 212.609375 158.527344 C 212.691406 158.625 212.777344 158.722656 212.875 158.820312 C 213.5625 159.507812 214.222656 159.8125 214.820312 159.894531 C 216.382812 160.117188 217.507812 158.820312 217.507812 158.820312 L 217.59375 158.835938 C 217.910156 159.03125 218.222656 159.210938 218.527344 159.367188 C 219.128906 159.679688 219.707031 159.90625 220.273438 160.070312 C 220.125 161.054688 219.96875 161.992188 219.804688 162.773438 C 219.222656 165.507812 220.429688 168.757812 220.929688 169.933594 C 221.054688 170.226562 221.132812 170.390625 221.132812 170.390625 Z M 221.132812 170.390625 " fill-opacity="1" fill-rule="nonzero"/><g fill="#000000" fill-opacity="1"><g transform="translate(45.018741, 53.198804)"><g><path d="M 0.40625 -7.171875 C 0.40625 -9.242188 1.109375 -11 2.515625 -12.4375 C 3.929688 -13.875 5.632812 -14.59375 7.625 -14.59375 C 9.632812 -14.59375 11.335938 -13.875 12.734375 -12.4375 C 14.140625 -11.007812 14.84375 -9.253906 14.84375 -7.171875 C 14.84375 -5.078125 14.148438 -3.3125 12.765625 -1.875 C 11.390625 -0.445312 9.675781 0.265625 7.625 0.265625 C 5.53125 0.265625 3.800781 -0.441406 2.4375 -1.859375 C 1.082031 -3.285156 0.40625 -5.054688 0.40625 -7.171875 Z M 3.921875 -7.171875 C 3.921875 -6.421875 4.035156 -5.734375 4.265625 -5.109375 C 4.503906 -4.492188 4.910156 -3.972656 5.484375 -3.546875 C 6.066406 -3.117188 6.78125 -2.90625 7.625 -2.90625 C 8.84375 -2.90625 9.757812 -3.320312 10.375 -4.15625 C 11 -4.988281 11.3125 -5.992188 11.3125 -7.171875 C 11.3125 -8.347656 10.992188 -9.351562 10.359375 -10.1875 C 9.734375 -11.03125 8.820312 -11.453125 7.625 -11.453125 C 6.445312 -11.453125 5.535156 -11.03125 4.890625 -10.1875 C 4.242188 -9.351562 3.921875 -8.347656 3.921875 -7.171875 Z M 3.921875 -7.171875 "/></g></g></g><g fill="#000000" fill-opacity="1"><g transform="translate(60.255542, 53.198804)"><g><path d="M 1.046875 0 L 1.046875 -8.90625 L 4.125 -8.90625 L 4.125 -7.96875 L 4.15625 -7.96875 C 4.945312 -8.769531 5.796875 -9.171875 6.703125 -9.171875 C 7.140625 -9.171875 7.578125 -9.113281 8.015625 -9 C 8.453125 -8.882812 8.867188 -8.703125 9.265625 -8.453125 C 9.671875 -8.210938 9.992188 -7.867188 10.234375 -7.421875 C 10.484375 -6.984375 10.609375 -6.46875 10.609375 -5.875 L 10.609375 0 L 7.546875 0 L 7.546875 -5.03125 C 7.546875 -5.5 7.394531 -5.90625 7.09375 -6.25 C 6.800781 -6.601562 6.414062 -6.78125 5.9375 -6.78125 C 5.476562 -6.78125 5.0625 -6.597656 4.6875 -6.234375 C 4.3125 -5.878906 4.125 -5.476562 4.125 -5.03125 L 4.125 0 Z M 1.046875 0 "/></g></g></g><g fill="#000000" fill-opacity="1"><g transform="translate(71.73961, 53.198804)"><g><path d="M 1.046875 0 L 1.046875 -14.9375 L 4.125 -14.9375 L 4.125 0 Z M 1.046875 0 "/></g></g></g><g fill="#000000" fill-opacity="1"><g transform="translate(76.899623, 53.198804)"><g><path d="M 1.328125 -13.875 C 1.691406 -14.238281 2.125 -14.421875 2.625 -14.421875 C 3.125 -14.421875 3.550781 -14.238281 3.90625 -13.875 C 4.269531 -13.519531 4.453125 -13.09375 4.453125 -12.59375 C 4.453125 -12.09375 4.269531 -11.660156 3.90625 -11.296875 C 3.550781 -10.941406 3.125 -10.765625 2.625 -10.765625 C 2.125 -10.765625 1.691406 -10.941406 1.328125 -11.296875 C 0.972656 -11.660156 0.796875 -12.09375 0.796875 -12.59375 C 0.796875 -13.09375 0.972656 -13.519531 1.328125 -13.875 Z M 1.046875 -8.90625 L 1.046875 0 L 4.125 0 L 4.125 -8.90625 Z M 1.046875 -8.90625 "/></g></g></g><g fill="#000000" fill-opacity="1"><g transform="translate(82.146505, 53.198804)"><g><path d="M 1.046875 0 L 1.046875 -8.90625 L 4.125 -8.90625 L 4.125 -7.96875 L 4.15625 -7.96875 C 4.945312 -8.769531 5.796875 -9.171875 6.703125 -9.171875 C 7.140625 -9.171875 7.578125 -9.113281 8.015625 -9 C 8.453125 -8.882812 8.867188 -8.703125 9.265625 -8.453125 C 9.671875 -8.210938 9.992188 -7.867188 10.234375 -7.421875 C 10.484375 -6.984375 10.609375 -6.46875 10.609375 -5.875 L 10.609375 0 L 7.546875 0 L 7.546875 -5.03125 C 7.546875 -5.5 7.394531 -5.90625 7.09375 -6.25 C 6.800781 -6.601562 6.414062 -6.78125 5.9375 -6.78125 C 5.476562 -6.78125 5.0625 -6.597656 4.6875 -6.234375 C 4.3125 -5.878906 4.125 -5.476562 4.125 -5.03125 L 4.125 0 Z M 1.046875 0 "/></g></g></g><g fill="#000000" fill-opacity="1"><g transform="translate(93.630573, 53.198804)"><g><path d="M 10.0625 -4.03125 L 3.59375 -4.03125 C 3.59375 -3.40625 3.796875 -2.941406 4.203125 -2.640625 C 4.609375 -2.335938 5.050781 -2.1875 5.53125 -2.1875 C 6.019531 -2.1875 6.410156 -2.253906 6.703125 -2.390625 C 6.992188 -2.523438 7.328125 -2.785156 7.703125 -3.171875 L 9.921875 -2.0625 C 8.992188 -0.507812 7.453125 0.265625 5.296875 0.265625 C 3.953125 0.265625 2.800781 -0.191406 1.84375 -1.109375 C 0.882812 -2.035156 0.40625 -3.144531 0.40625 -4.4375 C 0.40625 -5.738281 0.882812 -6.851562 1.84375 -7.78125 C 2.800781 -8.707031 3.953125 -9.171875 5.296875 -9.171875 C 6.710938 -9.171875 7.863281 -8.757812 8.75 -7.9375 C 9.632812 -7.125 10.078125 -5.960938 10.078125 -4.453125 C 10.078125 -4.242188 10.070312 -4.101562 10.0625 -4.03125 Z M 3.6875 -5.734375 L 7.078125 -5.734375 C 7.003906 -6.191406 6.816406 -6.546875 6.515625 -6.796875 C 6.222656 -7.046875 5.847656 -7.171875 5.390625 -7.171875 C 4.878906 -7.171875 4.472656 -7.035156 4.171875 -6.765625 C 3.867188 -6.503906 3.707031 -6.160156 3.6875 -5.734375 Z M 3.6875 -5.734375 "/></g></g></g><g fill="#000000" fill-opacity="1"><g transform="translate(104.106961, 53.198804)"><g><path d="M 10.21875 -14.9375 L 3.0625 2.078125 L 0.40625 2.078125 L 7.5625 -14.9375 Z M 10.21875 -14.9375 "/></g></g></g><g fill="#000000" fill-opacity="1"><g transform="translate(114.722341, 53.198804)"><g><path d="M 1.046875 -14.328125 L 5.1875 -14.328125 C 7.1875 -14.328125 8.890625 -13.644531 10.296875 -12.28125 C 11.710938 -10.925781 12.421875 -9.222656 12.421875 -7.171875 C 12.421875 -5.109375 11.71875 -3.394531 10.3125 -2.03125 C 8.90625 -0.675781 7.195312 0 5.1875 0 L 1.046875 0 Z M 4.3125 -2.921875 L 4.8125 -2.921875 C 6.007812 -2.921875 6.984375 -3.320312 7.734375 -4.125 C 8.492188 -4.925781 8.878906 -5.9375 8.890625 -7.15625 C 8.890625 -8.375 8.507812 -9.390625 7.75 -10.203125 C 7 -11.015625 6.019531 -11.421875 4.8125 -11.421875 L 4.3125 -11.421875 Z M 4.3125 -2.921875 "/></g></g></g><g fill="#000000" fill-opacity="1"><g transform="translate(127.544189, 53.198804)"><g><path d="M 1.328125 -13.875 C 1.691406 -14.238281 2.125 -14.421875 2.625 -14.421875 C 3.125 -14.421875 3.550781 -14.238281 3.90625 -13.875 C 4.269531 -13.519531 4.453125 -13.09375 4.453125 -12.59375 C 4.453125 -12.09375 4.269531 -11.660156 3.90625 -11.296875 C 3.550781 -10.941406 3.125 -10.765625 2.625 -10.765625 C 2.125 -10.765625 1.691406 -10.941406 1.328125 -11.296875 C 0.972656 -11.660156 0.796875 -12.09375 0.796875 -12.59375 C 0.796875 -13.09375 0.972656 -13.519531 1.328125 -13.875 Z M 1.046875 -8.90625 L 1.046875 0 L 4.125 0 L 4.125 -8.90625 Z M 1.046875 -8.90625 "/></g></g></g><g fill="#000000" fill-opacity="1"><g transform="translate(132.791074, 53.198804)"><g><path d="M 4.921875 -9.171875 C 5.429688 -9.171875 5.929688 -9.113281 6.421875 -9 C 6.921875 -8.882812 7.296875 -8.769531 7.546875 -8.65625 L 7.90625 -8.484375 L 6.890625 -6.46875 C 6.203125 -6.832031 5.546875 -7.015625 4.921875 -7.015625 C 4.566406 -7.015625 4.316406 -6.976562 4.171875 -6.90625 C 4.035156 -6.832031 3.96875 -6.691406 3.96875 -6.484375 C 3.96875 -6.429688 3.972656 -6.378906 3.984375 -6.328125 C 3.992188 -6.285156 4.015625 -6.242188 4.046875 -6.203125 C 4.078125 -6.171875 4.109375 -6.140625 4.140625 -6.109375 C 4.171875 -6.078125 4.21875 -6.039062 4.28125 -6 C 4.351562 -5.96875 4.410156 -5.941406 4.453125 -5.921875 C 4.492188 -5.910156 4.5625 -5.882812 4.65625 -5.84375 C 4.75 -5.8125 4.816406 -5.785156 4.859375 -5.765625 C 4.910156 -5.753906 4.988281 -5.726562 5.09375 -5.6875 C 5.207031 -5.65625 5.289062 -5.632812 5.34375 -5.625 C 5.707031 -5.519531 6.019531 -5.40625 6.28125 -5.28125 C 6.550781 -5.15625 6.832031 -4.984375 7.125 -4.765625 C 7.425781 -4.546875 7.65625 -4.265625 7.8125 -3.921875 C 7.976562 -3.585938 8.0625 -3.207031 8.0625 -2.78125 C 8.0625 -0.75 6.65625 0.265625 3.84375 0.265625 C 3.207031 0.265625 2.601562 0.164062 2.03125 -0.03125 C 1.457031 -0.226562 1.039062 -0.425781 0.78125 -0.625 L 0.40625 -0.9375 L 1.65625 -3.046875 C 1.75 -2.960938 1.867188 -2.863281 2.015625 -2.75 C 2.160156 -2.644531 2.429688 -2.492188 2.828125 -2.296875 C 3.222656 -2.109375 3.566406 -2.015625 3.859375 -2.015625 C 4.492188 -2.015625 4.8125 -2.226562 4.8125 -2.65625 C 4.8125 -2.851562 4.726562 -3.003906 4.5625 -3.109375 C 4.40625 -3.222656 4.128906 -3.347656 3.734375 -3.484375 C 3.347656 -3.628906 3.046875 -3.757812 2.828125 -3.875 C 2.273438 -4.164062 1.835938 -4.492188 1.515625 -4.859375 C 1.191406 -5.222656 1.03125 -5.707031 1.03125 -6.3125 C 1.03125 -7.207031 1.378906 -7.90625 2.078125 -8.40625 C 2.773438 -8.914062 3.722656 -9.171875 4.921875 -9.171875 Z M 4.921875 -9.171875 "/></g></g></g><g fill="#000000" fill-opacity="1"><g transform="translate(141.338973, 53.198804)"><g><path d="M 1.5625 -8.90625 L 1.5625 -12.234375 L 4.640625 -12.234375 L 4.640625 -8.90625 L 6.515625 -8.90625 L 6.515625 -6.5625 L 4.640625 -6.5625 L 4.640625 -3.734375 C 4.640625 -2.910156 4.867188 -2.5 5.328125 -2.5 C 5.453125 -2.5 5.578125 -2.519531 5.703125 -2.5625 C 5.828125 -2.613281 5.925781 -2.660156 6 -2.703125 L 6.09375 -2.78125 L 6.859375 -0.296875 C 6.203125 0.078125 5.453125 0.265625 4.609375 0.265625 C 4.023438 0.265625 3.523438 0.164062 3.109375 -0.03125 C 2.691406 -0.238281 2.375 -0.515625 2.15625 -0.859375 C 1.945312 -1.203125 1.796875 -1.5625 1.703125 -1.9375 C 1.609375 -2.3125 1.5625 -2.710938 1.5625 -3.140625 L 1.5625 -6.5625 L 0.28125 -6.5625 L 0.28125 -8.90625 Z M 1.5625 -8.90625 "/></g></g></g><g fill="#000000" fill-opacity="1"><g transform="translate(148.201617, 53.198804)"><g><path d="M 1.65625 -1.09375 C 0.820312 -2.007812 0.40625 -3.125 0.40625 -4.4375 C 0.40625 -5.757812 0.820312 -6.878906 1.65625 -7.796875 C 2.488281 -8.710938 3.546875 -9.171875 4.828125 -9.171875 C 6.015625 -9.171875 6.988281 -8.800781 7.75 -8.0625 L 7.75 -8.90625 L 10.828125 -8.90625 L 10.828125 0 L 7.78125 0 L 7.78125 -1 L 7.75 -1 C 6.988281 -0.15625 6.015625 0.265625 4.828125 0.265625 C 3.546875 0.265625 2.488281 -0.1875 1.65625 -1.09375 Z M 4.265625 -5.953125 C 3.867188 -5.566406 3.671875 -5.066406 3.671875 -4.453125 C 3.671875 -3.835938 3.859375 -3.332031 4.234375 -2.9375 C 4.617188 -2.550781 5.125 -2.359375 5.75 -2.359375 C 6.351562 -2.359375 6.847656 -2.554688 7.234375 -2.953125 C 7.617188 -3.347656 7.8125 -3.847656 7.8125 -4.453125 C 7.8125 -5.066406 7.613281 -5.566406 7.21875 -5.953125 C 6.820312 -6.347656 6.332031 -6.546875 5.75 -6.546875 C 5.15625 -6.546875 4.660156 -6.347656 4.265625 -5.953125 Z M 4.265625 -5.953125 "/></g></g></g><g fill="#000000" fill-opacity="1"><g transform="translate(160.067905, 53.198804)"><g><path d="M 1.046875 0 L 1.046875 -8.90625 L 4.125 -8.90625 L 4.125 -7.96875 L 4.15625 -7.96875 C 4.945312 -8.769531 5.796875 -9.171875 6.703125 -9.171875 C 7.140625 -9.171875 7.578125 -9.113281 8.015625 -9 C 8.453125 -8.882812 8.867188 -8.703125 9.265625 -8.453125 C 9.671875 -8.210938 9.992188 -7.867188 10.234375 -7.421875 C 10.484375 -6.984375 10.609375 -6.46875 10.609375 -5.875 L 10.609375 0 L 7.546875 0 L 7.546875 -5.03125 C 7.546875 -5.5 7.394531 -5.90625 7.09375 -6.25 C 6.800781 -6.601562 6.414062 -6.78125 5.9375 -6.78125 C 5.476562 -6.78125 5.0625 -6.597656 4.6875 -6.234375 C 4.3125 -5.878906 4.125 -5.476562 4.125 -5.03125 L 4.125 0 Z M 1.046875 0 "/></g></g></g><g fill="#000000" fill-opacity="1"><g transform="translate(171.551979, 53.198804)"><g><path d="M 5.78125 -6.65625 C 5.207031 -6.65625 4.710938 -6.441406 4.296875 -6.015625 C 3.878906 -5.585938 3.671875 -5.070312 3.671875 -4.46875 C 3.671875 -3.851562 3.878906 -3.332031 4.296875 -2.90625 C 4.710938 -2.476562 5.207031 -2.265625 5.78125 -2.265625 C 6.0625 -2.265625 6.328125 -2.296875 6.578125 -2.359375 C 6.828125 -2.429688 7.007812 -2.503906 7.125 -2.578125 L 7.28125 -2.671875 L 8.328125 -0.53125 C 8.242188 -0.476562 8.128906 -0.40625 7.984375 -0.3125 C 7.835938 -0.226562 7.503906 -0.113281 6.984375 0.03125 C 6.472656 0.1875 5.921875 0.265625 5.328125 0.265625 C 4.023438 0.265625 2.878906 -0.191406 1.890625 -1.109375 C 0.898438 -2.035156 0.40625 -3.144531 0.40625 -4.4375 C 0.40625 -5.726562 0.898438 -6.835938 1.890625 -7.765625 C 2.878906 -8.703125 4.023438 -9.171875 5.328125 -9.171875 C 5.921875 -9.171875 6.46875 -9.097656 6.96875 -8.953125 C 7.46875 -8.816406 7.820312 -8.679688 8.03125 -8.546875 L 8.328125 -8.34375 L 7.28125 -6.234375 C 6.894531 -6.515625 6.394531 -6.65625 5.78125 -6.65625 Z M 5.78125 -6.65625 "/></g></g></g><g fill="#000000" fill-opacity="1"><g transform="translate(180.082496, 53.198804)"><g><path d="M 10.0625 -4.03125 L 3.59375 -4.03125 C 3.59375 -3.40625 3.796875 -2.941406 4.203125 -2.640625 C 4.609375 -2.335938 5.050781 -2.1875 5.53125 -2.1875 C 6.019531 -2.1875 6.410156 -2.253906 6.703125 -2.390625 C 6.992188 -2.523438 7.328125 -2.785156 7.703125 -3.171875 L 9.921875 -2.0625 C 8.992188 -0.507812 7.453125 0.265625 5.296875 0.265625 C 3.953125 0.265625 2.800781 -0.191406 1.84375 -1.109375 C 0.882812 -2.035156 0.40625 -3.144531 0.40625 -4.4375 C 0.40625 -5.738281 0.882812 -6.851562 1.84375 -7.78125 C 2.800781 -8.707031 3.953125 -9.171875 5.296875 -9.171875 C 6.710938 -9.171875 7.863281 -8.757812 8.75 -7.9375 C 9.632812 -7.125 10.078125 -5.960938 10.078125 -4.453125 C 10.078125 -4.242188 10.070312 -4.101562 10.0625 -4.03125 Z M 3.6875 -5.734375 L 7.078125 -5.734375 C 7.003906 -6.191406 6.816406 -6.546875 6.515625 -6.796875 C 6.222656 -7.046875 5.847656 -7.171875 5.390625 -7.171875 C 4.878906 -7.171875 4.472656 -7.035156 4.171875 -6.765625 C 3.867188 -6.503906 3.707031 -6.160156 3.6875 -5.734375 Z M 3.6875 -5.734375 "/></g></g></g><g fill="#000000" fill-opacity="1"><g transform="translate(190.558884, 53.198804)"><g/></g></g><g fill="#104e91" fill-opacity="1"><g transform="translate(195.300148, 53.198804)"><g><path d="M 12.890625 0 L 12.21875 -8.5 L 12.125 -8.5 L 9.1875 -0.09375 L 7.25 -0.09375 L 4.3125 -8.5 L 4.21875 -8.5 L 3.546875 0 L 0.28125 0 L 1.5625 -14.328125 L 5.03125 -14.328125 L 8.21875 -6.0625 L 11.390625 -14.328125 L 14.875 -14.328125 L 16.15625 0 Z M 12.890625 0 "/></g></g></g><g fill="#104e91" fill-opacity="1"><g transform="translate(211.73574, 53.198804)"><g><path d="M 3.015625 -3.71875 C 3.578125 -3.71875 4.050781 -3.519531 4.4375 -3.125 C 4.820312 -2.738281 5.015625 -2.269531 5.015625 -1.71875 C 5.015625 -1.175781 4.820312 -0.707031 4.4375 -0.3125 C 4.050781 0.0703125 3.578125 0.265625 3.015625 0.265625 C 2.472656 0.265625 2.007812 0.0703125 1.625 -0.3125 C 1.238281 -0.707031 1.046875 -1.175781 1.046875 -1.71875 C 1.046875 -2.269531 1.238281 -2.738281 1.625 -3.125 C 2.007812 -3.519531 2.472656 -3.71875 3.015625 -3.71875 Z M 3.015625 -3.71875 "/></g></g></g><g fill="#104e91" fill-opacity="1"><g transform="translate(217.799189, 53.198804)"><g><path d="M 8.671875 -2.953125 C 9.171875 -2.953125 9.65625 -3.023438 10.125 -3.171875 C 10.59375 -3.328125 10.9375 -3.472656 11.15625 -3.609375 L 11.484375 -3.84375 L 12.875 -1.0625 C 12.832031 -1.019531 12.769531 -0.96875 12.6875 -0.90625 C 12.601562 -0.851562 12.410156 -0.75 12.109375 -0.59375 C 11.816406 -0.4375 11.503906 -0.300781 11.171875 -0.1875 C 10.835938 -0.0703125 10.394531 0.03125 9.84375 0.125 C 9.300781 0.21875 8.742188 0.265625 8.171875 0.265625 C 6.835938 0.265625 5.570312 -0.0625 4.375 -0.71875 C 3.1875 -1.375 2.226562 -2.273438 1.5 -3.421875 C 0.769531 -4.566406 0.40625 -5.804688 0.40625 -7.140625 C 0.40625 -8.148438 0.617188 -9.117188 1.046875 -10.046875 C 1.472656 -10.972656 2.039062 -11.765625 2.75 -12.421875 C 3.46875 -13.078125 4.300781 -13.601562 5.25 -14 C 6.195312 -14.394531 7.171875 -14.59375 8.171875 -14.59375 C 9.097656 -14.59375 9.953125 -14.484375 10.734375 -14.265625 C 11.515625 -14.046875 12.066406 -13.828125 12.390625 -13.609375 L 12.875 -13.28125 L 11.484375 -10.5 C 11.398438 -10.5625 11.273438 -10.640625 11.109375 -10.734375 C 10.953125 -10.835938 10.628906 -10.96875 10.140625 -11.125 C 9.660156 -11.289062 9.171875 -11.375 8.671875 -11.375 C 7.878906 -11.375 7.171875 -11.242188 6.546875 -10.984375 C 5.921875 -10.734375 5.425781 -10.398438 5.0625 -9.984375 C 4.695312 -9.566406 4.414062 -9.117188 4.21875 -8.640625 C 4.03125 -8.160156 3.9375 -7.671875 3.9375 -7.171875 C 3.9375 -6.085938 4.34375 -5.113281 5.15625 -4.25 C 5.976562 -3.382812 7.148438 -2.953125 8.671875 -2.953125 Z M 8.671875 -2.953125 "/></g></g></g><g fill="#104e91" fill-opacity="1"><g transform="translate(230.881644, 53.198804)"><g><path d="M 1.890625 -1.046875 C 0.898438 -1.929688 0.40625 -3.0625 0.40625 -4.4375 C 0.40625 -5.820312 0.921875 -6.957031 1.953125 -7.84375 C 2.984375 -8.726562 4.253906 -9.171875 5.765625 -9.171875 C 7.265625 -9.171875 8.523438 -8.722656 9.546875 -7.828125 C 10.566406 -6.941406 11.078125 -5.8125 11.078125 -4.4375 C 11.078125 -3.070312 10.578125 -1.945312 9.578125 -1.0625 C 8.578125 -0.175781 7.304688 0.265625 5.765625 0.265625 C 4.171875 0.265625 2.878906 -0.171875 1.890625 -1.046875 Z M 4.265625 -5.953125 C 3.867188 -5.566406 3.671875 -5.066406 3.671875 -4.453125 C 3.671875 -3.835938 3.859375 -3.332031 4.234375 -2.9375 C 4.617188 -2.550781 5.125 -2.359375 5.75 -2.359375 C 6.351562 -2.359375 6.847656 -2.554688 7.234375 -2.953125 C 7.617188 -3.347656 7.8125 -3.847656 7.8125 -4.453125 C 7.8125 -5.066406 7.613281 -5.566406 7.21875 -5.953125 C 6.820312 -6.347656 6.332031 -6.546875 5.75 -6.546875 C 5.15625 -6.546875 4.660156 -6.347656 4.265625 -5.953125 Z M 4.265625 -5.953125 "/></g></g></g><g fill="#104e91" fill-opacity="1"><g transform="translate(242.365712, 53.198804)"><g><path d="M 1.046875 0 L 1.046875 -8.90625 L 4.125 -8.90625 L 4.125 -7.96875 L 4.15625 -7.96875 C 4.945312 -8.769531 5.796875 -9.171875 6.703125 -9.171875 C 7.359375 -9.171875 7.96875 -9.035156 8.53125 -8.765625 C 9.09375 -8.503906 9.519531 -8.097656 9.8125 -7.546875 C 10.71875 -8.628906 11.703125 -9.171875 12.765625 -9.171875 C 13.722656 -9.171875 14.539062 -8.90625 15.21875 -8.375 C 15.90625 -7.84375 16.25 -7.007812 16.25 -5.875 L 16.25 0 L 13.171875 0 L 13.171875 -5.03125 C 13.171875 -5.507812 13.039062 -5.90625 12.78125 -6.21875 C 12.519531 -6.539062 12.128906 -6.703125 11.609375 -6.703125 C 11.148438 -6.703125 10.800781 -6.566406 10.5625 -6.296875 C 10.332031 -6.023438 10.207031 -5.695312 10.1875 -5.3125 L 10.1875 0 L 7.109375 0 L 7.109375 -5.03125 C 7.109375 -5.507812 6.976562 -5.90625 6.71875 -6.21875 C 6.457031 -6.539062 6.066406 -6.703125 5.546875 -6.703125 C 5.066406 -6.703125 4.707031 -6.554688 4.46875 -6.265625 C 4.238281 -5.972656 4.125 -5.625 4.125 -5.21875 L 4.125 0 Z M 1.046875 0 "/></g></g></g></svg>