<svg xmlns="http://www.w3.org/2000/svg" xmlns:xlink="http://www.w3.org/1999/xlink" width="406" zoomAndPan="magnify" viewBox="0 0 304.5 227.999995" height="304" preserveAspectRatio="xMidYMid meet" version="1.0"><defs><g/><clipPath id="69b7c4fad0"><path d="M 0 0.1875 L 304 0.1875 L 304 227.8125 L 0 227.8125 Z M 0 0.1875 " clip-rule="nonzero"/></clipPath></defs><g clip-path="url(#69b7c4fad0)"><path fill="#ffffff" d="M 0 0.1875 L 304.5 0.1875 L 304.5 235.6875 L 0 235.6875 Z M 0 0.1875 " fill-opacity="1" fill-rule="nonzero"/><path fill="#ffffff" d="M 0 0.1875 L 304.5 0.1875 L 304.5 228.1875 L 0 228.1875 Z M 0 0.1875 " fill-opacity="1" fill-rule="nonzero"/><path fill="#eaf8ff" d="M 0 0.1875 L 304.5 0.1875 L 304.5 228.1875 L 0 228.1875 Z M 0 0.1875 " fill-opacity="1" fill-rule="nonzero"/></g><path fill="#ffd2bb" d="M 80.726562 148.707031 C 80.476562 149.222656 80.054688 149.714844 79.503906 150.125 C 79.5 150.128906 79.492188 150.132812 79.488281 150.136719 C 79.488281 150.136719 79.488281 150.136719 79.484375 150.136719 C 79.226562 150.328125 78.933594 150.503906 78.621094 150.652344 C 78.5 150.710938 78.371094 150.765625 78.242188 150.816406 L 76.945312 152.960938 L 78.121094 152.554688 C 78.210938 152.511719 78.3125 152.464844 78.421875 152.417969 C 79.265625 152.054688 80.714844 151.585938 82.335938 151.109375 L 82.242188 148.777344 C 82.84375 148.324219 83.375 147.8125 83.765625 147.320312 C 84 147.027344 84.183594 146.742188 84.300781 146.480469 C 84.890625 145.171875 83.683594 144.828125 82.175781 144.335938 C 82.210938 144.1875 82.226562 144.050781 82.21875 143.941406 C 82.171875 143.457031 81.644531 143.742188 81.070312 143.796875 C 80.988281 143.804688 80.90625 143.824219 80.832031 143.84375 C 80.789062 143.828125 80.746094 143.808594 80.699219 143.789062 C 80.101562 143.519531 79.480469 143.386719 78.882812 143.375 L 78.875 143.398438 C 78.800781 143.558594 77.957031 145.605469 78.105469 145.425781 C 79.128906 145.421875 80.023438 145.753906 80.539062 146.363281 C 80.238281 146.351562 79.9375 146.402344 79.675781 146.546875 C 79.179688 146.816406 78.847656 147.460938 79.082031 148.015625 C 79.191406 148.273438 79.410156 148.425781 79.65625 148.476562 C 79.804688 148.507812 79.964844 148.503906 80.121094 148.464844 C 80.242188 148.4375 80.347656 148.390625 80.453125 148.335938 C 80.511719 148.308594 80.566406 148.277344 80.621094 148.242188 C 80.761719 148.144531 80.882812 148.019531 80.980469 147.882812 C 80.960938 148.054688 80.914062 148.226562 80.851562 148.402344 C 80.8125 148.503906 80.777344 148.605469 80.726562 148.707031 Z M 80.796875 144.882812 C 80.75 144.992188 80.558594 145.023438 80.375 144.945312 C 80.191406 144.867188 80.082031 144.710938 80.128906 144.597656 C 80.179688 144.488281 80.371094 144.457031 80.554688 144.535156 C 80.738281 144.613281 80.847656 144.769531 80.796875 144.882812 Z M 103.1875 136.757812 C 103.347656 137.351562 101.949219 138.992188 101.949219 138.992188 C 101.949219 138.992188 101.519531 139.824219 100.941406 140.121094 C 100.925781 143.375 98.226562 149.828125 96.609375 151.300781 C 96.453125 151.445312 96.207031 151.5 95.921875 151.484375 C 94.847656 151.429688 93.210938 150.289062 93.542969 148.546875 C 93.5625 148.453125 93.597656 148.335938 93.648438 148.207031 C 94.257812 146.597656 97.074219 142.464844 97.074219 142.464844 C 97.074219 142.464844 98.296875 140.300781 99.34375 139.164062 C 98.8125 138.195312 98.714844 136.921875 98.910156 135.9375 C 99.054688 135.191406 99.367188 134.609375 99.777344 134.464844 C 100.109375 134.347656 101.707031 135.109375 102.601562 135.9375 C 102.898438 136.214844 103.117188 136.496094 103.1875 136.757812 Z M 93.453125 144.445312 C 92.652344 144.734375 91.664062 144.714844 90.894531 143.960938 C 90.621094 143.691406 90.226562 143.007812 89.808594 142.183594 C 88.851562 140.289062 87.777344 137.65625 87.777344 137.65625 C 87.777344 137.65625 87.386719 136.882812 86.988281 135.9375 C 86.710938 135.285156 86.4375 134.554688 86.285156 133.941406 C 84.34375 133.773438 82.359375 131.957031 82.609375 130.980469 C 82.726562 130.523438 85.378906 129.0625 86.40625 129.40625 C 86.988281 129.601562 87.582031 131.671875 87.582031 131.671875 C 87.582031 131.671875 88.039062 132.492188 87.964844 133.136719 C 88.851562 133.730469 89.863281 134.753906 90.835938 135.9375 C 91.988281 137.34375 93.085938 138.972656 93.851562 140.378906 C 94.039062 140.722656 94.207031 141.054688 94.347656 141.363281 C 94.632812 141.980469 94.824219 142.519531 94.886719 142.925781 C 94.96875 143.457031 94.316406 144.132812 93.453125 144.445312 Z M 222.070312 205.746094 L 222.027344 205.65625 L 219.894531 206.398438 C 218.148438 203.246094 215.574219 197.257812 213.894531 193.171875 C 213.664062 198.0625 213.199219 204.871094 212.453125 207.089844 L 212.441406 206.988281 L 210.183594 206.992188 C 209.511719 203.105469 209.015625 195.695312 208.789062 191.34375 C 208.734375 190.273438 208.695312 189.394531 208.675781 188.789062 L 210.121094 188.808594 L 212.183594 188.832031 L 214.050781 188.851562 L 217.882812 188.894531 C 219.171875 193.019531 222.042969 202.785156 222.070312 205.746094 Z M 205.332031 145.578125 C 205.175781 145.589844 205.0625 145.601562 205.027344 145.605469 L 205.003906 145.609375 C 204.835938 146.175781 204.777344 146.800781 204.855469 147.445312 C 204.863281 147.492188 204.867188 147.535156 204.871094 147.582031 C 204.828125 147.648438 204.789062 147.71875 204.753906 147.792969 C 204.710938 147.902344 204.65625 148.003906 204.601562 148.101562 C 204.398438 148.476562 204.199219 148.769531 204.550781 148.917969 C 204.652344 148.957031 204.785156 148.984375 204.9375 148.996094 C 204.945312 149.8125 204.945312 150.535156 205.136719 151.023438 C 205.292969 151.410156 205.570312 151.648438 206.089844 151.644531 C 206.089844 151.546875 206.09375 151.445312 206.101562 151.339844 C 206.105469 151.238281 206.113281 151.132812 206.125 151.023438 C 206.1875 150.261719 206.328125 149.375 206.488281 148.539062 C 206.789062 146.953125 207.152344 145.550781 207.152344 145.550781 C 207.15625 145.523438 207.160156 145.5 207.167969 145.484375 C 207.335938 145.410156 205.96875 145.519531 205.332031 145.578125 Z M 206.042969 147.476562 C 206.0625 147.675781 205.976562 147.84375 205.859375 147.855469 C 205.738281 147.871094 205.625 147.722656 205.605469 147.523438 C 205.585938 147.328125 205.667969 147.160156 205.789062 147.144531 C 205.910156 147.132812 206.023438 147.28125 206.042969 147.476562 Z M 195.828125 142.933594 L 195.824219 141.78125 C 195.875 141.96875 195.910156 142.167969 195.910156 142.371094 C 195.910156 142.375 195.910156 142.375 195.910156 142.378906 C 195.90625 142.574219 195.875 142.757812 195.828125 142.933594 Z M 197.503906 155.90625 C 197.503906 156.304688 197.351562 156.667969 197.109375 156.949219 C 196.980469 157.097656 196.824219 157.222656 196.644531 157.3125 C 196.425781 157.429688 196.179688 157.5 195.914062 157.5 C 195.910156 157.5 195.910156 157.5 195.910156 157.5 C 195.027344 157.5 194.3125 156.785156 194.3125 155.90625 C 194.3125 155.167969 194.816406 154.550781 195.5 154.367188 C 195.628906 154.332031 195.765625 154.308594 195.910156 154.308594 C 196.789062 154.308594 197.503906 155.023438 197.503906 155.90625 Z M 82.347656 188.660156 L 85.855469 188.621094 C 85.75 191.675781 85.183594 201.984375 84.347656 206.820312 L 82.089844 206.820312 L 82.078125 206.917969 C 81.332031 204.703125 80.867188 197.894531 80.636719 193 C 78.957031 197.089844 76.382812 203.074219 74.636719 206.226562 L 72.503906 205.484375 L 72.460938 205.578125 C 72.488281 202.617188 75.359375 192.851562 76.648438 188.726562 L 80.480469 188.683594 Z M 82.347656 188.660156 " fill-opacity="1" fill-rule="nonzero"/><path fill="#00cec9" d="M 139.167969 97.09375 C 139.167969 89.765625 150.089844 86.523438 163.5625 86.523438 C 177.03125 86.523438 187.953125 89.765625 187.953125 97.09375 C 187.953125 101.53125 183.949219 108.332031 177.800781 113.011719 C 177.488281 112.886719 177.144531 112.816406 176.789062 112.816406 L 151.757812 112.816406 C 151.070312 112.816406 150.445312 113.074219 149.96875 113.496094 C 143.453125 108.8125 139.167969 101.6875 139.167969 97.09375 Z M 208.789062 191.34375 C 206.222656 195.613281 202.425781 199.0625 197.707031 201.738281 C 201.15625 197.898438 203.257812 192.824219 203.257812 187.253906 C 203.257812 175.28125 193.554688 165.574219 181.582031 165.574219 C 169.609375 165.574219 159.902344 175.28125 159.902344 187.253906 C 159.902344 197.351562 166.804688 205.839844 176.152344 208.246094 C 172.40625 208.707031 168.492188 208.933594 164.457031 208.933594 C 157.5 208.933594 150.894531 208.261719 144.925781 206.882812 C 145.980469 205.742188 146.632812 204.21875 146.632812 202.542969 L 146.632812 151.910156 C 146.632812 148.382812 143.773438 145.523438 140.246094 145.523438 L 125.605469 145.523438 C 131.636719 133.984375 140.242188 123.277344 150.242188 117.746094 C 150.675781 118.042969 151.195312 118.214844 151.757812 118.214844 L 176.789062 118.214844 C 177.417969 118.214844 177.996094 117.996094 178.457031 117.632812 C 188.308594 122.996094 196.820312 133.394531 202.867188 144.695312 L 191.730469 144.699219 L 195.5 154.367188 C 194.816406 154.550781 194.3125 155.167969 194.3125 155.90625 C 194.3125 156.785156 195.027344 157.5 195.910156 157.5 C 195.910156 157.5 195.910156 157.5 195.914062 157.5 C 196 159.371094 197.613281 163.550781 198.730469 164.890625 C 199.589844 165.921875 199.8125 167.328125 201.15625 167.332031 C 201.238281 167.332031 201.320312 167.328125 201.402344 167.320312 C 201.578125 167.347656 201.804688 167.289062 202.074219 167.15625 C 202.371094 167.035156 202.640625 166.859375 202.867188 166.640625 C 203.6875 166.007812 204.671875 165.011719 205.613281 163.917969 L 206.550781 163.917969 C 207.132812 165.628906 207.703125 167.320312 207.882812 168.972656 C 208.136719 171.328125 208.058594 172.734375 207.957031 173.492188 C 207.890625 173.683594 207.847656 173.90625 207.828125 174.152344 C 207.8125 174.203125 207.804688 174.226562 207.804688 174.226562 L 207.824219 174.226562 C 207.816406 174.324219 207.804688 174.417969 207.804688 174.527344 C 207.804688 177.554688 207.910156 188.78125 207.910156 188.78125 L 208.671875 188.792969 C 208.695312 189.394531 208.734375 190.273438 208.789062 191.34375 Z M 195.824219 141.78125 L 195.828125 142.933594 C 195.875 142.757812 195.90625 142.574219 195.910156 142.378906 C 195.910156 142.378906 195.910156 142.375 195.910156 142.371094 C 195.910156 142.167969 195.875 141.96875 195.824219 141.78125 Z M 195.824219 141.78125 " fill-opacity="1" fill-rule="nonzero"/><path fill="#e84393" d="M 179.488281 115.515625 C 179.488281 116.375 179.082031 117.140625 178.457031 117.632812 C 177.996094 117.996094 177.417969 118.214844 176.789062 118.214844 L 151.757812 118.214844 C 151.195312 118.214844 150.675781 118.042969 150.242188 117.746094 C 149.527344 117.261719 149.058594 116.441406 149.058594 115.515625 C 149.058594 114.710938 149.414062 113.992188 149.96875 113.496094 C 150.445312 113.074219 151.070312 112.816406 151.757812 112.816406 L 176.789062 112.816406 C 177.144531 112.816406 177.488281 112.886719 177.800781 113.011719 C 178.789062 113.414062 179.488281 114.382812 179.488281 115.515625 Z M 80.621094 148.238281 C 80.566406 148.277344 80.511719 148.308594 80.453125 148.335938 C 80.347656 148.390625 80.242188 148.4375 80.121094 148.464844 C 79.964844 148.503906 79.804688 148.507812 79.65625 148.476562 C 79.410156 148.425781 79.191406 148.273438 79.082031 148.015625 C 78.847656 147.457031 79.179688 146.816406 79.675781 146.542969 C 79.9375 146.402344 80.238281 146.347656 80.539062 146.363281 C 80.023438 145.753906 79.128906 145.421875 78.105469 145.425781 C 77.957031 145.601562 78.800781 143.558594 78.875 143.398438 L 78.882812 143.375 L 78.886719 143.371094 C 79.371094 142.257812 78.859375 140.949219 77.730469 140.441406 C 76.59375 139.929688 75.261719 140.417969 74.757812 141.539062 C 74.382812 142.367188 74.640625 143.269531 74.199219 144.253906 C 74.097656 144.476562 74.019531 144.648438 73.953125 144.78125 C 73.949219 144.785156 73.949219 144.789062 73.945312 144.792969 C 73.917969 144.558594 73.851562 144.324219 73.734375 144.101562 C 73.21875 143.117188 72.003906 142.738281 71.019531 143.257812 C 70.039062 143.773438 69.660156 144.988281 70.175781 145.972656 C 70.691406 146.953125 71.90625 147.332031 72.890625 146.816406 C 72.941406 146.789062 72.984375 146.753906 73.03125 146.722656 C 72.414062 149.328125 74.058594 150.355469 75.292969 150.808594 C 76.335938 151.191406 77.671875 151.035156 78.203125 150.832031 C 78.21875 150.828125 78.230469 150.820312 78.242188 150.816406 C 78.371094 150.765625 78.5 150.710938 78.621094 150.65625 C 78.933594 150.507812 79.226562 150.332031 79.484375 150.136719 C 79.488281 150.136719 79.488281 150.136719 79.488281 150.136719 C 79.492188 150.132812 79.5 150.128906 79.503906 150.125 C 80.054688 149.714844 80.476562 149.222656 80.726562 148.710938 C 80.777344 148.609375 80.8125 148.503906 80.851562 148.402344 C 80.914062 148.226562 80.960938 148.054688 80.980469 147.882812 C 80.882812 148.019531 80.761719 148.140625 80.621094 148.238281 Z M 222.816406 152.519531 C 222.125 152.246094 220.539062 151.859375 218.90625 151.335938 C 216.351562 150.355469 218.011719 148.871094 216.53125 147.226562 C 215.054688 145.585938 214.070312 146.570312 213.25 145.914062 C 213.214844 145.886719 213.183594 145.855469 213.152344 145.824219 C 213.105469 145.539062 213.070312 145.269531 213.046875 145.019531 C 213.070312 144.820312 213.082031 144.617188 213.070312 144.421875 C 213.003906 143.019531 212.449219 140.953125 209.191406 141.070312 L 209.179688 141.070312 C 209.140625 141.074219 209.097656 141.078125 209.054688 141.082031 C 208.210938 141.183594 208.519531 141.253906 207.785156 141.375 C 207.640625 141.398438 207.457031 141.425781 207.214844 141.453125 C 206.160156 141.578125 205.386719 141.070312 204.492188 141.175781 C 204.449219 141.183594 204.398438 141.175781 204.359375 141.199219 C 202.070312 142.664062 202.285156 143.910156 202.972656 144.699219 C 203.417969 145.210938 204.066406 145.527344 204.359375 145.582031 C 204.566406 145.625 204.78125 145.632812 205.003906 145.609375 L 205.027344 145.605469 C 205.0625 145.601562 205.175781 145.589844 205.332031 145.578125 C 205.96875 145.519531 207.335938 145.410156 207.167969 145.484375 C 207.160156 145.5 207.15625 145.523438 207.152344 145.550781 C 207.152344 145.550781 206.789062 146.953125 206.488281 148.539062 C 206.328125 149.375 206.1875 150.261719 206.125 151.023438 C 206.113281 151.132812 206.105469 151.238281 206.101562 151.339844 C 206.09375 151.445312 206.089844 151.550781 206.089844 151.648438 C 206.082031 152.058594 206.109375 152.410156 206.191406 152.648438 C 206.292969 152.960938 206.457031 153.246094 206.652344 153.511719 C 206.722656 153.605469 206.792969 153.695312 206.867188 153.78125 C 207.011719 153.953125 207.167969 154.117188 207.328125 154.273438 C 207.976562 154.894531 208.6875 155.414062 208.980469 155.929688 C 209.308594 156.503906 209.0625 157.523438 209.023438 158.6875 C 209.019531 158.746094 209.019531 158.800781 209.019531 158.859375 C 209 159.882812 209.164062 161.007812 210.019531 162.03125 C 210.105469 162.132812 210.195312 162.234375 210.292969 162.332031 C 211 163.039062 211.679688 163.351562 212.292969 163.4375 C 213.898438 163.664062 215.054688 162.332031 215.054688 162.332031 L 215.144531 162.347656 C 215.46875 162.546875 215.789062 162.734375 216.101562 162.894531 C 216.722656 163.214844 217.316406 163.449219 217.898438 163.613281 C 218.238281 163.710938 218.574219 163.789062 218.90625 163.835938 C 219.1875 163.871094 219.46875 163.886719 219.746094 163.882812 C 220.503906 163.875 221.230469 163.710938 221.933594 163.386719 C 221.941406 163.378906 221.949219 163.375 221.960938 163.371094 L 222.050781 163.386719 C 222.050781 163.386719 222.050781 163.363281 222.046875 163.328125 C 223.074219 162.824219 224.042969 161.984375 224.96875 160.773438 C 227.675781 157.246094 225.921875 153.75 222.816406 152.519531 Z M 119.125 106.839844 L 107.53125 115.542969 L 107.601562 110.59375 C 107.609375 110.304688 107.445312 110.039062 107.183594 109.914062 C 106.925781 109.789062 106.613281 109.824219 106.390625 110.007812 L 93.832031 120.21875 L 93.832031 116.253906 C 93.832031 115.964844 93.664062 115.703125 93.402344 115.582031 C 93.140625 115.460938 92.832031 115.5 92.609375 115.6875 L 84.800781 122.3125 C 84.488281 122.578125 84.449219 123.046875 84.714844 123.359375 C 84.859375 123.53125 85.070312 123.621094 85.28125 123.621094 C 85.449219 123.621094 85.621094 123.5625 85.761719 123.445312 L 92.347656 117.859375 L 92.347656 121.78125 C 92.347656 122.070312 92.511719 122.332031 92.769531 122.453125 C 93.03125 122.578125 93.335938 122.539062 93.558594 122.359375 L 106.09375 112.164062 L 106.023438 117.035156 C 106.019531 117.320312 106.175781 117.582031 106.429688 117.710938 C 106.683594 117.839844 106.984375 117.8125 107.214844 117.640625 L 120.015625 108.027344 C 120.34375 107.78125 120.410156 107.3125 120.164062 106.984375 C 119.917969 106.660156 119.453125 106.589844 119.125 106.839844 Z M 119.125 106.839844 " fill-opacity="1" fill-rule="nonzero"/><path fill="#fbc02d" d="M 140.246094 145.523438 L 105.230469 145.523438 C 101.699219 145.523438 98.839844 148.382812 98.839844 151.910156 L 98.839844 161.738281 L 146.632812 161.738281 L 146.632812 151.910156 C 146.632812 148.382812 143.773438 145.523438 140.246094 145.523438 Z M 139.777344 158.457031 L 105.695312 158.457031 L 105.695312 150.117188 L 139.777344 150.117188 Z M 109.289062 168.074219 L 109.289062 171.199219 C 109.289062 171.800781 108.800781 172.292969 108.199219 172.292969 L 105.074219 172.292969 C 104.46875 172.292969 103.980469 171.804688 103.980469 171.199219 L 103.980469 168.074219 C 103.980469 167.472656 104.46875 166.984375 105.074219 166.984375 L 108.199219 166.984375 C 108.800781 166.984375 109.289062 167.472656 109.289062 168.074219 Z M 117.261719 168.074219 L 117.261719 171.199219 C 117.261719 171.59375 117.050781 171.933594 116.738281 172.125 C 116.574219 172.230469 116.378906 172.292969 116.167969 172.292969 L 113.042969 172.292969 C 112.441406 172.292969 111.953125 171.800781 111.953125 171.199219 L 111.953125 168.074219 C 111.953125 167.472656 112.441406 166.984375 113.042969 166.984375 L 116.167969 166.984375 C 116.773438 166.984375 117.261719 167.472656 117.261719 168.074219 Z M 125.230469 168.074219 L 125.230469 171.199219 C 125.230469 171.800781 124.742188 172.292969 124.140625 172.292969 L 121.015625 172.292969 C 120.410156 172.292969 119.921875 171.804688 119.921875 171.199219 L 119.921875 168.074219 C 119.921875 167.472656 120.410156 166.984375 121.015625 166.984375 L 124.140625 166.984375 C 124.742188 166.984375 125.230469 167.472656 125.230469 168.074219 Z M 133.203125 168.074219 L 133.203125 171.199219 C 133.203125 171.800781 132.714844 172.292969 132.109375 172.292969 L 128.984375 172.292969 C 128.382812 172.292969 127.894531 171.804688 127.894531 171.199219 L 127.894531 168.074219 C 127.894531 167.472656 128.382812 166.984375 128.984375 166.984375 L 132.109375 166.984375 C 132.714844 166.984375 133.203125 167.472656 133.203125 168.074219 Z M 141.171875 168.074219 L 141.171875 171.199219 C 141.171875 171.800781 140.683594 172.292969 140.082031 172.292969 L 136.957031 172.292969 C 136.355469 172.292969 135.867188 171.804688 135.867188 171.199219 L 135.867188 168.074219 C 135.867188 167.472656 136.355469 166.984375 136.957031 166.984375 L 140.082031 166.984375 C 140.683594 166.984375 141.171875 167.472656 141.171875 168.074219 Z M 109.289062 175.664062 L 109.289062 178.789062 C 109.289062 179.394531 108.800781 179.882812 108.199219 179.882812 L 105.074219 179.882812 C 104.46875 179.882812 103.980469 179.394531 103.980469 178.789062 L 103.980469 175.664062 C 103.980469 175.0625 104.46875 174.574219 105.074219 174.574219 L 108.199219 174.574219 C 108.800781 174.574219 109.289062 175.0625 109.289062 175.664062 Z M 117.261719 175.664062 L 117.261719 178.789062 C 117.261719 179.273438 116.945312 179.675781 116.511719 179.820312 C 116.402344 179.859375 116.289062 179.882812 116.167969 179.882812 L 113.042969 179.882812 C 112.441406 179.882812 111.953125 179.394531 111.953125 178.789062 L 111.953125 175.664062 C 111.953125 175.0625 112.441406 174.574219 113.042969 174.574219 L 116.167969 174.574219 C 116.285156 174.574219 116.394531 174.597656 116.496094 174.628906 C 116.9375 174.769531 117.261719 175.179688 117.261719 175.664062 Z M 125.230469 175.664062 L 125.230469 178.789062 C 125.230469 179.394531 124.742188 179.882812 124.140625 179.882812 L 121.015625 179.882812 C 120.410156 179.882812 119.921875 179.394531 119.921875 178.789062 L 119.921875 175.664062 C 119.921875 175.0625 120.410156 174.574219 121.015625 174.574219 L 124.140625 174.574219 C 124.742188 174.574219 125.230469 175.0625 125.230469 175.664062 Z M 133.203125 175.664062 L 133.203125 178.789062 C 133.203125 179.394531 132.714844 179.882812 132.109375 179.882812 L 128.984375 179.882812 C 128.382812 179.882812 127.894531 179.394531 127.894531 178.789062 L 127.894531 175.664062 C 127.894531 175.0625 128.382812 174.574219 128.984375 174.574219 L 132.109375 174.574219 C 132.714844 174.574219 133.203125 175.0625 133.203125 175.664062 Z M 141.171875 175.664062 L 141.171875 178.789062 C 141.171875 179.394531 140.683594 179.882812 140.082031 179.882812 L 136.957031 179.882812 C 136.355469 179.882812 135.867188 179.394531 135.867188 178.789062 L 135.867188 175.664062 C 135.867188 175.0625 136.355469 174.574219 136.957031 174.574219 L 140.082031 174.574219 C 140.683594 174.574219 141.171875 175.0625 141.171875 175.664062 Z M 109.289062 183.253906 L 109.289062 186.378906 C 109.289062 186.984375 108.800781 187.472656 108.199219 187.472656 L 105.074219 187.472656 C 104.46875 187.472656 103.980469 186.984375 103.980469 186.378906 L 103.980469 183.253906 C 103.980469 182.652344 104.46875 182.164062 105.074219 182.164062 L 108.199219 182.164062 C 108.800781 182.164062 109.289062 182.652344 109.289062 183.253906 Z M 117.261719 183.253906 L 117.261719 186.378906 C 117.261719 186.984375 116.773438 187.472656 116.167969 187.472656 L 113.042969 187.472656 C 112.441406 187.472656 111.953125 186.984375 111.953125 186.378906 L 111.953125 183.253906 C 111.953125 182.652344 112.441406 182.164062 113.042969 182.164062 L 116.167969 182.164062 C 116.421875 182.164062 116.648438 182.253906 116.835938 182.398438 C 117.09375 182.597656 117.261719 182.90625 117.261719 183.253906 Z M 125.230469 183.253906 L 125.230469 186.378906 C 125.230469 186.984375 124.742188 187.472656 124.140625 187.472656 L 121.015625 187.472656 C 120.410156 187.472656 119.921875 186.984375 119.921875 186.378906 L 119.921875 183.253906 C 119.921875 182.652344 120.410156 182.164062 121.015625 182.164062 L 124.140625 182.164062 C 124.742188 182.164062 125.230469 182.652344 125.230469 183.253906 Z M 133.203125 183.253906 L 133.203125 186.378906 C 133.203125 186.984375 132.714844 187.472656 132.109375 187.472656 L 128.984375 187.472656 C 128.382812 187.472656 127.894531 186.984375 127.894531 186.378906 L 127.894531 183.253906 C 127.894531 182.652344 128.382812 182.164062 128.984375 182.164062 L 132.109375 182.164062 C 132.714844 182.164062 133.203125 182.652344 133.203125 183.253906 Z M 141.171875 183.253906 L 141.171875 186.378906 C 141.171875 186.984375 140.683594 187.472656 140.082031 187.472656 L 136.957031 187.472656 C 136.355469 187.472656 135.867188 186.984375 135.867188 186.378906 L 135.867188 183.253906 C 135.867188 182.652344 136.355469 182.164062 136.957031 182.164062 L 140.082031 182.164062 C 140.683594 182.164062 141.171875 182.652344 141.171875 183.253906 Z M 141.171875 190.847656 L 141.171875 201.503906 C 141.171875 202.105469 140.683594 202.597656 140.082031 202.597656 L 136.957031 202.597656 C 136.355469 202.597656 135.867188 202.109375 135.867188 201.503906 L 135.867188 190.847656 C 135.867188 190.242188 136.355469 189.753906 136.957031 189.753906 L 140.082031 189.753906 C 140.683594 189.753906 141.171875 190.242188 141.171875 190.847656 Z M 109.289062 190.847656 L 109.289062 193.96875 C 109.289062 194.574219 108.800781 195.0625 108.199219 195.0625 L 105.074219 195.0625 C 104.46875 195.0625 103.980469 194.574219 103.980469 193.96875 L 103.980469 190.847656 C 103.980469 190.242188 104.46875 189.753906 105.074219 189.753906 L 108.199219 189.753906 C 108.800781 189.753906 109.289062 190.242188 109.289062 190.847656 Z M 117.261719 190.847656 L 117.261719 193.96875 C 117.261719 194.574219 116.773438 195.0625 116.167969 195.0625 L 113.042969 195.0625 C 112.441406 195.0625 111.953125 194.574219 111.953125 193.96875 L 111.953125 190.847656 C 111.953125 190.242188 112.441406 189.753906 113.042969 189.753906 L 116.167969 189.753906 C 116.773438 189.753906 117.261719 190.242188 117.261719 190.847656 Z M 125.230469 190.847656 L 125.230469 193.96875 C 125.230469 194.574219 124.742188 195.0625 124.140625 195.0625 L 121.015625 195.0625 C 120.410156 195.0625 119.921875 194.574219 119.921875 193.96875 L 119.921875 190.847656 C 119.921875 190.242188 120.410156 189.753906 121.015625 189.753906 L 124.140625 189.753906 C 124.742188 189.753906 125.230469 190.242188 125.230469 190.847656 Z M 133.203125 190.847656 L 133.203125 193.96875 C 133.203125 194.574219 132.714844 195.0625 132.109375 195.0625 L 128.984375 195.0625 C 128.382812 195.0625 127.894531 194.574219 127.894531 193.96875 L 127.894531 190.847656 C 127.894531 190.242188 128.382812 189.753906 128.984375 189.753906 L 132.109375 189.753906 C 132.714844 189.753906 133.203125 190.242188 133.203125 190.847656 Z M 109.289062 198.472656 L 109.289062 201.597656 C 109.289062 202.199219 108.800781 202.6875 108.199219 202.6875 L 105.074219 202.6875 C 104.46875 202.6875 103.980469 202.199219 103.980469 201.597656 L 103.980469 198.472656 C 103.980469 197.871094 104.46875 197.378906 105.074219 197.378906 L 108.199219 197.378906 C 108.800781 197.378906 109.289062 197.871094 109.289062 198.472656 Z M 117.261719 198.472656 L 117.261719 201.597656 C 117.261719 202.199219 116.773438 202.6875 116.167969 202.6875 L 113.042969 202.6875 C 112.441406 202.6875 111.953125 202.199219 111.953125 201.597656 L 111.953125 198.472656 C 111.953125 197.871094 112.441406 197.378906 113.042969 197.378906 L 116.167969 197.378906 C 116.773438 197.378906 117.261719 197.871094 117.261719 198.472656 Z M 125.230469 198.472656 L 125.230469 201.597656 C 125.230469 202.199219 124.742188 202.6875 124.140625 202.6875 L 121.015625 202.6875 C 120.410156 202.6875 119.921875 202.199219 119.921875 201.597656 L 119.921875 198.472656 C 119.921875 197.871094 120.410156 197.378906 121.015625 197.378906 L 124.140625 197.378906 C 124.742188 197.378906 125.230469 197.871094 125.230469 198.472656 Z M 133.203125 198.472656 L 133.203125 201.597656 C 133.203125 201.992188 132.988281 202.335938 132.671875 202.527344 C 132.507812 202.628906 132.316406 202.6875 132.109375 202.6875 L 128.984375 202.6875 C 128.382812 202.6875 127.894531 202.199219 127.894531 201.597656 L 127.894531 198.472656 C 127.894531 197.867188 128.382812 197.378906 128.984375 197.378906 L 132.109375 197.378906 C 132.714844 197.378906 133.203125 197.871094 133.203125 198.472656 Z M 181.578125 165.574219 C 169.605469 165.574219 159.902344 175.28125 159.902344 187.253906 C 159.902344 197.351562 166.804688 205.839844 176.152344 208.246094 C 177.886719 208.695312 179.707031 208.933594 181.578125 208.933594 C 187.984375 208.933594 193.738281 206.152344 197.707031 201.738281 C 201.15625 197.898438 203.257812 192.824219 203.257812 187.253906 C 203.257812 175.28125 193.554688 165.574219 181.578125 165.574219 Z M 181.578125 204.414062 C 172.101562 204.414062 164.417969 196.730469 164.417969 187.253906 C 164.417969 177.777344 172.101562 170.09375 181.578125 170.09375 C 191.058594 170.09375 198.742188 177.777344 198.742188 187.253906 C 198.742188 196.730469 191.058594 204.414062 181.578125 204.414062 Z M 186.925781 189.875 C 186.925781 192.183594 185.328125 194.152344 182.417969 194.671875 L 182.417969 197.316406 L 179.941406 197.316406 L 179.941406 194.855469 C 178.246094 194.777344 176.601562 194.308594 175.636719 193.738281 L 176.398438 190.703125 C 177.460938 191.300781 178.953125 191.84375 180.597656 191.84375 C 182.039062 191.84375 183.027344 191.273438 183.027344 190.238281 C 183.027344 189.253906 182.21875 188.628906 180.34375 187.980469 C 177.636719 187.046875 175.789062 185.75 175.789062 183.234375 C 175.789062 180.953125 177.359375 179.164062 180.066406 178.617188 L 180.066406 176.15625 L 182.546875 176.15625 L 182.546875 178.4375 C 184.242188 178.515625 185.378906 178.878906 186.214844 179.292969 L 185.480469 182.222656 C 184.824219 181.9375 183.660156 181.34375 181.835938 181.34375 C 180.191406 181.34375 179.660156 182.066406 179.660156 182.792969 C 179.660156 183.652344 180.546875 184.195312 182.699219 185.023438 C 185.710938 186.113281 186.925781 187.539062 186.925781 189.875 Z M 223.441406 208.703125 L 217.070312 210.921875 C 217.070312 210.921875 215.640625 211.457031 215.421875 210.738281 C 215.082031 209.628906 217.984375 208.996094 218.839844 208.253906 C 219.242188 207.90625 219.894531 206.398438 219.894531 206.398438 L 222.027344 205.65625 L 222.070312 205.746094 Z M 217.882812 188.894531 L 214.050781 188.851562 L 212.183594 188.832031 L 210.121094 188.808594 L 208.675781 188.789062 L 207.910156 188.78125 C 207.910156 188.78125 207.804688 177.554688 207.804688 174.527344 C 207.804688 174.417969 207.816406 174.324219 207.824219 174.226562 L 218.78125 174.226562 C 218.78125 174.226562 218.699219 174.054688 218.574219 173.757812 C 219.65625 174.742188 220.324219 176.078125 220.324219 177.554688 C 220.324219 179.066406 218.714844 188.90625 218.714844 188.90625 Z M 207.957031 173.492188 C 207.910156 173.839844 207.855469 174.054688 207.828125 174.152344 C 207.847656 173.90625 207.890625 173.683594 207.957031 173.492188 Z M 212.453125 207.089844 L 212.777344 210.332031 L 206.03125 210.335938 C 206.03125 210.335938 204.503906 210.375 204.535156 209.621094 C 204.578125 208.464844 207.523438 208.820312 208.578125 208.398438 C 209.074219 208.203125 210.183594 206.992188 210.183594 206.992188 L 212.441406 206.988281 Z M 205.605469 147.523438 C 205.585938 147.328125 205.667969 147.160156 205.789062 147.144531 C 205.910156 147.132812 206.023438 147.28125 206.042969 147.476562 C 206.0625 147.675781 205.976562 147.84375 205.859375 147.855469 C 205.738281 147.871094 205.625 147.722656 205.605469 147.523438 Z M 79.109375 210.566406 C 78.890625 211.285156 77.460938 210.75 77.460938 210.75 L 71.089844 208.535156 L 72.460938 205.578125 L 72.503906 205.484375 L 74.636719 206.226562 C 74.636719 206.226562 75.289062 207.734375 75.691406 208.085938 C 76.546875 208.828125 79.449219 209.460938 79.109375 210.566406 Z M 82.347656 188.660156 L 80.480469 188.683594 L 76.648438 188.726562 L 75.816406 188.738281 C 75.816406 188.738281 74.207031 178.898438 74.207031 177.386719 C 74.207031 176.355469 74.535156 175.398438 75.097656 174.574219 C 76.191406 172.976562 78.183594 171.902344 80.464844 171.902344 C 82.957031 171.902344 85.097656 171.613281 86.109375 172.578125 C 86.5 172.953125 86.726562 173.511719 86.726562 174.359375 C 86.726562 177.386719 86.621094 188.613281 86.621094 188.613281 L 85.859375 188.621094 Z M 89.996094 209.453125 C 90.023438 210.203125 88.5 210.167969 88.5 210.167969 L 81.753906 210.164062 L 82.078125 206.917969 L 82.089844 206.820312 L 84.347656 206.820312 C 84.347656 206.820312 85.457031 208.03125 85.953125 208.230469 C 87.007812 208.652344 89.953125 208.296875 89.996094 209.453125 Z M 89.996094 209.453125 " fill-opacity="1" fill-rule="nonzero"/><path fill="#0984e3" d="M 86.285156 133.941406 C 84.34375 133.773438 82.359375 131.957031 82.609375 130.980469 C 82.726562 130.523438 85.378906 129.0625 86.40625 129.40625 C 86.988281 129.601562 87.582031 131.671875 87.582031 131.671875 C 87.582031 131.671875 88.039062 132.492188 87.964844 133.136719 C 88.851562 133.730469 89.863281 134.753906 90.835938 135.9375 L 98.910156 135.9375 C 99.054688 135.191406 99.367188 134.609375 99.777344 134.464844 C 100.109375 134.347656 101.707031 135.109375 102.601562 135.9375 L 127.894531 135.9375 L 127.894531 94.371094 L 74.207031 94.371094 L 74.207031 135.9375 L 86.988281 135.9375 C 86.714844 135.285156 86.4375 134.554688 86.285156 133.941406 Z M 84.800781 122.3125 L 92.609375 115.6875 C 92.832031 115.5 93.140625 115.460938 93.402344 115.582031 C 93.667969 115.703125 93.835938 115.964844 93.835938 116.253906 L 93.835938 120.21875 L 106.390625 110.007812 C 106.617188 109.824219 106.925781 109.789062 107.183594 109.914062 C 107.445312 110.039062 107.609375 110.304688 107.605469 110.59375 L 107.53125 115.542969 L 119.125 106.839844 C 119.453125 106.589844 119.917969 106.660156 120.164062 106.984375 C 120.410156 107.3125 120.34375 107.78125 120.015625 108.027344 L 107.214844 117.640625 C 106.988281 117.8125 106.683594 117.839844 106.429688 117.710938 C 106.179688 117.582031 106.019531 117.320312 106.023438 117.035156 L 106.09375 112.164062 L 93.558594 122.359375 C 93.339844 122.539062 93.03125 122.578125 92.773438 122.453125 C 92.511719 122.332031 92.347656 122.070312 92.347656 121.78125 L 92.347656 117.859375 L 85.761719 123.445312 C 85.621094 123.5625 85.453125 123.621094 85.28125 123.621094 C 85.070312 123.621094 84.863281 123.53125 84.714844 123.359375 C 84.449219 123.046875 84.488281 122.578125 84.800781 122.3125 Z M 98.839844 161.738281 L 98.839844 202.542969 C 98.839844 206.070312 101.699219 208.933594 105.230469 208.933594 L 140.246094 208.933594 C 142.097656 208.933594 143.757812 208.140625 144.925781 206.878906 C 145.980469 205.742188 146.632812 204.21875 146.632812 202.542969 L 146.632812 161.738281 Z M 111.953125 168.074219 C 111.953125 167.472656 112.441406 166.984375 113.042969 166.984375 L 116.167969 166.984375 C 116.773438 166.984375 117.261719 167.472656 117.261719 168.074219 L 117.261719 171.199219 C 117.261719 171.59375 117.050781 171.933594 116.738281 172.125 C 116.574219 172.230469 116.378906 172.292969 116.167969 172.292969 L 113.042969 172.292969 C 112.441406 172.292969 111.953125 171.800781 111.953125 171.199219 Z M 111.953125 175.664062 C 111.953125 175.0625 112.441406 174.574219 113.042969 174.574219 L 116.167969 174.574219 C 116.285156 174.574219 116.394531 174.597656 116.496094 174.628906 C 116.9375 174.769531 117.261719 175.179688 117.261719 175.664062 L 117.261719 178.789062 C 117.261719 179.273438 116.945312 179.675781 116.511719 179.820312 C 116.402344 179.859375 116.289062 179.882812 116.167969 179.882812 L 113.042969 179.882812 C 112.441406 179.882812 111.953125 179.394531 111.953125 178.789062 Z M 111.953125 183.253906 C 111.953125 182.652344 112.441406 182.164062 113.042969 182.164062 L 116.167969 182.164062 C 116.421875 182.164062 116.648438 182.253906 116.835938 182.398438 C 117.09375 182.597656 117.261719 182.90625 117.261719 183.253906 L 117.261719 186.378906 C 117.261719 186.984375 116.773438 187.472656 116.167969 187.472656 L 113.042969 187.472656 C 112.441406 187.472656 111.953125 186.984375 111.953125 186.378906 Z M 111.953125 190.847656 C 111.953125 190.242188 112.441406 189.753906 113.042969 189.753906 L 116.167969 189.753906 C 116.773438 189.753906 117.261719 190.242188 117.261719 190.847656 L 117.261719 193.96875 C 117.261719 194.574219 116.773438 195.0625 116.167969 195.0625 L 113.042969 195.0625 C 112.441406 195.0625 111.953125 194.574219 111.953125 193.96875 Z M 103.980469 168.074219 C 103.980469 167.472656 104.46875 166.984375 105.074219 166.984375 L 108.199219 166.984375 C 108.800781 166.984375 109.289062 167.472656 109.289062 168.074219 L 109.289062 171.199219 C 109.289062 171.800781 108.800781 172.292969 108.199219 172.292969 L 105.074219 172.292969 C 104.46875 172.292969 103.980469 171.804688 103.980469 171.199219 Z M 103.980469 175.664062 C 103.980469 175.0625 104.46875 174.574219 105.074219 174.574219 L 108.199219 174.574219 C 108.800781 174.574219 109.289062 175.0625 109.289062 175.664062 L 109.289062 178.789062 C 109.289062 179.394531 108.800781 179.882812 108.199219 179.882812 L 105.074219 179.882812 C 104.46875 179.882812 103.980469 179.394531 103.980469 178.789062 Z M 103.980469 183.253906 C 103.980469 182.652344 104.46875 182.164062 105.074219 182.164062 L 108.199219 182.164062 C 108.800781 182.164062 109.289062 182.652344 109.289062 183.253906 L 109.289062 186.378906 C 109.289062 186.984375 108.800781 187.472656 108.199219 187.472656 L 105.074219 187.472656 C 104.46875 187.472656 103.980469 186.984375 103.980469 186.378906 Z M 103.980469 190.847656 C 103.980469 190.242188 104.46875 189.753906 105.074219 189.753906 L 108.199219 189.753906 C 108.800781 189.753906 109.289062 190.242188 109.289062 190.847656 L 109.289062 193.96875 C 109.289062 194.574219 108.800781 195.0625 108.199219 195.0625 L 105.074219 195.0625 C 104.46875 195.0625 103.980469 194.574219 103.980469 193.96875 Z M 109.289062 201.597656 C 109.289062 202.199219 108.800781 202.6875 108.199219 202.6875 L 105.074219 202.6875 C 104.46875 202.6875 103.980469 202.199219 103.980469 201.597656 L 103.980469 198.472656 C 103.980469 197.871094 104.46875 197.378906 105.074219 197.378906 L 108.199219 197.378906 C 108.800781 197.378906 109.289062 197.871094 109.289062 198.472656 Z M 117.261719 201.597656 C 117.261719 202.199219 116.773438 202.6875 116.167969 202.6875 L 113.042969 202.6875 C 112.441406 202.6875 111.953125 202.199219 111.953125 201.597656 L 111.953125 198.472656 C 111.953125 197.871094 112.441406 197.378906 113.042969 197.378906 L 116.167969 197.378906 C 116.773438 197.378906 117.261719 197.871094 117.261719 198.472656 Z M 125.230469 201.597656 C 125.230469 202.199219 124.742188 202.6875 124.140625 202.6875 L 121.015625 202.6875 C 120.410156 202.6875 119.921875 202.199219 119.921875 201.597656 L 119.921875 198.472656 C 119.921875 197.871094 120.410156 197.378906 121.015625 197.378906 L 124.140625 197.378906 C 124.742188 197.378906 125.230469 197.871094 125.230469 198.472656 Z M 135.867188 168.074219 C 135.867188 167.472656 136.355469 166.984375 136.957031 166.984375 L 140.082031 166.984375 C 140.683594 166.984375 141.171875 167.472656 141.171875 168.074219 L 141.171875 171.199219 C 141.171875 171.800781 140.683594 172.292969 140.082031 172.292969 L 136.957031 172.292969 C 136.355469 172.292969 135.867188 171.804688 135.867188 171.199219 Z M 135.867188 175.664062 C 135.867188 175.0625 136.355469 174.574219 136.957031 174.574219 L 140.082031 174.574219 C 140.683594 174.574219 141.171875 175.0625 141.171875 175.664062 L 141.171875 178.789062 C 141.171875 179.394531 140.683594 179.882812 140.082031 179.882812 L 136.957031 179.882812 C 136.355469 179.882812 135.867188 179.394531 135.867188 178.789062 Z M 135.867188 183.253906 C 135.867188 182.652344 136.355469 182.164062 136.957031 182.164062 L 140.082031 182.164062 C 140.683594 182.164062 141.171875 182.652344 141.171875 183.253906 L 141.171875 186.378906 C 141.171875 186.984375 140.683594 187.472656 140.082031 187.472656 L 136.957031 187.472656 C 136.355469 187.472656 135.867188 186.984375 135.867188 186.378906 Z M 135.867188 190.847656 C 135.867188 190.242188 136.355469 189.753906 136.957031 189.753906 L 140.082031 189.753906 C 140.683594 189.753906 141.171875 190.242188 141.171875 190.847656 L 141.171875 201.503906 C 141.171875 202.105469 140.683594 202.597656 140.082031 202.597656 L 136.957031 202.597656 C 136.355469 202.597656 135.867188 202.109375 135.867188 201.503906 Z M 127.894531 168.074219 C 127.894531 167.472656 128.382812 166.984375 128.984375 166.984375 L 132.109375 166.984375 C 132.714844 166.984375 133.203125 167.472656 133.203125 168.074219 L 133.203125 171.199219 C 133.203125 171.800781 132.714844 172.292969 132.109375 172.292969 L 128.984375 172.292969 C 128.382812 172.292969 127.894531 171.804688 127.894531 171.199219 Z M 127.894531 175.664062 C 127.894531 175.0625 128.382812 174.574219 128.984375 174.574219 L 132.109375 174.574219 C 132.714844 174.574219 133.203125 175.0625 133.203125 175.664062 L 133.203125 178.789062 C 133.203125 179.394531 132.714844 179.882812 132.109375 179.882812 L 128.984375 179.882812 C 128.382812 179.882812 127.894531 179.394531 127.894531 178.789062 Z M 127.894531 183.253906 C 127.894531 182.652344 128.382812 182.164062 128.984375 182.164062 L 132.109375 182.164062 C 132.714844 182.164062 133.203125 182.652344 133.203125 183.253906 L 133.203125 186.378906 C 133.203125 186.984375 132.714844 187.472656 132.109375 187.472656 L 128.984375 187.472656 C 128.382812 187.472656 127.894531 186.984375 127.894531 186.378906 Z M 127.894531 190.847656 C 127.894531 190.242188 128.382812 189.753906 128.984375 189.753906 L 132.109375 189.753906 C 132.714844 189.753906 133.203125 190.242188 133.203125 190.847656 L 133.203125 193.96875 C 133.203125 194.574219 132.714844 195.0625 132.109375 195.0625 L 128.984375 195.0625 C 128.382812 195.0625 127.894531 194.574219 127.894531 193.96875 Z M 127.894531 198.472656 C 127.894531 197.871094 128.382812 197.378906 128.984375 197.378906 L 132.109375 197.378906 C 132.714844 197.378906 133.203125 197.867188 133.203125 198.472656 L 133.203125 201.597656 C 133.203125 201.992188 132.988281 202.335938 132.671875 202.527344 C 132.507812 202.628906 132.316406 202.6875 132.109375 202.6875 L 128.984375 202.6875 C 128.382812 202.6875 127.894531 202.199219 127.894531 201.597656 Z M 119.921875 168.074219 C 119.921875 167.472656 120.410156 166.984375 121.015625 166.984375 L 124.140625 166.984375 C 124.742188 166.984375 125.230469 167.472656 125.230469 168.074219 L 125.230469 171.199219 C 125.230469 171.800781 124.742188 172.292969 124.140625 172.292969 L 121.015625 172.292969 C 120.410156 172.292969 119.921875 171.804688 119.921875 171.199219 Z M 119.921875 175.664062 C 119.921875 175.0625 120.410156 174.574219 121.015625 174.574219 L 124.140625 174.574219 C 124.742188 174.574219 125.230469 175.0625 125.230469 175.664062 L 125.230469 178.789062 C 125.230469 179.394531 124.742188 179.882812 124.140625 179.882812 L 121.015625 179.882812 C 120.410156 179.882812 119.921875 179.394531 119.921875 178.789062 Z M 119.921875 183.253906 C 119.921875 182.652344 120.410156 182.164062 121.015625 182.164062 L 124.140625 182.164062 C 124.742188 182.164062 125.230469 182.652344 125.230469 183.253906 L 125.230469 186.378906 C 125.230469 186.984375 124.742188 187.472656 124.140625 187.472656 L 121.015625 187.472656 C 120.410156 187.472656 119.921875 186.984375 119.921875 186.378906 Z M 119.921875 190.847656 C 119.921875 190.242188 120.410156 189.753906 121.015625 189.753906 L 124.140625 189.753906 C 124.742188 189.753906 125.230469 190.242188 125.230469 190.847656 L 125.230469 193.96875 C 125.230469 194.574219 124.742188 195.0625 124.140625 195.0625 L 121.015625 195.0625 C 120.410156 195.0625 119.921875 194.574219 119.921875 193.96875 Z M 181.578125 170.09375 C 172.101562 170.09375 164.417969 177.777344 164.417969 187.253906 C 164.417969 196.730469 172.101562 204.414062 181.578125 204.414062 C 191.058594 204.414062 198.742188 196.730469 198.742188 187.253906 C 198.742188 177.777344 191.058594 170.09375 181.578125 170.09375 Z M 182.417969 194.671875 L 182.417969 197.320312 L 179.941406 197.320312 L 179.941406 194.855469 C 178.246094 194.777344 176.601562 194.308594 175.636719 193.738281 L 176.398438 190.703125 C 177.460938 191.300781 178.953125 191.847656 180.597656 191.847656 C 182.039062 191.847656 183.027344 191.277344 183.027344 190.238281 C 183.027344 189.253906 182.21875 188.628906 180.34375 187.980469 C 177.636719 187.046875 175.789062 185.75 175.789062 183.234375 C 175.789062 180.953125 177.359375 179.164062 180.066406 178.621094 L 180.066406 176.15625 L 182.546875 176.15625 L 182.546875 178.4375 C 184.242188 178.515625 185.378906 178.878906 186.214844 179.292969 L 185.480469 182.222656 C 184.824219 181.9375 183.660156 181.34375 181.835938 181.34375 C 180.191406 181.34375 179.660156 182.070312 179.660156 182.796875 C 179.660156 183.652344 180.546875 184.195312 182.699219 185.027344 C 185.710938 186.113281 186.925781 187.542969 186.925781 189.875 C 186.925781 192.183594 185.328125 194.152344 182.417969 194.671875 Z M 94.160156 140.6875 C 94.261719 140.894531 94.324219 141.121094 94.347656 141.363281 C 94.207031 141.054688 94.039062 140.722656 93.851562 140.378906 C 93.980469 140.441406 94.085938 140.542969 94.160156 140.6875 Z M 95.921875 151.484375 C 93.34375 153.585938 88.355469 155.394531 85.078125 155.925781 C 85.132812 156.089844 85.175781 156.265625 85.214844 156.453125 C 86.011719 156.632812 86.691406 157.101562 87.070312 157.816406 C 87.816406 159.242188 87.070312 161.109375 85.394531 161.988281 C 85.339844 162.015625 85.285156 162.042969 85.230469 162.066406 C 85.015625 164.613281 84.675781 167.320312 84.699219 169.300781 C 84.726562 171.984375 86.457031 172.453125 86.457031 172.453125 L 86.285156 172.539062 C 86.226562 172.550781 86.167969 172.566406 86.109375 172.578125 C 85.097656 171.613281 82.957031 171.902344 80.464844 171.902344 C 78.183594 171.902344 76.191406 172.976562 75.097656 174.574219 C 75.09375 174.574219 75.09375 174.574219 75.089844 174.574219 C 75.101562 174.109375 78.660156 170.359375 77.289062 166.984375 C 72.847656 156.082031 76.761719 153.019531 76.761719 153.019531 L 76.941406 152.960938 L 76.941406 152.957031 L 78.121094 152.554688 C 78.210938 152.511719 78.3125 152.464844 78.421875 152.417969 C 79.265625 152.054688 80.714844 151.585938 82.335938 151.109375 L 82.242188 148.777344 C 82.84375 148.320312 83.375 147.808594 83.765625 147.320312 C 85.992188 145.347656 88.015625 143.640625 88.015625 143.640625 C 88.015625 143.640625 88.796875 142.941406 89.808594 142.183594 C 90.226562 143.007812 90.621094 143.691406 90.894531 143.960938 C 91.664062 144.714844 92.652344 144.738281 93.453125 144.445312 C 92.636719 145.9375 91.351562 147.566406 89.957031 149.039062 C 90.476562 148.90625 90.785156 148.828125 90.785156 148.828125 C 90.785156 148.828125 92.144531 148.453125 93.648438 148.207031 C 93.597656 148.335938 93.5625 148.453125 93.542969 148.546875 C 93.210938 150.289062 94.847656 151.429688 95.921875 151.484375 Z M 218.78125 174.226562 L 207.804688 174.226562 C 207.804688 174.226562 207.8125 174.199219 207.828125 174.152344 C 207.855469 174.054688 207.910156 173.839844 207.957031 173.492188 C 208.058594 172.734375 208.136719 171.324219 207.882812 168.972656 C 207.703125 167.320312 207.132812 165.628906 206.550781 163.917969 C 206.460938 163.652344 206.371094 163.382812 206.28125 163.113281 C 206.0625 163.386719 205.839844 163.65625 205.613281 163.917969 C 204.671875 165.011719 203.6875 166.007812 202.867188 166.636719 C 202.640625 166.859375 202.371094 167.035156 202.074219 167.15625 C 201.804688 167.289062 201.578125 167.347656 201.402344 167.320312 C 201.320312 167.328125 201.238281 167.332031 201.15625 167.332031 C 199.8125 167.328125 199.589844 165.921875 198.730469 164.890625 C 197.613281 163.550781 196 159.371094 195.914062 157.5 C 196.179688 157.5 196.425781 157.429688 196.644531 157.3125 C 196.820312 157.222656 196.976562 157.097656 197.109375 156.949219 C 198.363281 157.828125 200.46875 160.125 201.941406 162.0625 C 203.054688 158.503906 204.851562 154.351562 205.746094 153.847656 C 206.035156 153.683594 206.34375 153.574219 206.652344 153.511719 C 206.722656 153.605469 206.792969 153.695312 206.863281 153.78125 C 207.011719 153.953125 207.167969 154.117188 207.328125 154.273438 C 207.976562 154.898438 208.683594 155.414062 208.980469 155.929688 C 209.308594 156.503906 209.0625 157.523438 209.023438 158.691406 C 209.019531 158.746094 209.019531 158.800781 209.019531 158.859375 C 209 159.886719 209.164062 161.007812 210.019531 162.03125 C 210.105469 162.132812 210.195312 162.234375 210.292969 162.332031 C 211 163.039062 211.679688 163.351562 212.292969 163.4375 C 213.898438 163.664062 215.054688 162.332031 215.054688 162.332031 L 215.144531 162.347656 C 215.46875 162.546875 215.789062 162.734375 216.101562 162.894531 C 216.71875 163.214844 217.316406 163.449219 217.898438 163.613281 C 217.746094 164.628906 217.582031 165.59375 217.414062 166.394531 C 216.816406 169.207031 218.058594 172.546875 218.574219 173.757812 C 218.699219 174.054688 218.78125 174.226562 218.78125 174.226562 Z M 218.78125 174.226562 " fill-opacity="1" fill-rule="nonzero"/><g fill="#000000" fill-opacity="1"><g transform="translate(39.859423, 37.587856)"><g><path d="M 0.40625 -7.40625 C 0.40625 -9.550781 1.132812 -11.363281 2.59375 -12.84375 C 4.0625 -14.320312 5.820312 -15.0625 7.875 -15.0625 C 9.945312 -15.0625 11.703125 -14.320312 13.140625 -12.84375 C 14.585938 -11.375 15.3125 -9.5625 15.3125 -7.40625 C 15.3125 -5.238281 14.597656 -3.414062 13.171875 -1.9375 C 11.753906 -0.46875 9.988281 0.265625 7.875 0.265625 C 5.707031 0.265625 3.921875 -0.460938 2.515625 -1.921875 C 1.109375 -3.390625 0.40625 -5.21875 0.40625 -7.40625 Z M 4.046875 -7.40625 C 4.046875 -6.632812 4.164062 -5.925781 4.40625 -5.28125 C 4.644531 -4.644531 5.0625 -4.101562 5.65625 -3.65625 C 6.257812 -3.21875 7 -3 7.875 -3 C 9.132812 -3 10.082031 -3.425781 10.71875 -4.28125 C 11.351562 -5.144531 11.671875 -6.1875 11.671875 -7.40625 C 11.671875 -8.613281 11.34375 -9.648438 10.6875 -10.515625 C 10.039062 -11.390625 9.101562 -11.828125 7.875 -11.828125 C 6.65625 -11.828125 5.710938 -11.390625 5.046875 -10.515625 C 4.378906 -9.648438 4.046875 -8.613281 4.046875 -7.40625 Z M 4.046875 -7.40625 "/></g></g></g><g fill="#000000" fill-opacity="1"><g transform="translate(55.583741, 37.587856)"><g><path d="M 1.078125 0 L 1.078125 -9.203125 L 4.25 -9.203125 L 4.25 -8.234375 L 4.28125 -8.234375 C 5.113281 -9.054688 5.992188 -9.46875 6.921875 -9.46875 C 7.378906 -9.46875 7.832031 -9.40625 8.28125 -9.28125 C 8.726562 -9.164062 9.15625 -8.984375 9.5625 -8.734375 C 9.976562 -8.484375 10.3125 -8.128906 10.5625 -7.671875 C 10.820312 -7.210938 10.953125 -6.675781 10.953125 -6.0625 L 10.953125 0 L 7.78125 0 L 7.78125 -5.203125 C 7.78125 -5.679688 7.628906 -6.097656 7.328125 -6.453125 C 7.023438 -6.816406 6.628906 -7 6.140625 -7 C 5.660156 -7 5.222656 -6.8125 4.828125 -6.4375 C 4.441406 -6.070312 4.25 -5.660156 4.25 -5.203125 L 4.25 0 Z M 1.078125 0 "/></g></g></g><g fill="#000000" fill-opacity="1"><g transform="translate(67.435253, 37.587856)"><g><path d="M 1.078125 0 L 1.078125 -15.421875 L 4.25 -15.421875 L 4.25 0 Z M 1.078125 0 "/></g></g></g><g fill="#000000" fill-opacity="1"><g transform="translate(72.76036, 37.587856)"><g><path d="M 1.375 -14.328125 C 1.75 -14.703125 2.191406 -14.890625 2.703125 -14.890625 C 3.222656 -14.890625 3.664062 -14.703125 4.03125 -14.328125 C 4.40625 -13.960938 4.59375 -13.519531 4.59375 -13 C 4.59375 -12.488281 4.40625 -12.046875 4.03125 -11.671875 C 3.664062 -11.304688 3.222656 -11.125 2.703125 -11.125 C 2.191406 -11.125 1.75 -11.304688 1.375 -11.671875 C 1.007812 -12.046875 0.828125 -12.488281 0.828125 -13 C 0.828125 -13.519531 1.007812 -13.960938 1.375 -14.328125 Z M 1.078125 -9.203125 L 1.078125 0 L 4.25 0 L 4.25 -9.203125 Z M 1.078125 -9.203125 "/></g></g></g><g fill="#000000" fill-opacity="1"><g transform="translate(78.17512, 37.587856)"><g><path d="M 1.078125 0 L 1.078125 -9.203125 L 4.25 -9.203125 L 4.25 -8.234375 L 4.28125 -8.234375 C 5.113281 -9.054688 5.992188 -9.46875 6.921875 -9.46875 C 7.378906 -9.46875 7.832031 -9.40625 8.28125 -9.28125 C 8.726562 -9.164062 9.15625 -8.984375 9.5625 -8.734375 C 9.976562 -8.484375 10.3125 -8.128906 10.5625 -7.671875 C 10.820312 -7.210938 10.953125 -6.675781 10.953125 -6.0625 L 10.953125 0 L 7.78125 0 L 7.78125 -5.203125 C 7.78125 -5.679688 7.628906 -6.097656 7.328125 -6.453125 C 7.023438 -6.816406 6.628906 -7 6.140625 -7 C 5.660156 -7 5.222656 -6.8125 4.828125 -6.4375 C 4.441406 -6.070312 4.25 -5.660156 4.25 -5.203125 L 4.25 0 Z M 1.078125 0 "/></g></g></g><g fill="#000000" fill-opacity="1"><g transform="translate(90.026632, 37.587856)"><g><path d="M 10.390625 -4.15625 L 3.71875 -4.15625 C 3.71875 -3.507812 3.925781 -3.03125 4.34375 -2.71875 C 4.757812 -2.414062 5.210938 -2.265625 5.703125 -2.265625 C 6.210938 -2.265625 6.617188 -2.332031 6.921875 -2.46875 C 7.222656 -2.601562 7.566406 -2.875 7.953125 -3.28125 L 10.25 -2.140625 C 9.289062 -0.535156 7.695312 0.265625 5.46875 0.265625 C 4.082031 0.265625 2.890625 -0.207031 1.890625 -1.15625 C 0.898438 -2.101562 0.40625 -3.242188 0.40625 -4.578125 C 0.40625 -5.921875 0.898438 -7.070312 1.890625 -8.03125 C 2.890625 -8.988281 4.082031 -9.46875 5.46875 -9.46875 C 6.925781 -9.46875 8.113281 -9.046875 9.03125 -8.203125 C 9.945312 -7.359375 10.40625 -6.15625 10.40625 -4.59375 C 10.40625 -4.375 10.398438 -4.226562 10.390625 -4.15625 Z M 3.796875 -5.921875 L 7.296875 -5.921875 C 7.222656 -6.398438 7.035156 -6.765625 6.734375 -7.015625 C 6.429688 -7.273438 6.039062 -7.40625 5.5625 -7.40625 C 5.03125 -7.40625 4.609375 -7.265625 4.296875 -6.984375 C 3.992188 -6.710938 3.828125 -6.359375 3.796875 -5.921875 Z M 3.796875 -5.921875 "/></g></g></g><g fill="#000000" fill-opacity="1"><g transform="translate(100.838219, 37.587856)"><g><path d="M 10.546875 -15.421875 L 3.15625 2.15625 L 0.40625 2.15625 L 7.796875 -15.421875 Z M 10.546875 -15.421875 "/></g></g></g><g fill="#000000" fill-opacity="1"><g transform="translate(111.793247, 37.587856)"><g><path d="M 1.078125 -14.796875 L 5.359375 -14.796875 C 7.421875 -14.796875 9.179688 -14.09375 10.640625 -12.6875 C 12.097656 -11.28125 12.828125 -9.519531 12.828125 -7.40625 C 12.828125 -5.28125 12.097656 -3.515625 10.640625 -2.109375 C 9.191406 -0.703125 7.429688 0 5.359375 0 L 1.078125 0 Z M 4.453125 -3.015625 L 4.96875 -3.015625 C 6.195312 -3.015625 7.203125 -3.425781 7.984375 -4.25 C 8.773438 -5.082031 9.175781 -6.128906 9.1875 -7.390625 C 9.1875 -8.648438 8.789062 -9.695312 8 -10.53125 C 7.21875 -11.363281 6.207031 -11.78125 4.96875 -11.78125 L 4.453125 -11.78125 Z M 4.453125 -3.015625 "/></g></g></g><g fill="#000000" fill-opacity="1"><g transform="translate(125.025339, 37.587856)"><g><path d="M 1.375 -14.328125 C 1.75 -14.703125 2.191406 -14.890625 2.703125 -14.890625 C 3.222656 -14.890625 3.664062 -14.703125 4.03125 -14.328125 C 4.40625 -13.960938 4.59375 -13.519531 4.59375 -13 C 4.59375 -12.488281 4.40625 -12.046875 4.03125 -11.671875 C 3.664062 -11.304688 3.222656 -11.125 2.703125 -11.125 C 2.191406 -11.125 1.75 -11.304688 1.375 -11.671875 C 1.007812 -12.046875 0.828125 -12.488281 0.828125 -13 C 0.828125 -13.519531 1.007812 -13.960938 1.375 -14.328125 Z M 1.078125 -9.203125 L 1.078125 0 L 4.25 0 L 4.25 -9.203125 Z M 1.078125 -9.203125 "/></g></g></g><g fill="#000000" fill-opacity="1"><g transform="translate(130.4401, 37.587856)"><g><path d="M 5.078125 -9.46875 C 5.597656 -9.46875 6.113281 -9.40625 6.625 -9.28125 C 7.144531 -9.164062 7.53125 -9.050781 7.78125 -8.9375 L 8.15625 -8.75 L 7.125 -6.671875 C 6.40625 -7.054688 5.722656 -7.25 5.078125 -7.25 C 4.710938 -7.25 4.457031 -7.207031 4.3125 -7.125 C 4.164062 -7.050781 4.09375 -6.90625 4.09375 -6.6875 C 4.09375 -6.644531 4.097656 -6.597656 4.109375 -6.546875 C 4.117188 -6.492188 4.140625 -6.445312 4.171875 -6.40625 C 4.210938 -6.363281 4.25 -6.328125 4.28125 -6.296875 C 4.3125 -6.273438 4.359375 -6.242188 4.421875 -6.203125 C 4.492188 -6.171875 4.550781 -6.144531 4.59375 -6.125 C 4.632812 -6.101562 4.703125 -6.070312 4.796875 -6.03125 C 4.898438 -6 4.972656 -5.972656 5.015625 -5.953125 C 5.066406 -5.941406 5.148438 -5.914062 5.265625 -5.875 C 5.378906 -5.84375 5.46875 -5.820312 5.53125 -5.8125 C 5.894531 -5.707031 6.210938 -5.585938 6.484375 -5.453125 C 6.765625 -5.316406 7.054688 -5.132812 7.359375 -4.90625 C 7.671875 -4.6875 7.910156 -4.398438 8.078125 -4.046875 C 8.242188 -3.703125 8.328125 -3.3125 8.328125 -2.875 C 8.328125 -0.78125 6.875 0.265625 3.96875 0.265625 C 3.3125 0.265625 2.6875 0.164062 2.09375 -0.03125 C 1.5 -0.238281 1.070312 -0.441406 0.8125 -0.640625 L 0.40625 -0.96875 L 1.703125 -3.140625 C 1.796875 -3.054688 1.921875 -2.957031 2.078125 -2.84375 C 2.234375 -2.726562 2.515625 -2.570312 2.921875 -2.375 C 3.328125 -2.175781 3.679688 -2.078125 3.984375 -2.078125 C 4.640625 -2.078125 4.96875 -2.300781 4.96875 -2.75 C 4.96875 -2.945312 4.882812 -3.101562 4.71875 -3.21875 C 4.550781 -3.332031 4.265625 -3.460938 3.859375 -3.609375 C 3.460938 -3.753906 3.148438 -3.882812 2.921875 -4 C 2.347656 -4.300781 1.894531 -4.640625 1.5625 -5.015625 C 1.226562 -5.390625 1.0625 -5.890625 1.0625 -6.515625 C 1.0625 -7.441406 1.421875 -8.164062 2.140625 -8.6875 C 2.867188 -9.207031 3.847656 -9.46875 5.078125 -9.46875 Z M 5.078125 -9.46875 "/></g></g></g><g fill="#000000" fill-opacity="1"><g transform="translate(139.261502, 37.587856)"><g><path d="M 1.609375 -9.203125 L 1.609375 -12.625 L 4.796875 -12.625 L 4.796875 -9.203125 L 6.71875 -9.203125 L 6.71875 -6.78125 L 4.796875 -6.78125 L 4.796875 -3.859375 C 4.796875 -3.003906 5.03125 -2.578125 5.5 -2.578125 C 5.625 -2.578125 5.75 -2.597656 5.875 -2.640625 C 6.007812 -2.691406 6.113281 -2.742188 6.1875 -2.796875 L 6.296875 -2.875 L 7.078125 -0.3125 C 6.398438 0.0703125 5.625 0.265625 4.75 0.265625 C 4.15625 0.265625 3.640625 0.160156 3.203125 -0.046875 C 2.773438 -0.253906 2.453125 -0.535156 2.234375 -0.890625 C 2.015625 -1.242188 1.851562 -1.613281 1.75 -2 C 1.65625 -2.382812 1.609375 -2.800781 1.609375 -3.25 L 1.609375 -6.78125 L 0.28125 -6.78125 L 0.28125 -9.203125 Z M 1.609375 -9.203125 "/></g></g></g><g fill="#000000" fill-opacity="1"><g transform="translate(146.343723, 37.587856)"><g><path d="M 1.703125 -1.140625 C 0.835938 -2.078125 0.40625 -3.226562 0.40625 -4.59375 C 0.40625 -5.957031 0.835938 -7.109375 1.703125 -8.046875 C 2.566406 -8.992188 3.660156 -9.46875 4.984375 -9.46875 C 6.203125 -9.46875 7.207031 -9.085938 8 -8.328125 L 8 -9.203125 L 11.171875 -9.203125 L 11.171875 0 L 8.03125 0 L 8.03125 -1.046875 L 8 -1.046875 C 7.207031 -0.171875 6.203125 0.265625 4.984375 0.265625 C 3.660156 0.265625 2.566406 -0.203125 1.703125 -1.140625 Z M 4.390625 -6.15625 C 3.984375 -5.75 3.78125 -5.226562 3.78125 -4.59375 C 3.78125 -3.957031 3.976562 -3.4375 4.375 -3.03125 C 4.769531 -2.632812 5.289062 -2.4375 5.9375 -2.4375 C 6.5625 -2.4375 7.070312 -2.640625 7.46875 -3.046875 C 7.875 -3.453125 8.078125 -3.96875 8.078125 -4.59375 C 8.078125 -5.226562 7.867188 -5.75 7.453125 -6.15625 C 7.035156 -6.5625 6.53125 -6.765625 5.9375 -6.765625 C 5.320312 -6.765625 4.804688 -6.5625 4.390625 -6.15625 Z M 4.390625 -6.15625 "/></g></g></g><g fill="#000000" fill-opacity="1"><g transform="translate(158.58969, 37.587856)"><g><path d="M 1.078125 0 L 1.078125 -9.203125 L 4.25 -9.203125 L 4.25 -8.234375 L 4.28125 -8.234375 C 5.113281 -9.054688 5.992188 -9.46875 6.921875 -9.46875 C 7.378906 -9.46875 7.832031 -9.40625 8.28125 -9.28125 C 8.726562 -9.164062 9.15625 -8.984375 9.5625 -8.734375 C 9.976562 -8.484375 10.3125 -8.128906 10.5625 -7.671875 C 10.820312 -7.210938 10.953125 -6.675781 10.953125 -6.0625 L 10.953125 0 L 7.78125 0 L 7.78125 -5.203125 C 7.78125 -5.679688 7.628906 -6.097656 7.328125 -6.453125 C 7.023438 -6.816406 6.628906 -7 6.140625 -7 C 5.660156 -7 5.222656 -6.8125 4.828125 -6.4375 C 4.441406 -6.070312 4.25 -5.660156 4.25 -5.203125 L 4.25 0 Z M 1.078125 0 "/></g></g></g><g fill="#000000" fill-opacity="1"><g transform="translate(170.441202, 37.587856)"><g><path d="M 5.96875 -6.875 C 5.375 -6.875 4.859375 -6.648438 4.421875 -6.203125 C 3.992188 -5.765625 3.78125 -5.234375 3.78125 -4.609375 C 3.78125 -3.972656 3.992188 -3.429688 4.421875 -2.984375 C 4.859375 -2.546875 5.375 -2.328125 5.96875 -2.328125 C 6.257812 -2.328125 6.53125 -2.363281 6.78125 -2.4375 C 7.039062 -2.507812 7.234375 -2.582031 7.359375 -2.65625 L 7.515625 -2.765625 L 8.59375 -0.5625 C 8.507812 -0.5 8.390625 -0.421875 8.234375 -0.328125 C 8.085938 -0.242188 7.75 -0.125 7.21875 0.03125 C 6.6875 0.1875 6.113281 0.265625 5.5 0.265625 C 4.15625 0.265625 2.96875 -0.207031 1.9375 -1.15625 C 0.914062 -2.101562 0.40625 -3.242188 0.40625 -4.578125 C 0.40625 -5.910156 0.914062 -7.054688 1.9375 -8.015625 C 2.96875 -8.984375 4.15625 -9.46875 5.5 -9.46875 C 6.113281 -9.46875 6.675781 -9.394531 7.1875 -9.25 C 7.707031 -9.113281 8.070312 -8.972656 8.28125 -8.828125 L 8.59375 -8.609375 L 7.515625 -6.4375 C 7.117188 -6.726562 6.601562 -6.875 5.96875 -6.875 Z M 5.96875 -6.875 "/></g></g></g><g fill="#000000" fill-opacity="1"><g transform="translate(179.244672, 37.587856)"><g><path d="M 10.390625 -4.15625 L 3.71875 -4.15625 C 3.71875 -3.507812 3.925781 -3.03125 4.34375 -2.71875 C 4.757812 -2.414062 5.210938 -2.265625 5.703125 -2.265625 C 6.210938 -2.265625 6.617188 -2.332031 6.921875 -2.46875 C 7.222656 -2.601562 7.566406 -2.875 7.953125 -3.28125 L 10.25 -2.140625 C 9.289062 -0.535156 7.695312 0.265625 5.46875 0.265625 C 4.082031 0.265625 2.890625 -0.207031 1.890625 -1.15625 C 0.898438 -2.101562 0.40625 -3.242188 0.40625 -4.578125 C 0.40625 -5.921875 0.898438 -7.070312 1.890625 -8.03125 C 2.890625 -8.988281 4.082031 -9.46875 5.46875 -9.46875 C 6.925781 -9.46875 8.113281 -9.046875 9.03125 -8.203125 C 9.945312 -7.359375 10.40625 -6.15625 10.40625 -4.59375 C 10.40625 -4.375 10.398438 -4.226562 10.390625 -4.15625 Z M 3.796875 -5.921875 L 7.296875 -5.921875 C 7.222656 -6.398438 7.035156 -6.765625 6.734375 -7.015625 C 6.429688 -7.273438 6.039062 -7.40625 5.5625 -7.40625 C 5.03125 -7.40625 4.609375 -7.265625 4.296875 -6.984375 C 3.992188 -6.710938 3.828125 -6.359375 3.796875 -5.921875 Z M 3.796875 -5.921875 "/></g></g></g><g fill="#000000" fill-opacity="1"><g transform="translate(190.056259, 37.587856)"><g/></g></g><g fill="#104e91" fill-opacity="1"><g transform="translate(194.94535, 37.587856)"><g><path d="M 1.078125 -14.796875 L 5.671875 -14.796875 C 7.054688 -14.796875 8.160156 -14.5 8.984375 -13.90625 C 9.804688 -13.3125 10.21875 -12.351562 10.21875 -11.03125 C 10.21875 -9.550781 9.601562 -8.492188 8.375 -7.859375 C 10.476562 -7.484375 11.53125 -6.238281 11.53125 -4.125 C 11.53125 -2.882812 11.097656 -1.882812 10.234375 -1.125 C 9.378906 -0.375 8.195312 0 6.6875 0 L 1.078125 0 Z M 4.453125 -9 L 4.71875 -9 C 5.46875 -9 6.023438 -9.128906 6.390625 -9.390625 C 6.765625 -9.660156 6.953125 -10.09375 6.953125 -10.6875 C 6.953125 -11.695312 6.207031 -12.203125 4.71875 -12.203125 L 4.453125 -12.203125 Z M 4.453125 -2.59375 L 5.5 -2.59375 C 7.15625 -2.59375 7.984375 -3.144531 7.984375 -4.25 C 7.984375 -4.90625 7.773438 -5.375 7.359375 -5.65625 C 6.953125 -5.945312 6.332031 -6.09375 5.5 -6.09375 L 4.453125 -6.09375 Z M 4.453125 -2.59375 "/></g></g></g><g fill="#104e91" fill-opacity="1"><g transform="translate(206.886515, 37.587856)"><g><path d="M 3.125 -3.84375 C 3.695312 -3.84375 4.179688 -3.640625 4.578125 -3.234375 C 4.984375 -2.835938 5.1875 -2.351562 5.1875 -1.78125 C 5.1875 -1.21875 4.984375 -0.734375 4.578125 -0.328125 C 4.179688 0.0664062 3.695312 0.265625 3.125 0.265625 C 2.5625 0.265625 2.078125 0.0664062 1.671875 -0.328125 C 1.273438 -0.734375 1.078125 -1.21875 1.078125 -1.78125 C 1.078125 -2.351562 1.273438 -2.835938 1.671875 -3.234375 C 2.078125 -3.640625 2.5625 -3.84375 3.125 -3.84375 Z M 3.125 -3.84375 "/></g></g></g><g fill="#104e91" fill-opacity="1"><g transform="translate(213.143972, 37.587856)"><g><path d="M 8.953125 -3.046875 C 9.460938 -3.046875 9.957031 -3.125 10.4375 -3.28125 C 10.925781 -3.4375 11.285156 -3.585938 11.515625 -3.734375 L 11.859375 -3.96875 L 13.296875 -1.09375 C 13.242188 -1.0625 13.175781 -1.015625 13.09375 -0.953125 C 13.007812 -0.890625 12.8125 -0.773438 12.5 -0.609375 C 12.195312 -0.453125 11.875 -0.3125 11.53125 -0.1875 C 11.1875 -0.0703125 10.734375 0.03125 10.171875 0.125 C 9.609375 0.21875 9.03125 0.265625 8.4375 0.265625 C 7.0625 0.265625 5.753906 -0.0703125 4.515625 -0.75 C 3.285156 -1.425781 2.289062 -2.351562 1.53125 -3.53125 C 0.78125 -4.71875 0.40625 -6 0.40625 -7.375 C 0.40625 -8.414062 0.625 -9.410156 1.0625 -10.359375 C 1.507812 -11.316406 2.101562 -12.132812 2.84375 -12.8125 C 3.582031 -13.5 4.441406 -14.046875 5.421875 -14.453125 C 6.398438 -14.859375 7.40625 -15.0625 8.4375 -15.0625 C 9.382812 -15.0625 10.257812 -14.945312 11.0625 -14.71875 C 11.875 -14.5 12.453125 -14.273438 12.796875 -14.046875 L 13.296875 -13.703125 L 11.859375 -10.828125 C 11.773438 -10.898438 11.648438 -10.988281 11.484375 -11.09375 C 11.316406 -11.195312 10.976562 -11.332031 10.46875 -11.5 C 9.96875 -11.664062 9.460938 -11.75 8.953125 -11.75 C 8.140625 -11.75 7.410156 -11.613281 6.765625 -11.34375 C 6.117188 -11.082031 5.601562 -10.738281 5.21875 -10.3125 C 4.84375 -9.882812 4.554688 -9.421875 4.359375 -8.921875 C 4.171875 -8.421875 4.078125 -7.914062 4.078125 -7.40625 C 4.078125 -6.28125 4.492188 -5.269531 5.328125 -4.375 C 6.171875 -3.488281 7.378906 -3.046875 8.953125 -3.046875 Z M 8.953125 -3.046875 "/></g></g></g><g fill="#104e91" fill-opacity="1"><g transform="translate(226.645013, 37.587856)"><g><path d="M 1.9375 -1.09375 C 0.914062 -2 0.40625 -3.160156 0.40625 -4.578125 C 0.40625 -6.003906 0.9375 -7.175781 2 -8.09375 C 3.070312 -9.007812 4.390625 -9.46875 5.953125 -9.46875 C 7.492188 -9.46875 8.789062 -9.003906 9.84375 -8.078125 C 10.90625 -7.160156 11.4375 -5.992188 11.4375 -4.578125 C 11.4375 -3.171875 10.921875 -2.007812 9.890625 -1.09375 C 8.859375 -0.1875 7.546875 0.265625 5.953125 0.265625 C 4.304688 0.265625 2.96875 -0.1875 1.9375 -1.09375 Z M 4.390625 -6.15625 C 3.984375 -5.75 3.78125 -5.226562 3.78125 -4.59375 C 3.78125 -3.957031 3.976562 -3.4375 4.375 -3.03125 C 4.769531 -2.632812 5.289062 -2.4375 5.9375 -2.4375 C 6.5625 -2.4375 7.070312 -2.640625 7.46875 -3.046875 C 7.875 -3.453125 8.078125 -3.96875 8.078125 -4.59375 C 8.078125 -5.226562 7.867188 -5.75 7.453125 -6.15625 C 7.035156 -6.5625 6.53125 -6.765625 5.9375 -6.765625 C 5.320312 -6.765625 4.804688 -6.5625 4.390625 -6.15625 Z M 4.390625 -6.15625 "/></g></g></g><g fill="#104e91" fill-opacity="1"><g transform="translate(238.496524, 37.587856)"><g><path d="M 1.078125 0 L 1.078125 -9.203125 L 4.25 -9.203125 L 4.25 -8.234375 L 4.28125 -8.234375 C 5.113281 -9.054688 5.992188 -9.46875 6.921875 -9.46875 C 7.585938 -9.46875 8.210938 -9.328125 8.796875 -9.046875 C 9.390625 -8.773438 9.835938 -8.351562 10.140625 -7.78125 C 11.066406 -8.90625 12.082031 -9.46875 13.1875 -9.46875 C 14.164062 -9.46875 15.003906 -9.191406 15.703125 -8.640625 C 16.410156 -8.097656 16.765625 -7.238281 16.765625 -6.0625 L 16.765625 0 L 13.59375 0 L 13.59375 -5.203125 C 13.59375 -5.691406 13.457031 -6.097656 13.1875 -6.421875 C 12.925781 -6.753906 12.523438 -6.921875 11.984375 -6.921875 C 11.515625 -6.921875 11.15625 -6.78125 10.90625 -6.5 C 10.664062 -6.21875 10.535156 -5.878906 10.515625 -5.484375 L 10.515625 0 L 7.34375 0 L 7.34375 -5.203125 C 7.34375 -5.691406 7.207031 -6.097656 6.9375 -6.421875 C 6.664062 -6.753906 6.257812 -6.921875 5.71875 -6.921875 C 5.226562 -6.921875 4.859375 -6.769531 4.609375 -6.46875 C 4.367188 -6.164062 4.25 -5.800781 4.25 -5.375 L 4.25 0 Z M 1.078125 0 "/></g></g></g></svg>