<svg xmlns="http://www.w3.org/2000/svg" xmlns:xlink="http://www.w3.org/1999/xlink" width="406" zoomAndPan="magnify" viewBox="0 0 304.5 227.999995" height="304" preserveAspectRatio="xMidYMid meet" version="1.0"><defs><g/><clipPath id="54eba7d410"><path d="M 0 0.1875 L 304 0.1875 L 304 227.8125 L 0 227.8125 Z M 0 0.1875 " clip-rule="nonzero"/></clipPath></defs><g clip-path="url(#54eba7d410)"><path fill="#ffffff" d="M 0 0.1875 L 304.5 0.1875 L 304.5 235.6875 L 0 235.6875 Z M 0 0.1875 " fill-opacity="1" fill-rule="nonzero"/><path fill="#ffffff" d="M 0 0.1875 L 304.5 0.1875 L 304.5 228.1875 L 0 228.1875 Z M 0 0.1875 " fill-opacity="1" fill-rule="nonzero"/><path fill="#eaf8ff" d="M 0 0.1875 L 304.5 0.1875 L 304.5 228.1875 L 0 228.1875 Z M 0 0.1875 " fill-opacity="1" fill-rule="nonzero"/></g><path fill="#ffd2bb" d="M 140.242188 191.429688 C 140.242188 191.429688 142.074219 193.605469 140.453125 194.726562 C 138.949219 195.765625 135.699219 194.753906 133.886719 194.023438 L 133.703125 194.222656 C 133.539062 194.078125 133.394531 193.925781 133.285156 193.769531 C 132.566406 193.558594 131.761719 193.21875 130.914062 192.78125 C 131.078125 190.25 131.113281 187.894531 130.941406 186.011719 C 131.175781 186.308594 131.308594 186.484375 131.308594 186.484375 C 131.308594 186.484375 133.320312 188.679688 134.675781 190.695312 C 135.800781 189.648438 137.210938 188.632812 138.050781 188.640625 C 138.21875 188.640625 138.402344 188.742188 138.589844 188.90625 L 138.390625 189.121094 C 139.054688 190.007812 140.242188 191.429688 140.242188 191.429688 Z M 218.945312 120.78125 C 218.5625 120.890625 218.1875 121.027344 217.828125 121.1875 C 217.824219 121.191406 217.816406 121.191406 217.8125 121.195312 C 217.648438 121.269531 217.492188 121.347656 217.332031 121.429688 C 217.3125 121.441406 217.292969 121.449219 217.273438 121.457031 C 217.101562 121.550781 216.929688 121.652344 216.761719 121.757812 L 216.175781 118.527344 C 215.328125 118.953125 214.511719 119.234375 213.851562 119.3125 C 211.75 119.566406 211.796875 117.71875 211.769531 115.375 C 211.546875 115.359375 211.34375 115.320312 211.195312 115.257812 C 210.535156 114.980469 211.167969 114.363281 211.5 113.582031 C 211.546875 113.46875 211.605469 113.363281 211.671875 113.265625 C 211.664062 113.195312 211.65625 113.128906 211.648438 113.058594 C 211.53125 112.09375 211.621094 111.164062 211.867188 110.316406 L 211.90625 110.3125 C 212.164062 110.28125 215.414062 109.996094 215.101562 110.128906 C 214.640625 111.566406 214.71875 112.96875 215.347656 113.964844 C 216.703125 116.648438 217.855469 118.902344 218.945312 120.78125 Z M 213.421875 113.109375 C 213.394531 112.816406 213.226562 112.59375 213.042969 112.613281 C 212.863281 112.632812 212.738281 112.886719 212.769531 113.179688 C 212.800781 113.472656 212.964844 113.695312 213.148438 113.675781 C 213.324219 113.65625 213.449219 113.402344 213.421875 113.109375 Z M 132.105469 157.609375 C 131.039062 159.976562 130.273438 161.878906 128.246094 160.691406 C 127.34375 160.160156 126.308594 159.082031 125.402344 157.765625 L 123.886719 158.171875 L 117.773438 151.785156 L 122.230469 149.980469 C 122.234375 149.992188 122.234375 150.007812 122.238281 150.019531 C 122.300781 150.261719 122.375 150.5 122.457031 150.730469 C 122.515625 150.902344 122.585938 151.066406 122.65625 151.230469 C 122.78125 151.527344 122.917969 151.808594 123.066406 152.078125 C 123.089844 152.125 123.117188 152.179688 123.144531 152.226562 C 123.148438 152.234375 123.15625 152.246094 123.160156 152.257812 C 123.730469 153.226562 124.453125 153.996094 125.25 154.492188 C 125.636719 154.742188 126.042969 154.921875 126.453125 155.027344 C 126.488281 155.039062 126.515625 155.046875 126.550781 155.054688 C 126.550781 155.054688 126.550781 155.050781 126.550781 155.050781 C 126.339844 154.863281 126.164062 154.648438 126.027344 154.402344 C 125.882812 154.144531 125.789062 153.855469 125.753906 153.550781 C 125.65625 152.851562 125.960938 152.152344 126.664062 151.941406 C 127.550781 151.671875 128.472656 152.226562 128.875 153.003906 C 128.902344 153.054688 128.925781 153.105469 128.949219 153.160156 C 128.972656 153.222656 128.992188 153.289062 129.011719 153.355469 C 129.027344 153.40625 129.046875 153.453125 129.0625 153.507812 C 129.085938 153.601562 129.097656 153.699219 129.109375 153.796875 C 129.113281 153.820312 129.117188 153.839844 129.121094 153.863281 C 129.144531 154.101562 129.132812 154.347656 129.09375 154.589844 C 129.097656 154.589844 129.097656 154.589844 129.097656 154.589844 C 129.097656 154.589844 129.097656 154.59375 129.097656 154.59375 C 130.003906 153.980469 130.832031 152.546875 131.175781 151.121094 C 132.191406 151.941406 133.179688 152.730469 134.050781 153.421875 C 133.875 154.0625 133.613281 154.699219 133.253906 155.308594 C 133.214844 155.375 133.179688 155.441406 133.140625 155.507812 C 133.164062 155.636719 133.179688 155.769531 133.175781 155.90625 C 133.164062 156.847656 133.535156 157.753906 132.742188 157.746094 C 132.5625 157.742188 132.339844 157.695312 132.105469 157.609375 Z M 132.0625 154.9375 C 132.222656 154.652344 132.207031 154.335938 132.035156 154.238281 C 131.859375 154.140625 131.589844 154.292969 131.429688 154.574219 C 131.269531 154.859375 131.285156 155.175781 131.460938 155.273438 C 131.632812 155.371094 131.902344 155.21875 132.0625 154.9375 Z M 183.332031 129.777344 C 183.136719 129.742188 182.933594 129.722656 182.726562 129.722656 C 181.113281 129.722656 179.777344 130.855469 179.492188 132.347656 C 179.484375 132.375 179.480469 132.402344 179.476562 132.429688 C 179.445312 132.59375 179.429688 132.765625 179.429688 132.941406 C 179.429688 134.464844 180.511719 135.734375 181.96875 136.070312 C 182.210938 136.128906 182.464844 136.160156 182.726562 136.160156 C 183.707031 136.160156 184.585938 135.742188 185.191406 135.078125 C 185.269531 134.992188 185.34375 134.902344 185.414062 134.804688 C 185.59375 134.558594 185.738281 134.285156 185.84375 133.992188 C 185.960938 133.664062 186.027344 133.308594 186.027344 132.941406 C 186.027344 132.804688 186.015625 132.671875 186 132.539062 C 185.820312 131.148438 184.734375 130.03125 183.332031 129.777344 Z M 159.960938 170.984375 C 159.746094 170.875 159.519531 170.800781 159.308594 170.738281 C 158.804688 170.601562 158.382812 170.574219 158.382812 170.574219 C 158.382812 170.574219 158.074219 170.476562 157.636719 170.363281 C 157.140625 170.238281 156.484375 170.09375 155.917969 170.058594 C 155.445312 170.03125 155.035156 170.078125 154.851562 170.273438 C 154.554688 170.582031 154.355469 171.183594 154.230469 171.898438 L 152.355469 173.933594 C 150.445312 173.75 148.671875 173.730469 148.671875 173.730469 C 148.671875 173.730469 144.644531 173.355469 141.285156 173.273438 C 140.191406 173.246094 139.167969 173.25 138.378906 173.304688 C 138.378906 173.304688 138.375 173.304688 138.375 173.304688 C 138.375 173.308594 138.375 173.308594 138.375 173.308594 C 137.863281 173.34375 137.445312 173.402344 137.171875 173.492188 C 137.007812 173.546875 136.851562 173.613281 136.699219 173.683594 C 136.683594 173.691406 136.664062 173.699219 136.648438 173.710938 C 136.519531 173.769531 136.40625 173.839844 136.292969 173.917969 C 136.269531 173.929688 136.242188 173.945312 136.21875 173.957031 C 136.144531 174.007812 136.078125 174.066406 136.011719 174.121094 C 135.976562 174.148438 135.9375 174.175781 135.902344 174.207031 C 135.882812 174.21875 135.867188 174.230469 135.847656 174.246094 C 135.835938 174.257812 135.824219 174.273438 135.808594 174.285156 C 135.71875 174.371094 135.628906 174.460938 135.546875 174.550781 C 135.539062 174.558594 135.53125 174.566406 135.527344 174.574219 C 135.429688 174.683594 135.339844 174.800781 135.253906 174.921875 C 135.253906 174.921875 135.25 174.925781 135.25 174.929688 C 135.164062 175.050781 135.089844 175.175781 135.023438 175.304688 C 135.019531 175.308594 135.015625 175.3125 135.015625 175.320312 C 134.957031 175.425781 134.90625 175.539062 134.859375 175.652344 C 134.851562 175.671875 134.839844 175.691406 134.832031 175.710938 C 134.832031 175.71875 134.828125 175.722656 134.828125 175.726562 C 134.761719 175.886719 134.710938 176.046875 134.667969 176.214844 C 134.65625 176.261719 134.644531 176.3125 134.632812 176.359375 C 134.605469 176.480469 134.582031 176.597656 134.5625 176.71875 C 134.554688 176.773438 134.546875 176.832031 134.542969 176.886719 C 134.527344 177.007812 134.519531 177.128906 134.515625 177.246094 C 134.511719 177.296875 134.507812 177.347656 134.507812 177.394531 C 134.507812 177.730469 134.539062 178.058594 134.609375 178.375 C 134.617188 178.421875 134.632812 178.46875 134.644531 178.515625 C 134.671875 178.625 134.703125 178.730469 134.738281 178.835938 C 134.757812 178.886719 134.773438 178.9375 134.792969 178.988281 C 134.832031 179.089844 134.878906 179.1875 134.925781 179.28125 C 134.949219 179.324219 134.96875 179.367188 134.988281 179.410156 C 135.0625 179.539062 135.144531 179.667969 135.230469 179.785156 C 135.363281 179.910156 135.503906 180.007812 135.660156 180.058594 C 136.230469 180.253906 137.03125 180.375 137.988281 180.441406 C 138.285156 180.460938 138.59375 180.472656 138.917969 180.480469 C 141.199219 180.53125 144.117188 180.292969 146.945312 179.816406 C 147.773438 179.675781 148.589844 179.519531 149.382812 179.339844 C 149.9375 179.214844 150.484375 179.082031 151.007812 178.9375 C 151.628906 178.769531 152.226562 178.589844 152.785156 178.394531 C 153.011719 178.316406 153.226562 178.238281 153.4375 178.15625 C 154.160156 177.878906 154.808594 177.578125 155.347656 177.257812 C 156.144531 177.363281 157.21875 177.070312 158.214844 176.46875 C 158.929688 176.039062 159.601562 175.445312 160.105469 174.71875 C 160.484375 174.175781 160.761719 173.558594 160.894531 172.882812 C 160.90625 172.8125 160.925781 172.742188 160.9375 172.671875 C 161.066406 171.792969 160.558594 171.28125 159.960938 170.984375 Z M 159.960938 170.984375 " fill-opacity="1" fill-rule="nonzero"/><path fill="#e84393" d="M 213.546875 172.53125 C 212.292969 173.449219 211.003906 174.316406 209.679688 175.097656 C 210.152344 176.609375 210.414062 178.527344 210.378906 180.667969 C 210.300781 185.515625 206.367188 207.09375 205.53125 211.625 C 205.433594 212.164062 205.378906 212.464844 205.378906 212.464844 C 205.378906 212.464844 201.910156 187.84375 201.996094 182.421875 C 202.023438 180.839844 202.207031 179.3125 202.511719 177.929688 C 201.925781 177.328125 203.324219 174.578125 205.53125 171.066406 C 206.617188 169.34375 207.898438 167.433594 209.234375 165.507812 C 209.238281 165.511719 210.828125 169.246094 213.546875 172.53125 Z M 222.824219 181.519531 C 222.546875 180.550781 222.199219 179.65625 221.800781 178.863281 C 221.984375 178.585938 222.164062 178.308594 222.34375 178.035156 C 221.023438 177.695312 219.65625 177.210938 218.289062 176.535156 C 216.984375 175.890625 215.789062 174.929688 214.726562 173.84375 C 215.027344 176.027344 215.382812 178.183594 215.785156 180.082031 C 215.621094 181.847656 215.804688 183.882812 216.378906 185.902344 C 217.742188 190.671875 227.3125 212.464844 227.3125 212.464844 C 227.3125 212.464844 224.1875 186.289062 222.824219 181.519531 Z M 117.773438 151.785156 L 117.710938 151.71875 C 117.710938 151.71875 116.488281 150.300781 113.644531 151.871094 C 112.671875 152.410156 103.222656 161.367188 95.9375 168.335938 C 92.796875 171.339844 90.0625 173.96875 88.574219 175.402344 C 87.820312 176.128906 87.386719 176.546875 87.386719 176.546875 C 87.308594 176.644531 81.546875 183.214844 84.257812 198.183594 C 84.304688 198.214844 84.785156 203.1875 85.769531 208.15625 C 81.0625 207.597656 74.535156 207.363281 74.535156 207.363281 L 63.867188 208.777344 L 72.21875 212.90625 C 78.640625 215.546875 86.535156 218.386719 90.164062 218.109375 C 90.355469 218.132812 90.558594 218.117188 90.761719 218.046875 C 90.980469 217.976562 91.199219 217.859375 91.410156 217.710938 C 95.023438 215.160156 97.34375 201.941406 98.308594 195.203125 C 98.648438 192.820312 98.820312 191.25 98.820312 191.25 C 98.820312 191.25 112.257812 189.6875 121.636719 187.441406 C 121.769531 189.558594 122.324219 192.832031 122.863281 195.65625 C 123.445312 198.683594 124.003906 201.195312 124.003906 201.195312 L 124.277344 201.917969 L 125.585938 205.226562 L 128.445312 212.464844 C 128.679688 210.703125 129.433594 205.199219 130.050781 200.371094 L 130.03125 200.390625 C 130.210938 198.902344 130.429688 197.128906 130.601562 195.65625 C 130.765625 194.25 130.894531 193.117188 130.914062 192.78125 C 131.074219 190.253906 131.113281 187.894531 130.941406 186.011719 C 130.855469 185.046875 130.710938 184.207031 130.503906 183.535156 C 130.535156 183.371094 130.523438 183.207031 130.453125 183.039062 C 129.546875 180.824219 127.15625 179.226562 124.007812 178.164062 C 123.203125 177.894531 122.355469 177.660156 121.464844 177.460938 C 118.195312 176.71875 114.421875 176.433594 110.730469 176.539062 C 111.117188 176.347656 116.613281 173.613281 120.59375 169.605469 C 120.808594 169.824219 134.03125 179.792969 135.234375 179.792969 C 135.234375 179.789062 135.234375 179.789062 135.230469 179.785156 C 135.140625 179.667969 135.0625 179.542969 134.988281 179.410156 C 134.964844 179.371094 134.949219 179.324219 134.925781 179.285156 C 134.878906 179.1875 134.832031 179.089844 134.792969 178.988281 C 134.773438 178.9375 134.753906 178.890625 134.738281 178.835938 C 134.703125 178.734375 134.671875 178.625 134.644531 178.515625 C 134.632812 178.46875 134.617188 178.421875 134.609375 178.375 C 134.539062 178.058594 134.507812 177.730469 134.507812 177.394531 C 134.507812 177.347656 134.511719 177.296875 134.515625 177.25 C 134.519531 177.128906 134.527344 177.007812 134.542969 176.886719 C 134.546875 176.832031 134.554688 176.777344 134.5625 176.71875 C 134.582031 176.601562 134.605469 176.480469 134.632812 176.363281 C 134.644531 176.3125 134.65625 176.261719 134.667969 176.214844 C 134.714844 176.046875 134.765625 175.878906 134.832031 175.714844 C 134.839844 175.695312 134.851562 175.675781 134.859375 175.65625 C 134.910156 175.535156 134.960938 175.417969 135.023438 175.308594 C 135.023438 175.304688 135.023438 175.304688 135.023438 175.304688 C 135.089844 175.175781 135.164062 175.054688 135.246094 174.933594 C 135.25 174.929688 135.253906 174.925781 135.253906 174.921875 C 135.253906 174.921875 135.257812 174.917969 135.257812 174.917969 C 135.339844 174.800781 135.429688 174.683594 135.523438 174.574219 C 135.523438 174.574219 135.523438 174.574219 135.527344 174.574219 C 135.613281 174.472656 135.710938 174.378906 135.808594 174.289062 C 135.824219 174.277344 135.835938 174.261719 135.847656 174.25 C 135.863281 174.234375 135.882812 174.222656 135.898438 174.207031 C 135.902344 174.207031 135.902344 174.207031 135.902344 174.207031 C 135.9375 174.175781 135.976562 174.152344 136.011719 174.121094 C 136.203125 173.96875 136.410156 173.828125 136.644531 173.710938 C 136.664062 173.703125 136.679688 173.695312 136.699219 173.6875 C 136.847656 173.613281 137.003906 173.546875 137.171875 173.492188 C 137.445312 173.40625 137.863281 173.347656 138.375 173.308594 L 123.886719 158.171875 Z M 138.226562 154.375 L 135.996094 151.671875 C 136.4375 150.726562 136.6875 149.667969 136.6875 148.554688 C 136.6875 147.316406 136.386719 146.148438 135.847656 145.125 C 134.621094 142.773438 132.167969 141.171875 129.335938 141.171875 C 128.171875 141.171875 127.0625 141.445312 126.082031 141.933594 C 125.664062 142.140625 125.265625 142.390625 124.894531 142.671875 C 124.410156 143.042969 123.972656 143.472656 123.59375 143.953125 C 123.472656 144.113281 123.363281 144.273438 123.261719 144.433594 C 123.5625 144.941406 127.550781 148.207031 131.175781 151.121094 C 131.175781 151.121094 131.175781 151.125 131.175781 151.125 C 132.191406 151.941406 133.179688 152.730469 134.050781 153.421875 C 135.847656 154.851562 137.140625 155.875 137.140625 155.875 C 137.578125 156.164062 138.179688 156.066406 138.476562 155.652344 C 138.777344 155.238281 138.664062 154.664062 138.226562 154.375 Z M 138.226562 154.375 " fill-opacity="1" fill-rule="nonzero"/><path fill="#fbc02d" d="M 222.34375 178.035156 C 221.019531 177.695312 219.65625 177.210938 218.289062 176.535156 C 216.984375 175.890625 215.789062 174.929688 214.726562 173.84375 C 214.3125 173.421875 213.917969 172.980469 213.546875 172.53125 C 210.828125 169.246094 209.234375 165.511719 209.234375 165.507812 C 209.234375 165.507812 218.679688 149.4375 217.671875 146.878906 C 216.335938 143.46875 214.53125 139.375 213.390625 138.832031 C 213.316406 138.894531 213.246094 138.957031 213.171875 139.019531 C 210.195312 141.570312 207.203125 143.820312 205.53125 144.328125 C 205.046875 144.476562 204.667969 144.476562 204.441406 144.289062 C 204.390625 144.25 201.601562 143.066406 198.171875 141.511719 C 194.511719 139.851562 190.121094 137.773438 187.535156 136.207031 C 186.714844 135.707031 185.992188 135.234375 185.414062 134.804688 C 185.59375 134.558594 185.738281 134.285156 185.84375 133.992188 C 185.960938 133.664062 186.027344 133.308594 186.027344 132.941406 C 186.027344 132.804688 186.015625 132.671875 186 132.539062 C 187.234375 132.574219 188.925781 132.800781 190.796875 133.128906 C 193.15625 133.539062 195.796875 134.117188 198.171875 134.675781 C 201.375 135.429688 204.09375 136.160156 204.96875 136.425781 C 205.164062 136.484375 205.351562 136.554688 205.53125 136.628906 C 205.917969 136.792969 206.28125 136.984375 206.609375 137.210938 C 206.832031 136.785156 207.066406 136.355469 207.308594 135.921875 C 209.3125 132.292969 211.785156 128.433594 213.175781 126.363281 C 213.796875 124.441406 215.082031 122.8125 216.761719 121.757812 C 216.929688 121.652344 217.097656 121.550781 217.273438 121.460938 C 217.292969 121.449219 217.3125 121.441406 217.332031 121.429688 C 217.488281 121.347656 217.648438 121.269531 217.8125 121.195312 C 217.816406 121.191406 217.820312 121.191406 217.828125 121.1875 C 218.1875 121.027344 218.5625 120.890625 218.945312 120.78125 C 222.066406 126.152344 224.65625 128.402344 229.824219 128.597656 C 230.167969 130.816406 230.320312 134.054688 229.5625 138.164062 C 228.011719 146.589844 233.46875 178.164062 233.46875 178.164062 C 233.46875 178.164062 228.351562 179.582031 222.34375 178.035156 Z M 218.292969 217.96875 C 218.285156 217.972656 218.304688 217.96875 218.304688 217.96875 L 229.5625 217.96875 L 227.308594 212.464844 C 222.421875 215.277344 218.484375 217.84375 218.292969 217.96875 Z M 205.378906 212.464844 C 200.488281 215.277344 196.550781 217.84375 196.359375 217.96875 C 196.355469 217.972656 196.371094 217.96875 196.371094 217.96875 L 207.628906 217.96875 L 205.53125 212.84375 Z M 56.285156 216.101562 C 56.285156 216.101562 56.277344 216.117188 56.28125 216.113281 C 56.449219 215.957031 59.90625 212.792969 63.867188 208.777344 L 59.066406 205.191406 Z M 126.191406 217.96875 L 137.453125 217.96875 C 137.453125 217.96875 137.46875 217.972656 137.464844 217.96875 C 137.273438 217.84375 133.332031 215.277344 128.445312 212.464844 Z M 129.992188 122.550781 C 130.28125 122.066406 130.449219 121.507812 130.449219 120.902344 C 130.449219 120.878906 130.449219 120.859375 130.449219 120.835938 C 130.414062 119.089844 128.984375 117.679688 127.230469 117.679688 C 125.449219 117.679688 124.007812 119.125 124.007812 120.902344 C 124.007812 122.683594 125.449219 124.125 127.230469 124.125 C 128.40625 124.125 129.433594 123.492188 129.992188 122.550781 Z M 143.832031 101.878906 C 142.570312 101.878906 141.476562 102.609375 140.949219 103.667969 C 140.734375 104.097656 140.609375 104.585938 140.609375 105.101562 C 140.609375 105.230469 140.621094 105.355469 140.632812 105.480469 C 140.820312 107.078125 142.179688 108.324219 143.832031 108.324219 C 145.613281 108.324219 147.054688 106.878906 147.054688 105.101562 C 147.054688 103.320312 145.613281 101.878906 143.832031 101.878906 Z M 167.496094 118.640625 C 167.238281 118.574219 166.96875 118.535156 166.695312 118.535156 C 166.324219 118.535156 165.972656 118.601562 165.640625 118.714844 C 164.378906 119.152344 163.472656 120.347656 163.472656 121.757812 C 163.472656 123.535156 164.914062 124.980469 166.695312 124.980469 C 168.472656 124.980469 169.914062 123.535156 169.914062 121.757812 C 169.914062 120.253906 168.886719 118.996094 167.496094 118.640625 Z M 181.71875 126.375 C 181.257812 126.121094 180.726562 125.976562 180.164062 125.976562 C 178.496094 125.976562 177.125 127.246094 176.960938 128.871094 C 176.949219 128.976562 176.941406 129.089844 176.941406 129.199219 C 176.941406 129.730469 177.074219 130.234375 177.304688 130.675781 C 177.742188 131.519531 178.535156 132.144531 179.492188 132.347656 C 179.777344 130.855469 181.113281 129.722656 182.726562 129.722656 C 182.933594 129.722656 183.136719 129.742188 183.332031 129.777344 C 183.367188 129.589844 183.386719 129.394531 183.386719 129.199219 C 183.386719 128.652344 183.25 128.136719 183.007812 127.683594 C 182.714844 127.132812 182.265625 126.679688 181.71875 126.375 Z M 160.371094 96.296875 C 160.445312 96.023438 160.492188 95.734375 160.492188 95.433594 C 160.492188 95.09375 160.4375 94.765625 160.339844 94.457031 C 159.925781 93.15625 158.707031 92.210938 157.269531 92.210938 C 155.488281 92.210938 154.046875 93.65625 154.046875 95.433594 C 154.046875 97.214844 155.488281 98.65625 157.269531 98.65625 C 158.75 98.65625 159.992188 97.65625 160.371094 96.296875 Z M 161.695312 131.722656 C 159.914062 131.722656 158.472656 133.164062 158.472656 134.941406 C 158.472656 136.722656 159.914062 138.164062 161.695312 138.164062 C 161.863281 138.164062 162.023438 138.148438 162.183594 138.125 C 162.820312 138.027344 163.390625 137.746094 163.847656 137.335938 C 164.503906 136.746094 164.917969 135.894531 164.917969 134.941406 C 164.917969 133.164062 163.472656 131.722656 161.695312 131.722656 Z M 180.164062 170.636719 C 179.996094 170.636719 179.835938 170.65625 179.671875 170.679688 C 179.039062 170.777344 178.46875 171.058594 178.011719 171.46875 C 177.574219 171.863281 177.246094 172.375 177.074219 172.953125 C 176.988281 173.242188 176.941406 173.546875 176.941406 173.859375 C 176.941406 174.175781 176.992188 174.480469 177.074219 174.765625 C 177.464844 176.105469 178.699219 177.082031 180.164062 177.082031 C 181.945312 177.082031 183.386719 175.640625 183.386719 173.859375 C 183.386719 172.082031 181.945312 170.636719 180.164062 170.636719 Z M 160.097656 170.636719 C 159.824219 170.636719 159.558594 170.675781 159.308594 170.738281 C 159.519531 170.800781 159.746094 170.875 159.960938 170.984375 C 160.558594 171.28125 161.066406 171.792969 160.9375 172.671875 C 160.925781 172.746094 160.90625 172.8125 160.894531 172.882812 C 160.761719 173.5625 160.484375 174.179688 160.105469 174.71875 C 159.601562 175.445312 158.929688 176.039062 158.214844 176.472656 C 158.742188 176.855469 159.390625 177.082031 160.097656 177.082031 C 161.574219 177.082031 162.816406 176.085938 163.195312 174.730469 C 163.273438 174.453125 163.316406 174.164062 163.316406 173.859375 C 163.316406 173.523438 163.265625 173.195312 163.167969 172.890625 C 162.757812 171.585938 161.539062 170.636719 160.097656 170.636719 Z M 160.097656 170.636719 " fill-opacity="1" fill-rule="nonzero"/><path fill="#0984e3" d="M 205.535156 58.066406 L 205.535156 136.628906 C 205.351562 136.554688 205.164062 136.484375 204.96875 136.421875 C 204.09375 136.160156 201.375 135.429688 198.171875 134.675781 L 198.171875 66.308594 C 198.171875 64.339844 196.105469 62.742188 193.554688 62.742188 L 100.550781 62.742188 C 98.003906 62.742188 95.9375 64.339844 95.9375 66.308594 L 95.9375 168.335938 C 92.796875 171.339844 90.0625 173.96875 88.574219 175.402344 L 88.574219 58.066406 C 88.574219 55.625 90.9375 53.648438 93.855469 53.648438 L 200.253906 53.648438 C 203.167969 53.648438 205.535156 55.625 205.535156 58.066406 Z M 205.535156 144.328125 L 205.535156 171.066406 C 203.324219 174.578125 201.925781 177.328125 202.511719 177.929688 C 202.207031 179.3125 202.023438 180.839844 201.996094 182.421875 C 201.910156 187.84375 205.378906 212.464844 205.378906 212.464844 C 200.488281 215.277344 196.550781 217.84375 196.359375 217.96875 C 196.355469 217.972656 196.371094 217.96875 196.371094 217.96875 L 201.980469 217.96875 C 201.4375 218.125 200.859375 218.214844 200.253906 218.214844 L 93.855469 218.214844 C 92.972656 218.214844 92.140625 218.03125 91.410156 217.710938 C 95.023438 215.160156 97.34375 201.941406 98.308594 195.203125 C 98.972656 195.492188 99.738281 195.65625 100.550781 195.65625 L 122.863281 195.65625 C 123.445312 198.683594 124.007812 201.195312 124.007812 201.195312 L 124.277344 201.917969 L 125.585938 205.226562 L 128.445312 212.464844 L 126.191406 217.96875 L 137.453125 217.96875 C 137.453125 217.96875 137.46875 217.972656 137.464844 217.96875 C 137.273438 217.84375 133.332031 215.277344 128.445312 212.464844 C 128.679688 210.703125 129.433594 205.199219 130.050781 200.371094 L 130.03125 200.390625 C 130.214844 198.902344 130.429688 197.128906 130.601562 195.65625 L 193.554688 195.65625 C 196.105469 195.65625 198.171875 194.058594 198.171875 192.089844 L 198.171875 141.511719 C 201.601562 143.066406 204.390625 144.25 204.441406 144.289062 C 204.671875 144.476562 205.046875 144.476562 205.535156 144.328125 Z M 150.355469 207.753906 C 150.355469 205.929688 148.875 204.453125 147.054688 204.453125 C 145.234375 204.453125 143.753906 205.929688 143.753906 207.753906 C 143.753906 209.574219 145.234375 211.050781 147.054688 211.050781 C 148.875 211.050781 150.355469 209.574219 150.355469 207.753906 Z M 205.535156 211.625 C 205.433594 212.164062 205.378906 212.464844 205.378906 212.464844 L 205.535156 212.84375 Z M 235.414062 117.671875 C 232.289062 115.097656 230.816406 116.660156 227.875 113.351562 C 225.382812 110.546875 223.90625 107.339844 223.515625 106.421875 C 223.480469 106.335938 223.445312 106.25 223.40625 106.164062 C 222.746094 104.6875 221.289062 103.421875 218.125 103.535156 L 218.105469 103.535156 C 218.046875 103.542969 217.984375 103.546875 217.921875 103.558594 C 216.664062 103.707031 217.125 103.8125 216.023438 103.992188 C 215.808594 104.03125 215.535156 104.144531 215.171875 104.109375 C 208.742188 103.527344 210.082031 110.511719 211.867188 110.320312 L 211.867188 110.316406 L 211.90625 110.3125 C 212.164062 110.28125 215.417969 109.996094 215.101562 110.128906 C 214.640625 111.566406 214.71875 112.96875 215.347656 113.964844 C 216.703125 116.648438 217.855469 118.902344 218.945312 120.78125 C 222.066406 126.152344 224.660156 128.402344 229.824219 128.597656 C 229.992188 128.605469 230.15625 128.617188 230.328125 128.617188 C 238.230469 128.710938 238.542969 120.25 235.414062 117.671875 Z M 213.042969 112.613281 C 212.863281 112.632812 212.738281 112.886719 212.769531 113.179688 C 212.796875 113.472656 212.964844 113.695312 213.148438 113.675781 C 213.324219 113.65625 213.449219 113.402344 213.421875 113.109375 C 213.394531 112.816406 213.226562 112.59375 213.042969 112.613281 Z M 131.429688 154.574219 C 131.269531 154.859375 131.285156 155.175781 131.460938 155.273438 C 131.632812 155.371094 131.902344 155.21875 132.0625 154.9375 C 132.222656 154.652344 132.207031 154.335938 132.035156 154.238281 C 131.859375 154.140625 131.589844 154.292969 131.429688 154.574219 Z M 129.097656 154.589844 C 130.003906 153.976562 130.828125 152.546875 131.175781 151.121094 C 127.550781 148.207031 123.5625 144.941406 123.261719 144.433594 C 123.078125 144.722656 122.917969 145.011719 122.78125 145.289062 C 121.988281 146.898438 122.003906 149.054688 122.230469 149.976562 C 122.230469 149.980469 122.230469 149.980469 122.230469 149.980469 C 122.234375 149.992188 122.234375 150.007812 122.238281 150.019531 C 122.300781 150.261719 122.375 150.496094 122.453125 150.730469 C 122.515625 150.902344 122.585938 151.066406 122.65625 151.230469 C 122.78125 151.523438 122.917969 151.808594 123.066406 152.078125 C 123.089844 152.125 123.117188 152.175781 123.144531 152.222656 C 123.148438 152.234375 123.152344 152.246094 123.160156 152.257812 C 123.726562 153.222656 124.453125 153.992188 125.25 154.488281 C 125.636719 154.738281 126.042969 154.917969 126.453125 155.027344 C 126.488281 155.035156 126.515625 155.042969 126.550781 155.050781 C 126.339844 154.863281 126.164062 154.648438 126.027344 154.398438 C 125.882812 154.140625 125.789062 153.855469 125.75 153.550781 C 125.65625 152.851562 125.960938 152.152344 126.664062 151.9375 C 127.550781 151.667969 128.472656 152.222656 128.875 153.003906 C 128.902344 153.054688 128.925781 153.105469 128.949219 153.160156 C 128.972656 153.222656 128.992188 153.289062 129.011719 153.351562 C 129.027344 153.402344 129.046875 153.453125 129.0625 153.503906 C 129.082031 153.601562 129.097656 153.699219 129.109375 153.796875 C 129.113281 153.816406 129.117188 153.839844 129.121094 153.863281 C 129.140625 154.101562 129.132812 154.347656 129.09375 154.589844 C 129.097656 154.589844 129.097656 154.589844 129.097656 154.589844 Z M 182.316406 105.597656 C 182.316406 107.273438 181.9375 108.917969 181.214844 110.417969 C 184.394531 112.449219 186.335938 115.953125 186.335938 119.769531 C 186.335938 122.867188 185.058594 125.667969 183.007812 127.683594 C 182.714844 127.132812 182.265625 126.675781 181.71875 126.375 C 183.429688 124.695312 184.496094 122.355469 184.496094 119.769531 C 184.496094 116.328125 182.605469 113.191406 179.558594 111.578125 C 179.335938 111.457031 179.171875 111.253906 179.101562 111.015625 C 179.035156 110.773438 179.070312 110.511719 179.195312 110.296875 C 180.03125 108.878906 180.476562 107.253906 180.476562 105.597656 C 180.476562 100.488281 176.320312 96.332031 171.210938 96.332031 L 170.105469 96.332031 C 170.042969 96.347656 169.980469 96.355469 169.914062 96.355469 C 169.914062 96.355469 169.910156 96.355469 169.910156 96.355469 L 166.535156 96.332031 L 165.132812 96.332031 C 165.101562 96.332031 165.074219 96.328125 165.042969 96.324219 L 160.371094 96.296875 C 160.449219 96.023438 160.492188 95.734375 160.492188 95.433594 C 160.492188 95.09375 160.4375 94.765625 160.339844 94.457031 L 164.171875 94.480469 C 163.738281 89.777344 159.769531 86.078125 154.949219 86.078125 L 142.691406 86.078125 C 139.691406 86.078125 136.933594 87.519531 135.214844 89.875 C 134.226562 91.308594 133.644531 93.042969 133.644531 94.914062 C 133.644531 99.273438 136.800781 102.914062 140.949219 103.667969 C 140.734375 104.097656 140.609375 104.585938 140.609375 105.097656 C 140.609375 105.226562 140.621094 105.355469 140.632812 105.476562 C 139.902344 105.347656 139.199219 105.140625 138.527344 104.867188 C 140.183594 106.757812 141.191406 109.230469 141.191406 111.9375 C 141.191406 117.859375 136.371094 122.675781 130.449219 122.675781 C 130.285156 122.675781 130.128906 122.628906 129.992188 122.550781 C 130.28125 122.066406 130.449219 121.503906 130.449219 120.902344 C 130.449219 120.878906 130.449219 120.859375 130.449219 120.835938 C 135.359375 120.835938 139.351562 116.84375 139.351562 111.9375 C 139.351562 107.027344 135.359375 103.035156 130.449219 103.035156 L 114.339844 103.035156 C 113.984375 103.035156 113.679688 102.832031 113.527344 102.535156 C 108.960938 103.105469 105.414062 107.007812 105.414062 111.726562 C 105.414062 116.835938 109.570312 120.992188 114.679688 120.992188 L 115.371094 120.992188 C 115.753906 120.992188 116.097656 121.230469 116.234375 121.589844 C 117.582031 125.183594 121.070312 127.601562 124.910156 127.601562 L 128.941406 127.601562 C 129.429688 127.601562 129.835938 127.988281 129.859375 128.476562 C 130.089844 133.425781 134.152344 137.304688 139.113281 137.304688 C 141.804688 137.304688 144.363281 136.132812 146.128906 134.085938 C 146.128906 134.085938 146.132812 134.082031 146.136719 134.078125 L 146.136719 120.238281 C 146.136719 114.316406 150.953125 109.5 156.875 109.5 C 162.253906 109.5 166.71875 113.472656 167.496094 118.636719 C 167.238281 118.574219 166.972656 118.535156 166.695312 118.535156 C 166.324219 118.535156 165.972656 118.597656 165.640625 118.714844 C 164.914062 114.53125 161.261719 111.339844 156.875 111.339844 C 151.96875 111.339844 147.976562 115.332031 147.976562 120.238281 L 147.976562 135.289062 C 149.289062 138.925781 152.753906 141.398438 156.6875 141.398438 C 157.101562 141.398438 157.535156 141.367188 157.96875 141.308594 C 158.011719 141.304688 158.050781 141.300781 158.09375 141.300781 C 158.464844 141.300781 158.808594 141.527344 158.949219 141.878906 L 162.492188 150.757812 C 163.472656 153.222656 165.824219 154.816406 168.476562 154.816406 C 169 154.816406 169.511719 154.746094 170.015625 154.621094 L 162.1875 138.121094 C 162.820312 138.023438 163.394531 137.742188 163.847656 137.332031 L 171.726562 153.929688 C 172.910156 153.238281 173.847656 152.199219 174.398438 150.914062 C 175.078125 149.332031 175.101562 147.582031 174.460938 145.980469 L 168.203125 130.292969 C 168.089844 130.011719 168.125 129.691406 168.296875 129.4375 C 168.46875 129.183594 168.753906 129.035156 169.058594 129.035156 L 175.230469 129.035156 C 175.820312 129.035156 176.398438 128.976562 176.960938 128.871094 C 176.949219 128.976562 176.945312 129.085938 176.945312 129.199219 C 176.945312 129.730469 177.074219 130.234375 177.304688 130.675781 C 176.632812 130.804688 175.9375 130.875 175.230469 130.875 L 170.414062 130.875 L 176.171875 145.300781 C 176.992188 147.355469 176.960938 149.605469 176.085938 151.640625 C 175.359375 153.339844 174.105469 154.710938 172.515625 155.59375 L 179.671875 170.679688 C 179.039062 170.777344 178.46875 171.058594 178.011719 171.46875 L 170.820312 156.316406 C 170.058594 156.542969 169.273438 156.65625 168.476562 156.65625 C 165.066406 156.65625 162.046875 154.609375 160.78125 151.4375 L 157.496094 143.207031 C 157.222656 143.226562 156.953125 143.238281 156.6875 143.238281 C 152.464844 143.238281 148.695312 140.863281 146.820312 137.234375 C 146.507812 137.152344 146.261719 136.914062 146.175781 136.601562 C 144.199219 138.230469 141.710938 139.140625 139.113281 139.140625 C 133.464844 139.140625 128.785156 134.945312 128.09375 129.4375 L 124.910156 129.4375 C 120.519531 129.4375 116.519531 126.808594 114.753906 122.832031 L 114.679688 122.832031 C 108.554688 122.832031 103.574219 117.847656 103.574219 111.726562 C 103.574219 105.882812 108.105469 101.082031 113.839844 100.652344 C 114.292969 94.941406 119.085938 90.4375 124.90625 90.4375 L 132.726562 90.4375 C 132.988281 89.902344 133.296875 89.402344 133.632812 88.925781 C 135.5625 86.058594 138.835938 84.171875 142.542969 84.171875 C 142.664062 84.171875 142.773438 84.195312 142.878906 84.238281 L 154.949219 84.238281 C 160.785156 84.238281 165.585938 88.761719 166.019531 94.488281 L 166.546875 94.492188 L 171.210938 94.492188 C 177.332031 94.496094 182.316406 99.476562 182.316406 105.597656 Z M 131.804688 94.914062 C 131.804688 94.003906 131.917969 93.121094 132.132812 92.277344 L 124.910156 92.277344 C 119.914062 92.277344 115.835938 96.246094 115.652344 101.199219 L 130.449219 101.199219 C 131.871094 101.199219 133.226562 101.476562 134.46875 101.980469 C 132.8125 100.089844 131.804688 97.617188 131.804688 94.914062 Z M 176.945312 172.941406 L 163.167969 172.890625 C 163.265625 173.195312 163.316406 173.523438 163.316406 173.859375 C 163.316406 174.164062 163.273438 174.453125 163.195312 174.730469 L 176.941406 174.78125 C 176.988281 174.78125 177.03125 174.773438 177.074219 174.765625 C 176.988281 174.480469 176.941406 174.175781 176.941406 173.859375 C 176.941406 173.542969 176.992188 173.242188 177.074219 172.953125 C 177.03125 172.949219 176.988281 172.941406 176.945312 172.941406 Z M 176.945312 172.941406 " fill-opacity="1" fill-rule="nonzero"/><g fill="#000000" fill-opacity="1"><g transform="translate(48.200565, 37.587856)"><g><path d="M 0.40625 -7.40625 C 0.40625 -9.550781 1.132812 -11.363281 2.59375 -12.84375 C 4.0625 -14.320312 5.820312 -15.0625 7.875 -15.0625 C 9.945312 -15.0625 11.703125 -14.320312 13.140625 -12.84375 C 14.585938 -11.375 15.3125 -9.5625 15.3125 -7.40625 C 15.3125 -5.238281 14.597656 -3.414062 13.171875 -1.9375 C 11.753906 -0.46875 9.988281 0.265625 7.875 0.265625 C 5.707031 0.265625 3.921875 -0.460938 2.515625 -1.921875 C 1.109375 -3.390625 0.40625 -5.21875 0.40625 -7.40625 Z M 4.046875 -7.40625 C 4.046875 -6.632812 4.164062 -5.925781 4.40625 -5.28125 C 4.644531 -4.644531 5.0625 -4.101562 5.65625 -3.65625 C 6.257812 -3.21875 7 -3 7.875 -3 C 9.132812 -3 10.082031 -3.425781 10.71875 -4.28125 C 11.351562 -5.144531 11.671875 -6.1875 11.671875 -7.40625 C 11.671875 -8.613281 11.34375 -9.648438 10.6875 -10.515625 C 10.039062 -11.390625 9.101562 -11.828125 7.875 -11.828125 C 6.65625 -11.828125 5.710938 -11.390625 5.046875 -10.515625 C 4.378906 -9.648438 4.046875 -8.613281 4.046875 -7.40625 Z M 4.046875 -7.40625 "/></g></g></g><g fill="#000000" fill-opacity="1"><g transform="translate(63.924883, 37.587856)"><g><path d="M 1.078125 0 L 1.078125 -9.203125 L 4.25 -9.203125 L 4.25 -8.234375 L 4.28125 -8.234375 C 5.113281 -9.054688 5.992188 -9.46875 6.921875 -9.46875 C 7.378906 -9.46875 7.832031 -9.40625 8.28125 -9.28125 C 8.726562 -9.164062 9.15625 -8.984375 9.5625 -8.734375 C 9.976562 -8.484375 10.3125 -8.128906 10.5625 -7.671875 C 10.820312 -7.210938 10.953125 -6.675781 10.953125 -6.0625 L 10.953125 0 L 7.78125 0 L 7.78125 -5.203125 C 7.78125 -5.679688 7.628906 -6.097656 7.328125 -6.453125 C 7.023438 -6.816406 6.628906 -7 6.140625 -7 C 5.660156 -7 5.222656 -6.8125 4.828125 -6.4375 C 4.441406 -6.070312 4.25 -5.660156 4.25 -5.203125 L 4.25 0 Z M 1.078125 0 "/></g></g></g><g fill="#000000" fill-opacity="1"><g transform="translate(75.776395, 37.587856)"><g><path d="M 1.078125 0 L 1.078125 -15.421875 L 4.25 -15.421875 L 4.25 0 Z M 1.078125 0 "/></g></g></g><g fill="#000000" fill-opacity="1"><g transform="translate(81.101502, 37.587856)"><g><path d="M 1.375 -14.328125 C 1.75 -14.703125 2.191406 -14.890625 2.703125 -14.890625 C 3.222656 -14.890625 3.664062 -14.703125 4.03125 -14.328125 C 4.40625 -13.960938 4.59375 -13.519531 4.59375 -13 C 4.59375 -12.488281 4.40625 -12.046875 4.03125 -11.671875 C 3.664062 -11.304688 3.222656 -11.125 2.703125 -11.125 C 2.191406 -11.125 1.75 -11.304688 1.375 -11.671875 C 1.007812 -12.046875 0.828125 -12.488281 0.828125 -13 C 0.828125 -13.519531 1.007812 -13.960938 1.375 -14.328125 Z M 1.078125 -9.203125 L 1.078125 0 L 4.25 0 L 4.25 -9.203125 Z M 1.078125 -9.203125 "/></g></g></g><g fill="#000000" fill-opacity="1"><g transform="translate(86.516262, 37.587856)"><g><path d="M 1.078125 0 L 1.078125 -9.203125 L 4.25 -9.203125 L 4.25 -8.234375 L 4.28125 -8.234375 C 5.113281 -9.054688 5.992188 -9.46875 6.921875 -9.46875 C 7.378906 -9.46875 7.832031 -9.40625 8.28125 -9.28125 C 8.726562 -9.164062 9.15625 -8.984375 9.5625 -8.734375 C 9.976562 -8.484375 10.3125 -8.128906 10.5625 -7.671875 C 10.820312 -7.210938 10.953125 -6.675781 10.953125 -6.0625 L 10.953125 0 L 7.78125 0 L 7.78125 -5.203125 C 7.78125 -5.679688 7.628906 -6.097656 7.328125 -6.453125 C 7.023438 -6.816406 6.628906 -7 6.140625 -7 C 5.660156 -7 5.222656 -6.8125 4.828125 -6.4375 C 4.441406 -6.070312 4.25 -5.660156 4.25 -5.203125 L 4.25 0 Z M 1.078125 0 "/></g></g></g><g fill="#000000" fill-opacity="1"><g transform="translate(98.367774, 37.587856)"><g><path d="M 10.390625 -4.15625 L 3.71875 -4.15625 C 3.71875 -3.507812 3.925781 -3.03125 4.34375 -2.71875 C 4.757812 -2.414062 5.210938 -2.265625 5.703125 -2.265625 C 6.210938 -2.265625 6.617188 -2.332031 6.921875 -2.46875 C 7.222656 -2.601562 7.566406 -2.875 7.953125 -3.28125 L 10.25 -2.140625 C 9.289062 -0.535156 7.695312 0.265625 5.46875 0.265625 C 4.082031 0.265625 2.890625 -0.207031 1.890625 -1.15625 C 0.898438 -2.101562 0.40625 -3.242188 0.40625 -4.578125 C 0.40625 -5.921875 0.898438 -7.070312 1.890625 -8.03125 C 2.890625 -8.988281 4.082031 -9.46875 5.46875 -9.46875 C 6.925781 -9.46875 8.113281 -9.046875 9.03125 -8.203125 C 9.945312 -7.359375 10.40625 -6.15625 10.40625 -4.59375 C 10.40625 -4.375 10.398438 -4.226562 10.390625 -4.15625 Z M 3.796875 -5.921875 L 7.296875 -5.921875 C 7.222656 -6.398438 7.035156 -6.765625 6.734375 -7.015625 C 6.429688 -7.273438 6.039062 -7.40625 5.5625 -7.40625 C 5.03125 -7.40625 4.609375 -7.265625 4.296875 -6.984375 C 3.992188 -6.710938 3.828125 -6.359375 3.796875 -5.921875 Z M 3.796875 -5.921875 "/></g></g></g><g fill="#000000" fill-opacity="1"><g transform="translate(109.179361, 37.587856)"><g><path d="M 10.546875 -15.421875 L 3.15625 2.15625 L 0.40625 2.15625 L 7.796875 -15.421875 Z M 10.546875 -15.421875 "/></g></g></g><g fill="#000000" fill-opacity="1"><g transform="translate(120.134389, 37.587856)"><g><path d="M 1.078125 -14.796875 L 5.359375 -14.796875 C 7.421875 -14.796875 9.179688 -14.09375 10.640625 -12.6875 C 12.097656 -11.28125 12.828125 -9.519531 12.828125 -7.40625 C 12.828125 -5.28125 12.097656 -3.515625 10.640625 -2.109375 C 9.191406 -0.703125 7.429688 0 5.359375 0 L 1.078125 0 Z M 4.453125 -3.015625 L 4.96875 -3.015625 C 6.195312 -3.015625 7.203125 -3.425781 7.984375 -4.25 C 8.773438 -5.082031 9.175781 -6.128906 9.1875 -7.390625 C 9.1875 -8.648438 8.789062 -9.695312 8 -10.53125 C 7.21875 -11.363281 6.207031 -11.78125 4.96875 -11.78125 L 4.453125 -11.78125 Z M 4.453125 -3.015625 "/></g></g></g><g fill="#000000" fill-opacity="1"><g transform="translate(133.366481, 37.587856)"><g><path d="M 1.375 -14.328125 C 1.75 -14.703125 2.191406 -14.890625 2.703125 -14.890625 C 3.222656 -14.890625 3.664062 -14.703125 4.03125 -14.328125 C 4.40625 -13.960938 4.59375 -13.519531 4.59375 -13 C 4.59375 -12.488281 4.40625 -12.046875 4.03125 -11.671875 C 3.664062 -11.304688 3.222656 -11.125 2.703125 -11.125 C 2.191406 -11.125 1.75 -11.304688 1.375 -11.671875 C 1.007812 -12.046875 0.828125 -12.488281 0.828125 -13 C 0.828125 -13.519531 1.007812 -13.960938 1.375 -14.328125 Z M 1.078125 -9.203125 L 1.078125 0 L 4.25 0 L 4.25 -9.203125 Z M 1.078125 -9.203125 "/></g></g></g><g fill="#000000" fill-opacity="1"><g transform="translate(138.781241, 37.587856)"><g><path d="M 5.078125 -9.46875 C 5.597656 -9.46875 6.113281 -9.40625 6.625 -9.28125 C 7.144531 -9.164062 7.53125 -9.050781 7.78125 -8.9375 L 8.15625 -8.75 L 7.125 -6.671875 C 6.40625 -7.054688 5.722656 -7.25 5.078125 -7.25 C 4.710938 -7.25 4.457031 -7.207031 4.3125 -7.125 C 4.164062 -7.050781 4.09375 -6.90625 4.09375 -6.6875 C 4.09375 -6.644531 4.097656 -6.597656 4.109375 -6.546875 C 4.117188 -6.492188 4.140625 -6.445312 4.171875 -6.40625 C 4.210938 -6.363281 4.25 -6.328125 4.28125 -6.296875 C 4.3125 -6.273438 4.359375 -6.242188 4.421875 -6.203125 C 4.492188 -6.171875 4.550781 -6.144531 4.59375 -6.125 C 4.632812 -6.101562 4.703125 -6.070312 4.796875 -6.03125 C 4.898438 -6 4.972656 -5.972656 5.015625 -5.953125 C 5.066406 -5.941406 5.148438 -5.914062 5.265625 -5.875 C 5.378906 -5.84375 5.46875 -5.820312 5.53125 -5.8125 C 5.894531 -5.707031 6.210938 -5.585938 6.484375 -5.453125 C 6.765625 -5.316406 7.054688 -5.132812 7.359375 -4.90625 C 7.671875 -4.6875 7.910156 -4.398438 8.078125 -4.046875 C 8.242188 -3.703125 8.328125 -3.3125 8.328125 -2.875 C 8.328125 -0.78125 6.875 0.265625 3.96875 0.265625 C 3.3125 0.265625 2.6875 0.164062 2.09375 -0.03125 C 1.5 -0.238281 1.070312 -0.441406 0.8125 -0.640625 L 0.40625 -0.96875 L 1.703125 -3.140625 C 1.796875 -3.054688 1.921875 -2.957031 2.078125 -2.84375 C 2.234375 -2.726562 2.515625 -2.570312 2.921875 -2.375 C 3.328125 -2.175781 3.679688 -2.078125 3.984375 -2.078125 C 4.640625 -2.078125 4.96875 -2.300781 4.96875 -2.75 C 4.96875 -2.945312 4.882812 -3.101562 4.71875 -3.21875 C 4.550781 -3.332031 4.265625 -3.460938 3.859375 -3.609375 C 3.460938 -3.753906 3.148438 -3.882812 2.921875 -4 C 2.347656 -4.300781 1.894531 -4.640625 1.5625 -5.015625 C 1.226562 -5.390625 1.0625 -5.890625 1.0625 -6.515625 C 1.0625 -7.441406 1.421875 -8.164062 2.140625 -8.6875 C 2.867188 -9.207031 3.847656 -9.46875 5.078125 -9.46875 Z M 5.078125 -9.46875 "/></g></g></g><g fill="#000000" fill-opacity="1"><g transform="translate(147.602644, 37.587856)"><g><path d="M 1.609375 -9.203125 L 1.609375 -12.625 L 4.796875 -12.625 L 4.796875 -9.203125 L 6.71875 -9.203125 L 6.71875 -6.78125 L 4.796875 -6.78125 L 4.796875 -3.859375 C 4.796875 -3.003906 5.03125 -2.578125 5.5 -2.578125 C 5.625 -2.578125 5.75 -2.597656 5.875 -2.640625 C 6.007812 -2.691406 6.113281 -2.742188 6.1875 -2.796875 L 6.296875 -2.875 L 7.078125 -0.3125 C 6.398438 0.0703125 5.625 0.265625 4.75 0.265625 C 4.15625 0.265625 3.640625 0.160156 3.203125 -0.046875 C 2.773438 -0.253906 2.453125 -0.535156 2.234375 -0.890625 C 2.015625 -1.242188 1.851562 -1.613281 1.75 -2 C 1.65625 -2.382812 1.609375 -2.800781 1.609375 -3.25 L 1.609375 -6.78125 L 0.28125 -6.78125 L 0.28125 -9.203125 Z M 1.609375 -9.203125 "/></g></g></g><g fill="#000000" fill-opacity="1"><g transform="translate(154.684865, 37.587856)"><g><path d="M 1.703125 -1.140625 C 0.835938 -2.078125 0.40625 -3.226562 0.40625 -4.59375 C 0.40625 -5.957031 0.835938 -7.109375 1.703125 -8.046875 C 2.566406 -8.992188 3.660156 -9.46875 4.984375 -9.46875 C 6.203125 -9.46875 7.207031 -9.085938 8 -8.328125 L 8 -9.203125 L 11.171875 -9.203125 L 11.171875 0 L 8.03125 0 L 8.03125 -1.046875 L 8 -1.046875 C 7.207031 -0.171875 6.203125 0.265625 4.984375 0.265625 C 3.660156 0.265625 2.566406 -0.203125 1.703125 -1.140625 Z M 4.390625 -6.15625 C 3.984375 -5.75 3.78125 -5.226562 3.78125 -4.59375 C 3.78125 -3.957031 3.976562 -3.4375 4.375 -3.03125 C 4.769531 -2.632812 5.289062 -2.4375 5.9375 -2.4375 C 6.5625 -2.4375 7.070312 -2.640625 7.46875 -3.046875 C 7.875 -3.453125 8.078125 -3.96875 8.078125 -4.59375 C 8.078125 -5.226562 7.867188 -5.75 7.453125 -6.15625 C 7.035156 -6.5625 6.53125 -6.765625 5.9375 -6.765625 C 5.320312 -6.765625 4.804688 -6.5625 4.390625 -6.15625 Z M 4.390625 -6.15625 "/></g></g></g><g fill="#000000" fill-opacity="1"><g transform="translate(166.930832, 37.587856)"><g><path d="M 1.078125 0 L 1.078125 -9.203125 L 4.25 -9.203125 L 4.25 -8.234375 L 4.28125 -8.234375 C 5.113281 -9.054688 5.992188 -9.46875 6.921875 -9.46875 C 7.378906 -9.46875 7.832031 -9.40625 8.28125 -9.28125 C 8.726562 -9.164062 9.15625 -8.984375 9.5625 -8.734375 C 9.976562 -8.484375 10.3125 -8.128906 10.5625 -7.671875 C 10.820312 -7.210938 10.953125 -6.675781 10.953125 -6.0625 L 10.953125 0 L 7.78125 0 L 7.78125 -5.203125 C 7.78125 -5.679688 7.628906 -6.097656 7.328125 -6.453125 C 7.023438 -6.816406 6.628906 -7 6.140625 -7 C 5.660156 -7 5.222656 -6.8125 4.828125 -6.4375 C 4.441406 -6.070312 4.25 -5.660156 4.25 -5.203125 L 4.25 0 Z M 1.078125 0 "/></g></g></g><g fill="#000000" fill-opacity="1"><g transform="translate(178.782344, 37.587856)"><g><path d="M 5.96875 -6.875 C 5.375 -6.875 4.859375 -6.648438 4.421875 -6.203125 C 3.992188 -5.765625 3.78125 -5.234375 3.78125 -4.609375 C 3.78125 -3.972656 3.992188 -3.429688 4.421875 -2.984375 C 4.859375 -2.546875 5.375 -2.328125 5.96875 -2.328125 C 6.257812 -2.328125 6.53125 -2.363281 6.78125 -2.4375 C 7.039062 -2.507812 7.234375 -2.582031 7.359375 -2.65625 L 7.515625 -2.765625 L 8.59375 -0.5625 C 8.507812 -0.5 8.390625 -0.421875 8.234375 -0.328125 C 8.085938 -0.242188 7.75 -0.125 7.21875 0.03125 C 6.6875 0.1875 6.113281 0.265625 5.5 0.265625 C 4.15625 0.265625 2.96875 -0.207031 1.9375 -1.15625 C 0.914062 -2.101562 0.40625 -3.242188 0.40625 -4.578125 C 0.40625 -5.910156 0.914062 -7.054688 1.9375 -8.015625 C 2.96875 -8.984375 4.15625 -9.46875 5.5 -9.46875 C 6.113281 -9.46875 6.675781 -9.394531 7.1875 -9.25 C 7.707031 -9.113281 8.070312 -8.972656 8.28125 -8.828125 L 8.59375 -8.609375 L 7.515625 -6.4375 C 7.117188 -6.726562 6.601562 -6.875 5.96875 -6.875 Z M 5.96875 -6.875 "/></g></g></g><g fill="#000000" fill-opacity="1"><g transform="translate(187.585814, 37.587856)"><g><path d="M 10.390625 -4.15625 L 3.71875 -4.15625 C 3.71875 -3.507812 3.925781 -3.03125 4.34375 -2.71875 C 4.757812 -2.414062 5.210938 -2.265625 5.703125 -2.265625 C 6.210938 -2.265625 6.617188 -2.332031 6.921875 -2.46875 C 7.222656 -2.601562 7.566406 -2.875 7.953125 -3.28125 L 10.25 -2.140625 C 9.289062 -0.535156 7.695312 0.265625 5.46875 0.265625 C 4.082031 0.265625 2.890625 -0.207031 1.890625 -1.15625 C 0.898438 -2.101562 0.40625 -3.242188 0.40625 -4.578125 C 0.40625 -5.921875 0.898438 -7.070312 1.890625 -8.03125 C 2.890625 -8.988281 4.082031 -9.46875 5.46875 -9.46875 C 6.925781 -9.46875 8.113281 -9.046875 9.03125 -8.203125 C 9.945312 -7.359375 10.40625 -6.15625 10.40625 -4.59375 C 10.40625 -4.375 10.398438 -4.226562 10.390625 -4.15625 Z M 3.796875 -5.921875 L 7.296875 -5.921875 C 7.222656 -6.398438 7.035156 -6.765625 6.734375 -7.015625 C 6.429688 -7.273438 6.039062 -7.40625 5.5625 -7.40625 C 5.03125 -7.40625 4.609375 -7.265625 4.296875 -6.984375 C 3.992188 -6.710938 3.828125 -6.359375 3.796875 -5.921875 Z M 3.796875 -5.921875 "/></g></g></g><g fill="#000000" fill-opacity="1"><g transform="translate(198.397401, 37.587856)"><g/></g></g><g fill="#104e91" fill-opacity="1"><g transform="translate(203.286488, 37.587856)"><g><path d="M 13.3125 0 L 12.609375 -8.765625 L 12.515625 -8.765625 L 9.484375 -0.09375 L 7.484375 -0.09375 L 4.453125 -8.765625 L 4.359375 -8.765625 L 3.65625 0 L 0.28125 0 L 1.609375 -14.796875 L 5.203125 -14.796875 L 8.484375 -6.265625 L 11.765625 -14.796875 L 15.359375 -14.796875 L 16.6875 0 Z M 13.3125 0 "/></g></g></g><g fill="#104e91" fill-opacity="1"><g transform="translate(220.247958, 37.587856)"><g><path d="M 8.953125 -3.046875 C 9.460938 -3.046875 9.957031 -3.125 10.4375 -3.28125 C 10.925781 -3.4375 11.285156 -3.585938 11.515625 -3.734375 L 11.859375 -3.96875 L 13.296875 -1.09375 C 13.242188 -1.0625 13.175781 -1.015625 13.09375 -0.953125 C 13.007812 -0.890625 12.8125 -0.773438 12.5 -0.609375 C 12.195312 -0.453125 11.875 -0.3125 11.53125 -0.1875 C 11.1875 -0.0703125 10.734375 0.03125 10.171875 0.125 C 9.609375 0.21875 9.03125 0.265625 8.4375 0.265625 C 7.0625 0.265625 5.753906 -0.0703125 4.515625 -0.75 C 3.285156 -1.425781 2.289062 -2.351562 1.53125 -3.53125 C 0.78125 -4.71875 0.40625 -6 0.40625 -7.375 C 0.40625 -8.414062 0.625 -9.410156 1.0625 -10.359375 C 1.507812 -11.316406 2.101562 -12.132812 2.84375 -12.8125 C 3.582031 -13.5 4.441406 -14.046875 5.421875 -14.453125 C 6.398438 -14.859375 7.40625 -15.0625 8.4375 -15.0625 C 9.382812 -15.0625 10.257812 -14.945312 11.0625 -14.71875 C 11.875 -14.5 12.453125 -14.273438 12.796875 -14.046875 L 13.296875 -13.703125 L 11.859375 -10.828125 C 11.773438 -10.898438 11.648438 -10.988281 11.484375 -11.09375 C 11.316406 -11.195312 10.976562 -11.332031 10.46875 -11.5 C 9.96875 -11.664062 9.460938 -11.75 8.953125 -11.75 C 8.140625 -11.75 7.410156 -11.613281 6.765625 -11.34375 C 6.117188 -11.082031 5.601562 -10.738281 5.21875 -10.3125 C 4.84375 -9.882812 4.554688 -9.421875 4.359375 -8.921875 C 4.171875 -8.421875 4.078125 -7.914062 4.078125 -7.40625 C 4.078125 -6.28125 4.492188 -5.269531 5.328125 -4.375 C 6.171875 -3.488281 7.378906 -3.046875 8.953125 -3.046875 Z M 8.953125 -3.046875 "/></g></g></g><g fill="#104e91" fill-opacity="1"><g transform="translate(233.748998, 37.587856)"><g><path d="M 8.59375 -14.796875 L 14.5625 0 L 10.9375 0 L 9.84375 -2.953125 L 4.21875 -2.953125 L 3.125 0 L -0.5 0 L 5.46875 -14.796875 Z M 8.703125 -5.921875 L 7.046875 -10.21875 L 7.015625 -10.21875 L 5.359375 -5.921875 Z M 8.703125 -5.921875 "/></g></g></g></svg>