<svg xmlns="http://www.w3.org/2000/svg" xmlns:xlink="http://www.w3.org/1999/xlink" width="1080" zoomAndPan="magnify" viewBox="0 0 810 809.999993" height="1080" preserveAspectRatio="xMidYMid meet" version="1.0"><defs><g/></defs><rect x="-81" width="972" fill="#ffffff" y="-80.999999" height="971.999992" fill-opacity="1"/><rect x="-81" width="972" fill="#ffffff" y="-80.999999" height="971.999992" fill-opacity="1"/><rect x="-81" width="972" fill="#eaf8ff" y="-80.999999" height="971.999992" fill-opacity="1"/><path fill="#ffd2bb" d="M 172.324219 515.878906 C 171.460938 517.65625 170.007812 519.351562 168.105469 520.761719 C 168.085938 520.78125 168.070312 520.792969 168.050781 520.804688 C 168.046875 520.804688 168.046875 520.804688 168.042969 520.808594 C 167.144531 521.472656 166.144531 522.078125 165.0625 522.589844 C 164.636719 522.789062 164.199219 522.972656 163.75 523.148438 L 159.269531 530.546875 L 163.339844 529.152344 C 163.640625 529.003906 163.988281 528.847656 164.367188 528.683594 C 167.285156 527.429688 172.289062 525.8125 177.882812 524.160156 L 177.558594 516.113281 C 179.628906 514.546875 181.464844 512.78125 182.8125 511.085938 C 183.617188 510.078125 184.25 509.097656 184.65625 508.195312 C 186.695312 503.679688 182.527344 502.492188 177.324219 500.789062 C 177.445312 500.277344 177.5 499.800781 177.46875 499.425781 C 177.308594 497.757812 175.488281 498.742188 173.515625 498.933594 C 173.222656 498.957031 172.949219 499.015625 172.683594 499.09375 C 172.535156 499.03125 172.386719 498.96875 172.238281 498.902344 C 170.167969 497.96875 168.03125 497.511719 165.96875 497.472656 L 165.929688 497.554688 C 165.679688 498.113281 162.765625 505.164062 163.28125 504.554688 C 166.8125 504.535156 169.890625 505.6875 171.671875 507.789062 C 170.636719 507.738281 169.597656 507.921875 168.699219 508.414062 C 166.984375 509.351562 165.839844 511.566406 166.652344 513.484375 C 167.03125 514.378906 167.777344 514.898438 168.636719 515.078125 C 169.148438 515.1875 169.699219 515.171875 170.242188 515.039062 C 170.648438 514.941406 171.019531 514.785156 171.378906 514.597656 C 171.578125 514.496094 171.777344 514.394531 171.960938 514.265625 C 172.445312 513.925781 172.867188 513.507812 173.207031 513.023438 C 173.132812 513.621094 172.964844 514.21875 172.753906 514.816406 C 172.625 515.167969 172.5 515.527344 172.324219 515.878906 Z M 172.566406 502.671875 C 172.398438 503.054688 171.746094 503.15625 171.113281 502.886719 C 170.476562 502.621094 170.097656 502.089844 170.269531 501.699219 C 170.4375 501.308594 171.09375 501.210938 171.726562 501.480469 C 172.359375 501.75 172.738281 502.28125 172.566406 502.671875 Z M 249.839844 474.640625 C 250.390625 476.691406 245.566406 482.347656 245.566406 482.347656 C 245.566406 482.347656 244.074219 485.222656 242.078125 486.246094 C 242.027344 497.476562 232.714844 519.742188 227.136719 524.820312 C 226.589844 525.320312 225.742188 525.511719 224.765625 525.460938 C 221.054688 525.265625 215.402344 521.335938 216.550781 515.320312 C 216.613281 514.996094 216.738281 514.597656 216.910156 514.152344 C 219.015625 508.59375 228.730469 494.328125 228.730469 494.328125 C 228.730469 494.328125 232.957031 486.871094 236.570312 482.945312 C 234.734375 479.59375 234.40625 475.207031 235.070312 471.808594 C 235.578125 469.226562 236.648438 467.222656 238.0625 466.726562 C 239.21875 466.324219 244.71875 468.949219 247.808594 471.808594 C 248.835938 472.761719 249.597656 473.738281 249.839844 474.640625 Z M 216.242188 501.171875 C 213.476562 502.171875 210.074219 502.09375 207.417969 499.492188 C 206.464844 498.558594 205.105469 496.199219 203.671875 493.363281 C 200.363281 486.820312 196.660156 477.738281 196.660156 477.738281 C 196.660156 477.738281 195.304688 475.0625 193.929688 471.808594 C 192.984375 469.558594 192.03125 467.03125 191.507812 464.914062 C 184.808594 464.34375 177.960938 458.066406 178.820312 454.699219 C 179.222656 453.121094 188.386719 448.082031 191.925781 449.265625 C 193.9375 449.941406 195.984375 457.089844 195.984375 457.089844 C 195.984375 457.089844 197.554688 459.917969 197.304688 462.148438 C 200.359375 464.195312 203.851562 467.722656 207.210938 471.808594 C 211.191406 476.660156 214.976562 482.285156 217.613281 487.136719 C 218.257812 488.324219 218.839844 489.464844 219.332031 490.535156 C 220.3125 492.664062 220.96875 494.519531 221.183594 495.929688 C 221.464844 497.75 219.226562 500.089844 216.242188 501.171875 Z M 660.078125 712.703125 L 659.933594 712.390625 L 652.574219 714.953125 C 646.550781 704.074219 637.667969 683.421875 631.863281 669.308594 C 631.070312 686.191406 629.46875 709.6875 626.890625 717.339844 L 626.855469 716.996094 L 619.0625 717 C 616.738281 703.601562 615.027344 678.027344 614.25 663.003906 C 614.058594 659.3125 613.925781 656.273438 613.851562 654.195312 L 618.84375 654.253906 L 625.957031 654.332031 L 632.410156 654.40625 L 645.636719 654.558594 C 650.082031 668.792969 659.984375 702.488281 660.078125 712.703125 Z M 602.320312 505.074219 C 601.78125 505.121094 601.390625 505.160156 601.273438 505.171875 L 601.183594 505.183594 C 600.613281 507.136719 600.410156 509.289062 600.679688 511.515625 C 600.695312 511.675781 600.714844 511.835938 600.730469 511.992188 C 600.578125 512.21875 600.441406 512.460938 600.328125 512.726562 C 600.171875 513.097656 599.984375 513.449219 599.800781 513.785156 C 599.089844 515.082031 598.417969 516.085938 599.628906 516.597656 C 599.96875 516.742188 600.4375 516.832031 600.957031 516.863281 C 600.992188 519.683594 600.984375 522.183594 601.648438 523.859375 C 602.183594 525.203125 603.148438 526.019531 604.933594 526.015625 C 604.9375 525.679688 604.953125 525.324219 604.972656 524.964844 C 604.992188 524.605469 605.019531 524.238281 605.050781 523.863281 C 605.269531 521.234375 605.753906 518.179688 606.304688 515.292969 C 607.34375 509.816406 608.597656 504.980469 608.597656 504.980469 C 608.613281 504.890625 608.632812 504.808594 608.652344 504.746094 C 609.234375 504.496094 604.511719 504.875 602.320312 505.074219 Z M 604.769531 511.632812 C 604.835938 512.308594 604.546875 512.894531 604.136719 512.941406 C 603.714844 512.984375 603.332031 512.472656 603.261719 511.792969 C 603.195312 511.117188 603.484375 510.527344 603.898438 510.484375 C 604.316406 510.441406 604.703125 510.953125 604.769531 511.632812 Z M 569.527344 495.957031 L 569.511719 491.976562 C 569.691406 492.625 569.800781 493.300781 569.800781 494.011719 C 569.800781 494.019531 569.800781 494.027344 569.800781 494.039062 C 569.796875 494.703125 569.691406 495.34375 569.527344 495.957031 Z M 575.308594 540.714844 C 575.308594 542.097656 574.78125 543.34375 573.941406 544.3125 C 573.492188 544.828125 572.953125 545.253906 572.34375 545.570312 C 571.585938 545.972656 570.734375 546.21875 569.820312 546.21875 C 569.8125 546.21875 569.808594 546.222656 569.800781 546.222656 C 566.757812 546.222656 564.292969 543.753906 564.292969 540.710938 C 564.292969 538.164062 566.035156 536.039062 568.386719 535.410156 C 568.839844 535.289062 569.308594 535.203125 569.800781 535.203125 C 572.84375 535.203125 575.308594 537.671875 575.308594 540.714844 Z M 177.921875 653.75 L 190.027344 653.609375 C 189.65625 664.152344 187.710938 699.722656 184.820312 716.417969 L 177.027344 716.410156 L 176.992188 716.753906 C 174.414062 709.105469 172.808594 685.609375 172.019531 668.726562 C 166.214844 682.835938 157.332031 703.492188 151.308594 714.371094 L 143.949219 711.808594 L 143.804688 712.121094 C 143.898438 701.90625 153.796875 668.210938 158.246094 653.976562 L 171.46875 653.824219 Z M 177.921875 653.75 " fill-opacity="1" fill-rule="nonzero"/><path fill="#00cec9" d="M 373.996094 337.769531 C 373.996094 312.472656 411.683594 301.285156 458.175781 301.285156 C 504.664062 301.285156 542.351562 312.476562 542.351562 337.769531 C 542.351562 353.082031 528.523438 376.550781 507.308594 392.695312 C 506.230469 392.257812 505.054688 392.015625 503.816406 392.015625 L 417.441406 392.015625 C 415.074219 392.015625 412.914062 392.90625 411.273438 394.363281 C 388.789062 378.207031 373.996094 353.617188 373.996094 337.769531 Z M 614.25 663.007812 C 605.394531 677.746094 592.289062 689.648438 576.007812 698.875 C 587.914062 685.628906 595.164062 668.109375 595.164062 648.894531 C 595.164062 607.578125 561.671875 574.085938 520.355469 574.085938 C 479.039062 574.085938 445.546875 607.578125 445.546875 648.894531 C 445.546875 683.742188 469.375 713.023438 501.625 721.335938 C 488.703125 722.917969 475.183594 723.703125 461.261719 723.703125 C 437.261719 723.703125 414.460938 721.390625 393.867188 716.621094 C 397.511719 712.691406 399.757812 707.441406 399.757812 701.65625 L 399.757812 526.933594 C 399.757812 514.757812 389.886719 504.886719 377.710938 504.886719 L 327.199219 504.886719 C 348.011719 465.066406 377.699219 428.117188 412.214844 409.035156 C 413.703125 410.050781 415.503906 410.640625 417.445312 410.640625 L 503.816406 410.640625 C 505.992188 410.640625 507.988281 409.890625 509.570312 408.644531 C 543.574219 427.152344 572.945312 463.027344 593.820312 502.035156 L 555.382812 502.046875 L 568.386719 535.410156 C 566.035156 536.039062 564.292969 538.164062 564.292969 540.714844 C 564.292969 543.757812 566.757812 546.222656 569.800781 546.222656 C 569.804688 546.222656 569.8125 546.222656 569.816406 546.222656 C 570.109375 552.679688 575.6875 567.101562 579.535156 571.714844 C 582.503906 575.28125 583.265625 580.132812 587.90625 580.148438 C 588.195312 580.148438 588.480469 580.136719 588.761719 580.109375 C 589.371094 580.203125 590.152344 580.003906 591.074219 579.539062 C 592.101562 579.125 593.027344 578.515625 593.808594 577.753906 C 596.640625 575.578125 600.046875 572.140625 603.289062 568.371094 L 606.53125 568.371094 C 608.53125 574.265625 610.507812 580.109375 611.121094 585.8125 C 611.996094 593.929688 611.730469 598.785156 611.375 601.402344 C 611.152344 602.070312 611.007812 602.835938 610.929688 603.6875 C 610.882812 603.851562 610.851562 603.933594 610.851562 603.933594 L 610.914062 603.933594 C 610.890625 604.277344 610.851562 604.601562 610.851562 604.976562 C 610.851562 615.421875 611.21875 654.167969 611.21875 654.167969 L 613.851562 654.195312 C 613.925781 656.277344 614.058594 659.3125 614.25 663.007812 Z M 569.511719 491.976562 L 569.527344 495.957031 C 569.691406 495.34375 569.796875 494.703125 569.800781 494.039062 C 569.800781 494.03125 569.800781 494.019531 569.800781 494.011719 C 569.800781 493.304688 569.6875 492.625 569.511719 491.976562 Z M 569.511719 491.976562 " fill-opacity="1" fill-rule="nonzero"/><path fill="#e84393" d="M 513.132812 401.328125 C 513.132812 404.296875 511.738281 406.9375 509.570312 408.644531 C 507.988281 409.890625 505.992188 410.640625 503.816406 410.640625 L 417.445312 410.640625 C 415.503906 410.640625 413.703125 410.050781 412.214844 409.035156 C 409.75 407.363281 408.128906 404.535156 408.128906 401.328125 C 408.128906 398.554688 409.347656 396.074219 411.273438 394.367188 C 412.914062 392.90625 415.070312 392.015625 417.445312 392.015625 L 503.816406 392.015625 C 505.054688 392.015625 506.230469 392.261719 507.308594 392.699219 C 510.722656 394.078125 513.132812 397.421875 513.132812 401.328125 Z M 171.960938 514.261719 C 171.777344 514.390625 171.578125 514.492188 171.378906 514.59375 C 171.023438 514.78125 170.648438 514.941406 170.242188 515.035156 C 169.699219 515.167969 169.148438 515.183594 168.636719 515.074219 C 167.777344 514.894531 167.03125 514.375 166.652344 513.480469 C 165.839844 511.5625 166.984375 509.347656 168.699219 508.410156 C 169.597656 507.917969 170.636719 507.734375 171.671875 507.785156 C 169.890625 505.679688 166.8125 504.53125 163.28125 504.550781 C 162.765625 505.160156 165.679688 498.109375 165.929688 497.550781 L 165.96875 497.46875 L 165.96875 497.464844 C 167.648438 493.613281 165.882812 489.105469 161.988281 487.347656 C 158.066406 485.578125 153.46875 487.269531 151.726562 491.136719 C 150.433594 493.996094 151.320312 497.105469 149.804688 500.5 C 149.457031 501.273438 149.179688 501.863281 148.949219 502.320312 C 148.941406 502.335938 148.933594 502.347656 148.925781 502.367188 C 148.824219 501.554688 148.601562 500.746094 148.199219 499.980469 C 146.417969 496.585938 142.222656 495.28125 138.832031 497.0625 C 135.441406 498.84375 134.132812 503.039062 135.917969 506.429688 C 137.699219 509.824219 141.890625 511.128906 145.28125 509.34375 C 145.460938 509.25 145.609375 509.128906 145.773438 509.019531 C 143.640625 518.011719 149.320312 521.5625 153.578125 523.128906 C 157.175781 524.449219 161.785156 523.902344 163.621094 523.203125 C 163.664062 523.1875 163.707031 523.167969 163.753906 523.148438 C 164.199219 522.976562 164.636719 522.792969 165.0625 522.59375 C 166.144531 522.082031 167.144531 521.476562 168.046875 520.808594 C 168.046875 520.808594 168.046875 520.808594 168.050781 520.804688 C 168.070312 520.796875 168.089844 520.78125 168.105469 520.761719 C 170.007812 519.351562 171.460938 517.65625 172.324219 515.882812 C 172.5 515.53125 172.625 515.171875 172.753906 514.816406 C 172.964844 514.21875 173.132812 513.621094 173.207031 513.023438 C 172.867188 513.503906 172.445312 513.921875 171.960938 514.261719 Z M 662.660156 529.03125 C 660.273438 528.085938 654.800781 526.75 649.15625 524.949219 C 640.34375 521.5625 646.070312 516.433594 640.972656 510.769531 C 635.871094 505.105469 632.472656 508.503906 629.640625 506.238281 C 629.519531 506.140625 629.414062 506.027344 629.304688 505.917969 C 629.144531 504.945312 629.027344 504.007812 628.941406 503.144531 C 629.023438 502.457031 629.058594 501.765625 629.027344 501.085938 C 628.792969 496.238281 626.875 489.117188 615.640625 489.515625 L 615.597656 489.519531 C 615.457031 489.53125 615.308594 489.546875 615.164062 489.566406 C 612.257812 489.917969 613.324219 490.15625 610.785156 490.574219 C 610.289062 490.65625 609.648438 490.746094 608.816406 490.84375 C 605.171875 491.269531 602.5 489.519531 599.425781 489.890625 C 599.269531 489.910156 599.09375 489.882812 598.964844 489.96875 C 591.070312 495.023438 591.804688 499.324219 594.175781 502.039062 C 595.71875 503.804688 597.957031 504.902344 598.964844 505.09375 C 599.675781 505.230469 600.421875 505.269531 601.179688 505.1875 L 601.1875 505.183594 L 601.273438 505.175781 C 601.390625 505.160156 601.78125 505.121094 602.320312 505.074219 C 604.515625 504.878906 609.238281 504.5 608.652344 504.746094 C 608.632812 504.8125 608.613281 504.890625 608.597656 504.980469 C 608.597656 504.980469 607.34375 509.816406 606.304688 515.296875 C 605.753906 518.179688 605.269531 521.234375 605.050781 523.863281 C 605.019531 524.238281 604.992188 524.609375 604.972656 524.964844 C 604.953125 525.328125 604.9375 525.679688 604.933594 526.019531 C 604.90625 527.445312 605.003906 528.644531 605.277344 529.46875 C 605.640625 530.550781 606.207031 531.535156 606.882812 532.457031 C 607.113281 532.773438 607.355469 533.082031 607.613281 533.378906 C 608.117188 533.972656 608.65625 534.535156 609.210938 535.074219 C 611.441406 537.230469 613.890625 539.019531 614.910156 540.796875 C 616.039062 542.777344 615.199219 546.300781 615.054688 550.320312 C 615.046875 550.511719 615.042969 550.707031 615.039062 550.902344 C 614.976562 554.445312 615.542969 558.328125 618.496094 561.847656 C 618.789062 562.199219 619.101562 562.550781 619.445312 562.894531 C 621.875 565.328125 624.222656 566.40625 626.339844 566.707031 C 631.875 567.484375 635.875 562.894531 635.875 562.894531 L 636.175781 562.941406 C 637.300781 563.636719 638.402344 564.273438 639.488281 564.835938 C 641.621094 565.9375 643.679688 566.746094 645.683594 567.316406 C 646.859375 567.652344 648.023438 567.925781 649.15625 568.074219 C 650.136719 568.203125 651.105469 568.257812 652.058594 568.242188 C 654.675781 568.207031 657.1875 567.644531 659.605469 566.523438 C 659.636719 566.507812 659.664062 566.492188 659.699219 566.476562 L 660.011719 566.523438 C 660.011719 566.523438 660.007812 566.453125 660 566.324219 C 663.539062 564.589844 666.890625 561.683594 670.085938 557.519531 C 679.417969 545.34375 673.371094 533.273438 662.660156 529.03125 Z M 304.824219 371.390625 L 264.828125 401.429688 L 265.074219 384.351562 C 265.085938 383.355469 264.523438 382.441406 263.625 382.007812 C 262.726562 381.570312 261.660156 381.695312 260.890625 382.324219 L 217.554688 417.566406 L 217.554688 403.886719 C 217.554688 402.886719 216.972656 401.980469 216.066406 401.558594 C 215.160156 401.140625 214.09375 401.285156 213.332031 401.929688 L 186.382812 424.78125 C 185.300781 425.699219 185.167969 427.320312 186.082031 428.398438 C 186.589844 428.996094 187.3125 429.304688 188.039062 429.304688 C 188.625 429.304688 189.21875 429.105469 189.699219 428.695312 L 212.425781 409.425781 L 212.425781 422.960938 C 212.425781 423.949219 212.992188 424.851562 213.886719 425.277344 C 214.78125 425.703125 215.839844 425.574219 216.609375 424.949219 L 259.863281 389.773438 L 259.621094 406.582031 C 259.605469 407.558594 260.152344 408.460938 261.023438 408.90625 C 261.894531 409.347656 262.941406 409.253906 263.726562 408.667969 L 307.902344 375.492188 C 309.035156 374.640625 309.265625 373.03125 308.414062 371.898438 C 307.566406 370.769531 305.960938 370.539062 304.824219 371.390625 Z M 304.824219 371.390625 " fill-opacity="1" fill-rule="nonzero"/><path fill="#fbc02d" d="M 377.710938 504.886719 L 256.878906 504.886719 C 244.703125 504.886719 234.832031 514.753906 234.832031 526.929688 L 234.832031 560.84375 L 399.757812 560.84375 L 399.757812 526.929688 C 399.757812 514.757812 389.886719 504.886719 377.710938 504.886719 Z M 376.097656 549.511719 L 258.496094 549.511719 L 258.496094 520.742188 L 376.09375 520.742188 L 376.09375 549.511719 Z M 270.890625 582.710938 L 270.890625 593.492188 C 270.890625 595.574219 269.203125 597.261719 267.121094 597.261719 L 256.339844 597.261719 C 254.257812 597.261719 252.574219 595.574219 252.574219 593.492188 L 252.574219 582.710938 C 252.574219 580.628906 254.257812 578.941406 256.339844 578.941406 L 267.121094 578.941406 C 269.203125 578.945312 270.890625 580.628906 270.890625 582.710938 Z M 298.398438 582.710938 L 298.398438 593.492188 C 298.398438 594.847656 297.675781 596.027344 296.597656 596.691406 C 296.023438 597.046875 295.355469 597.257812 294.628906 597.257812 L 283.847656 597.257812 C 281.765625 597.257812 280.082031 595.574219 280.082031 593.492188 L 280.082031 582.710938 C 280.082031 580.628906 281.765625 578.941406 283.847656 578.941406 L 294.628906 578.941406 C 296.710938 578.945312 298.398438 580.628906 298.398438 582.710938 Z M 325.902344 582.710938 L 325.902344 593.492188 C 325.902344 595.574219 324.21875 597.261719 322.136719 597.261719 L 311.355469 597.261719 C 309.273438 597.261719 307.585938 595.574219 307.585938 593.492188 L 307.585938 582.710938 C 307.585938 580.628906 309.273438 578.941406 311.355469 578.941406 L 322.136719 578.941406 C 324.21875 578.945312 325.902344 580.628906 325.902344 582.710938 Z M 353.410156 582.710938 L 353.410156 593.492188 C 353.410156 595.574219 351.726562 597.261719 349.644531 597.261719 L 338.863281 597.261719 C 336.78125 597.261719 335.09375 595.574219 335.09375 593.492188 L 335.09375 582.710938 C 335.09375 580.628906 336.78125 578.941406 338.863281 578.941406 L 349.644531 578.941406 C 351.726562 578.945312 353.410156 580.628906 353.410156 582.710938 Z M 380.917969 582.710938 L 380.917969 593.492188 C 380.917969 595.574219 379.234375 597.261719 377.152344 597.261719 L 366.367188 597.261719 C 364.289062 597.261719 362.601562 595.574219 362.601562 593.492188 L 362.601562 582.710938 C 362.601562 580.628906 364.289062 578.941406 366.367188 578.941406 L 377.152344 578.941406 C 379.230469 578.945312 380.917969 580.628906 380.917969 582.710938 Z M 270.890625 608.902344 L 270.890625 619.683594 C 270.890625 621.765625 269.203125 623.453125 267.121094 623.453125 L 256.339844 623.453125 C 254.257812 623.453125 252.574219 621.765625 252.574219 619.683594 L 252.574219 608.902344 C 252.574219 606.820312 254.257812 605.136719 256.339844 605.136719 L 267.121094 605.136719 C 269.203125 605.136719 270.890625 606.820312 270.890625 608.902344 Z M 298.398438 608.902344 L 298.398438 619.683594 C 298.398438 621.347656 297.308594 622.746094 295.8125 623.246094 C 295.4375 623.367188 295.046875 623.453125 294.628906 623.453125 L 283.847656 623.453125 C 281.765625 623.453125 280.082031 621.765625 280.082031 619.683594 L 280.082031 608.902344 C 280.082031 606.820312 281.765625 605.132812 283.847656 605.132812 L 294.628906 605.132812 C 295.027344 605.132812 295.402344 605.210938 295.761719 605.328125 C 297.285156 605.8125 298.398438 607.21875 298.398438 608.902344 Z M 325.902344 608.902344 L 325.902344 619.683594 C 325.902344 621.765625 324.21875 623.453125 322.136719 623.453125 L 311.355469 623.453125 C 309.273438 623.453125 307.585938 621.765625 307.585938 619.683594 L 307.585938 608.902344 C 307.585938 606.820312 309.273438 605.136719 311.355469 605.136719 L 322.136719 605.136719 C 324.21875 605.136719 325.902344 606.820312 325.902344 608.902344 Z M 353.410156 608.902344 L 353.410156 619.683594 C 353.410156 621.765625 351.726562 623.453125 349.644531 623.453125 L 338.863281 623.453125 C 336.78125 623.453125 335.09375 621.765625 335.09375 619.683594 L 335.09375 608.902344 C 335.09375 606.820312 336.78125 605.136719 338.863281 605.136719 L 349.644531 605.136719 C 351.726562 605.136719 353.410156 606.820312 353.410156 608.902344 Z M 380.917969 608.902344 L 380.917969 619.683594 C 380.917969 621.765625 379.234375 623.453125 377.152344 623.453125 L 366.367188 623.453125 C 364.289062 623.453125 362.601562 621.765625 362.601562 619.683594 L 362.601562 608.902344 C 362.601562 606.820312 364.289062 605.136719 366.367188 605.136719 L 377.152344 605.136719 C 379.230469 605.136719 380.917969 606.820312 380.917969 608.902344 Z M 270.890625 635.09375 L 270.890625 645.878906 C 270.890625 647.957031 269.203125 649.644531 267.121094 649.644531 L 256.339844 649.644531 C 254.257812 649.644531 252.574219 647.957031 252.574219 645.878906 L 252.574219 635.09375 C 252.574219 633.015625 254.257812 631.328125 256.339844 631.328125 L 267.121094 631.328125 C 269.203125 631.328125 270.890625 633.015625 270.890625 635.09375 Z M 298.398438 635.09375 L 298.398438 645.878906 C 298.398438 647.957031 296.710938 649.644531 294.628906 649.644531 L 283.847656 649.644531 C 281.765625 649.644531 280.082031 647.957031 280.082031 645.878906 L 280.082031 635.09375 C 280.082031 633.015625 281.765625 631.328125 283.847656 631.328125 L 294.628906 631.328125 C 295.5 631.328125 296.292969 631.636719 296.929688 632.132812 C 297.816406 632.820312 298.398438 633.886719 298.398438 635.09375 Z M 325.902344 635.09375 L 325.902344 645.878906 C 325.902344 647.957031 324.21875 649.644531 322.136719 649.644531 L 311.355469 649.644531 C 309.273438 649.644531 307.585938 647.957031 307.585938 645.878906 L 307.585938 635.09375 C 307.585938 633.015625 309.273438 631.328125 311.355469 631.328125 L 322.136719 631.328125 C 324.21875 631.328125 325.902344 633.015625 325.902344 635.09375 Z M 353.410156 635.09375 L 353.410156 645.878906 C 353.410156 647.957031 351.726562 649.644531 349.644531 649.644531 L 338.863281 649.644531 C 336.78125 649.644531 335.09375 647.957031 335.09375 645.878906 L 335.09375 635.09375 C 335.09375 633.015625 336.78125 631.328125 338.863281 631.328125 L 349.644531 631.328125 C 351.726562 631.328125 353.410156 633.015625 353.410156 635.09375 Z M 380.917969 635.09375 L 380.917969 645.878906 C 380.917969 647.957031 379.234375 649.644531 377.152344 649.644531 L 366.367188 649.644531 C 364.289062 649.644531 362.601562 647.957031 362.601562 645.878906 L 362.601562 635.09375 C 362.601562 633.015625 364.289062 631.328125 366.367188 631.328125 L 377.152344 631.328125 C 379.230469 631.328125 380.917969 633.015625 380.917969 635.09375 Z M 380.917969 661.289062 L 380.917969 698.066406 C 380.917969 700.148438 379.234375 701.835938 377.152344 701.835938 L 366.367188 701.835938 C 364.289062 701.835938 362.601562 700.148438 362.601562 698.066406 L 362.601562 661.289062 C 362.601562 659.207031 364.289062 657.519531 366.367188 657.519531 L 377.152344 657.519531 C 379.230469 657.519531 380.917969 659.207031 380.917969 661.289062 Z M 270.890625 661.289062 L 270.890625 672.070312 C 270.890625 674.152344 269.203125 675.835938 267.121094 675.835938 L 256.339844 675.835938 C 254.257812 675.835938 252.574219 674.152344 252.574219 672.070312 L 252.574219 661.289062 C 252.574219 659.207031 254.257812 657.519531 256.339844 657.519531 L 267.121094 657.519531 C 269.203125 657.519531 270.890625 659.207031 270.890625 661.289062 Z M 298.398438 661.289062 L 298.398438 672.070312 C 298.398438 674.152344 296.710938 675.835938 294.628906 675.835938 L 283.847656 675.835938 C 281.765625 675.835938 280.082031 674.152344 280.082031 672.070312 L 280.082031 661.289062 C 280.082031 659.207031 281.765625 657.519531 283.847656 657.519531 L 294.628906 657.519531 C 296.710938 657.519531 298.398438 659.207031 298.398438 661.289062 Z M 325.902344 661.289062 L 325.902344 672.070312 C 325.902344 674.152344 324.21875 675.835938 322.136719 675.835938 L 311.355469 675.835938 C 309.273438 675.835938 307.585938 674.152344 307.585938 672.070312 L 307.585938 661.289062 C 307.585938 659.207031 309.273438 657.519531 311.355469 657.519531 L 322.136719 657.519531 C 324.21875 657.519531 325.902344 659.207031 325.902344 661.289062 Z M 353.410156 661.289062 L 353.410156 672.070312 C 353.410156 674.152344 351.726562 675.835938 349.644531 675.835938 L 338.863281 675.835938 C 336.78125 675.835938 335.09375 674.152344 335.09375 672.070312 L 335.09375 661.289062 C 335.09375 659.207031 336.78125 657.519531 338.863281 657.519531 L 349.644531 657.519531 C 351.726562 657.519531 353.410156 659.207031 353.410156 661.289062 Z M 270.890625 687.605469 L 270.890625 698.386719 C 270.890625 700.464844 269.203125 702.15625 267.121094 702.15625 L 256.339844 702.15625 C 254.257812 702.15625 252.574219 700.46875 252.574219 698.386719 L 252.574219 687.605469 C 252.574219 685.523438 254.257812 683.835938 256.339844 683.835938 L 267.121094 683.835938 C 269.203125 683.835938 270.890625 685.523438 270.890625 687.605469 Z M 298.398438 687.605469 L 298.398438 698.386719 C 298.398438 700.464844 296.710938 702.15625 294.628906 702.15625 L 283.847656 702.15625 C 281.765625 702.15625 280.082031 700.46875 280.082031 698.386719 L 280.082031 687.605469 C 280.082031 685.523438 281.765625 683.835938 283.847656 683.835938 L 294.628906 683.835938 C 296.710938 683.835938 298.398438 685.523438 298.398438 687.605469 Z M 325.902344 687.605469 L 325.902344 698.386719 C 325.902344 700.464844 324.21875 702.15625 322.136719 702.15625 L 311.355469 702.15625 C 309.273438 702.15625 307.585938 700.46875 307.585938 698.386719 L 307.585938 687.605469 C 307.585938 685.523438 309.273438 683.835938 311.355469 683.835938 L 322.136719 683.835938 C 324.21875 683.835938 325.902344 685.523438 325.902344 687.605469 Z M 353.410156 687.605469 L 353.410156 698.386719 C 353.410156 699.753906 352.675781 700.941406 351.582031 701.601562 C 351.015625 701.945312 350.355469 702.152344 349.644531 702.152344 L 338.863281 702.152344 C 336.78125 702.152344 335.09375 700.464844 335.09375 698.386719 L 335.09375 687.601562 C 335.09375 685.523438 336.78125 683.835938 338.863281 683.835938 L 349.644531 683.835938 C 351.726562 683.835938 353.410156 685.523438 353.410156 687.605469 Z M 520.355469 574.085938 C 479.039062 574.085938 445.542969 607.578125 445.542969 648.894531 C 445.542969 683.742188 469.371094 713.023438 501.625 721.335938 C 507.609375 722.878906 513.886719 723.703125 520.355469 723.703125 C 542.453125 723.703125 562.3125 714.113281 576.007812 698.875 C 587.914062 685.628906 595.164062 668.109375 595.164062 648.894531 C 595.164062 607.578125 561.671875 574.085938 520.355469 574.085938 Z M 520.355469 708.113281 C 487.648438 708.113281 461.136719 681.597656 461.136719 648.894531 C 461.136719 616.1875 487.648438 589.675781 520.355469 589.675781 C 553.058594 589.675781 579.574219 616.1875 579.574219 648.894531 C 579.574219 681.597656 553.058594 708.113281 520.355469 708.113281 Z M 538.796875 657.9375 C 538.796875 665.902344 533.296875 672.703125 523.253906 674.492188 L 523.253906 683.621094 L 514.695312 683.621094 L 514.695312 675.121094 C 508.84375 674.851562 503.167969 673.238281 499.851562 671.269531 L 502.46875 660.800781 C 506.136719 662.859375 511.289062 664.738281 516.964844 664.738281 C 521.945312 664.738281 525.347656 662.769531 525.347656 659.1875 C 525.347656 655.789062 522.554688 653.640625 516.09375 651.402344 C 506.75 648.179688 500.375 643.707031 500.375 635.023438 C 500.375 627.148438 505.789062 620.972656 515.132812 619.09375 L 515.132812 610.589844 L 523.6875 610.589844 L 523.6875 618.46875 C 529.539062 618.734375 533.46875 619.988281 536.351562 621.421875 L 533.820312 631.535156 C 531.550781 630.550781 527.53125 628.492188 521.246094 628.492188 C 515.570312 628.492188 513.734375 630.996094 513.734375 633.503906 C 513.734375 636.457031 516.792969 638.335938 524.214844 641.199219 C 534.605469 644.960938 538.796875 649.882812 538.796875 657.9375 Z M 664.808594 722.914062 L 642.832031 730.5625 C 642.832031 730.5625 637.894531 732.410156 637.136719 729.925781 C 635.964844 726.105469 645.980469 723.925781 648.929688 721.363281 C 650.324219 720.15625 652.570312 714.953125 652.570312 714.953125 L 659.933594 712.390625 L 660.078125 712.707031 Z M 645.636719 654.558594 L 632.410156 654.410156 L 625.957031 654.335938 L 618.84375 654.253906 L 613.851562 654.195312 L 611.222656 654.167969 C 611.222656 654.167969 610.851562 615.421875 610.851562 604.972656 C 610.851562 604.597656 610.890625 604.273438 610.917969 603.929688 L 648.738281 603.929688 C 648.738281 603.929688 648.449219 603.34375 648.015625 602.3125 C 651.75 605.714844 654.0625 610.328125 654.0625 615.421875 C 654.0625 620.644531 648.503906 654.59375 648.503906 654.59375 Z M 611.375 601.398438 C 611.214844 602.601562 611.03125 603.339844 610.929688 603.683594 C 611.007812 602.835938 611.152344 602.066406 611.375 601.398438 Z M 626.890625 717.339844 L 628.007812 728.535156 L 604.738281 728.550781 C 604.738281 728.550781 599.46875 728.679688 599.566406 726.082031 C 599.710938 722.085938 609.886719 723.316406 613.519531 721.863281 C 615.230469 721.179688 619.058594 717 619.058594 717 L 626.855469 716.996094 Z M 603.261719 511.796875 C 603.195312 511.117188 603.484375 510.53125 603.898438 510.484375 C 604.316406 510.441406 604.707031 510.953125 604.773438 511.632812 C 604.835938 512.308594 604.546875 512.894531 604.136719 512.941406 C 603.714844 512.988281 603.332031 512.472656 603.261719 511.796875 Z M 166.746094 729.339844 C 165.984375 731.828125 161.050781 729.976562 161.050781 729.976562 L 139.074219 722.328125 L 143.804688 712.121094 L 143.949219 711.804688 L 151.308594 714.367188 C 151.308594 714.367188 153.558594 719.570312 154.949219 720.777344 C 157.902344 723.34375 167.917969 725.519531 166.746094 729.339844 Z M 177.921875 653.75 L 171.46875 653.824219 L 158.246094 653.976562 L 155.378906 654.007812 C 155.378906 654.007812 149.820312 620.058594 149.820312 614.835938 C 149.820312 611.285156 150.960938 607.976562 152.902344 605.136719 C 156.675781 599.621094 163.546875 595.917969 171.425781 595.917969 C 180.015625 595.917969 187.414062 594.917969 190.898438 598.246094 C 192.25 599.535156 193.03125 601.464844 193.03125 604.390625 C 193.03125 614.835938 192.660156 653.582031 192.660156 653.582031 L 190.03125 653.609375 Z M 204.316406 725.496094 C 204.414062 728.09375 199.144531 727.964844 199.144531 727.964844 L 175.875 727.949219 L 176.992188 716.753906 L 177.027344 716.410156 L 184.820312 716.414062 C 184.820312 716.414062 188.652344 720.59375 190.363281 721.277344 C 193.996094 722.730469 204.167969 721.503906 204.316406 725.496094 Z M 204.316406 725.496094 " fill-opacity="1" fill-rule="nonzero"/><path fill="#0984e3" d="M 191.507812 464.914062 C 184.808594 464.34375 177.960938 458.066406 178.820312 454.699219 C 179.222656 453.121094 188.386719 448.082031 191.925781 449.265625 C 193.9375 449.941406 195.984375 457.089844 195.984375 457.089844 C 195.984375 457.089844 197.554688 459.917969 197.304688 462.148438 C 200.359375 464.195312 203.851562 467.722656 207.210938 471.808594 L 235.070312 471.808594 C 235.578125 469.226562 236.648438 467.21875 238.0625 466.726562 C 239.21875 466.320312 244.71875 468.949219 247.808594 471.808594 L 335.09375 471.808594 L 335.09375 328.371094 L 149.820312 328.371094 L 149.820312 471.808594 L 193.929688 471.808594 C 192.984375 469.558594 192.03125 467.03125 191.507812 464.914062 Z M 186.382812 424.78125 L 213.332031 401.929688 C 214.09375 401.285156 215.164062 401.140625 216.070312 401.558594 C 216.976562 401.980469 217.558594 402.886719 217.558594 403.886719 L 217.558594 417.566406 L 260.890625 382.324219 C 261.664062 381.695312 262.730469 381.570312 263.628906 382.007812 C 264.523438 382.441406 265.089844 383.355469 265.074219 384.351562 L 264.832031 401.429688 L 304.828125 371.390625 C 305.960938 370.539062 307.570312 370.769531 308.417969 371.898438 C 309.269531 373.03125 309.042969 374.640625 307.910156 375.492188 L 263.730469 408.667969 C 262.949219 409.257812 261.902344 409.347656 261.027344 408.90625 C 260.15625 408.460938 259.613281 407.558594 259.625 406.582031 L 259.867188 389.773438 L 216.613281 424.949219 C 215.847656 425.574219 214.789062 425.703125 213.894531 425.277344 C 213 424.851562 212.429688 423.949219 212.429688 422.960938 L 212.429688 409.425781 L 189.703125 428.695312 C 189.21875 429.105469 188.632812 429.304688 188.046875 429.304688 C 187.320312 429.304688 186.59375 428.996094 186.089844 428.398438 C 185.171875 427.320312 185.304688 425.699219 186.382812 424.78125 Z M 234.832031 560.847656 L 234.832031 701.65625 C 234.832031 713.832031 244.703125 723.699219 256.878906 723.699219 L 377.710938 723.699219 C 384.101562 723.699219 389.839844 720.964844 393.867188 716.621094 C 397.511719 712.6875 399.757812 707.441406 399.757812 701.65625 L 399.757812 560.847656 Z M 280.082031 582.710938 C 280.082031 580.628906 281.765625 578.941406 283.847656 578.941406 L 294.628906 578.941406 C 296.710938 578.941406 298.398438 580.628906 298.398438 582.710938 L 298.398438 593.492188 C 298.398438 594.847656 297.675781 596.027344 296.597656 596.691406 C 296.023438 597.046875 295.355469 597.257812 294.628906 597.257812 L 283.847656 597.257812 C 281.765625 597.257812 280.082031 595.574219 280.082031 593.492188 Z M 280.082031 608.902344 C 280.082031 606.820312 281.765625 605.136719 283.847656 605.136719 L 294.628906 605.136719 C 295.027344 605.136719 295.402344 605.214844 295.761719 605.328125 C 297.285156 605.808594 298.398438 607.21875 298.398438 608.902344 L 298.398438 619.683594 C 298.398438 621.347656 297.308594 622.746094 295.8125 623.246094 C 295.4375 623.367188 295.046875 623.453125 294.628906 623.453125 L 283.847656 623.453125 C 281.765625 623.453125 280.082031 621.765625 280.082031 619.683594 Z M 280.082031 635.09375 C 280.082031 633.015625 281.765625 631.328125 283.847656 631.328125 L 294.628906 631.328125 C 295.5 631.328125 296.292969 631.636719 296.929688 632.132812 C 297.816406 632.820312 298.398438 633.886719 298.398438 635.09375 L 298.398438 645.878906 C 298.398438 647.957031 296.710938 649.644531 294.628906 649.644531 L 283.847656 649.644531 C 281.765625 649.644531 280.082031 647.957031 280.082031 645.878906 Z M 280.082031 661.289062 C 280.082031 659.207031 281.765625 657.519531 283.847656 657.519531 L 294.628906 657.519531 C 296.710938 657.519531 298.398438 659.207031 298.398438 661.289062 L 298.398438 672.070312 C 298.398438 674.152344 296.710938 675.835938 294.628906 675.835938 L 283.847656 675.835938 C 281.765625 675.835938 280.082031 674.152344 280.082031 672.070312 Z M 252.574219 582.710938 C 252.574219 580.628906 254.257812 578.941406 256.339844 578.941406 L 267.125 578.941406 C 269.203125 578.941406 270.890625 580.628906 270.890625 582.710938 L 270.890625 593.492188 C 270.890625 595.574219 269.203125 597.261719 267.125 597.261719 L 256.339844 597.261719 C 254.261719 597.261719 252.574219 595.574219 252.574219 593.492188 Z M 252.574219 608.902344 C 252.574219 606.820312 254.257812 605.136719 256.339844 605.136719 L 267.125 605.136719 C 269.203125 605.136719 270.890625 606.820312 270.890625 608.902344 L 270.890625 619.683594 C 270.890625 621.765625 269.203125 623.453125 267.125 623.453125 L 256.339844 623.453125 C 254.261719 623.453125 252.574219 621.765625 252.574219 619.683594 Z M 252.574219 635.09375 C 252.574219 633.015625 254.257812 631.328125 256.339844 631.328125 L 267.125 631.328125 C 269.203125 631.328125 270.890625 633.015625 270.890625 635.09375 L 270.890625 645.878906 C 270.890625 647.957031 269.203125 649.644531 267.125 649.644531 L 256.339844 649.644531 C 254.261719 649.644531 252.574219 647.957031 252.574219 645.878906 Z M 252.574219 661.289062 C 252.574219 659.207031 254.257812 657.519531 256.339844 657.519531 L 267.125 657.519531 C 269.203125 657.519531 270.890625 659.207031 270.890625 661.289062 L 270.890625 672.070312 C 270.890625 674.152344 269.203125 675.835938 267.125 675.835938 L 256.339844 675.835938 C 254.261719 675.835938 252.574219 674.152344 252.574219 672.070312 Z M 270.890625 698.386719 C 270.890625 700.46875 269.203125 702.15625 267.121094 702.15625 L 256.339844 702.15625 C 254.257812 702.15625 252.574219 700.46875 252.574219 698.386719 L 252.574219 687.605469 C 252.574219 685.527344 254.257812 683.835938 256.339844 683.835938 L 267.121094 683.835938 C 269.203125 683.835938 270.890625 685.523438 270.890625 687.605469 Z M 298.398438 698.386719 C 298.398438 700.46875 296.710938 702.15625 294.628906 702.15625 L 283.847656 702.15625 C 281.765625 702.15625 280.082031 700.46875 280.082031 698.386719 L 280.082031 687.605469 C 280.082031 685.527344 281.765625 683.835938 283.847656 683.835938 L 294.628906 683.835938 C 296.710938 683.835938 298.398438 685.523438 298.398438 687.605469 Z M 325.902344 698.386719 C 325.902344 700.46875 324.21875 702.15625 322.136719 702.15625 L 311.355469 702.15625 C 309.273438 702.15625 307.585938 700.46875 307.585938 698.386719 L 307.585938 687.605469 C 307.585938 685.527344 309.273438 683.835938 311.355469 683.835938 L 322.136719 683.835938 C 324.21875 683.835938 325.902344 685.523438 325.902344 687.605469 Z M 362.601562 582.710938 C 362.601562 580.628906 364.289062 578.941406 366.367188 578.941406 L 377.152344 578.941406 C 379.230469 578.941406 380.917969 580.628906 380.917969 582.710938 L 380.917969 593.492188 C 380.917969 595.574219 379.234375 597.261719 377.152344 597.261719 L 366.367188 597.261719 C 364.289062 597.261719 362.601562 595.574219 362.601562 593.492188 Z M 362.601562 608.902344 C 362.601562 606.820312 364.289062 605.136719 366.367188 605.136719 L 377.152344 605.136719 C 379.230469 605.136719 380.917969 606.820312 380.917969 608.902344 L 380.917969 619.683594 C 380.917969 621.765625 379.234375 623.453125 377.152344 623.453125 L 366.367188 623.453125 C 364.289062 623.453125 362.601562 621.765625 362.601562 619.683594 Z M 362.601562 635.09375 C 362.601562 633.015625 364.289062 631.328125 366.367188 631.328125 L 377.152344 631.328125 C 379.230469 631.328125 380.917969 633.015625 380.917969 635.09375 L 380.917969 645.878906 C 380.917969 647.957031 379.234375 649.644531 377.152344 649.644531 L 366.367188 649.644531 C 364.289062 649.644531 362.601562 647.957031 362.601562 645.878906 Z M 362.601562 661.289062 C 362.601562 659.207031 364.289062 657.519531 366.367188 657.519531 L 377.152344 657.519531 C 379.230469 657.519531 380.917969 659.207031 380.917969 661.289062 L 380.917969 698.066406 C 380.917969 700.148438 379.234375 701.835938 377.152344 701.835938 L 366.367188 701.835938 C 364.289062 701.835938 362.601562 700.148438 362.601562 698.066406 Z M 335.09375 582.710938 C 335.09375 580.628906 336.78125 578.941406 338.863281 578.941406 L 349.644531 578.941406 C 351.726562 578.941406 353.410156 580.628906 353.410156 582.710938 L 353.410156 593.492188 C 353.410156 595.574219 351.726562 597.261719 349.644531 597.261719 L 338.863281 597.261719 C 336.78125 597.261719 335.09375 595.574219 335.09375 593.492188 Z M 335.09375 608.902344 C 335.09375 606.820312 336.78125 605.136719 338.863281 605.136719 L 349.644531 605.136719 C 351.726562 605.136719 353.410156 606.820312 353.410156 608.902344 L 353.410156 619.683594 C 353.410156 621.765625 351.726562 623.453125 349.644531 623.453125 L 338.863281 623.453125 C 336.78125 623.453125 335.09375 621.765625 335.09375 619.683594 Z M 335.09375 635.09375 C 335.09375 633.015625 336.78125 631.328125 338.863281 631.328125 L 349.644531 631.328125 C 351.726562 631.328125 353.410156 633.015625 353.410156 635.09375 L 353.410156 645.878906 C 353.410156 647.957031 351.726562 649.644531 349.644531 649.644531 L 338.863281 649.644531 C 336.78125 649.644531 335.09375 647.957031 335.09375 645.878906 Z M 335.09375 661.289062 C 335.09375 659.207031 336.78125 657.519531 338.863281 657.519531 L 349.644531 657.519531 C 351.726562 657.519531 353.410156 659.207031 353.410156 661.289062 L 353.410156 672.070312 C 353.410156 674.152344 351.726562 675.835938 349.644531 675.835938 L 338.863281 675.835938 C 336.78125 675.835938 335.09375 674.152344 335.09375 672.070312 Z M 335.09375 687.605469 C 335.09375 685.523438 336.78125 683.835938 338.863281 683.835938 L 349.644531 683.835938 C 351.726562 683.835938 353.410156 685.523438 353.410156 687.605469 L 353.410156 698.386719 C 353.410156 699.753906 352.675781 700.941406 351.582031 701.601562 C 351.015625 701.945312 350.355469 702.152344 349.644531 702.152344 L 338.863281 702.152344 C 336.78125 702.152344 335.09375 700.464844 335.09375 698.386719 Z M 307.589844 582.710938 C 307.589844 580.628906 309.273438 578.941406 311.355469 578.941406 L 322.136719 578.941406 C 324.21875 578.941406 325.90625 580.628906 325.90625 582.710938 L 325.90625 593.492188 C 325.90625 595.574219 324.21875 597.261719 322.136719 597.261719 L 311.355469 597.261719 C 309.273438 597.261719 307.585938 595.574219 307.585938 593.492188 L 307.585938 582.710938 Z M 307.589844 608.902344 C 307.589844 606.820312 309.273438 605.136719 311.355469 605.136719 L 322.136719 605.136719 C 324.21875 605.136719 325.90625 606.820312 325.90625 608.902344 L 325.90625 619.683594 C 325.90625 621.765625 324.21875 623.453125 322.136719 623.453125 L 311.355469 623.453125 C 309.273438 623.453125 307.585938 621.765625 307.585938 619.683594 L 307.585938 608.902344 Z M 307.589844 635.09375 C 307.589844 633.015625 309.273438 631.328125 311.355469 631.328125 L 322.136719 631.328125 C 324.21875 631.328125 325.90625 633.015625 325.90625 635.09375 L 325.90625 645.878906 C 325.90625 647.957031 324.21875 649.644531 322.136719 649.644531 L 311.355469 649.644531 C 309.273438 649.644531 307.585938 647.957031 307.585938 645.878906 L 307.585938 635.09375 Z M 307.589844 661.289062 C 307.589844 659.207031 309.273438 657.519531 311.355469 657.519531 L 322.136719 657.519531 C 324.21875 657.519531 325.90625 659.207031 325.90625 661.289062 L 325.90625 672.070312 C 325.90625 674.152344 324.21875 675.835938 322.136719 675.835938 L 311.355469 675.835938 C 309.273438 675.835938 307.585938 674.152344 307.585938 672.070312 L 307.585938 661.289062 Z M 520.355469 589.675781 C 487.648438 589.675781 461.136719 616.1875 461.136719 648.894531 C 461.136719 681.597656 487.648438 708.113281 520.355469 708.113281 C 553.058594 708.113281 579.574219 681.597656 579.574219 648.894531 C 579.574219 616.1875 553.058594 589.675781 520.355469 589.675781 Z M 523.253906 674.496094 L 523.253906 683.625 L 514.695312 683.625 L 514.695312 675.121094 C 508.84375 674.851562 503.167969 673.242188 499.851562 671.273438 L 502.46875 660.800781 C 506.136719 662.859375 511.289062 664.738281 516.964844 664.738281 C 521.945312 664.738281 525.347656 662.769531 525.347656 659.191406 C 525.347656 655.789062 522.554688 653.640625 516.09375 651.40625 C 506.75 648.183594 500.375 643.707031 500.375 635.027344 C 500.375 627.148438 505.789062 620.972656 515.132812 619.09375 L 515.132812 610.59375 L 523.6875 610.59375 L 523.6875 618.46875 C 529.539062 618.738281 533.46875 619.992188 536.351562 621.421875 L 533.820312 631.535156 C 531.550781 630.550781 527.53125 628.492188 521.246094 628.492188 C 515.570312 628.492188 513.734375 631 513.734375 633.503906 C 513.734375 636.460938 516.792969 638.339844 524.214844 641.203125 C 534.605469 644.960938 538.796875 649.882812 538.796875 657.9375 C 538.796875 665.902344 533.296875 672.703125 523.253906 674.496094 Z M 218.683594 488.203125 C 219.03125 488.914062 219.242188 489.695312 219.332031 490.539062 C 218.839844 489.46875 218.257812 488.324219 217.617188 487.140625 C 218.0625 487.355469 218.429688 487.695312 218.683594 488.203125 Z M 224.765625 525.460938 C 215.863281 532.707031 198.652344 538.957031 187.335938 540.78125 C 187.335938 540.785156 187.335938 540.785156 187.339844 540.785156 C 187.527344 541.351562 187.679688 541.960938 187.820312 542.605469 C 190.566406 543.222656 192.910156 544.84375 194.210938 547.308594 C 196.789062 552.226562 194.214844 558.671875 188.441406 561.707031 C 188.25 561.800781 188.058594 561.890625 187.867188 561.976562 C 187.125 570.765625 185.957031 580.101562 186.03125 586.941406 C 186.132812 596.203125 192.09375 597.820312 192.09375 597.820312 L 191.507812 598.117188 C 191.308594 598.152344 191.097656 598.203125 190.894531 598.242188 C 187.414062 594.917969 180.015625 595.917969 171.425781 595.917969 C 163.546875 595.917969 156.675781 599.621094 152.898438 605.136719 C 152.894531 605.136719 152.886719 605.136719 152.878906 605.132812 C 152.910156 603.535156 165.199219 590.585938 160.457031 578.941406 C 145.140625 541.324219 158.648438 530.753906 158.648438 530.753906 L 159.261719 530.546875 L 159.269531 530.546875 L 163.335938 529.152344 C 163.640625 529 163.988281 528.84375 164.367188 528.683594 C 167.28125 527.425781 172.289062 525.808594 177.882812 524.15625 L 177.558594 516.113281 C 179.628906 514.542969 181.460938 512.777344 182.8125 511.082031 C 190.496094 504.285156 197.480469 498.386719 197.480469 498.386719 C 197.480469 498.386719 200.179688 495.980469 203.671875 493.363281 C 205.105469 496.199219 206.464844 498.5625 207.417969 499.492188 C 210.074219 502.097656 213.476562 502.171875 216.242188 501.171875 C 213.421875 506.320312 208.996094 511.9375 204.183594 517.015625 C 205.96875 516.5625 207.03125 516.296875 207.03125 516.296875 C 207.03125 516.296875 211.722656 514.992188 216.910156 514.148438 C 216.742188 514.597656 216.617188 514.996094 216.554688 515.316406 C 215.402344 521.335938 221.054688 525.265625 224.765625 525.460938 Z M 648.734375 603.929688 L 610.851562 603.929688 C 610.851562 603.929688 610.882812 603.847656 610.929688 603.683594 C 611.03125 603.339844 611.214844 602.601562 611.378906 601.398438 C 611.734375 598.78125 611.996094 593.925781 611.121094 585.808594 C 610.507812 580.105469 608.53125 574.265625 606.53125 568.367188 C 606.21875 567.445312 605.90625 566.519531 605.597656 565.589844 C 604.84375 566.527344 604.070312 567.457031 603.289062 568.371094 C 600.046875 572.140625 596.640625 575.578125 593.808594 577.753906 C 593.027344 578.515625 592.101562 579.125 591.074219 579.539062 C 590.152344 580 589.371094 580.203125 588.761719 580.109375 C 588.480469 580.136719 588.195312 580.148438 587.90625 580.148438 C 583.265625 580.132812 582.503906 575.28125 579.535156 571.714844 C 575.6875 567.101562 570.113281 552.675781 569.816406 546.222656 C 570.734375 546.21875 571.585938 545.972656 572.34375 545.574219 C 572.953125 545.253906 573.492188 544.828125 573.941406 544.3125 C 578.277344 547.351562 585.542969 555.269531 590.625 561.957031 C 594.457031 549.679688 600.65625 535.355469 603.742188 533.617188 C 604.746094 533.054688 605.808594 532.671875 606.878906 532.457031 C 607.113281 532.773438 607.355469 533.082031 607.609375 533.382812 C 608.113281 533.972656 608.652344 534.539062 609.210938 535.078125 C 611.441406 537.234375 613.890625 539.019531 614.910156 540.800781 C 616.039062 542.777344 615.199219 546.300781 615.050781 550.320312 C 615.046875 550.515625 615.042969 550.707031 615.039062 550.902344 C 614.972656 554.445312 615.542969 558.328125 618.496094 561.851562 C 618.789062 562.203125 619.097656 562.550781 619.441406 562.894531 C 621.875 565.328125 624.21875 566.410156 626.339844 566.707031 C 631.875 567.484375 635.871094 562.894531 635.871094 562.894531 L 636.175781 562.941406 C 637.296875 563.636719 638.402344 564.273438 639.488281 564.835938 C 641.621094 565.941406 643.679688 566.746094 645.683594 567.320312 C 645.160156 570.816406 644.597656 574.148438 644.011719 576.90625 C 641.953125 586.609375 646.238281 598.140625 648.011719 602.316406 C 648.449219 603.34375 648.734375 603.929688 648.734375 603.929688 Z M 648.734375 603.929688 " fill-opacity="1" fill-rule="nonzero"/><g fill="#000000" fill-opacity="1"><g transform="translate(24.046855, 188.331865)"><g><path d="M 1.421875 -25.484375 C 1.421875 -32.847656 3.929688 -39.082031 8.953125 -44.1875 C 13.972656 -49.289062 20.019531 -51.84375 27.09375 -51.84375 C 34.207031 -51.84375 40.253906 -49.300781 45.234375 -44.21875 C 50.210938 -39.132812 52.703125 -32.890625 52.703125 -25.484375 C 52.703125 -18.035156 50.253906 -11.769531 45.359375 -6.6875 C 40.460938 -1.613281 34.375 0.921875 27.09375 0.921875 C 19.644531 0.921875 13.503906 -1.59375 8.671875 -6.625 C 3.835938 -11.664062 1.421875 -17.953125 1.421875 -25.484375 Z M 13.953125 -25.484375 C 13.953125 -22.816406 14.363281 -20.378906 15.1875 -18.171875 C 16.007812 -15.972656 17.445312 -14.113281 19.5 -12.59375 C 21.5625 -11.070312 24.09375 -10.3125 27.09375 -10.3125 C 31.414062 -10.3125 34.675781 -11.789062 36.875 -14.75 C 39.070312 -17.707031 40.171875 -21.285156 40.171875 -25.484375 C 40.171875 -29.640625 39.050781 -33.207031 36.8125 -36.1875 C 34.570312 -39.175781 31.332031 -40.671875 27.09375 -40.671875 C 22.894531 -40.671875 19.65625 -39.175781 17.375 -36.1875 C 15.09375 -33.207031 13.953125 -29.640625 13.953125 -25.484375 Z M 13.953125 -25.484375 "/></g></g></g><g fill="#000000" fill-opacity="1"><g transform="translate(78.177602, 188.331865)"><g><path d="M 3.703125 0 L 3.703125 -31.65625 L 14.625 -31.65625 L 14.625 -28.328125 L 14.75 -28.328125 C 17.59375 -31.171875 20.617188 -32.59375 23.828125 -32.59375 C 25.390625 -32.59375 26.941406 -32.382812 28.484375 -31.96875 C 30.023438 -31.5625 31.503906 -30.925781 32.921875 -30.0625 C 34.347656 -29.195312 35.5 -27.972656 36.375 -26.390625 C 37.257812 -24.804688 37.703125 -22.960938 37.703125 -20.859375 L 37.703125 0 L 26.78125 0 L 26.78125 -17.890625 C 26.78125 -19.535156 26.253906 -20.972656 25.203125 -22.203125 C 24.160156 -23.441406 22.796875 -24.0625 21.109375 -24.0625 C 19.460938 -24.0625 17.96875 -23.425781 16.625 -22.15625 C 15.289062 -20.882812 14.625 -19.460938 14.625 -17.890625 L 14.625 0 Z M 3.703125 0 "/></g></g></g><g fill="#000000" fill-opacity="1"><g transform="translate(118.976268, 188.331865)"><g><path d="M 3.703125 0 L 3.703125 -53.078125 L 14.625 -53.078125 L 14.625 0 Z M 3.703125 0 "/></g></g></g><g fill="#000000" fill-opacity="1"><g transform="translate(137.307893, 188.331865)"><g><path d="M 4.75 -49.3125 C 6.03125 -50.582031 7.550781 -51.21875 9.3125 -51.21875 C 11.082031 -51.21875 12.601562 -50.582031 13.875 -49.3125 C 15.15625 -48.039062 15.796875 -46.519531 15.796875 -44.75 C 15.796875 -42.976562 15.15625 -41.453125 13.875 -40.171875 C 12.601562 -38.898438 11.082031 -38.265625 9.3125 -38.265625 C 7.550781 -38.265625 6.03125 -38.898438 4.75 -40.171875 C 3.476562 -41.453125 2.84375 -42.976562 2.84375 -44.75 C 2.84375 -46.519531 3.476562 -48.039062 4.75 -49.3125 Z M 3.703125 -31.65625 L 3.703125 0 L 14.625 0 L 14.625 -31.65625 Z M 3.703125 -31.65625 "/></g></g></g><g fill="#000000" fill-opacity="1"><g transform="translate(155.948132, 188.331865)"><g><path d="M 3.703125 0 L 3.703125 -31.65625 L 14.625 -31.65625 L 14.625 -28.328125 L 14.75 -28.328125 C 17.59375 -31.171875 20.617188 -32.59375 23.828125 -32.59375 C 25.390625 -32.59375 26.941406 -32.382812 28.484375 -31.96875 C 30.023438 -31.5625 31.503906 -30.925781 32.921875 -30.0625 C 34.347656 -29.195312 35.5 -27.972656 36.375 -26.390625 C 37.257812 -24.804688 37.703125 -22.960938 37.703125 -20.859375 L 37.703125 0 L 26.78125 0 L 26.78125 -17.890625 C 26.78125 -19.535156 26.253906 -20.972656 25.203125 -22.203125 C 24.160156 -23.441406 22.796875 -24.0625 21.109375 -24.0625 C 19.460938 -24.0625 17.96875 -23.425781 16.625 -22.15625 C 15.289062 -20.882812 14.625 -19.460938 14.625 -17.890625 L 14.625 0 Z M 3.703125 0 "/></g></g></g><g fill="#000000" fill-opacity="1"><g transform="translate(196.746798, 188.331865)"><g><path d="M 35.734375 -14.3125 L 12.78125 -14.3125 C 12.78125 -12.09375 13.5 -10.445312 14.9375 -9.375 C 16.375 -8.3125 17.9375 -7.78125 19.625 -7.78125 C 21.394531 -7.78125 22.789062 -8.015625 23.8125 -8.484375 C 24.84375 -8.960938 26.019531 -9.898438 27.34375 -11.296875 L 35.234375 -7.34375 C 31.941406 -1.832031 26.472656 0.921875 18.828125 0.921875 C 14.054688 0.921875 9.960938 -0.710938 6.546875 -3.984375 C 3.128906 -7.253906 1.421875 -11.191406 1.421875 -15.796875 C 1.421875 -20.410156 3.128906 -24.363281 6.546875 -27.65625 C 9.960938 -30.945312 14.054688 -32.59375 18.828125 -32.59375 C 23.847656 -32.59375 27.929688 -31.140625 31.078125 -28.234375 C 34.222656 -25.335938 35.796875 -21.191406 35.796875 -15.796875 C 35.796875 -15.054688 35.773438 -14.5625 35.734375 -14.3125 Z M 13.078125 -20.359375 L 25.125 -20.359375 C 24.875 -22.003906 24.222656 -23.269531 23.171875 -24.15625 C 22.117188 -25.039062 20.769531 -25.484375 19.125 -25.484375 C 17.320312 -25.484375 15.882812 -25.007812 14.8125 -24.0625 C 13.738281 -23.125 13.160156 -21.890625 13.078125 -20.359375 Z M 13.078125 -20.359375 "/></g></g></g><g fill="#000000" fill-opacity="1"><g transform="translate(233.965546, 188.331865)"><g><path d="M 36.296875 -53.078125 L 10.859375 7.40625 L 1.421875 7.40625 L 26.84375 -53.078125 Z M 36.296875 -53.078125 "/></g></g></g><g fill="#000000" fill-opacity="1"><g transform="translate(271.678084, 188.331865)"><g><path d="M 3.703125 -50.921875 L 18.453125 -50.921875 C 25.523438 -50.921875 31.570312 -48.5 36.59375 -43.65625 C 41.613281 -38.820312 44.125 -32.765625 44.125 -25.484375 C 44.125 -18.160156 41.625 -12.082031 36.625 -7.25 C 31.625 -2.414062 25.566406 0 18.453125 0 L 3.703125 0 Z M 15.3125 -10.375 L 17.09375 -10.375 C 21.332031 -10.375 24.796875 -11.800781 27.484375 -14.65625 C 30.179688 -17.519531 31.550781 -21.109375 31.59375 -25.421875 C 31.59375 -29.742188 30.242188 -33.34375 27.546875 -36.21875 C 24.859375 -39.101562 21.375 -40.546875 17.09375 -40.546875 L 15.3125 -40.546875 Z M 15.3125 -10.375 "/></g></g></g><g fill="#000000" fill-opacity="1"><g transform="translate(317.229389, 188.331865)"><g><path d="M 4.75 -49.3125 C 6.03125 -50.582031 7.550781 -51.21875 9.3125 -51.21875 C 11.082031 -51.21875 12.601562 -50.582031 13.875 -49.3125 C 15.15625 -48.039062 15.796875 -46.519531 15.796875 -44.75 C 15.796875 -42.976562 15.15625 -41.453125 13.875 -40.171875 C 12.601562 -38.898438 11.082031 -38.265625 9.3125 -38.265625 C 7.550781 -38.265625 6.03125 -38.898438 4.75 -40.171875 C 3.476562 -41.453125 2.84375 -42.976562 2.84375 -44.75 C 2.84375 -46.519531 3.476562 -48.039062 4.75 -49.3125 Z M 3.703125 -31.65625 L 3.703125 0 L 14.625 0 L 14.625 -31.65625 Z M 3.703125 -31.65625 "/></g></g></g><g fill="#000000" fill-opacity="1"><g transform="translate(335.869639, 188.331865)"><g><path d="M 17.46875 -32.59375 C 19.28125 -32.59375 21.066406 -32.382812 22.828125 -31.96875 C 24.597656 -31.5625 25.914062 -31.148438 26.78125 -30.734375 L 28.078125 -30.125 L 24.5 -22.953125 C 22.03125 -24.273438 19.6875 -24.9375 17.46875 -24.9375 C 16.226562 -24.9375 15.351562 -24.800781 14.84375 -24.53125 C 14.332031 -24.257812 14.078125 -23.753906 14.078125 -23.015625 C 14.078125 -22.859375 14.09375 -22.695312 14.125 -22.53125 C 14.164062 -22.363281 14.25 -22.207031 14.375 -22.0625 C 14.5 -21.914062 14.613281 -21.789062 14.71875 -21.6875 C 14.820312 -21.59375 14.992188 -21.484375 15.234375 -21.359375 C 15.484375 -21.234375 15.679688 -21.140625 15.828125 -21.078125 C 15.972656 -21.015625 16.207031 -20.921875 16.53125 -20.796875 C 16.863281 -20.671875 17.113281 -20.578125 17.28125 -20.515625 C 17.445312 -20.453125 17.722656 -20.359375 18.109375 -20.234375 C 18.503906 -20.117188 18.804688 -20.039062 19.015625 -20 C 20.285156 -19.625 21.394531 -19.207031 22.34375 -18.75 C 23.289062 -18.300781 24.285156 -17.6875 25.328125 -16.90625 C 26.378906 -16.125 27.191406 -15.132812 27.765625 -13.9375 C 28.347656 -12.75 28.640625 -11.394531 28.640625 -9.875 C 28.640625 -2.675781 23.640625 0.921875 13.640625 0.921875 C 11.378906 0.921875 9.226562 0.570312 7.1875 -0.125 C 5.15625 -0.820312 3.6875 -1.519531 2.78125 -2.21875 L 1.421875 -3.328125 L 5.859375 -10.796875 C 6.191406 -10.515625 6.625 -10.175781 7.15625 -9.78125 C 7.695312 -9.394531 8.664062 -8.859375 10.0625 -8.171875 C 11.457031 -7.492188 12.671875 -7.15625 13.703125 -7.15625 C 15.960938 -7.15625 17.09375 -7.914062 17.09375 -9.4375 C 17.09375 -10.132812 16.804688 -10.679688 16.234375 -11.078125 C 15.660156 -11.472656 14.679688 -11.914062 13.296875 -12.40625 C 11.921875 -12.894531 10.84375 -13.347656 10.0625 -13.765625 C 8.082031 -14.796875 6.515625 -15.957031 5.359375 -17.25 C 4.210938 -18.539062 3.640625 -20.257812 3.640625 -22.40625 C 3.640625 -25.613281 4.882812 -28.113281 7.375 -29.90625 C 9.863281 -31.695312 13.226562 -32.59375 17.46875 -32.59375 Z M 17.46875 -32.59375 "/></g></g></g><g fill="#000000" fill-opacity="1"><g transform="translate(366.237176, 188.331865)"><g><path d="M 5.546875 -31.65625 L 5.546875 -43.453125 L 16.484375 -43.453125 L 16.484375 -31.65625 L 23.140625 -31.65625 L 23.140625 -23.328125 L 16.484375 -23.328125 L 16.484375 -13.265625 C 16.484375 -10.347656 17.304688 -8.890625 18.953125 -8.890625 C 19.359375 -8.890625 19.785156 -8.96875 20.234375 -9.125 C 20.691406 -9.289062 21.046875 -9.457031 21.296875 -9.625 L 21.65625 -9.875 L 24.375 -1.046875 C 22.03125 0.265625 19.359375 0.921875 16.359375 0.921875 C 14.296875 0.921875 12.523438 0.5625 11.046875 -0.15625 C 9.566406 -0.875 8.445312 -1.835938 7.6875 -3.046875 C 6.925781 -4.265625 6.378906 -5.539062 6.046875 -6.875 C 5.710938 -8.21875 5.546875 -9.648438 5.546875 -11.171875 L 5.546875 -23.328125 L 0.984375 -23.328125 L 0.984375 -31.65625 Z M 5.546875 -31.65625 "/></g></g></g><g fill="#000000" fill-opacity="1"><g transform="translate(390.617622, 188.331865)"><g><path d="M 5.859375 -3.921875 C 2.898438 -7.148438 1.421875 -11.109375 1.421875 -15.796875 C 1.421875 -20.484375 2.898438 -24.453125 5.859375 -27.703125 C 8.828125 -30.960938 12.59375 -32.59375 17.15625 -32.59375 C 21.351562 -32.59375 24.8125 -31.273438 27.53125 -28.640625 L 27.53125 -31.65625 L 38.453125 -31.65625 L 38.453125 0 L 27.65625 0 L 27.65625 -3.578125 L 27.53125 -3.578125 C 24.8125 -0.578125 21.351562 0.921875 17.15625 0.921875 C 12.59375 0.921875 8.828125 -0.691406 5.859375 -3.921875 Z M 15.140625 -21.171875 C 13.722656 -19.773438 13.015625 -17.984375 13.015625 -15.796875 C 13.015625 -13.617188 13.691406 -11.835938 15.046875 -10.453125 C 16.410156 -9.078125 18.203125 -8.390625 20.421875 -8.390625 C 22.566406 -8.390625 24.328125 -9.085938 25.703125 -10.484375 C 27.078125 -11.890625 27.765625 -13.660156 27.765625 -15.796875 C 27.765625 -17.984375 27.054688 -19.773438 25.640625 -21.171875 C 24.222656 -22.566406 22.484375 -23.265625 20.421875 -23.265625 C 18.328125 -23.265625 16.566406 -22.566406 15.140625 -21.171875 Z M 15.140625 -21.171875 "/></g></g></g><g fill="#000000" fill-opacity="1"><g transform="translate(432.774175, 188.331865)"><g><path d="M 3.703125 0 L 3.703125 -31.65625 L 14.625 -31.65625 L 14.625 -28.328125 L 14.75 -28.328125 C 17.59375 -31.171875 20.617188 -32.59375 23.828125 -32.59375 C 25.390625 -32.59375 26.941406 -32.382812 28.484375 -31.96875 C 30.023438 -31.5625 31.503906 -30.925781 32.921875 -30.0625 C 34.347656 -29.195312 35.5 -27.972656 36.375 -26.390625 C 37.257812 -24.804688 37.703125 -22.960938 37.703125 -20.859375 L 37.703125 0 L 26.78125 0 L 26.78125 -17.890625 C 26.78125 -19.535156 26.253906 -20.972656 25.203125 -22.203125 C 24.160156 -23.441406 22.796875 -24.0625 21.109375 -24.0625 C 19.460938 -24.0625 17.96875 -23.425781 16.625 -22.15625 C 15.289062 -20.882812 14.625 -19.460938 14.625 -17.890625 L 14.625 0 Z M 3.703125 0 "/></g></g></g><g fill="#000000" fill-opacity="1"><g transform="translate(473.572864, 188.331865)"><g><path d="M 20.546875 -23.640625 C 18.492188 -23.640625 16.722656 -22.878906 15.234375 -21.359375 C 13.753906 -19.835938 13.015625 -18.003906 13.015625 -15.859375 C 13.015625 -13.679688 13.753906 -11.828125 15.234375 -10.296875 C 16.722656 -8.773438 18.492188 -8.015625 20.546875 -8.015625 C 21.535156 -8.015625 22.472656 -8.140625 23.359375 -8.390625 C 24.242188 -8.640625 24.890625 -8.890625 25.296875 -9.140625 L 25.859375 -9.5 L 29.5625 -1.90625 C 29.269531 -1.707031 28.867188 -1.453125 28.359375 -1.140625 C 27.847656 -0.828125 26.675781 -0.40625 24.84375 0.125 C 23.007812 0.65625 21.046875 0.921875 18.953125 0.921875 C 14.296875 0.921875 10.207031 -0.710938 6.6875 -3.984375 C 3.175781 -7.253906 1.421875 -11.171875 1.421875 -15.734375 C 1.421875 -20.347656 3.175781 -24.3125 6.6875 -27.625 C 10.207031 -30.9375 14.296875 -32.59375 18.953125 -32.59375 C 21.046875 -32.59375 22.976562 -32.34375 24.75 -31.84375 C 26.519531 -31.351562 27.773438 -30.859375 28.515625 -30.359375 L 29.5625 -29.625 L 25.859375 -22.15625 C 24.503906 -23.144531 22.734375 -23.640625 20.546875 -23.640625 Z M 20.546875 -23.640625 "/></g></g></g><g fill="#000000" fill-opacity="1"><g transform="translate(503.878648, 188.331865)"><g><path d="M 35.734375 -14.3125 L 12.78125 -14.3125 C 12.78125 -12.09375 13.5 -10.445312 14.9375 -9.375 C 16.375 -8.3125 17.9375 -7.78125 19.625 -7.78125 C 21.394531 -7.78125 22.789062 -8.015625 23.8125 -8.484375 C 24.84375 -8.960938 26.019531 -9.898438 27.34375 -11.296875 L 35.234375 -7.34375 C 31.941406 -1.832031 26.472656 0.921875 18.828125 0.921875 C 14.054688 0.921875 9.960938 -0.710938 6.546875 -3.984375 C 3.128906 -7.253906 1.421875 -11.191406 1.421875 -15.796875 C 1.421875 -20.410156 3.128906 -24.363281 6.546875 -27.65625 C 9.960938 -30.945312 14.054688 -32.59375 18.828125 -32.59375 C 23.847656 -32.59375 27.929688 -31.140625 31.078125 -28.234375 C 34.222656 -25.335938 35.796875 -21.191406 35.796875 -15.796875 C 35.796875 -15.054688 35.773438 -14.5625 35.734375 -14.3125 Z M 13.078125 -20.359375 L 25.125 -20.359375 C 24.875 -22.003906 24.222656 -23.269531 23.171875 -24.15625 C 22.117188 -25.039062 20.769531 -25.484375 19.125 -25.484375 C 17.320312 -25.484375 15.882812 -25.007812 14.8125 -24.0625 C 13.738281 -23.125 13.160156 -21.890625 13.078125 -20.359375 Z M 13.078125 -20.359375 "/></g></g></g><g fill="#000000" fill-opacity="1"><g transform="translate(541.097396, 188.331865)"><g/></g></g><g fill="#104e91" fill-opacity="1"><g transform="translate(557.941364, 188.331865)"><g><path d="M 45.796875 0 L 43.390625 -30.1875 L 43.078125 -30.1875 L 32.65625 -0.3125 L 25.734375 -0.3125 L 15.3125 -30.1875 L 15 -30.1875 L 12.59375 0 L 0.984375 0 L 5.546875 -50.921875 L 17.890625 -50.921875 L 29.1875 -21.546875 L 40.484375 -50.921875 L 52.828125 -50.921875 L 57.390625 0 Z M 45.796875 0 "/></g></g></g><g fill="#104e91" fill-opacity="1"><g transform="translate(616.330971, 188.331865)"><g><path d="M 10.734375 -13.203125 C 12.710938 -13.203125 14.390625 -12.515625 15.765625 -11.140625 C 17.148438 -9.765625 17.84375 -8.085938 17.84375 -6.109375 C 17.84375 -4.171875 17.148438 -2.515625 15.765625 -1.140625 C 14.390625 0.234375 12.710938 0.921875 10.734375 0.921875 C 8.804688 0.921875 7.148438 0.234375 5.765625 -1.140625 C 4.390625 -2.515625 3.703125 -4.171875 3.703125 -6.109375 C 3.703125 -8.085938 4.390625 -9.765625 5.765625 -11.140625 C 7.148438 -12.515625 8.804688 -13.203125 10.734375 -13.203125 Z M 10.734375 -13.203125 "/></g></g></g><g fill="#104e91" fill-opacity="1"><g transform="translate(637.872172, 188.331865)"><g><path d="M 30.796875 -10.484375 C 32.566406 -10.484375 34.285156 -10.75 35.953125 -11.28125 C 37.617188 -11.820312 38.84375 -12.34375 39.625 -12.84375 L 40.796875 -13.640625 L 45.734375 -3.765625 C 45.566406 -3.640625 45.335938 -3.472656 45.046875 -3.265625 C 44.765625 -3.066406 44.097656 -2.6875 43.046875 -2.125 C 41.992188 -1.570312 40.867188 -1.085938 39.671875 -0.671875 C 38.484375 -0.265625 36.921875 0.0976562 34.984375 0.421875 C 33.054688 0.753906 31.0625 0.921875 29 0.921875 C 24.269531 0.921875 19.785156 -0.238281 15.546875 -2.5625 C 11.316406 -4.882812 7.90625 -8.082031 5.3125 -12.15625 C 2.71875 -16.226562 1.421875 -20.628906 1.421875 -25.359375 C 1.421875 -28.941406 2.179688 -32.378906 3.703125 -35.671875 C 5.222656 -38.960938 7.25 -41.78125 9.78125 -44.125 C 12.3125 -46.46875 15.265625 -48.335938 18.640625 -49.734375 C 22.015625 -51.140625 25.46875 -51.84375 29 -51.84375 C 32.289062 -51.84375 35.328125 -51.453125 38.109375 -50.671875 C 40.890625 -49.890625 42.851562 -49.109375 44 -48.328125 L 45.734375 -47.15625 L 40.796875 -37.28125 C 40.503906 -37.519531 40.070312 -37.816406 39.5 -38.171875 C 38.925781 -38.523438 37.773438 -38.988281 36.046875 -39.5625 C 34.316406 -40.132812 32.566406 -40.421875 30.796875 -40.421875 C 27.992188 -40.421875 25.484375 -39.96875 23.265625 -39.0625 C 21.046875 -38.15625 19.285156 -36.960938 17.984375 -35.484375 C 16.691406 -34.003906 15.707031 -32.410156 15.03125 -30.703125 C 14.351562 -28.992188 14.015625 -27.253906 14.015625 -25.484375 C 14.015625 -21.617188 15.460938 -18.148438 18.359375 -15.078125 C 21.265625 -12.015625 25.410156 -10.484375 30.796875 -10.484375 Z M 30.796875 -10.484375 "/></g></g></g><g fill="#104e91" fill-opacity="1"><g transform="translate(684.349316, 188.331865)"><g><path d="M 6.6875 -3.765625 C 3.175781 -6.890625 1.421875 -10.898438 1.421875 -15.796875 C 1.421875 -20.691406 3.25 -24.710938 6.90625 -27.859375 C 10.570312 -31.015625 15.097656 -32.59375 20.484375 -32.59375 C 25.796875 -32.59375 30.269531 -31.003906 33.90625 -27.828125 C 37.550781 -24.660156 39.375 -20.648438 39.375 -15.796875 C 39.375 -10.941406 37.59375 -6.941406 34.03125 -3.796875 C 30.476562 -0.648438 25.960938 0.921875 20.484375 0.921875 C 14.804688 0.921875 10.207031 -0.640625 6.6875 -3.765625 Z M 15.140625 -21.171875 C 13.722656 -19.773438 13.015625 -17.984375 13.015625 -15.796875 C 13.015625 -13.617188 13.691406 -11.835938 15.046875 -10.453125 C 16.410156 -9.078125 18.203125 -8.390625 20.421875 -8.390625 C 22.566406 -8.390625 24.328125 -9.085938 25.703125 -10.484375 C 27.078125 -11.890625 27.765625 -13.660156 27.765625 -15.796875 C 27.765625 -17.984375 27.054688 -19.773438 25.640625 -21.171875 C 24.222656 -22.566406 22.484375 -23.265625 20.421875 -23.265625 C 18.328125 -23.265625 16.566406 -22.566406 15.140625 -21.171875 Z M 15.140625 -21.171875 "/></g></g></g><g fill="#104e91" fill-opacity="1"><g transform="translate(725.147982, 188.331865)"><g><path d="M 3.703125 0 L 3.703125 -31.65625 L 14.625 -31.65625 L 14.625 -28.328125 L 14.75 -28.328125 C 17.59375 -31.171875 20.617188 -32.59375 23.828125 -32.59375 C 26.128906 -32.59375 28.285156 -32.117188 30.296875 -31.171875 C 32.316406 -30.222656 33.84375 -28.757812 34.875 -26.78125 C 38.082031 -30.65625 41.578125 -32.59375 45.359375 -32.59375 C 48.734375 -32.59375 51.632812 -31.644531 54.0625 -29.75 C 56.488281 -27.851562 57.703125 -24.890625 57.703125 -20.859375 L 57.703125 0 L 46.78125 0 L 46.78125 -17.890625 C 46.78125 -19.578125 46.316406 -20.988281 45.390625 -22.125 C 44.460938 -23.257812 43.078125 -23.828125 41.234375 -23.828125 C 39.628906 -23.828125 38.40625 -23.34375 37.5625 -22.375 C 36.71875 -21.40625 36.253906 -20.242188 36.171875 -18.890625 L 36.171875 0 L 25.25 0 L 25.25 -17.890625 C 25.25 -19.578125 24.785156 -20.988281 23.859375 -22.125 C 22.929688 -23.257812 21.539062 -23.828125 19.6875 -23.828125 C 18 -23.828125 16.734375 -23.300781 15.890625 -22.25 C 15.046875 -21.195312 14.625 -19.953125 14.625 -18.515625 L 14.625 0 Z M 3.703125 0 "/></g></g></g></svg>