<svg xmlns="http://www.w3.org/2000/svg" xmlns:xlink="http://www.w3.org/1999/xlink" width="406" zoomAndPan="magnify" viewBox="0 0 304.5 227.999995" height="304" preserveAspectRatio="xMidYMid meet" version="1.0"><defs><g/><clipPath id="5e23e2eebe"><path d="M 0 0.1875 L 304 0.1875 L 304 227.8125 L 0 227.8125 Z M 0 0.1875 " clip-rule="nonzero"/></clipPath></defs><g clip-path="url(#5e23e2eebe)"><path fill="#ffffff" d="M 0 0.1875 L 304.5 0.1875 L 304.5 235.6875 L 0 235.6875 Z M 0 0.1875 " fill-opacity="1" fill-rule="nonzero"/><path fill="#ffffff" d="M 0 0.1875 L 304.5 0.1875 L 304.5 228.1875 L 0 228.1875 Z M 0 0.1875 " fill-opacity="1" fill-rule="nonzero"/><path fill="#eaf8ff" d="M 0 0.1875 L 304.5 0.1875 L 304.5 228.1875 L 0 228.1875 Z M 0 0.1875 " fill-opacity="1" fill-rule="nonzero"/></g><path fill="#ffd2bb" d="M 113.332031 82.722656 C 113.332031 82.71875 113.328125 82.714844 113.328125 82.714844 C 113.328125 82.714844 112.511719 81.394531 112.511719 79.386719 C 112.511719 78.003906 111.746094 77.515625 110.25 77.519531 C 109.570312 77.519531 108.738281 77.625 107.757812 77.792969 C 107.464844 77.84375 107.195312 77.859375 106.941406 77.851562 C 104.921875 77.78125 104.121094 76.015625 102.796875 76.058594 C 102.519531 76.066406 102.21875 76.15625 101.882812 76.351562 C 99.71875 77.613281 100.261719 78.332031 99.167969 81.214844 C 98.875 81.984375 98.394531 82.390625 97.84375 82.578125 C 97.429688 82.929688 97 83.414062 96.898438 83.976562 C 96.644531 85.359375 97.6875 89.457031 96.898438 91.035156 C 96.882812 91.0625 96.863281 91.089844 96.84375 91.117188 C 96.828125 91.140625 96.816406 91.164062 96.800781 91.1875 C 96.773438 91.21875 96.746094 91.25 96.714844 91.28125 C 96.695312 91.300781 96.679688 91.324219 96.660156 91.34375 C 96.625 91.378906 96.582031 91.417969 96.542969 91.457031 C 96.527344 91.46875 96.511719 91.484375 96.496094 91.5 C 96.425781 91.5625 96.351562 91.625 96.277344 91.6875 C 96.242188 91.71875 96.203125 91.75 96.167969 91.78125 C 96.140625 91.804688 96.117188 91.824219 96.09375 91.847656 C 96.042969 91.886719 95.996094 91.929688 95.949219 91.972656 C 95.933594 91.988281 95.914062 92.003906 95.894531 92.019531 C 95.835938 92.078125 95.777344 92.132812 95.722656 92.191406 C 95.710938 92.203125 95.699219 92.21875 95.6875 92.230469 C 95.640625 92.277344 95.601562 92.324219 95.5625 92.375 C 95.546875 92.394531 95.53125 92.414062 95.515625 92.429688 C 95.480469 92.484375 95.445312 92.535156 95.414062 92.589844 C 95.40625 92.601562 95.398438 92.613281 95.390625 92.625 C 95.355469 92.691406 95.328125 92.757812 95.304688 92.828125 C 95.300781 92.84375 95.296875 92.863281 95.292969 92.882812 C 95.277344 92.9375 95.269531 92.992188 95.265625 93.046875 C 95.265625 93.070312 95.261719 93.089844 95.261719 93.113281 C 95.261719 93.113281 95.261719 93.113281 95.261719 93.117188 C 95.261719 93.1875 95.269531 93.261719 95.289062 93.335938 C 95.289062 93.339844 95.289062 93.339844 95.289062 93.339844 C 95.683594 95.265625 96.683594 97.082031 98.089844 98.496094 C 98.292969 98.699219 98.5 98.894531 98.71875 99.078125 L 97.835938 102 C 97.847656 102.011719 97.855469 102.023438 97.867188 102.035156 L 97.878906 102 L 98.753906 99.105469 C 100.367188 100.46875 102.398438 101.335938 104.609375 101.359375 C 104.640625 101.359375 104.671875 101.363281 104.703125 101.363281 C 105.011719 101.363281 105.3125 101.347656 105.601562 101.324219 C 107.722656 101.148438 109.398438 100.363281 110.691406 99.269531 L 110.726562 99.242188 C 111.898438 98.242188 112.75 96.992188 113.328125 95.714844 C 113.328125 95.714844 113.328125 95.714844 113.328125 95.710938 C 113.335938 95.644531 113.484375 93.539062 113.734375 91.75 C 114.027344 91.558594 114.042969 85.8125 113.917969 84.976562 C 113.660156 83.257812 113.371094 82.777344 113.332031 82.722656 Z M 100.125 88.433594 C 99.707031 88.4375 99.347656 87.886719 99.328125 87.195312 C 99.3125 86.507812 99.640625 85.945312 100.066406 85.941406 C 100.488281 85.9375 100.847656 86.488281 100.863281 87.179688 C 100.875 87.867188 100.550781 88.429688 100.125 88.433594 Z M 109.277344 88.433594 C 108.851562 88.429688 108.527344 87.867188 108.542969 87.179688 C 108.554688 86.488281 108.914062 85.9375 109.339844 85.941406 C 109.761719 85.945312 110.089844 86.507812 110.074219 87.195312 C 110.058594 87.886719 109.699219 88.4375 109.277344 88.433594 Z M 111.613281 102.242188 L 111.609375 102.230469 L 110.726562 99.242188 C 110.714844 99.253906 110.703125 99.261719 110.691406 99.269531 C 109.398438 100.363281 107.722656 101.148438 105.601562 101.324219 C 105.308594 101.347656 105.011719 101.363281 104.703125 101.363281 C 104.671875 101.363281 104.640625 101.359375 104.609375 101.359375 C 102.394531 101.335938 100.363281 100.46875 98.753906 99.105469 L 97.878906 102 L 97.867188 102.035156 L 96.484375 105.21875 L 95.621094 107.203125 L 113.253906 107.203125 L 113.28125 106.835938 L 113.011719 106.097656 Z M 104.808594 105.246094 C 104.285156 105.246094 103.773438 105.195312 103.273438 105.105469 C 103.773438 105.195312 104.285156 105.246094 104.808594 105.246094 Z M 98.023438 102.203125 C 99.089844 103.328125 100.40625 104.21875 101.878906 104.738281 C 100.40625 104.21875 99.089844 103.328125 98.023438 102.203125 Z M 163.152344 112.808594 L 161.839844 117.324219 L 160.820312 120.8125 C 160.136719 120.753906 159.5 120.566406 158.929688 120.289062 C 157.882812 119.777344 157.082031 118.945312 156.707031 117.949219 C 156.632812 117.746094 156.578125 117.539062 156.539062 117.324219 C 156.496094 117.109375 156.472656 116.894531 156.472656 116.671875 C 156.472656 114.371094 158.648438 112.507812 161.335938 112.507812 C 161.980469 112.507812 162.589844 112.617188 163.152344 112.808594 Z M 166.199219 116.671875 C 166.199219 116.894531 166.175781 117.109375 166.132812 117.324219 C 165.832031 118.972656 164.402344 120.296875 162.542969 120.703125 L 163.527344 117.324219 L 164.609375 113.601562 C 165.585938 114.359375 166.199219 115.453125 166.199219 116.671875 Z M 166.199219 116.671875 " fill-opacity="1" fill-rule="nonzero"/><path fill="#e84393" d="M 65.769531 55.027344 L 65.769531 157.789062 L 90.136719 157.789062 L 91.976562 155.167969 C 84.074219 152.519531 75.566406 149.011719 73.167969 147.769531 C 71.210938 146.753906 69.765625 145.394531 68.9375 143.949219 C 68.710938 143.90625 68.507812 143.835938 68.34375 143.726562 C 64.09375 140.988281 81.53125 117.496094 85.367188 113.589844 C 86.617188 112.316406 95.632812 107.535156 95.632812 107.535156 L 113.253906 107.273438 C 116.03125 107.5 123.15625 111.625 124.421875 113.9375 C 125.882812 116.605469 129.984375 126.683594 132.683594 135.675781 C 135.296875 133.15625 142.703125 126.921875 149.046875 122.476562 C 148.695312 121.949219 148.484375 121.316406 148.484375 120.632812 C 148.484375 118.804688 149.96875 117.324219 151.796875 117.324219 L 156.535156 117.324219 C 156.496094 117.109375 156.472656 116.894531 156.472656 116.671875 C 156.472656 114.371094 158.648438 112.507812 161.335938 112.507812 C 161.976562 112.507812 162.589844 112.617188 163.152344 112.808594 L 164.558594 107.980469 L 151.796875 107.980469 C 149.96875 107.980469 148.484375 106.5 148.484375 104.671875 C 148.484375 102.84375 149.96875 101.363281 151.796875 101.363281 L 166.484375 101.363281 L 169.207031 92.019531 L 151.796875 92.019531 C 149.96875 92.019531 148.484375 90.539062 148.484375 88.710938 C 148.484375 86.882812 149.96875 85.402344 151.796875 85.402344 L 171.132812 85.402344 L 171.300781 84.832031 C 171.378906 84.566406 171.789062 84.453125 172.21875 84.578125 C 172.648438 84.703125 172.933594 85.019531 172.855469 85.285156 L 172.824219 85.402344 L 214.234375 85.402344 C 216.0625 85.402344 217.546875 86.882812 217.546875 88.710938 C 217.546875 90.539062 216.0625 92.019531 214.234375 92.019531 L 170.894531 92.019531 L 168.175781 101.363281 L 214.234375 101.363281 C 216.0625 101.363281 217.546875 102.84375 217.546875 104.671875 C 217.546875 106.5 216.0625 107.980469 214.234375 107.980469 L 166.246094 107.980469 L 164.613281 113.597656 C 165.585938 114.359375 166.199219 115.453125 166.199219 116.671875 C 166.199219 116.894531 166.175781 117.109375 166.132812 117.324219 L 214.234375 117.324219 C 216.0625 117.324219 217.546875 118.804688 217.546875 120.632812 C 217.546875 122.460938 216.0625 123.941406 214.234375 123.941406 L 161.597656 123.941406 L 161.097656 125.660156 C 161.023438 125.925781 160.609375 126.039062 160.179688 125.910156 C 159.75 125.785156 159.464844 125.46875 159.542969 125.207031 L 159.910156 123.941406 L 157.128906 123.941406 C 155.53125 126.722656 153.226562 130.105469 150.792969 133.441406 C 151.109375 133.339844 151.445312 133.285156 151.796875 133.285156 L 214.234375 133.285156 C 216.0625 133.285156 217.542969 134.765625 217.542969 136.59375 C 217.542969 138.421875 216.0625 139.902344 214.234375 139.902344 L 151.796875 139.902344 C 149.96875 139.902344 148.484375 138.421875 148.484375 136.59375 C 148.484375 136.574219 148.488281 136.558594 148.488281 136.539062 C 144.71875 141.523438 141.070312 145.917969 139.652344 147.371094 C 138.113281 148.953125 136.394531 149.941406 134.769531 150.316406 C 134.664062 150.519531 134.539062 150.691406 134.386719 150.820312 C 132.03125 152.824219 124.605469 144.828125 118.585938 137.210938 L 114.40625 150.488281 L 120.132812 157.789062 L 173.351562 157.789062 L 173.351562 154.234375 C 173.488281 154.21875 173.625 154.210938 173.761719 154.210938 L 195.496094 154.210938 C 197.601562 154.210938 199.335938 155.765625 199.628906 157.789062 L 231.203125 157.789062 L 231.203125 55.027344 Z M 124.871094 99.542969 C 124.269531 99.96875 123.527344 100.300781 122.605469 100.4375 C 122.601562 100.4375 122.597656 100.4375 122.59375 100.4375 C 122.574219 100.441406 122.550781 100.441406 122.527344 100.445312 C 121.671875 100.5625 120.671875 100.511719 119.492188 100.21875 C 116.523438 99.476562 116.695312 100.796875 113.796875 105.113281 C 113.539062 105.5 113.277344 105.820312 113.011719 106.097656 L 113.28125 106.835938 L 113.253906 107.203125 L 95.632812 107.535156 L 96.484375 105.21875 C 96.457031 105.183594 96.433594 105.148438 96.410156 105.113281 C 93.515625 100.796875 93.6875 99.476562 90.714844 100.21875 C 87.566406 101.003906 85.667969 100.050781 84.542969 98.84375 C 82.484375 97.367188 81.289062 95.039062 83.988281 92.386719 C 87.46875 88.960938 88.664062 88.945312 87.625 86.160156 C 85.304688 79.957031 90.515625 78.042969 90.515625 78.042969 C 92.0625 76.589844 94.394531 75.699219 95.289062 73.46875 C 95.640625 72.589844 94.347656 71.632812 96.207031 69.144531 C 99.167969 65.183594 102.242188 68.246094 104.210938 68.605469 C 106.175781 68.964844 108.753906 65.460938 111.566406 66.582031 C 116.65625 68.605469 114.492188 72.75 114.492188 72.75 C 114.492188 72.75 114.492188 72.75 115.617188 74.910156 C 116.742188 77.074219 120.230469 76.503906 121.878906 78.515625 C 127.203125 85.003906 119.636719 88.191406 125.75 89.949219 C 130.230469 91.238281 128.519531 97.191406 124.871094 99.542969 Z M 185.957031 153.207031 C 182.671875 153.207031 180.011719 150.546875 180.011719 147.261719 C 180.011719 143.976562 182.671875 143.804688 185.957031 143.804688 C 189.238281 143.804688 191.902344 143.976562 191.902344 147.261719 C 191.902344 150.546875 189.238281 153.207031 185.957031 153.207031 Z M 214.234375 76.058594 L 151.796875 76.058594 C 149.96875 76.058594 148.484375 74.578125 148.484375 72.75 C 148.484375 70.921875 149.96875 69.441406 151.796875 69.441406 L 214.234375 69.441406 C 216.0625 69.441406 217.546875 70.921875 217.546875 72.75 C 217.546875 74.578125 216.0625 76.058594 214.234375 76.058594 Z M 232.136719 172.90625 L 232.136719 172.886719 L 227.417969 172.886719 C 227.660156 173.65625 227.84375 174.503906 227.902344 175.402344 C 228.148438 179.085938 226.234375 182.210938 226.234375 182.210938 C 226.234375 182.210938 223.921875 179.367188 223.679688 175.679688 C 223.613281 174.691406 223.703125 173.746094 223.871094 172.886719 L 135.1875 172.886719 L 135.1875 201.882812 L 232.136719 201.882812 L 232.136719 198.152344 C 231.25 198.738281 230.292969 199.285156 229.265625 199.757812 C 222.382812 202.90625 215 201.511719 215 201.511719 C 215 201.511719 218.769531 195.011719 225.652344 191.863281 C 227.847656 190.855469 230.09375 190.316406 232.136719 190.042969 L 232.136719 187.804688 C 231.355469 188.40625 230.460938 188.976562 229.460938 189.425781 C 225.210938 191.351562 220.664062 190.472656 220.664062 190.472656 C 220.664062 190.472656 223.003906 186.476562 227.257812 184.554688 C 228.9375 183.792969 230.664062 183.472656 232.136719 183.359375 L 232.136719 178.949219 C 230.332031 180.324219 228.585938 180.890625 228.585938 180.890625 C 228.585938 180.890625 228.6875 177.226562 230.898438 174.273438 C 231.28125 173.761719 231.703125 173.308594 232.136719 172.90625 Z M 178.160156 197.074219 L 140.257812 197.074219 L 140.257812 182.210938 L 178.160156 182.210938 Z M 212.875 201.070312 C 212.875 201.070312 209.207031 196.558594 208.820312 190.714844 C 208.429688 184.871094 211.46875 179.914062 211.46875 179.914062 C 211.46875 179.914062 215.132812 184.425781 215.519531 190.269531 C 215.910156 196.113281 212.875 201.070312 212.875 201.070312 Z M 219.65625 190.675781 C 219.65625 190.675781 216.734375 187.078125 216.425781 182.425781 C 216.113281 177.769531 218.535156 173.820312 218.535156 173.820312 C 218.535156 173.820312 221.453125 177.414062 221.765625 182.070312 C 222.074219 186.722656 219.65625 190.675781 219.65625 190.675781 Z M 172.800781 165.128906 L 199 165.128906 C 200.789062 165.128906 202.242188 166.582031 202.242188 168.375 C 202.242188 170.164062 200.789062 171.617188 199 171.617188 L 172.800781 171.617188 C 172.691406 171.617188 170.058594 171.609375 169.953125 171.601562 L 169.953125 165.144531 C 170.058594 165.136719 172.691406 165.128906 172.800781 165.128906 Z M 194.675781 161.636719 L 176.363281 161.636719 C 176.257812 161.636719 173.621094 161.632812 173.515625 161.621094 L 173.515625 155.167969 C 173.621094 155.15625 176.257812 155.152344 176.363281 155.152344 L 194.675781 155.152344 C 196.257812 155.152344 197.574219 156.289062 197.859375 157.789062 C 197.894531 157.984375 197.917969 158.1875 197.917969 158.394531 C 197.917969 159.910156 196.875 161.179688 195.472656 161.535156 C 195.214844 161.597656 194.949219 161.636719 194.675781 161.636719 Z M 175.058594 194.167969 L 142.59375 194.167969 L 142.59375 185.351562 L 175.058594 185.351562 Z M 175.058594 194.167969 " fill-opacity="1" fill-rule="nonzero"/><path fill="#fbc02d" d="M 99.328125 87.195312 C 99.3125 86.511719 99.640625 85.945312 100.066406 85.941406 C 100.488281 85.9375 100.847656 86.488281 100.863281 87.179688 C 100.875 87.867188 100.550781 88.429688 100.125 88.4375 C 99.707031 88.4375 99.34375 87.886719 99.328125 87.195312 Z M 109.277344 88.433594 C 109.699219 88.4375 110.058594 87.886719 110.074219 87.195312 C 110.089844 86.507812 109.761719 85.945312 109.339844 85.941406 C 108.914062 85.9375 108.554688 86.488281 108.542969 87.179688 C 108.527344 87.867188 108.851562 88.429688 109.277344 88.433594 Z M 105.042969 114.867188 C 105.675781 114.867188 106.191406 114.351562 106.191406 113.71875 C 106.191406 113.082031 105.675781 112.570312 105.042969 112.570312 C 104.40625 112.570312 103.894531 113.082031 103.894531 113.71875 C 103.894531 114.351562 104.40625 114.867188 105.042969 114.867188 Z M 105.042969 126.105469 C 105.675781 126.105469 106.191406 125.589844 106.191406 124.957031 C 106.191406 124.320312 105.675781 123.808594 105.042969 123.808594 C 104.40625 123.808594 103.894531 124.320312 103.894531 124.957031 C 103.894531 125.589844 104.40625 126.105469 105.042969 126.105469 Z M 160.179688 125.910156 C 160.609375 126.035156 161.023438 125.921875 161.097656 125.660156 L 161.597656 123.941406 L 162.542969 120.703125 L 163.527344 117.324219 L 164.613281 113.597656 L 166.246094 107.980469 L 168.175781 101.363281 L 170.898438 92.019531 L 172.824219 85.402344 L 172.859375 85.285156 C 172.933594 85.019531 172.648438 84.703125 172.21875 84.578125 C 171.789062 84.453125 171.378906 84.566406 171.300781 84.832031 L 171.136719 85.402344 L 169.207031 92.019531 L 166.488281 101.363281 L 164.558594 107.980469 L 163.152344 112.808594 L 161.839844 117.324219 L 160.820312 120.8125 L 159.910156 123.941406 L 159.542969 125.207031 C 159.464844 125.46875 159.75 125.785156 160.179688 125.910156 Z M 204.003906 168.375 C 204.003906 170.683594 202.128906 172.554688 199.820312 172.554688 L 170.199219 172.554688 C 170.058594 172.554688 169.921875 172.546875 169.789062 172.535156 L 169.789062 164.210938 C 169.921875 164.199219 170.058594 164.191406 170.199219 164.191406 L 199.820312 164.191406 C 202.128906 164.191406 204.003906 166.0625 204.003906 168.375 Z M 202.242188 168.375 C 202.242188 166.582031 200.789062 165.128906 199 165.128906 L 172.800781 165.128906 C 172.691406 165.128906 170.058594 165.136719 169.953125 165.144531 L 169.953125 171.601562 C 170.058594 171.609375 172.691406 171.617188 172.800781 171.617188 L 199 171.617188 C 200.789062 171.617188 202.242188 170.164062 202.242188 168.375 Z M 232.136719 190.042969 C 230.09375 190.316406 227.847656 190.855469 225.652344 191.863281 C 218.769531 195.011719 215 201.511719 215 201.511719 C 215 201.511719 222.382812 202.90625 229.265625 199.757812 C 230.292969 199.285156 231.25 198.738281 232.136719 198.152344 C 237.1875 194.808594 239.917969 190.105469 239.917969 190.105469 C 239.917969 190.105469 236.492188 189.460938 232.136719 190.042969 Z M 215.519531 190.269531 C 215.132812 184.425781 211.46875 179.914062 211.46875 179.914062 C 211.46875 179.914062 208.429688 184.871094 208.820312 190.714844 C 209.207031 196.558594 212.875 201.070312 212.875 201.070312 C 212.875 201.070312 215.910156 196.113281 215.519531 190.269531 Z M 218.535156 173.820312 C 218.535156 173.820312 216.113281 177.769531 216.425781 182.425781 C 216.734375 187.078125 219.65625 190.675781 219.65625 190.675781 C 219.65625 190.675781 222.074219 186.722656 221.765625 182.070312 C 221.453125 177.414062 218.535156 173.820312 218.535156 173.820312 Z M 227.902344 175.402344 C 227.84375 174.503906 227.660156 173.65625 227.417969 172.886719 C 226.667969 170.503906 225.347656 168.875 225.347656 168.875 C 225.347656 168.875 224.324219 170.550781 223.871094 172.886719 C 223.703125 173.746094 223.613281 174.691406 223.679688 175.683594 C 223.921875 179.367188 226.234375 182.210938 226.234375 182.210938 C 226.234375 182.210938 228.148438 179.085938 227.902344 175.402344 Z M 232.136719 172.90625 C 231.703125 173.308594 231.28125 173.761719 230.898438 174.273438 C 228.6875 177.226562 228.585938 180.890625 228.585938 180.890625 C 228.585938 180.890625 230.332031 180.324219 232.136719 178.949219 C 232.882812 178.378906 233.640625 177.675781 234.285156 176.8125 C 236.503906 173.859375 236.601562 170.195312 236.601562 170.195312 C 236.601562 170.195312 234.214844 170.96875 232.136719 172.90625 Z M 229.460938 189.425781 C 230.460938 188.976562 231.355469 188.40625 232.136719 187.804688 C 234.683594 185.84375 236.054688 183.507812 236.054688 183.507812 C 236.054688 183.507812 234.390625 183.1875 232.136719 183.359375 C 230.664062 183.472656 228.9375 183.792969 227.257812 184.554688 C 223.003906 186.476562 220.664062 190.472656 220.664062 190.472656 C 220.664062 190.472656 225.210938 191.351562 229.460938 189.425781 Z M 235.234375 51.28125 L 235.234375 161.535156 L 198.253906 161.535156 C 197.515625 162.183594 196.554688 162.578125 195.496094 162.578125 L 173.761719 162.578125 C 173.625 162.578125 173.488281 162.570312 173.351562 162.558594 L 173.351562 161.535156 L 123.070312 161.535156 L 128.433594 168.375 L 125.753906 168.375 C 127.460938 172.285156 128.433594 176.742188 128.433594 181.480469 C 128.433594 189.53125 125.636719 196.78125 121.160156 201.882812 L 89.726562 201.882812 C 85.253906 196.78125 82.453125 189.53125 82.453125 181.480469 C 82.453125 176.742188 83.425781 172.285156 85.132812 168.375 L 82.710938 168.375 L 87.507812 161.535156 L 61.742188 161.535156 L 61.742188 51.28125 Z M 197.917969 158.394531 C 197.917969 158.1875 197.894531 157.984375 197.859375 157.789062 C 197.574219 156.289062 196.257812 155.152344 194.675781 155.152344 L 176.363281 155.152344 C 176.257812 155.152344 173.621094 155.15625 173.515625 155.167969 L 173.515625 161.621094 C 173.621094 161.632812 176.257812 161.636719 176.363281 161.636719 L 194.675781 161.636719 C 194.949219 161.636719 195.214844 161.597656 195.472656 161.535156 C 196.875 161.179688 197.917969 159.910156 197.917969 158.394531 Z M 231.203125 55.027344 L 65.769531 55.027344 L 65.769531 157.789062 L 90.136719 157.789062 L 91.976562 155.167969 C 84.074219 152.519531 75.566406 149.011719 73.167969 147.769531 C 71.210938 146.753906 68.507812 143.835938 68.34375 143.726562 C 64.09375 140.988281 81.53125 117.496094 85.367188 113.589844 C 86.617188 112.316406 93.042969 108.050781 95.632812 107.535156 C 95.664062 108.285156 95.714844 109.109375 95.777344 110 C 95.855469 111.121094 95.957031 112.34375 96.078125 113.648438 C 96.492188 118.789062 96.964844 123.167969 97.492188 125.894531 C 97.511719 126.050781 97.53125 126.207031 97.554688 126.363281 C 98.699219 134.945312 100.1875 144.203125 101.601562 151.070312 C 101.796875 152.027344 101.992188 152.9375 102.1875 153.792969 C 102.527344 155.3125 102.863281 156.664062 103.179688 157.789062 C 103.222656 157.941406 103.265625 158.085938 103.308594 158.230469 C 103.929688 160.328125 104.488281 161.550781 104.933594 161.535156 C 105.351562 161.519531 105.851562 160.3125 106.398438 158.253906 C 106.4375 158.105469 106.476562 157.945312 106.515625 157.789062 C 106.625 157.367188 106.734375 156.914062 106.84375 156.429688 C 107.039062 155.578125 107.234375 154.636719 107.4375 153.621094 C 108.777344 146.847656 110.238281 136.730469 111.371094 127.289062 C 112.101562 121.175781 112.695312 115.347656 113.027344 110.898438 C 113.125 109.554688 113.203125 108.332031 113.253906 107.269531 C 119.085938 107.199219 123.15625 111.625 124.421875 113.9375 C 125.882812 116.605469 129.984375 126.683594 132.683594 135.671875 C 135.296875 133.15625 142.703125 126.921875 149.046875 122.476562 C 152.046875 120.371094 154.804688 118.667969 156.707031 117.949219 C 157.082031 118.945312 157.882812 119.777344 158.929688 120.289062 C 158.558594 121.296875 157.933594 122.542969 157.128906 123.941406 C 155.53125 126.722656 153.226562 130.101562 150.792969 133.441406 C 150.03125 134.484375 149.257812 135.523438 148.488281 136.539062 C 144.71875 141.519531 141.070312 145.917969 139.652344 147.371094 C 138.113281 148.953125 134.539062 150.691406 134.386719 150.820312 C 132.03125 152.820312 124.605469 144.828125 118.585938 137.210938 L 114.40625 150.488281 L 120.132812 157.789062 L 173.351562 157.789062 L 173.351562 154.234375 C 173.488281 154.21875 173.625 154.210938 173.761719 154.210938 L 195.496094 154.210938 C 197.601562 154.210938 199.335938 155.765625 199.628906 157.789062 L 231.203125 157.789062 Z M 88.945312 133.082031 C 86.796875 134.664062 84.546875 136.25 82.347656 137.710938 C 84.453125 138.886719 88.738281 141.617188 93.164062 144.71875 Z M 88.945312 133.082031 " fill-opacity="1" fill-rule="nonzero"/><path fill="#0984e3" d="M 97.867188 102.035156 L 96.484375 105.21875 C 96.457031 105.183594 96.433594 105.148438 96.410156 105.113281 C 93.515625 100.796875 93.6875 99.476562 90.714844 100.21875 C 87.566406 101.003906 85.667969 100.050781 84.542969 98.84375 C 82.484375 97.367188 81.289062 95.039062 83.988281 92.386719 C 87.46875 88.960938 88.664062 88.945312 87.625 86.160156 C 85.304688 79.957031 90.515625 78.042969 90.515625 78.042969 C 92.0625 76.589844 94.394531 75.699219 95.289062 73.46875 C 95.640625 72.589844 94.347656 71.632812 96.207031 69.144531 C 99.167969 65.183594 102.242188 68.246094 104.210938 68.605469 C 106.175781 68.964844 108.753906 65.460938 111.566406 66.582031 C 116.65625 68.605469 114.492188 72.75 114.492188 72.75 C 114.492188 72.75 114.492188 72.75 115.617188 74.910156 C 116.742188 77.074219 120.230469 76.503906 121.878906 78.515625 C 127.203125 85.003906 119.636719 88.191406 125.75 89.949219 C 130.230469 91.238281 128.519531 97.191406 124.867188 99.542969 C 124.269531 99.96875 123.527344 100.300781 122.605469 100.4375 C 122.601562 100.4375 122.597656 100.4375 122.59375 100.4375 C 122.570312 100.441406 122.550781 100.441406 122.527344 100.445312 C 121.671875 100.5625 120.671875 100.511719 119.492188 100.21875 C 116.523438 99.480469 116.695312 100.796875 113.796875 105.113281 C 113.539062 105.5 113.277344 105.820312 113.011719 106.097656 L 111.613281 102.246094 L 111.609375 102.230469 L 110.726562 99.242188 C 111.898438 98.242188 112.75 96.992188 113.328125 95.714844 C 113.328125 95.714844 113.328125 95.710938 113.328125 95.710938 C 113.996094 94.234375 114.296875 92.730469 114.296875 91.546875 L 114.296875 88.535156 C 114.457031 87.265625 114.421875 86.226562 114.296875 85.390625 C 114.035156 83.621094 113.382812 82.785156 113.332031 82.722656 C 113.332031 82.71875 113.328125 82.714844 113.328125 82.714844 C 113.328125 82.714844 112.511719 81.394531 112.511719 79.386719 C 112.511719 78.003906 111.746094 77.515625 110.25 77.519531 C 109.566406 77.519531 108.738281 77.625 107.757812 77.792969 C 107.464844 77.84375 107.195312 77.859375 106.941406 77.851562 C 104.921875 77.78125 104.121094 76.015625 102.796875 76.058594 C 102.519531 76.066406 102.21875 76.15625 101.882812 76.351562 C 99.71875 77.613281 100.261719 78.332031 99.167969 81.214844 C 98.875 81.984375 98.394531 82.390625 97.84375 82.578125 C 97.429688 82.929688 97 83.414062 96.898438 83.976562 C 96.644531 85.359375 97.6875 89.457031 96.898438 91.035156 C 96.882812 91.0625 96.863281 91.089844 96.84375 91.117188 C 96.828125 91.140625 96.816406 91.164062 96.800781 91.1875 C 96.773438 91.21875 96.746094 91.25 96.714844 91.28125 C 96.695312 91.300781 96.679688 91.324219 96.660156 91.34375 C 96.625 91.378906 96.582031 91.417969 96.542969 91.457031 C 96.527344 91.46875 96.511719 91.484375 96.496094 91.5 C 96.441406 91.546875 96.382812 91.597656 96.324219 91.648438 C 95.839844 92.0625 95.257812 92.523438 95.261719 93.117188 C 95.261719 93.1875 95.269531 93.261719 95.289062 93.335938 C 95.289062 93.335938 95.289062 93.339844 95.289062 93.339844 C 95.683594 95.265625 96.683594 97.082031 98.089844 98.496094 C 98.292969 98.699219 98.5 98.894531 98.71875 99.078125 L 97.835938 102 C 97.847656 102.011719 97.855469 102.023438 97.867188 102.035156 Z M 114.296875 88.535156 C 114.457031 87.265625 114.421875 86.226562 114.296875 85.390625 Z M 98.71875 99.078125 L 97.835938 102 C 97.847656 102.011719 97.855469 102.023438 97.867188 102.035156 C 97.855469 102.023438 97.847656 102.011719 97.835938 102 Z M 106.941406 77.851562 C 107.195312 77.859375 107.464844 77.84375 107.757812 77.792969 C 108.738281 77.625 109.570312 77.519531 110.25 77.519531 C 109.570312 77.519531 108.738281 77.625 107.757812 77.792969 C 107.464844 77.84375 107.195312 77.859375 106.941406 77.851562 Z M 113.917969 84.976562 C 113.660156 83.257812 113.371094 82.777344 113.332031 82.722656 C 113.382812 82.785156 114.035156 83.621094 114.296875 85.390625 L 114.296875 91.546875 C 114.296875 92.730469 113.996094 94.234375 113.328125 95.710938 C 113.335938 95.644531 113.484375 93.535156 113.734375 91.746094 C 114.027344 91.558594 114.039062 85.8125 113.917969 84.976562 Z M 113.929688 90.550781 C 113.929688 90.554688 113.929688 90.554688 113.929688 90.558594 C 113.929688 90.554688 113.929688 90.554688 113.929688 90.550781 Z M 96.800781 91.1875 C 96.773438 91.21875 96.746094 91.25 96.714844 91.28125 C 96.746094 91.25 96.773438 91.21875 96.800781 91.1875 Z M 96.898438 83.976562 C 97 83.414062 97.429688 82.929688 97.84375 82.578125 C 98.394531 82.390625 98.875 81.984375 99.167969 81.214844 C 100.261719 78.332031 99.71875 77.613281 101.882812 76.351562 C 102.21875 76.15625 102.519531 76.066406 102.796875 76.058594 C 102.519531 76.066406 102.21875 76.15625 101.882812 76.351562 C 99.71875 77.613281 100.261719 78.332031 99.167969 81.214844 C 98.875 81.984375 98.394531 82.390625 97.84375 82.578125 C 97.429688 82.929688 97 83.414062 96.898438 83.976562 C 96.644531 85.359375 97.6875 89.457031 96.898438 91.035156 C 96.882812 91.0625 96.863281 91.089844 96.84375 91.117188 C 96.863281 91.089844 96.886719 91.0625 96.898438 91.035156 C 97.6875 89.457031 96.644531 85.359375 96.898438 83.976562 Z M 95.289062 93.335938 C 95.289062 93.339844 95.289062 93.339844 95.289062 93.339844 C 95.679688 95.265625 96.683594 97.082031 98.089844 98.496094 C 96.683594 97.082031 95.683594 95.265625 95.289062 93.339844 C 95.289062 93.339844 95.289062 93.339844 95.289062 93.335938 Z M 96.660156 91.34375 C 96.625 91.378906 96.582031 91.417969 96.542969 91.457031 C 96.582031 91.417969 96.625 91.378906 96.660156 91.34375 Z M 95.265625 93.046875 C 95.269531 92.992188 95.277344 92.9375 95.292969 92.882812 C 95.296875 92.863281 95.300781 92.84375 95.304688 92.828125 C 95.328125 92.757812 95.355469 92.691406 95.390625 92.625 C 95.394531 92.613281 95.40625 92.601562 95.410156 92.589844 C 95.441406 92.535156 95.476562 92.484375 95.515625 92.429688 C 95.53125 92.414062 95.546875 92.394531 95.5625 92.375 C 95.601562 92.324219 95.640625 92.277344 95.6875 92.230469 C 95.699219 92.21875 95.707031 92.203125 95.71875 92.191406 C 95.777344 92.132812 95.835938 92.078125 95.894531 92.019531 C 95.914062 92.003906 95.933594 91.988281 95.949219 91.972656 C 95.996094 91.929688 96.042969 91.886719 96.089844 91.847656 C 96.117188 91.824219 96.140625 91.804688 96.167969 91.78125 C 96.203125 91.75 96.238281 91.71875 96.277344 91.6875 C 96.351562 91.625 96.425781 91.5625 96.496094 91.5 C 96.441406 91.546875 96.382812 91.597656 96.324219 91.648438 C 95.839844 92.0625 95.253906 92.523438 95.261719 93.117188 C 95.261719 93.113281 95.261719 93.113281 95.261719 93.109375 C 95.261719 93.089844 95.261719 93.066406 95.265625 93.046875 Z M 185.957031 143.804688 C 182.671875 143.804688 180.011719 143.976562 180.011719 147.261719 C 180.011719 150.546875 182.671875 153.207031 185.957031 153.207031 C 189.238281 153.207031 191.902344 150.546875 191.902344 147.261719 C 191.902344 143.976562 189.238281 143.804688 185.957031 143.804688 Z M 185.957031 143.804688 " fill-opacity="1" fill-rule="nonzero"/><g fill="#000000" fill-opacity="1"><g transform="translate(19.20838, 37.587856)"><g><path d="M 13.3125 0 L 12.609375 -8.765625 L 12.515625 -8.765625 L 9.484375 -0.09375 L 7.484375 -0.09375 L 4.453125 -8.765625 L 4.359375 -8.765625 L 3.65625 0 L 0.28125 0 L 1.609375 -14.796875 L 5.203125 -14.796875 L 8.484375 -6.265625 L 11.765625 -14.796875 L 15.359375 -14.796875 L 16.6875 0 Z M 13.3125 0 "/></g></g></g><g fill="#000000" fill-opacity="1"><g transform="translate(36.16985, 37.587856)"><g><path d="M 1.703125 -1.140625 C 0.835938 -2.078125 0.40625 -3.226562 0.40625 -4.59375 C 0.40625 -5.957031 0.835938 -7.109375 1.703125 -8.046875 C 2.566406 -8.992188 3.660156 -9.46875 4.984375 -9.46875 C 6.203125 -9.46875 7.207031 -9.085938 8 -8.328125 L 8 -9.203125 L 11.171875 -9.203125 L 11.171875 0 L 8.03125 0 L 8.03125 -1.046875 L 8 -1.046875 C 7.207031 -0.171875 6.203125 0.265625 4.984375 0.265625 C 3.660156 0.265625 2.566406 -0.203125 1.703125 -1.140625 Z M 4.390625 -6.15625 C 3.984375 -5.75 3.78125 -5.226562 3.78125 -4.59375 C 3.78125 -3.957031 3.976562 -3.4375 4.375 -3.03125 C 4.769531 -2.632812 5.289062 -2.4375 5.9375 -2.4375 C 6.5625 -2.4375 7.070312 -2.640625 7.46875 -3.046875 C 7.875 -3.453125 8.078125 -3.96875 8.078125 -4.59375 C 8.078125 -5.226562 7.867188 -5.75 7.453125 -6.15625 C 7.035156 -6.5625 6.53125 -6.765625 5.9375 -6.765625 C 5.320312 -6.765625 4.804688 -6.5625 4.390625 -6.15625 Z M 4.390625 -6.15625 "/></g></g></g><g fill="#000000" fill-opacity="1"><g transform="translate(48.415816, 37.587856)"><g><path d="M 5.078125 -9.46875 C 5.597656 -9.46875 6.113281 -9.40625 6.625 -9.28125 C 7.144531 -9.164062 7.53125 -9.050781 7.78125 -8.9375 L 8.15625 -8.75 L 7.125 -6.671875 C 6.40625 -7.054688 5.722656 -7.25 5.078125 -7.25 C 4.710938 -7.25 4.457031 -7.207031 4.3125 -7.125 C 4.164062 -7.050781 4.09375 -6.90625 4.09375 -6.6875 C 4.09375 -6.644531 4.097656 -6.597656 4.109375 -6.546875 C 4.117188 -6.492188 4.140625 -6.445312 4.171875 -6.40625 C 4.210938 -6.363281 4.25 -6.328125 4.28125 -6.296875 C 4.3125 -6.273438 4.359375 -6.242188 4.421875 -6.203125 C 4.492188 -6.171875 4.550781 -6.144531 4.59375 -6.125 C 4.632812 -6.101562 4.703125 -6.070312 4.796875 -6.03125 C 4.898438 -6 4.972656 -5.972656 5.015625 -5.953125 C 5.066406 -5.941406 5.148438 -5.914062 5.265625 -5.875 C 5.378906 -5.84375 5.46875 -5.820312 5.53125 -5.8125 C 5.894531 -5.707031 6.210938 -5.585938 6.484375 -5.453125 C 6.765625 -5.316406 7.054688 -5.132812 7.359375 -4.90625 C 7.671875 -4.6875 7.910156 -4.398438 8.078125 -4.046875 C 8.242188 -3.703125 8.328125 -3.3125 8.328125 -2.875 C 8.328125 -0.78125 6.875 0.265625 3.96875 0.265625 C 3.3125 0.265625 2.6875 0.164062 2.09375 -0.03125 C 1.5 -0.238281 1.070312 -0.441406 0.8125 -0.640625 L 0.40625 -0.96875 L 1.703125 -3.140625 C 1.796875 -3.054688 1.921875 -2.957031 2.078125 -2.84375 C 2.234375 -2.726562 2.515625 -2.570312 2.921875 -2.375 C 3.328125 -2.175781 3.679688 -2.078125 3.984375 -2.078125 C 4.640625 -2.078125 4.96875 -2.300781 4.96875 -2.75 C 4.96875 -2.945312 4.882812 -3.101562 4.71875 -3.21875 C 4.550781 -3.332031 4.265625 -3.460938 3.859375 -3.609375 C 3.460938 -3.753906 3.148438 -3.882812 2.921875 -4 C 2.347656 -4.300781 1.894531 -4.640625 1.5625 -5.015625 C 1.226562 -5.390625 1.0625 -5.890625 1.0625 -6.515625 C 1.0625 -7.441406 1.421875 -8.164062 2.140625 -8.6875 C 2.867188 -9.207031 3.847656 -9.46875 5.078125 -9.46875 Z M 5.078125 -9.46875 "/></g></g></g><g fill="#000000" fill-opacity="1"><g transform="translate(57.237219, 37.587856)"><g><path d="M 1.609375 -9.203125 L 1.609375 -12.625 L 4.796875 -12.625 L 4.796875 -9.203125 L 6.71875 -9.203125 L 6.71875 -6.78125 L 4.796875 -6.78125 L 4.796875 -3.859375 C 4.796875 -3.003906 5.03125 -2.578125 5.5 -2.578125 C 5.625 -2.578125 5.75 -2.597656 5.875 -2.640625 C 6.007812 -2.691406 6.113281 -2.742188 6.1875 -2.796875 L 6.296875 -2.875 L 7.078125 -0.3125 C 6.398438 0.0703125 5.625 0.265625 4.75 0.265625 C 4.15625 0.265625 3.640625 0.160156 3.203125 -0.046875 C 2.773438 -0.253906 2.453125 -0.535156 2.234375 -0.890625 C 2.015625 -1.242188 1.851562 -1.613281 1.75 -2 C 1.65625 -2.382812 1.609375 -2.800781 1.609375 -3.25 L 1.609375 -6.78125 L 0.28125 -6.78125 L 0.28125 -9.203125 Z M 1.609375 -9.203125 "/></g></g></g><g fill="#000000" fill-opacity="1"><g transform="translate(64.31944, 37.587856)"><g><path d="M 10.390625 -4.15625 L 3.71875 -4.15625 C 3.71875 -3.507812 3.925781 -3.03125 4.34375 -2.71875 C 4.757812 -2.414062 5.210938 -2.265625 5.703125 -2.265625 C 6.210938 -2.265625 6.617188 -2.332031 6.921875 -2.46875 C 7.222656 -2.601562 7.566406 -2.875 7.953125 -3.28125 L 10.25 -2.140625 C 9.289062 -0.535156 7.695312 0.265625 5.46875 0.265625 C 4.082031 0.265625 2.890625 -0.207031 1.890625 -1.15625 C 0.898438 -2.101562 0.40625 -3.242188 0.40625 -4.578125 C 0.40625 -5.921875 0.898438 -7.070312 1.890625 -8.03125 C 2.890625 -8.988281 4.082031 -9.46875 5.46875 -9.46875 C 6.925781 -9.46875 8.113281 -9.046875 9.03125 -8.203125 C 9.945312 -7.359375 10.40625 -6.15625 10.40625 -4.59375 C 10.40625 -4.375 10.398438 -4.226562 10.390625 -4.15625 Z M 3.796875 -5.921875 L 7.296875 -5.921875 C 7.222656 -6.398438 7.035156 -6.765625 6.734375 -7.015625 C 6.429688 -7.273438 6.039062 -7.40625 5.5625 -7.40625 C 5.03125 -7.40625 4.609375 -7.265625 4.296875 -6.984375 C 3.992188 -6.710938 3.828125 -6.359375 3.796875 -5.921875 Z M 3.796875 -5.921875 "/></g></g></g><g fill="#000000" fill-opacity="1"><g transform="translate(75.131028, 37.587856)"><g><path d="M 1.078125 0 L 1.078125 -9.203125 L 4.25 -9.203125 L 4.25 -7.875 L 4.28125 -7.875 C 4.3125 -7.925781 4.351562 -7.984375 4.40625 -8.046875 C 4.457031 -8.117188 4.570312 -8.242188 4.75 -8.421875 C 4.925781 -8.609375 5.113281 -8.769531 5.3125 -8.90625 C 5.519531 -9.050781 5.785156 -9.179688 6.109375 -9.296875 C 6.429688 -9.410156 6.765625 -9.46875 7.109375 -9.46875 C 7.453125 -9.46875 7.789062 -9.421875 8.125 -9.328125 C 8.457031 -9.234375 8.703125 -9.140625 8.859375 -9.046875 L 9.109375 -8.890625 L 7.78125 -6.203125 C 7.382812 -6.535156 6.835938 -6.703125 6.140625 -6.703125 C 5.753906 -6.703125 5.421875 -6.617188 5.140625 -6.453125 C 4.867188 -6.285156 4.675781 -6.082031 4.5625 -5.84375 C 4.445312 -5.601562 4.363281 -5.398438 4.3125 -5.234375 C 4.269531 -5.066406 4.25 -4.9375 4.25 -4.84375 L 4.25 0 Z M 1.078125 0 "/></g></g></g><g fill="#000000" fill-opacity="1"><g transform="translate(84.060005, 37.587856)"><g><path d="M 5.078125 -9.46875 C 5.597656 -9.46875 6.113281 -9.40625 6.625 -9.28125 C 7.144531 -9.164062 7.53125 -9.050781 7.78125 -8.9375 L 8.15625 -8.75 L 7.125 -6.671875 C 6.40625 -7.054688 5.722656 -7.25 5.078125 -7.25 C 4.710938 -7.25 4.457031 -7.207031 4.3125 -7.125 C 4.164062 -7.050781 4.09375 -6.90625 4.09375 -6.6875 C 4.09375 -6.644531 4.097656 -6.597656 4.109375 -6.546875 C 4.117188 -6.492188 4.140625 -6.445312 4.171875 -6.40625 C 4.210938 -6.363281 4.25 -6.328125 4.28125 -6.296875 C 4.3125 -6.273438 4.359375 -6.242188 4.421875 -6.203125 C 4.492188 -6.171875 4.550781 -6.144531 4.59375 -6.125 C 4.632812 -6.101562 4.703125 -6.070312 4.796875 -6.03125 C 4.898438 -6 4.972656 -5.972656 5.015625 -5.953125 C 5.066406 -5.941406 5.148438 -5.914062 5.265625 -5.875 C 5.378906 -5.84375 5.46875 -5.820312 5.53125 -5.8125 C 5.894531 -5.707031 6.210938 -5.585938 6.484375 -5.453125 C 6.765625 -5.316406 7.054688 -5.132812 7.359375 -4.90625 C 7.671875 -4.6875 7.910156 -4.398438 8.078125 -4.046875 C 8.242188 -3.703125 8.328125 -3.3125 8.328125 -2.875 C 8.328125 -0.78125 6.875 0.265625 3.96875 0.265625 C 3.3125 0.265625 2.6875 0.164062 2.09375 -0.03125 C 1.5 -0.238281 1.070312 -0.441406 0.8125 -0.640625 L 0.40625 -0.96875 L 1.703125 -3.140625 C 1.796875 -3.054688 1.921875 -2.957031 2.078125 -2.84375 C 2.234375 -2.726562 2.515625 -2.570312 2.921875 -2.375 C 3.328125 -2.175781 3.679688 -2.078125 3.984375 -2.078125 C 4.640625 -2.078125 4.96875 -2.300781 4.96875 -2.75 C 4.96875 -2.945312 4.882812 -3.101562 4.71875 -3.21875 C 4.550781 -3.332031 4.265625 -3.460938 3.859375 -3.609375 C 3.460938 -3.753906 3.148438 -3.882812 2.921875 -4 C 2.347656 -4.300781 1.894531 -4.640625 1.5625 -5.015625 C 1.226562 -5.390625 1.0625 -5.890625 1.0625 -6.515625 C 1.0625 -7.441406 1.421875 -8.164062 2.140625 -8.6875 C 2.867188 -9.207031 3.847656 -9.46875 5.078125 -9.46875 Z M 5.078125 -9.46875 "/></g></g></g><g fill="#000000" fill-opacity="1"><g transform="translate(92.881407, 37.587856)"><g/></g></g><g fill="#000000" fill-opacity="1"><g transform="translate(97.776205, 37.587856)"><g><path d="M 1.375 -14.328125 C 1.75 -14.703125 2.191406 -14.890625 2.703125 -14.890625 C 3.222656 -14.890625 3.664062 -14.703125 4.03125 -14.328125 C 4.40625 -13.960938 4.59375 -13.519531 4.59375 -13 C 4.59375 -12.488281 4.40625 -12.046875 4.03125 -11.671875 C 3.664062 -11.304688 3.222656 -11.125 2.703125 -11.125 C 2.191406 -11.125 1.75 -11.304688 1.375 -11.671875 C 1.007812 -12.046875 0.828125 -12.488281 0.828125 -13 C 0.828125 -13.519531 1.007812 -13.960938 1.375 -14.328125 Z M 1.078125 -9.203125 L 1.078125 0 L 4.25 0 L 4.25 -9.203125 Z M 1.078125 -9.203125 "/></g></g></g><g fill="#000000" fill-opacity="1"><g transform="translate(103.190965, 37.587856)"><g><path d="M 1.078125 0 L 1.078125 -9.203125 L 4.25 -9.203125 L 4.25 -8.234375 L 4.28125 -8.234375 C 5.113281 -9.054688 5.992188 -9.46875 6.921875 -9.46875 C 7.378906 -9.46875 7.832031 -9.40625 8.28125 -9.28125 C 8.726562 -9.164062 9.15625 -8.984375 9.5625 -8.734375 C 9.976562 -8.484375 10.3125 -8.128906 10.5625 -7.671875 C 10.820312 -7.210938 10.953125 -6.675781 10.953125 -6.0625 L 10.953125 0 L 7.78125 0 L 7.78125 -5.203125 C 7.78125 -5.679688 7.628906 -6.097656 7.328125 -6.453125 C 7.023438 -6.816406 6.628906 -7 6.140625 -7 C 5.660156 -7 5.222656 -6.8125 4.828125 -6.4375 C 4.441406 -6.070312 4.25 -5.660156 4.25 -5.203125 L 4.25 0 Z M 1.078125 0 "/></g></g></g><g fill="#000000" fill-opacity="1"><g transform="translate(115.042477, 37.587856)"><g/></g></g><g fill="#000000" fill-opacity="1"><g transform="translate(119.937275, 37.587856)"><g><path d="M 9.546875 -14.796875 L 9.546875 -11.84375 L 4.453125 -11.84375 L 4.453125 -8.890625 L 9.328125 -8.890625 L 9.328125 -5.9375 L 4.453125 -5.9375 L 4.453125 -2.953125 L 9.546875 -2.953125 L 9.546875 0 L 1.078125 0 L 1.078125 -14.796875 Z M 9.546875 -14.796875 "/></g></g></g><g fill="#000000" fill-opacity="1"><g transform="translate(130.336486, 37.587856)"><g><path d="M 1.703125 -1.140625 C 0.835938 -2.078125 0.40625 -3.226562 0.40625 -4.59375 C 0.40625 -5.957031 0.835938 -7.109375 1.703125 -8.046875 C 2.566406 -8.992188 3.660156 -9.46875 4.984375 -9.46875 C 6.203125 -9.46875 7.207031 -9.085938 8 -8.328125 L 8 -15.421875 L 11.171875 -15.421875 L 11.171875 0 L 8.03125 0 L 8.03125 -1.046875 L 8 -1.046875 C 7.207031 -0.171875 6.203125 0.265625 4.984375 0.265625 C 3.660156 0.265625 2.566406 -0.203125 1.703125 -1.140625 Z M 4.390625 -6.15625 C 3.984375 -5.75 3.78125 -5.226562 3.78125 -4.59375 C 3.78125 -3.957031 3.976562 -3.4375 4.375 -3.03125 C 4.769531 -2.632812 5.289062 -2.4375 5.9375 -2.4375 C 6.5625 -2.4375 7.070312 -2.640625 7.46875 -3.046875 C 7.875 -3.453125 8.078125 -3.96875 8.078125 -4.59375 C 8.078125 -5.226562 7.867188 -5.75 7.453125 -6.15625 C 7.035156 -6.5625 6.53125 -6.765625 5.9375 -6.765625 C 5.320312 -6.765625 4.804688 -6.5625 4.390625 -6.15625 Z M 4.390625 -6.15625 "/></g></g></g><g fill="#000000" fill-opacity="1"><g transform="translate(142.582452, 37.587856)"><g><path d="M 4.078125 -9.203125 L 4.078125 -4.828125 C 4.078125 -3.921875 4.210938 -3.273438 4.484375 -2.890625 C 4.753906 -2.503906 5.21875 -2.3125 5.875 -2.3125 C 6.539062 -2.3125 7.007812 -2.503906 7.28125 -2.890625 C 7.550781 -3.273438 7.6875 -3.921875 7.6875 -4.828125 L 7.6875 -9.203125 L 10.875 -9.203125 L 10.875 -4.046875 C 10.875 -2.523438 10.472656 -1.425781 9.671875 -0.75 C 8.878906 -0.0703125 7.613281 0.265625 5.875 0.265625 C 4.144531 0.265625 2.878906 -0.0703125 2.078125 -0.75 C 1.285156 -1.425781 0.890625 -2.523438 0.890625 -4.046875 L 0.890625 -9.203125 Z M 4.078125 -9.203125 "/></g></g></g><g fill="#000000" fill-opacity="1"><g transform="translate(154.344323, 37.587856)"><g><path d="M 5.96875 -6.875 C 5.375 -6.875 4.859375 -6.648438 4.421875 -6.203125 C 3.992188 -5.765625 3.78125 -5.234375 3.78125 -4.609375 C 3.78125 -3.972656 3.992188 -3.429688 4.421875 -2.984375 C 4.859375 -2.546875 5.375 -2.328125 5.96875 -2.328125 C 6.257812 -2.328125 6.53125 -2.363281 6.78125 -2.4375 C 7.039062 -2.507812 7.234375 -2.582031 7.359375 -2.65625 L 7.515625 -2.765625 L 8.59375 -0.5625 C 8.507812 -0.5 8.390625 -0.421875 8.234375 -0.328125 C 8.085938 -0.242188 7.75 -0.125 7.21875 0.03125 C 6.6875 0.1875 6.113281 0.265625 5.5 0.265625 C 4.15625 0.265625 2.96875 -0.207031 1.9375 -1.15625 C 0.914062 -2.101562 0.40625 -3.242188 0.40625 -4.578125 C 0.40625 -5.910156 0.914062 -7.054688 1.9375 -8.015625 C 2.96875 -8.984375 4.15625 -9.46875 5.5 -9.46875 C 6.113281 -9.46875 6.675781 -9.394531 7.1875 -9.25 C 7.707031 -9.113281 8.070312 -8.972656 8.28125 -8.828125 L 8.59375 -8.609375 L 7.515625 -6.4375 C 7.117188 -6.726562 6.601562 -6.875 5.96875 -6.875 Z M 5.96875 -6.875 "/></g></g></g><g fill="#000000" fill-opacity="1"><g transform="translate(163.147792, 37.587856)"><g><path d="M 1.703125 -1.140625 C 0.835938 -2.078125 0.40625 -3.226562 0.40625 -4.59375 C 0.40625 -5.957031 0.835938 -7.109375 1.703125 -8.046875 C 2.566406 -8.992188 3.660156 -9.46875 4.984375 -9.46875 C 6.203125 -9.46875 7.207031 -9.085938 8 -8.328125 L 8 -9.203125 L 11.171875 -9.203125 L 11.171875 0 L 8.03125 0 L 8.03125 -1.046875 L 8 -1.046875 C 7.207031 -0.171875 6.203125 0.265625 4.984375 0.265625 C 3.660156 0.265625 2.566406 -0.203125 1.703125 -1.140625 Z M 4.390625 -6.15625 C 3.984375 -5.75 3.78125 -5.226562 3.78125 -4.59375 C 3.78125 -3.957031 3.976562 -3.4375 4.375 -3.03125 C 4.769531 -2.632812 5.289062 -2.4375 5.9375 -2.4375 C 6.5625 -2.4375 7.070312 -2.640625 7.46875 -3.046875 C 7.875 -3.453125 8.078125 -3.96875 8.078125 -4.59375 C 8.078125 -5.226562 7.867188 -5.75 7.453125 -6.15625 C 7.035156 -6.5625 6.53125 -6.765625 5.9375 -6.765625 C 5.320312 -6.765625 4.804688 -6.5625 4.390625 -6.15625 Z M 4.390625 -6.15625 "/></g></g></g><g fill="#000000" fill-opacity="1"><g transform="translate(175.393759, 37.587856)"><g><path d="M 1.609375 -9.203125 L 1.609375 -12.625 L 4.796875 -12.625 L 4.796875 -9.203125 L 6.71875 -9.203125 L 6.71875 -6.78125 L 4.796875 -6.78125 L 4.796875 -3.859375 C 4.796875 -3.003906 5.03125 -2.578125 5.5 -2.578125 C 5.625 -2.578125 5.75 -2.597656 5.875 -2.640625 C 6.007812 -2.691406 6.113281 -2.742188 6.1875 -2.796875 L 6.296875 -2.875 L 7.078125 -0.3125 C 6.398438 0.0703125 5.625 0.265625 4.75 0.265625 C 4.15625 0.265625 3.640625 0.160156 3.203125 -0.046875 C 2.773438 -0.253906 2.453125 -0.535156 2.234375 -0.890625 C 2.015625 -1.242188 1.851562 -1.613281 1.75 -2 C 1.65625 -2.382812 1.609375 -2.800781 1.609375 -3.25 L 1.609375 -6.78125 L 0.28125 -6.78125 L 0.28125 -9.203125 Z M 1.609375 -9.203125 "/></g></g></g><g fill="#000000" fill-opacity="1"><g transform="translate(182.47598, 37.587856)"><g><path d="M 1.375 -14.328125 C 1.75 -14.703125 2.191406 -14.890625 2.703125 -14.890625 C 3.222656 -14.890625 3.664062 -14.703125 4.03125 -14.328125 C 4.40625 -13.960938 4.59375 -13.519531 4.59375 -13 C 4.59375 -12.488281 4.40625 -12.046875 4.03125 -11.671875 C 3.664062 -11.304688 3.222656 -11.125 2.703125 -11.125 C 2.191406 -11.125 1.75 -11.304688 1.375 -11.671875 C 1.007812 -12.046875 0.828125 -12.488281 0.828125 -13 C 0.828125 -13.519531 1.007812 -13.960938 1.375 -14.328125 Z M 1.078125 -9.203125 L 1.078125 0 L 4.25 0 L 4.25 -9.203125 Z M 1.078125 -9.203125 "/></g></g></g><g fill="#000000" fill-opacity="1"><g transform="translate(187.890741, 37.587856)"><g><path d="M 1.9375 -1.09375 C 0.914062 -2 0.40625 -3.160156 0.40625 -4.578125 C 0.40625 -6.003906 0.9375 -7.175781 2 -8.09375 C 3.070312 -9.007812 4.390625 -9.46875 5.953125 -9.46875 C 7.492188 -9.46875 8.789062 -9.003906 9.84375 -8.078125 C 10.90625 -7.160156 11.4375 -5.992188 11.4375 -4.578125 C 11.4375 -3.171875 10.921875 -2.007812 9.890625 -1.09375 C 8.859375 -0.1875 7.546875 0.265625 5.953125 0.265625 C 4.304688 0.265625 2.96875 -0.1875 1.9375 -1.09375 Z M 4.390625 -6.15625 C 3.984375 -5.75 3.78125 -5.226562 3.78125 -4.59375 C 3.78125 -3.957031 3.976562 -3.4375 4.375 -3.03125 C 4.769531 -2.632812 5.289062 -2.4375 5.9375 -2.4375 C 6.5625 -2.4375 7.070312 -2.640625 7.46875 -3.046875 C 7.875 -3.453125 8.078125 -3.96875 8.078125 -4.59375 C 8.078125 -5.226562 7.867188 -5.75 7.453125 -6.15625 C 7.035156 -6.5625 6.53125 -6.765625 5.9375 -6.765625 C 5.320312 -6.765625 4.804688 -6.5625 4.390625 -6.15625 Z M 4.390625 -6.15625 "/></g></g></g><g fill="#000000" fill-opacity="1"><g transform="translate(199.742252, 37.587856)"><g><path d="M 1.078125 0 L 1.078125 -9.203125 L 4.25 -9.203125 L 4.25 -8.234375 L 4.28125 -8.234375 C 5.113281 -9.054688 5.992188 -9.46875 6.921875 -9.46875 C 7.378906 -9.46875 7.832031 -9.40625 8.28125 -9.28125 C 8.726562 -9.164062 9.15625 -8.984375 9.5625 -8.734375 C 9.976562 -8.484375 10.3125 -8.128906 10.5625 -7.671875 C 10.820312 -7.210938 10.953125 -6.675781 10.953125 -6.0625 L 10.953125 0 L 7.78125 0 L 7.78125 -5.203125 C 7.78125 -5.679688 7.628906 -6.097656 7.328125 -6.453125 C 7.023438 -6.816406 6.628906 -7 6.140625 -7 C 5.660156 -7 5.222656 -6.8125 4.828125 -6.4375 C 4.441406 -6.070312 4.25 -5.660156 4.25 -5.203125 L 4.25 0 Z M 1.078125 0 "/></g></g></g><g fill="#000000" fill-opacity="1"><g transform="translate(211.593753, 37.587856)"><g/></g></g><g fill="#104e91" fill-opacity="1"><g transform="translate(216.481803, 37.587856)"><g><path d="M 6.1875 3.78125 L 4.125 4.65625 C 4.039062 4.550781 3.925781 4.398438 3.78125 4.203125 C 3.632812 4.015625 3.382812 3.59375 3.03125 2.9375 C 2.675781 2.28125 2.359375 1.585938 2.078125 0.859375 C 1.804688 0.140625 1.554688 -0.78125 1.328125 -1.90625 C 1.097656 -3.03125 0.984375 -4.171875 0.984375 -5.328125 C 0.984375 -6.523438 1.097656 -7.695312 1.328125 -8.84375 C 1.566406 -9.988281 1.851562 -10.957031 2.1875 -11.75 C 2.519531 -12.539062 2.847656 -13.242188 3.171875 -13.859375 C 3.503906 -14.484375 3.785156 -14.945312 4.015625 -15.25 L 4.375 -15.6875 L 6.4375 -14.8125 C 6.363281 -14.726562 6.269531 -14.601562 6.15625 -14.4375 C 6.039062 -14.28125 5.835938 -13.910156 5.546875 -13.328125 C 5.265625 -12.742188 5.007812 -12.113281 4.78125 -11.4375 C 4.5625 -10.769531 4.359375 -9.882812 4.171875 -8.78125 C 3.992188 -7.675781 3.90625 -6.523438 3.90625 -5.328125 C 3.90625 -4.191406 3.984375 -3.101562 4.140625 -2.0625 C 4.296875 -1.019531 4.488281 -0.160156 4.71875 0.515625 C 4.945312 1.191406 5.171875 1.785156 5.390625 2.296875 C 5.609375 2.816406 5.796875 3.195312 5.953125 3.4375 Z M 6.1875 3.78125 "/></g></g></g><g fill="#104e91" fill-opacity="1"><g transform="translate(223.707464, 37.587856)"><g><path d="M 13.3125 0 L 12.609375 -8.765625 L 12.515625 -8.765625 L 9.484375 -0.09375 L 7.484375 -0.09375 L 4.453125 -8.765625 L 4.359375 -8.765625 L 3.65625 0 L 0.28125 0 L 1.609375 -14.796875 L 5.203125 -14.796875 L 8.484375 -6.265625 L 11.765625 -14.796875 L 15.359375 -14.796875 L 16.6875 0 Z M 13.3125 0 "/></g></g></g><g fill="#104e91" fill-opacity="1"><g transform="translate(240.668934, 37.587856)"><g><path d="M 3.125 -3.84375 C 3.695312 -3.84375 4.179688 -3.640625 4.578125 -3.234375 C 4.984375 -2.835938 5.1875 -2.351562 5.1875 -1.78125 C 5.1875 -1.21875 4.984375 -0.734375 4.578125 -0.328125 C 4.179688 0.0664062 3.695312 0.265625 3.125 0.265625 C 2.5625 0.265625 2.078125 0.0664062 1.671875 -0.328125 C 1.273438 -0.734375 1.078125 -1.21875 1.078125 -1.78125 C 1.078125 -2.351562 1.273438 -2.835938 1.671875 -3.234375 C 2.078125 -3.640625 2.5625 -3.84375 3.125 -3.84375 Z M 3.125 -3.84375 "/></g></g></g><g fill="#104e91" fill-opacity="1"><g transform="translate(246.926391, 37.587856)"><g><path d="M 9.546875 -14.796875 L 9.546875 -11.84375 L 4.453125 -11.84375 L 4.453125 -8.890625 L 9.328125 -8.890625 L 9.328125 -5.9375 L 4.453125 -5.9375 L 4.453125 -2.953125 L 9.546875 -2.953125 L 9.546875 0 L 1.078125 0 L 1.078125 -14.796875 Z M 9.546875 -14.796875 "/></g></g></g><g fill="#104e91" fill-opacity="1"><g transform="translate(257.325602, 37.587856)"><g><path d="M 1.703125 -1.140625 C 0.835938 -2.078125 0.40625 -3.226562 0.40625 -4.59375 C 0.40625 -5.957031 0.835938 -7.109375 1.703125 -8.046875 C 2.566406 -8.992188 3.660156 -9.46875 4.984375 -9.46875 C 6.203125 -9.46875 7.207031 -9.085938 8 -8.328125 L 8 -15.421875 L 11.171875 -15.421875 L 11.171875 0 L 8.03125 0 L 8.03125 -1.046875 L 8 -1.046875 C 7.207031 -0.171875 6.203125 0.265625 4.984375 0.265625 C 3.660156 0.265625 2.566406 -0.203125 1.703125 -1.140625 Z M 4.390625 -6.15625 C 3.984375 -5.75 3.78125 -5.226562 3.78125 -4.59375 C 3.78125 -3.957031 3.976562 -3.4375 4.375 -3.03125 C 4.769531 -2.632812 5.289062 -2.4375 5.9375 -2.4375 C 6.5625 -2.4375 7.070312 -2.640625 7.46875 -3.046875 C 7.875 -3.453125 8.078125 -3.96875 8.078125 -4.59375 C 8.078125 -5.226562 7.867188 -5.75 7.453125 -6.15625 C 7.035156 -6.5625 6.53125 -6.765625 5.9375 -6.765625 C 5.320312 -6.765625 4.804688 -6.5625 4.390625 -6.15625 Z M 4.390625 -6.15625 "/></g></g></g><g fill="#104e91" fill-opacity="1"><g transform="translate(269.571569, 37.587856)"><g><path d="M 3.109375 4.65625 L 1.046875 3.78125 C 1.097656 3.695312 1.175781 3.570312 1.28125 3.40625 C 1.382812 3.25 1.566406 2.882812 1.828125 2.3125 C 2.085938 1.75 2.316406 1.144531 2.515625 0.5 C 2.722656 -0.144531 2.90625 -0.992188 3.0625 -2.046875 C 3.226562 -3.097656 3.3125 -4.191406 3.3125 -5.328125 C 3.3125 -6.523438 3.222656 -7.671875 3.046875 -8.765625 C 2.878906 -9.859375 2.671875 -10.753906 2.421875 -11.453125 C 2.171875 -12.160156 1.921875 -12.773438 1.671875 -13.296875 C 1.429688 -13.828125 1.222656 -14.210938 1.046875 -14.453125 L 0.796875 -14.8125 L 2.859375 -15.6875 C 2.953125 -15.582031 3.070312 -15.425781 3.21875 -15.21875 C 3.363281 -15.019531 3.628906 -14.578125 4.015625 -13.890625 C 4.410156 -13.203125 4.753906 -12.476562 5.046875 -11.71875 C 5.347656 -10.96875 5.625 -10.015625 5.875 -8.859375 C 6.125 -7.703125 6.25 -6.523438 6.25 -5.328125 C 6.25 -4.171875 6.140625 -3.035156 5.921875 -1.921875 C 5.703125 -0.804688 5.4375 0.128906 5.125 0.890625 C 4.8125 1.648438 4.503906 2.320312 4.203125 2.90625 C 3.898438 3.5 3.640625 3.941406 3.421875 4.234375 Z M 3.109375 4.65625 "/></g></g></g></svg>