<svg xmlns="http://www.w3.org/2000/svg" xmlns:xlink="http://www.w3.org/1999/xlink" width="406" zoomAndPan="magnify" viewBox="0 0 304.5 227.999995" height="304" preserveAspectRatio="xMidYMid meet" version="1.0"><defs><g/><clipPath id="5614acc191"><path d="M 0 0.1875 L 304 0.1875 L 304 227.8125 L 0 227.8125 Z M 0 0.1875 " clip-rule="nonzero"/></clipPath></defs><g clip-path="url(#5614acc191)"><path fill="#ffffff" d="M 0 0.1875 L 304.5 0.1875 L 304.5 235.6875 L 0 235.6875 Z M 0 0.1875 " fill-opacity="1" fill-rule="nonzero"/><path fill="#ffffff" d="M 0 0.1875 L 304.5 0.1875 L 304.5 228.1875 L 0 228.1875 Z M 0 0.1875 " fill-opacity="1" fill-rule="nonzero"/><path fill="#eaf8ff" d="M 0 0.1875 L 304.5 0.1875 L 304.5 228.1875 L 0 228.1875 Z M 0 0.1875 " fill-opacity="1" fill-rule="nonzero"/></g><path fill="#ffd2bb" d="M 139.269531 145.886719 C 138.886719 146.535156 137.875 148.28125 136.871094 150.375 L 135.425781 152.253906 C 134.410156 153.582031 132.527344 153.851562 131.175781 152.886719 C 129.6875 152.257812 128.921875 150.574219 129.460938 149.023438 L 135.148438 136.90625 C 134.871094 136.722656 134.621094 136.484375 134.417969 136.191406 C 133.675781 135.105469 133.863281 133.667969 134.796875 132.800781 L 134.558594 131.246094 C 134.507812 130.921875 134.730469 130.621094 135.050781 130.574219 C 135.375 130.523438 135.675781 130.746094 135.726562 131.066406 L 135.898438 132.191406 C 136.9375 131.910156 138.089844 132.296875 138.734375 133.242188 C 139.355469 134.144531 139.328125 135.300781 138.757812 136.160156 C 139.015625 136.351562 138.828125 136.59375 138.519531 137.425781 C 136.574219 139.585938 134.597656 141.8125 134.597656 141.8125 C 134.675781 141.894531 134.886719 142.121094 135.175781 142.425781 C 135.625 142.898438 136.261719 143.5625 136.910156 144.183594 C 137.890625 145.121094 138.886719 145.957031 139.269531 145.886719 Z M 154.851562 138.460938 L 148.738281 135.96875 L 150.542969 132.683594 C 150.460938 132.488281 150.402344 132.285156 150.347656 132.082031 C 150.417969 132.308594 150.507812 132.429688 150.605469 132.21875 C 150.742188 131.917969 151.445312 131.042969 151.355469 130.113281 C 151.261719 129.15625 151.355469 127.847656 152.40625 127.847656 C 153.113281 127.847656 152.953125 129.84375 152.953125 129.84375 C 152.953125 129.84375 153.363281 129.214844 153.558594 128.738281 C 153.753906 128.265625 154.101562 127.484375 155.632812 126.765625 C 156.492188 126.363281 156.773438 125.21875 156.859375 124.285156 C 156.875 124.285156 156.894531 124.289062 156.910156 124.289062 C 156.980469 124.289062 157.050781 124.28125 157.121094 124.277344 C 157.285156 125.058594 157.570312 125.859375 158.050781 126.558594 C 159.128906 128.125 160.53125 129.585938 161.347656 130.386719 L 160.398438 132.695312 C 160.238281 133.09375 160.074219 133.46875 159.902344 133.828125 C 159.707031 134.238281 159.503906 134.617188 159.289062 134.953125 C 158.5 136.199219 157.519531 136.921875 156.050781 136.59375 C 155.824219 136.542969 155.585938 136.476562 155.335938 136.375 L 153.449219 135.597656 C 153.335938 135.550781 153.222656 135.503906 153.117188 135.449219 C 153.109375 135.445312 153.097656 135.4375 153.089844 135.433594 C 153.011719 135.785156 152.992188 136.050781 153.105469 136.097656 L 154.660156 136.738281 C 154.867188 136.820312 155.0625 136.875 155.253906 136.910156 L 154.851562 138.457031 Z M 159.46875 131.167969 C 159.644531 131.21875 159.859375 131.027344 159.949219 130.738281 C 160.035156 130.449219 159.964844 130.175781 159.785156 130.125 C 159.609375 130.070312 159.390625 130.261719 159.304688 130.550781 C 159.21875 130.839844 159.289062 131.113281 159.46875 131.167969 Z M 155.921875 129.710938 C 156.097656 129.761719 156.3125 129.570312 156.402344 129.28125 C 156.488281 128.992188 156.417969 128.71875 156.238281 128.664062 C 156.0625 128.613281 155.84375 128.804688 155.757812 129.09375 C 155.671875 129.382812 155.742188 129.65625 155.921875 129.710938 Z M 150.253906 131.691406 C 150.210938 131.460938 150.179688 131.230469 150.164062 131.113281 C 150.175781 131.222656 150.183594 131.332031 150.203125 131.441406 C 150.214844 131.527344 150.238281 131.609375 150.253906 131.691406 Z M 215.511719 139.589844 C 215.121094 139.496094 214.894531 139.457031 214.894531 139.457031 L 208.324219 143.542969 L 207.824219 143.675781 L 207.578125 142.402344 C 206.742188 142.808594 205.914062 141.496094 205.265625 141.570312 C 203.203125 141.804688 202.179688 138.964844 202.167969 136.671875 C 201.945312 136.65625 201.746094 136.617188 201.605469 136.554688 C 200.957031 136.277344 201.585938 135.679688 201.910156 134.914062 C 201.960938 134.800781 202.019531 134.699219 202.085938 134.605469 C 202.078125 134.539062 202.070312 134.46875 202.066406 134.402344 C 201.957031 133.457031 202.050781 132.558594 202.300781 131.734375 L 202.335938 131.730469 C 202.589844 131.699219 206.464844 131.636719 206.15625 131.765625 C 205.695312 133.171875 205.761719 134.546875 206.371094 135.527344 C 206.484375 135.105469 206.691406 134.714844 207.003906 134.421875 C 207.59375 133.859375 208.625 133.683594 209.285156 134.253906 C 209.777344 134.679688 209.773438 135.351562 209.445312 135.882812 C 209.304688 136.117188 209.125 136.316406 208.917969 136.46875 C 208.71875 136.621094 208.496094 136.734375 208.261719 136.808594 C 208.65625 136.886719 209.078125 136.890625 209.515625 136.824219 C 210.332031 136.707031 213.886719 135.59375 213.957031 135.539062 C 213.957031 135.539062 214.449219 135.761719 215.046875 137.847656 C 215.238281 138.507812 215.390625 139.089844 215.511719 139.589844 Z M 204.488281 134.671875 C 204.464844 134.386719 204.300781 134.167969 204.125 134.183594 C 203.949219 134.203125 203.824219 134.449219 203.851562 134.738281 C 203.878906 135.023438 204.039062 135.246094 204.214844 135.226562 C 204.390625 135.207031 204.515625 134.960938 204.488281 134.671875 Z M 174.886719 148.492188 C 174.582031 147.8125 178.226562 147.25 177.890625 146.308594 C 177.554688 145.367188 174.460938 147.988281 174.074219 147.355469 C 173.6875 146.722656 176.773438 146.117188 176.425781 145.234375 C 176.117188 144.453125 173.117188 146.949219 172.355469 146.523438 C 171.667969 146.140625 173.378906 145.144531 172.820312 144.773438 C 172.121094 144.308594 170.304688 146.984375 170.078125 147.96875 C 169.96875 148.453125 169.898438 148.871094 169.886719 149.238281 C 169.832031 149.304688 169.769531 149.378906 169.699219 149.453125 L 163.191406 155.355469 L 162.132812 151.050781 L 156.3125 151.589844 C 156.3125 151.589844 156.363281 151.984375 156.148438 152.644531 L 158.378906 161.710938 C 158.757812 163.378906 160.417969 164.421875 162.085938 164.046875 C 162.53125 163.945312 162.933594 163.746094 163.277344 163.484375 C 163.589844 163.320312 163.882812 163.097656 164.136719 162.816406 L 172.222656 151.589844 C 172.285156 151.519531 172.339844 151.453125 172.394531 151.390625 C 173.171875 151.410156 174.140625 151.246094 175.058594 150.988281 C 176.550781 150.570312 177.84375 149.992188 177.648438 149.566406 C 177.3125 148.847656 175.164062 150.523438 174.789062 149.824219 C 174.566406 149.40625 178.519531 148.84375 178.152344 147.902344 C 177.820312 147.054688 175.191406 149.167969 174.886719 148.492188 Z M 160.761719 178.089844 C 159.550781 177.003906 157.835938 175.242188 155.703125 173.632812 C 153.84375 175.699219 152.46875 178.125 151.117188 180.6875 C 150.785156 181.316406 150.429688 181.933594 150.0625 182.546875 C 151.976562 182.53125 153.410156 182.507812 153.921875 182.582031 C 153.703125 183.179688 153.574219 183.824219 153.574219 184.503906 C 153.574219 186.671875 153.808594 199.570312 153.949219 207.054688 C 154.230469 207.09375 154.515625 207.121094 154.808594 207.121094 C 155.457031 207.121094 156.085938 207.015625 156.679688 206.820312 C 157.9375 204.015625 159.464844 200.433594 160.851562 196.699219 Z M 154.050781 212.367188 C 154.050781 212.398438 154.050781 212.421875 154.050781 212.421875 C 154.050781 212.421875 154.050781 212.398438 154.050781 212.367188 Z M 159.648438 209.152344 C 160.058594 209.351562 160.484375 209.546875 160.914062 209.746094 C 160.484375 209.546875 160.058594 209.351562 159.648438 209.152344 Z M 103.46875 103.589844 L 103.46875 103.59375 C 104.042969 103.398438 104.660156 103.285156 105.300781 103.285156 C 106.867188 103.285156 108.277344 103.917969 109.304688 104.941406 C 109.308594 104.945312 109.3125 104.945312 109.3125 104.949219 C 109.3125 104.949219 109.308594 104.945312 109.304688 104.941406 C 108.28125 103.917969 106.867188 103.285156 105.304688 103.285156 C 104.660156 103.285156 104.042969 103.390625 103.46875 103.589844 C 103.398438 103.613281 103.324219 103.640625 103.257812 103.667969 C 103.125 103.71875 102.992188 103.773438 102.867188 103.835938 C 102.992188 103.773438 103.121094 103.71875 103.253906 103.667969 C 103.324219 103.640625 103.394531 103.613281 103.46875 103.589844 Z M 110.867188 107.914062 C 110.929688 108.25 110.964844 108.59375 110.964844 108.945312 L 110.964844 112.351562 C 110.964844 112.804688 110.957031 113.242188 110.933594 113.664062 C 110.90625 114.144531 110.859375 114.597656 110.785156 115.019531 C 110.511719 116.558594 109.839844 117.667969 108.265625 117.9375 C 108.019531 117.980469 107.761719 118.011719 107.472656 118.011719 L 105.304688 118.011719 C 105.1875 118.011719 105.070312 118.007812 104.957031 117.996094 C 105.042969 118.375 105.144531 118.640625 105.304688 118.640625 L 107.472656 118.640625 C 107.761719 118.640625 108.019531 118.613281 108.265625 118.570312 L 108.546875 120.253906 L 100.027344 120.28125 L 100.671875 115.601562 C 100.589844 115.480469 100.507812 115.359375 100.4375 115.234375 C 100.359375 115.109375 100.289062 114.980469 100.222656 114.847656 C 100.222656 114.84375 100.222656 114.84375 100.222656 114.84375 C 100.21875 114.746094 100.132812 110.839844 101.203125 110.222656 C 101.855469 109.847656 102.496094 112.554688 102.496094 112.554688 C 102.496094 112.554688 102.644531 111.769531 102.644531 111.226562 C 102.644531 110.683594 102.671875 109.773438 103.886719 108.449219 C 104.304688 107.988281 104.390625 107.335938 104.328125 106.683594 C 105.011719 107.527344 106.265625 108.417969 108.527344 108.449219 C 109.480469 108.460938 110.25 108.246094 110.867188 107.914062 Z M 105.65625 110.609375 C 105.625 110.292969 105.441406 110.050781 105.246094 110.070312 C 105.050781 110.09375 104.914062 110.367188 104.949219 110.6875 C 104.980469 111.003906 105.160156 111.246094 105.355469 111.226562 C 105.550781 111.203125 105.6875 110.929688 105.65625 110.609375 Z M 109.730469 110.609375 C 109.699219 110.292969 109.515625 110.050781 109.320312 110.070312 C 109.125 110.09375 108.988281 110.367188 109.023438 110.6875 C 109.054688 111.003906 109.234375 111.246094 109.433594 111.226562 C 109.625 111.203125 109.761719 110.929688 109.730469 110.609375 Z M 141.976562 113.125 C 141.964844 113.152344 141.960938 113.175781 141.953125 113.199219 C 141.960938 113.175781 141.96875 113.148438 141.976562 113.125 Z M 145.113281 109.375 C 144.707031 109.082031 148.1875 106.714844 147.402344 105.996094 C 146.699219 105.351562 145.1875 108.566406 144.585938 108.066406 C 143.984375 107.566406 147.171875 105.34375 146.417969 104.609375 C 145.710938 103.921875 144.160156 107.320312 143.425781 107.398438 C 143.417969 107.398438 143.414062 107.394531 143.40625 107.394531 C 143.367188 107.394531 143.324219 107.390625 143.289062 107.367188 C 142.628906 106.945312 145.273438 104.945312 144.53125 104.269531 C 143.882812 103.675781 142.199219 107.429688 141.277344 107.378906 C 140.453125 107.332031 141.609375 105.597656 140.910156 105.507812 C 140.097656 105.398438 139.628906 108.261719 139.75 109.519531 C 139.761719 109.625 139.773438 109.722656 139.792969 109.800781 C 139.800781 109.828125 139.804688 109.851562 139.8125 109.875 C 139.605469 109.980469 139.390625 110.105469 139.167969 110.238281 C 139.757812 111.480469 140.75 112.5 141.972656 113.125 C 142.066406 112.835938 142.148438 112.550781 142.214844 112.285156 C 142.355469 112.28125 142.5 112.273438 142.65625 112.253906 C 143.5625 112.152344 144.828125 111.316406 145.90625 110.355469 C 147.125 109.265625 148.078125 108.117188 147.695312 107.808594 C 147.050781 107.28125 145.789062 109.859375 145.113281 109.375 Z M 138.808594 110.453125 C 138.933594 110.375 139.050781 110.308594 139.167969 110.234375 C 139.050781 110.304688 138.929688 110.378906 138.808594 110.453125 Z M 135.699219 125.714844 C 135.507812 125.96875 134.511719 126.617188 133.101562 127.464844 C 134.097656 127.195312 135.023438 126.605469 135.699219 125.714844 Z M 134.125 114.082031 C 134.886719 113.414062 135.660156 112.765625 136.417969 112.167969 C 135.660156 112.765625 134.886719 113.414062 134.125 114.082031 Z M 131.933594 116.085938 C 132.625 115.429688 133.367188 114.746094 134.125 114.082031 C 133.367188 114.746094 132.625 115.425781 131.933594 116.085938 Z M 89.570312 157.667969 C 89.640625 157.15625 89.699219 156.625 89.75 156.078125 C 89.699219 156.625 89.640625 157.15625 89.570312 157.667969 Z M 89.570312 157.667969 C 89.503906 158.179688 89.425781 158.671875 89.339844 159.136719 C 89.425781 158.671875 89.503906 158.179688 89.570312 157.667969 Z M 85.074219 160.195312 C 85.078125 160.195312 85.078125 160.195312 85.078125 160.195312 C 85.027344 160.101562 84.976562 160.007812 84.929688 159.910156 C 84.976562 160.007812 85.027344 160.101562 85.074219 160.195312 Z M 89.203125 161.148438 C 89.121094 161.082031 89.042969 161.023438 88.972656 160.980469 C 88.953125 160.96875 88.929688 160.957031 88.910156 160.941406 C 88.976562 160.722656 89.042969 160.480469 89.105469 160.230469 C 87.808594 159.777344 86.382812 159.765625 85.078125 160.195312 C 85.222656 160.464844 85.363281 160.722656 85.507812 160.957031 C 85.410156 161.058594 85.316406 161.167969 85.21875 161.292969 C 84.652344 162.007812 84.359375 163.496094 84.285156 164.9375 C 84.203125 166.570312 84.347656 168.058594 84.835938 168.003906 C 85.667969 167.914062 84.714844 165.203125 85.539062 165.0625 C 86.03125 164.980469 85.265625 169.121094 86.332031 169.066406 C 87.285156 169.023438 86.058594 165.6875 86.839844 165.609375 C 87.617188 165.535156 86.957031 169.363281 88.007812 169.34375 C 88.996094 169.324219 87.667969 165.832031 88.128906 165.253906 C 88.132812 165.246094 88.140625 165.25 88.144531 165.242188 C 88.171875 165.214844 88.207031 165.1875 88.246094 165.179688 C 89.007812 165.003906 88.574219 168.292969 89.574219 168.238281 C 90.457031 168.195312 88.972656 164.359375 89.65625 163.742188 C 90.269531 163.1875 90.6875 165.226562 91.242188 164.792969 C 91.890625 164.292969 90.183594 161.945312 89.203125 161.148438 Z M 89.125 160.144531 C 89.117188 160.171875 89.113281 160.203125 89.105469 160.230469 C 89.113281 160.203125 89.121094 160.171875 89.125 160.144531 Z M 80.535156 146.878906 C 80.484375 146.511719 81.082031 144.878906 81.980469 142.699219 C 80.894531 143.730469 80.304688 145.269531 80.535156 146.878906 Z M 187.71875 141.566406 L 187.035156 140.148438 C 186.894531 139.855469 186.542969 139.730469 186.246094 139.875 C 185.953125 140.015625 185.828125 140.367188 185.972656 140.660156 L 186.464844 141.683594 C 185.445312 142.042969 184.714844 143.011719 184.714844 144.152344 C 184.714844 145.527344 185.773438 146.652344 187.113281 146.761719 C 187.0625 146.5625 187.007812 146.371094 186.957031 146.183594 C 187.304688 145.949219 187.625 145.546875 187.980469 145.003906 C 188.019531 144.945312 188.058594 144.871094 188.09375 144.792969 C 188.589844 144.988281 189.078125 145.238281 189.554688 145.519531 C 189.800781 145.121094 189.941406 144.65625 189.941406 144.152344 C 189.941406 142.839844 188.976562 141.753906 187.71875 141.566406 Z M 187.71875 141.566406 " fill-opacity="1" fill-rule="nonzero"/><path fill="#e84393" d="M 117.714844 78.175781 L 117.714844 73.558594 C 117.714844 73.160156 118.039062 72.835938 118.4375 72.835938 C 118.835938 72.835938 119.15625 73.160156 119.15625 73.558594 L 119.15625 78.175781 C 119.15625 78.570312 118.835938 78.894531 118.4375 78.894531 C 118.039062 78.894531 117.714844 78.574219 117.714844 78.175781 Z M 118.4375 95.628906 C 118.835938 95.628906 119.15625 95.308594 119.15625 94.910156 L 119.15625 90.292969 C 119.15625 89.894531 118.835938 89.574219 118.4375 89.574219 C 118.039062 89.574219 117.714844 89.894531 117.714844 90.292969 L 117.714844 94.910156 C 117.714844 95.308594 118.039062 95.628906 118.4375 95.628906 Z M 107.761719 84.953125 L 112.378906 84.953125 C 112.777344 84.953125 113.097656 84.632812 113.097656 84.234375 C 113.097656 83.835938 112.777344 83.511719 112.378906 83.511719 L 107.761719 83.511719 C 107.363281 83.511719 107.039062 83.835938 107.039062 84.234375 C 107.039062 84.632812 107.363281 84.953125 107.761719 84.953125 Z M 123.777344 84.234375 C 123.777344 84.632812 124.097656 84.953125 124.496094 84.953125 L 129.113281 84.953125 C 129.511719 84.953125 129.835938 84.632812 129.835938 84.234375 C 129.835938 83.835938 129.511719 83.511719 129.113281 83.511719 L 124.496094 83.511719 C 124.097656 83.511719 123.777344 83.835938 123.777344 84.234375 Z M 113.644531 80.457031 C 113.785156 80.601562 113.96875 80.671875 114.152344 80.671875 C 114.335938 80.671875 114.519531 80.601562 114.664062 80.457031 C 114.945312 80.175781 114.945312 79.722656 114.664062 79.441406 L 111.398438 76.175781 C 111.117188 75.894531 110.660156 75.894531 110.378906 76.175781 C 110.097656 76.457031 110.097656 76.914062 110.378906 77.195312 Z M 125.476562 92.292969 C 125.617188 92.433594 125.800781 92.503906 125.988281 92.503906 C 126.171875 92.503906 126.355469 92.433594 126.496094 92.292969 C 126.777344 92.011719 126.777344 91.554688 126.496094 91.273438 L 123.230469 88.007812 C 122.949219 87.726562 122.492188 87.726562 122.210938 88.007812 C 121.929688 88.289062 121.929688 88.746094 122.210938 89.027344 Z M 113.644531 88.007812 L 110.378906 91.273438 C 110.097656 91.554688 110.097656 92.011719 110.378906 92.292969 C 110.519531 92.433594 110.703125 92.503906 110.886719 92.503906 C 111.074219 92.503906 111.257812 92.433594 111.398438 92.292969 L 114.664062 89.027344 C 114.945312 88.746094 114.945312 88.289062 114.664062 88.007812 C 114.382812 87.726562 113.925781 87.726562 113.644531 88.007812 Z M 122.722656 80.671875 C 122.90625 80.671875 123.089844 80.601562 123.230469 80.457031 L 126.496094 77.195312 C 126.777344 76.914062 126.777344 76.457031 126.496094 76.175781 C 126.214844 75.894531 125.757812 75.894531 125.476562 76.175781 L 122.210938 79.441406 C 121.929688 79.722656 121.929688 80.175781 122.210938 80.457031 C 122.351562 80.601562 122.539062 80.671875 122.722656 80.671875 Z M 230.167969 113.960938 C 230.550781 113.960938 230.859375 113.652344 230.859375 113.269531 L 230.859375 108.859375 C 230.859375 108.480469 230.550781 108.171875 230.167969 108.171875 C 229.789062 108.171875 229.480469 108.480469 229.480469 108.859375 L 229.480469 113.269531 C 229.480469 113.652344 229.789062 113.960938 230.167969 113.960938 Z M 230.167969 129.949219 C 230.550781 129.949219 230.859375 129.640625 230.859375 129.257812 L 230.859375 124.847656 C 230.859375 124.46875 230.550781 124.160156 230.167969 124.160156 C 229.789062 124.160156 229.480469 124.46875 229.480469 124.847656 L 229.480469 129.257812 C 229.480469 129.640625 229.789062 129.949219 230.167969 129.949219 Z M 219.96875 119.75 L 224.378906 119.75 C 224.761719 119.75 225.070312 119.441406 225.070312 119.058594 C 225.070312 118.679688 224.761719 118.371094 224.378906 118.371094 L 219.96875 118.371094 C 219.589844 118.371094 219.28125 118.679688 219.28125 119.058594 C 219.28125 119.441406 219.589844 119.75 219.96875 119.75 Z M 240.367188 118.371094 L 235.957031 118.371094 C 235.578125 118.371094 235.269531 118.679688 235.269531 119.058594 C 235.269531 119.441406 235.578125 119.75 235.957031 119.75 L 240.367188 119.75 C 240.75 119.75 241.058594 119.441406 241.058594 119.058594 C 241.058594 118.679688 240.75 118.371094 240.367188 118.371094 Z M 225.589844 115.453125 C 225.722656 115.589844 225.898438 115.65625 226.078125 115.65625 C 226.253906 115.65625 226.429688 115.589844 226.5625 115.453125 C 226.832031 115.183594 226.832031 114.75 226.5625 114.480469 L 223.445312 111.359375 C 223.175781 111.09375 222.738281 111.09375 222.472656 111.359375 C 222.203125 111.628906 222.203125 112.066406 222.472656 112.335938 Z M 236.894531 126.757812 C 237.027344 126.894531 237.203125 126.960938 237.382812 126.960938 C 237.558594 126.960938 237.734375 126.894531 237.867188 126.757812 C 238.136719 126.488281 238.136719 126.054688 237.867188 125.785156 L 234.75 122.667969 C 234.480469 122.398438 234.042969 122.398438 233.777344 122.667969 C 233.507812 122.933594 233.507812 123.371094 233.777344 123.640625 Z M 225.589844 122.667969 L 222.472656 125.785156 C 222.203125 126.054688 222.203125 126.488281 222.472656 126.757812 C 222.605469 126.894531 222.78125 126.960938 222.957031 126.960938 C 223.132812 126.960938 223.308594 126.894531 223.445312 126.757812 L 226.5625 123.640625 C 226.832031 123.371094 226.832031 122.933594 226.5625 122.667969 C 226.292969 122.398438 225.859375 122.398438 225.589844 122.667969 Z M 234.261719 115.65625 C 234.4375 115.65625 234.613281 115.589844 234.75 115.453125 L 237.867188 112.335938 C 238.136719 112.066406 238.136719 111.628906 237.867188 111.359375 C 237.597656 111.09375 237.164062 111.09375 236.894531 111.359375 L 233.777344 114.480469 C 233.507812 114.75 233.507812 115.183594 233.777344 115.453125 C 233.910156 115.589844 234.085938 115.65625 234.261719 115.65625 Z M 83.367188 204.964844 C 83.382812 204.949219 83.398438 204.933594 83.414062 204.921875 L 83.292969 204.839844 C 83.316406 204.878906 83.34375 204.921875 83.367188 204.964844 Z M 74.914062 205.402344 C 75.65625 203.765625 77.320312 202.621094 79.257812 202.621094 C 79.761719 202.621094 80.246094 202.699219 80.699219 202.839844 L 82.066406 200.789062 C 81.882812 200.890625 81.714844 201 81.574219 201.105469 C 83.808594 197.835938 89.074219 189.558594 86.007812 188.382812 C 83.457031 187.402344 81.664062 189.476562 80.75 190.96875 C 82.632812 187.226562 87.433594 177.101562 83.503906 178.449219 C 78.695312 180.097656 78.15625 186.429688 78.15625 186.429688 C 78.15625 186.429688 76.695312 185.03125 76.992188 180.710938 C 77.292969 176.386719 80.136719 163.902344 73.75 166.710938 C 67.359375 169.519531 67.492188 177.3125 70.113281 181.328125 C 72.738281 185.339844 66.210938 176.21875 64.023438 179.8125 C 62.179688 182.847656 66.730469 189.800781 68.789062 191.992188 C 66.15625 190.882812 61.828125 189.503906 63.972656 193.535156 C 66.96875 199.167969 74.460938 201.285156 74.460938 201.285156 C 74.460938 201.285156 73.714844 201.183594 72.695312 201.085938 C 73.933594 202.160156 74.765625 203.683594 74.914062 205.402344 Z M 184.542969 105.339844 C 184.585938 105.082031 184.652344 101.777344 183.960938 102.191406 C 182.121094 103.300781 182.738281 105.421875 184.089844 106.808594 C 184.304688 106.355469 184.457031 105.851562 184.542969 105.339844 Z M 161.296875 98.75 C 161.261719 88.257812 169.804688 79.6875 180.292969 79.6875 C 190.785156 79.6875 199.289062 88.191406 199.289062 98.679688 C 199.289062 103.984375 197.117188 108.78125 193.609375 112.226562 C 190.871094 114.921875 188.863281 118.265625 187.859375 121.976562 L 187.019531 125.085938 L 187.046875 124.785156 L 173.296875 124.875 L 173.300781 124.914062 L 172.425781 121.675781 C 171.441406 118.046875 169.5 114.757812 166.84375 112.09375 C 163.433594 108.671875 161.316406 103.957031 161.296875 98.75 Z M 171.203125 105.167969 C 172.8125 111.453125 174.320312 117.769531 175.660156 124.117188 C 175.820312 124.875 177.003906 124.648438 176.839844 123.890625 C 175.644531 118.261719 174.316406 112.664062 172.816406 107.109375 C 173.425781 107.921875 174.234375 108.5625 175.273438 108.933594 C 176.316406 109.308594 177.53125 109.261719 178.589844 108.859375 C 179.957031 109.84375 182.0625 110.03125 183.5 109.144531 C 183.828125 108.941406 184.113281 108.683594 184.359375 108.394531 C 184.632812 108.574219 184.914062 108.734375 185.195312 108.863281 C 186.472656 109.445312 187.648438 109.285156 188.554688 108.617188 C 186.839844 113.753906 185.046875 118.863281 183.140625 123.929688 C 182.867188 124.65625 183.988281 125.101562 184.261719 124.375 C 186.535156 118.292969 188.652344 112.15625 190.546875 105.945312 C 190.742188 105.308594 189.785156 104.914062 189.574219 105.558594 C 189.515625 105.734375 189.457031 105.910156 189.398438 106.082031 C 189.203125 106.101562 189.015625 106.210938 188.925781 106.433594 C 188.101562 108.519531 186.355469 108.453125 184.9375 107.515625 C 185.304688 106.800781 185.519531 105.996094 185.625 105.242188 C 185.789062 104.042969 185.847656 101.929688 184.589844 101.230469 C 183.019531 100.355469 181.722656 103.023438 181.730469 104.207031 C 181.738281 105.527344 182.488281 106.78125 183.492188 107.710938 C 182.972656 108.289062 182.269531 108.660156 181.351562 108.652344 C 180.726562 108.648438 180.171875 108.507812 179.691406 108.265625 C 179.777344 108.207031 179.855469 108.140625 179.933594 108.074219 C 181.371094 106.851562 181.746094 105.0625 181.347656 103.269531 C 181.09375 102.117188 180.175781 100.390625 178.730469 100.992188 C 177.480469 101.511719 176.910156 103.160156 176.765625 104.390625 C 176.609375 105.75 176.90625 107.03125 177.71875 108.035156 C 175.945312 108.484375 174.136719 107.4375 173.246094 105.863281 C 172.972656 105.382812 172.816406 104.84375 172.679688 104.3125 C 172.515625 103.652344 171.511719 103.925781 171.652344 104.574219 C 171.371094 104.597656 171.109375 104.8125 171.203125 105.167969 Z M 179.933594 102.511719 C 178.910156 100.804688 177.875 103.714844 177.804688 104.59375 C 177.710938 105.769531 178.066406 106.835938 178.773438 107.582031 C 180.449219 106.523438 181.003906 104.289062 179.933594 102.511719 Z M 173.296875 124.871094 L 173.300781 124.914062 L 173.957031 127.339844 L 186.410156 127.339844 L 187.019531 125.082031 L 187.046875 124.785156 Z M 180.390625 75.652344 C 181.191406 75.652344 181.84375 71.25 181.84375 70.027344 C 181.84375 68.800781 181.191406 67.808594 180.390625 67.808594 C 179.585938 67.808594 178.933594 68.800781 178.933594 70.027344 C 178.933594 71.25 179.585938 75.652344 180.390625 75.652344 Z M 201.851562 78.992188 C 202.78125 78.191406 203.109375 77.054688 202.585938 76.445312 C 202.0625 75.835938 200.882812 75.988281 199.957031 76.785156 C 199.027344 77.582031 196.113281 80.945312 196.636719 81.554688 C 197.160156 82.164062 200.921875 79.789062 201.851562 78.992188 Z M 201.253906 95.691406 C 201.355469 96.488281 205.800781 96.578125 207.015625 96.421875 C 208.230469 96.269531 209.132812 95.5 209.03125 94.703125 C 208.929688 93.90625 207.863281 93.386719 206.648438 93.539062 C 205.4375 93.695312 201.152344 94.894531 201.253906 95.691406 Z M 160.691406 77.613281 C 161.65625 78.367188 165.519531 80.570312 166.015625 79.9375 C 166.511719 79.304688 163.449219 76.078125 162.484375 75.324219 C 161.519531 74.570312 160.335938 74.46875 159.84375 75.101562 C 159.347656 75.734375 159.726562 76.859375 160.691406 77.613281 Z M 153.285156 93.277344 C 154.5 93.433594 158.945312 93.339844 159.046875 92.542969 C 159.148438 91.746094 154.863281 90.546875 153.652344 90.394531 C 152.4375 90.238281 151.371094 90.761719 151.269531 91.554688 C 151.167969 92.351562 152.070312 93.125 153.285156 93.277344 Z M 153.285156 93.277344 " fill-opacity="1" fill-rule="nonzero"/><path fill="#fbc02d" d="M 162.019531 148.507812 C 162.046875 148.945312 162.402344 150.703125 162.179688 151.046875 L 162.132812 151.050781 L 156.3125 151.589844 C 156.3125 151.589844 156.363281 151.984375 156.148438 152.648438 C 156.027344 153.023438 155.820312 153.488281 155.46875 154.019531 C 154.140625 156.007812 151.265625 156.902344 151.265625 156.902344 L 148.316406 165.671875 L 132.605469 165.671875 C 132.605469 165.671875 134.644531 156.140625 134.867188 155.378906 C 135.359375 153.722656 136.113281 151.949219 136.871094 150.378906 C 137.875 148.28125 138.886719 146.535156 139.269531 145.886719 C 138.886719 145.957031 137.890625 145.121094 136.914062 144.183594 C 136.261719 143.5625 135.625 142.898438 135.175781 142.425781 C 134.886719 142.121094 134.675781 141.894531 134.597656 141.8125 C 134.597656 141.8125 136.574219 139.585938 138.519531 137.425781 C 138.921875 136.976562 139.324219 136.527344 139.707031 136.105469 C 140.683594 135.308594 141.96875 135.589844 142.851562 135.984375 L 147.433594 136.738281 L 148.042969 135.6875 L 148.738281 135.96875 L 154.851562 138.460938 L 155.46875 138.710938 L 155.253906 139.648438 L 160.449219 143.160156 C 162.003906 143.851562 161.792969 144.914062 162.019531 148.507812 Z M 88.300781 207.097656 C 88.1875 207.089844 88.070312 207.089844 87.957031 207.089844 C 87.605469 207.089844 87.257812 207.117188 86.921875 207.167969 C 85.796875 207.335938 84.757812 207.769531 83.875 208.402344 C 83.960938 208.050781 84.007812 207.6875 84.007812 207.308594 C 84.007812 206.453125 83.773438 205.65625 83.367188 204.964844 C 83.34375 204.921875 83.316406 204.882812 83.292969 204.839844 L 80.578125 203.023438 L 80.699219 202.839844 C 80.246094 202.699219 79.761719 202.621094 79.257812 202.621094 C 77.320312 202.621094 75.65625 203.765625 74.917969 205.402344 C 74.765625 203.683594 73.933594 202.160156 72.695312 201.085938 C 71.535156 200.074219 70.011719 199.460938 68.339844 199.460938 C 64.695312 199.460938 61.738281 202.375 61.738281 205.976562 C 61.738281 206.757812 61.882812 207.503906 62.140625 208.195312 C 62.007812 208.1875 61.875 208.175781 61.738281 208.175781 C 59.277344 208.175781 57.28125 210.109375 57.207031 212.515625 L 94.75 212.515625 C 94.105469 209.523438 91.488281 207.25 88.300781 207.097656 Z M 211.9375 157.117188 C 211.847656 157.128906 211.761719 157.152344 211.671875 157.164062 C 211.234375 157.21875 208.902344 158.148438 205.980469 159.296875 C 204.902344 163.867188 205.535156 168.011719 205.535156 168.011719 C 205.640625 172.191406 208.136719 172.808594 215.582031 172.738281 C 215.257812 168.960938 214.367188 163.046875 211.9375 157.117188 Z M 108.941406 122.628906 L 113.796875 122.617188 L 112.519531 122.847656 C 112.15625 123.34375 112.21875 124.644531 112.519531 126.265625 L 112.519531 151.042969 L 112.125 152.5625 L 107.160156 152.449219 C 107.160156 152.421875 107.160156 152.40625 107.160156 152.40625 L 105.261719 152.40625 L 98.417969 152.25 C 98.417969 152.25 98.347656 151.992188 98.234375 151.574219 L 98.234375 122.660156 L 99.703125 122.65625 L 100.03125 120.28125 L 108.546875 120.253906 Z M 107.664062 147.507812 L 107.003906 128.628906 L 107.574219 128.628906 L 107.574219 125.546875 L 106.03125 124.488281 L 104.492188 125.546875 L 104.492188 128.628906 L 105.0625 128.628906 L 104.402344 147.507812 L 106.03125 148.507812 Z M 107.664062 147.507812 " fill-opacity="1" fill-rule="nonzero"/><path fill="#0984e3" d="M 156.238281 128.664062 C 156.417969 128.71875 156.488281 128.992188 156.402344 129.28125 C 156.3125 129.570312 156.097656 129.761719 155.921875 129.710938 C 155.742188 129.65625 155.671875 129.382812 155.757812 129.09375 C 155.84375 128.804688 156.0625 128.613281 156.238281 128.664062 Z M 159.304688 130.550781 C 159.21875 130.839844 159.289062 131.113281 159.46875 131.167969 C 159.644531 131.21875 159.859375 131.027344 159.949219 130.738281 C 160.035156 130.449219 159.964844 130.175781 159.785156 130.125 C 159.609375 130.070312 159.390625 130.261719 159.304688 130.550781 Z M 150.164062 131.113281 C 150.179688 131.230469 150.210938 131.460938 150.253906 131.691406 C 150.265625 131.746094 150.277344 131.800781 150.289062 131.851562 C 150.367188 132.210938 150.476562 132.492188 150.605469 132.21875 C 150.742188 131.917969 151.445312 131.042969 151.355469 130.113281 C 151.261719 129.15625 151.355469 127.847656 152.40625 127.847656 C 153.113281 127.847656 152.953125 129.84375 152.953125 129.84375 C 152.953125 129.84375 153.363281 129.210938 153.558594 128.738281 C 153.753906 128.265625 154.101562 127.484375 155.632812 126.765625 C 156.492188 126.363281 156.773438 125.214844 156.859375 124.285156 C 156.875 124.285156 156.894531 124.289062 156.910156 124.289062 C 156.980469 124.289062 157.050781 124.28125 157.121094 124.277344 C 157.285156 125.058594 157.570312 125.859375 158.050781 126.558594 C 159.128906 128.125 160.53125 129.585938 161.347656 130.386719 L 161.617188 129.730469 C 162.179688 128.367188 162.132812 126.910156 161.609375 125.652344 C 161.546875 125.503906 161.476562 125.359375 161.402344 125.214844 C 161.375 125.164062 161.34375 125.117188 161.316406 125.066406 C 161.265625 124.976562 161.214844 124.886719 161.15625 124.800781 C 161.117188 124.742188 161.074219 124.683594 161.035156 124.625 C 160.984375 124.554688 160.933594 124.480469 160.878906 124.414062 C 160.828125 124.351562 160.777344 124.289062 160.726562 124.230469 C 160.671875 124.167969 160.617188 124.109375 160.5625 124.050781 C 160.503906 123.988281 160.445312 123.929688 160.382812 123.871094 C 160.328125 123.816406 160.273438 123.765625 160.214844 123.714844 C 160.148438 123.65625 160.082031 123.597656 160.011719 123.542969 C 159.957031 123.496094 159.898438 123.457031 159.839844 123.414062 C 159.761719 123.359375 159.6875 123.300781 159.605469 123.25 C 159.550781 123.214844 159.496094 123.183594 159.441406 123.148438 C 159.351562 123.097656 159.265625 123.042969 159.171875 122.992188 C 159.398438 122.601562 159.53125 122.152344 159.53125 121.667969 C 159.53125 120.21875 158.359375 119.046875 156.914062 119.046875 C 155.464844 119.046875 154.292969 120.21875 154.292969 121.667969 C 154.292969 122.082031 154.390625 122.472656 154.5625 122.824219 C 154.558594 122.824219 154.554688 122.824219 154.550781 122.828125 C 154.261719 122.953125 153.984375 123.109375 153.722656 123.285156 C 153.691406 123.304688 153.660156 123.324219 153.632812 123.347656 C 153.535156 123.414062 153.4375 123.488281 153.34375 123.566406 C 153.308594 123.589844 153.277344 123.617188 153.246094 123.640625 C 153.144531 123.726562 153.046875 123.820312 152.949219 123.914062 C 152.933594 123.929688 152.917969 123.945312 152.898438 123.960938 C 152.792969 124.070312 152.6875 124.1875 152.585938 124.304688 C 152.5625 124.339844 152.535156 124.375 152.507812 124.40625 C 152.4375 124.496094 152.371094 124.589844 152.304688 124.683594 C 152.273438 124.730469 152.242188 124.777344 152.214844 124.824219 C 152.15625 124.914062 152.097656 125.007812 152.042969 125.105469 C 152.019531 125.148438 151.992188 125.195312 151.96875 125.242188 C 151.894531 125.382812 151.824219 125.527344 151.761719 125.679688 L 150.542969 128.644531 C 150.222656 129.425781 150.101562 130.238281 150.15625 131.027344 C 150.15625 131.027344 150.15625 131.058594 150.164062 131.113281 Z M 204.125 134.183594 C 203.949219 134.203125 203.824219 134.449219 203.851562 134.738281 C 203.878906 135.027344 204.039062 135.246094 204.21875 135.226562 C 204.390625 135.207031 204.515625 134.960938 204.488281 134.671875 C 204.464844 134.386719 204.300781 134.167969 204.125 134.183594 Z M 202.296875 131.726562 C 202.296875 131.726562 202.296875 131.734375 202.296875 131.734375 L 202.300781 131.734375 L 202.335938 131.730469 C 202.589844 131.699219 206.464844 131.636719 206.15625 131.765625 C 205.699219 133.167969 205.761719 134.546875 206.371094 135.527344 C 206.484375 135.105469 206.691406 134.714844 207.003906 134.421875 C 207.597656 133.855469 208.625 133.683594 209.285156 134.253906 C 209.777344 134.679688 209.773438 135.351562 209.445312 135.882812 C 209.304688 136.117188 209.125 136.316406 208.917969 136.46875 C 208.71875 136.621094 208.496094 136.734375 208.261719 136.808594 C 208.65625 136.886719 209.078125 136.886719 209.515625 136.824219 C 210.335938 136.707031 213.886719 135.59375 213.957031 135.539062 C 214.265625 135.300781 216.703125 133.304688 215.113281 128.296875 C 214.363281 125.9375 211.210938 124.09375 207.445312 125.101562 C 205.609375 125.589844 204.425781 126.464844 203.664062 127.433594 C 203.261719 127.746094 202.742188 127.996094 202.203125 127.832031 C 201.339844 127.570312 201.484375 126.363281 201.484375 126.363281 C 201.484375 126.363281 200.046875 126.792969 199.753906 128.582031 C 199.3125 131.285156 201.941406 131.683594 202.296875 131.726562 Z M 132.605469 165.671875 C 132.605469 165.671875 130.292969 176.242188 131.355469 178.863281 C 131.398438 178.964844 131.449219 179.0625 131.507812 179.160156 C 131.519531 179.183594 131.535156 179.207031 131.546875 179.230469 C 131.605469 179.324219 131.667969 179.414062 131.742188 179.503906 C 131.746094 179.511719 131.753906 179.515625 131.757812 179.523438 C 131.828125 179.605469 131.90625 179.6875 131.984375 179.765625 C 132.003906 179.789062 132.027344 179.808594 132.046875 179.828125 C 132.136719 179.910156 132.226562 179.992188 132.328125 180.066406 C 132.339844 180.078125 132.355469 180.085938 132.367188 180.097656 C 132.457031 180.164062 132.554688 180.234375 132.65625 180.300781 C 132.683594 180.316406 132.710938 180.332031 132.738281 180.351562 C 132.851562 180.421875 132.96875 180.492188 133.09375 180.558594 C 133.113281 180.570312 133.136719 180.578125 133.15625 180.589844 C 133.269531 180.648438 133.382812 180.703125 133.503906 180.757812 C 133.535156 180.773438 133.566406 180.789062 133.597656 180.804688 C 133.734375 180.863281 133.875 180.921875 134.019531 180.980469 C 134.046875 180.992188 134.078125 181 134.105469 181.011719 C 134.234375 181.0625 134.367188 181.109375 134.5 181.152344 C 134.535156 181.164062 134.570312 181.175781 134.605469 181.1875 C 134.761719 181.242188 134.921875 181.289062 135.085938 181.339844 C 135.121094 181.347656 135.15625 181.359375 135.191406 181.367188 C 135.335938 181.410156 135.480469 181.449219 135.628906 181.488281 C 135.667969 181.496094 135.703125 181.503906 135.738281 181.515625 C 135.910156 181.558594 136.089844 181.597656 136.269531 181.640625 C 136.308594 181.648438 136.351562 181.65625 136.390625 181.664062 C 136.550781 181.699219 136.710938 181.734375 136.875 181.765625 C 136.90625 181.769531 136.941406 181.777344 136.976562 181.785156 C 137.164062 181.820312 137.355469 181.855469 137.546875 181.886719 C 137.59375 181.894531 137.640625 181.902344 137.6875 181.910156 C 137.859375 181.9375 138.03125 181.964844 138.207031 181.988281 C 138.238281 181.996094 138.269531 182 138.300781 182.003906 C 138.5 182.03125 138.703125 182.058594 138.90625 182.085938 C 138.953125 182.09375 139.003906 182.097656 139.050781 182.105469 C 139.242188 182.128906 139.429688 182.148438 139.621094 182.171875 C 139.640625 182.171875 139.664062 182.175781 139.6875 182.179688 C 139.894531 182.203125 140.105469 182.222656 140.320312 182.242188 C 140.371094 182.246094 140.417969 182.25 140.46875 182.257812 C 140.675781 182.277344 140.882812 182.292969 141.089844 182.308594 C 141.097656 182.3125 141.105469 182.3125 141.113281 182.3125 C 141.332031 182.328125 141.550781 182.34375 141.769531 182.359375 C 141.816406 182.363281 141.867188 182.367188 141.917969 182.371094 C 142.355469 182.398438 142.792969 182.425781 143.234375 182.445312 C 143.28125 182.449219 143.328125 182.449219 143.375 182.453125 C 143.59375 182.460938 143.8125 182.472656 144.03125 182.480469 C 144.039062 182.480469 144.046875 182.480469 144.054688 182.480469 C 144.265625 182.488281 144.476562 182.496094 144.683594 182.503906 C 144.730469 182.503906 144.777344 182.503906 144.824219 182.507812 C 145.039062 182.511719 145.253906 182.519531 145.464844 182.523438 C 145.484375 182.523438 145.503906 182.523438 145.519531 182.523438 C 145.71875 182.527344 145.917969 182.53125 146.113281 182.535156 C 146.15625 182.535156 146.199219 182.535156 146.242188 182.539062 C 146.449219 182.542969 146.652344 182.542969 146.859375 182.546875 C 146.886719 182.546875 146.914062 182.546875 146.941406 182.546875 C 147.125 182.546875 147.308594 182.550781 147.488281 182.550781 C 147.527344 182.550781 147.566406 182.550781 147.605469 182.550781 C 147.800781 182.550781 147.996094 182.554688 148.1875 182.554688 C 148.226562 182.554688 148.261719 182.554688 148.300781 182.554688 C 148.460938 182.554688 148.617188 182.554688 148.773438 182.554688 C 148.820312 182.554688 148.867188 182.554688 148.914062 182.554688 C 149.085938 182.550781 149.253906 182.550781 149.417969 182.550781 C 149.488281 182.550781 149.554688 182.550781 149.621094 182.550781 C 149.71875 182.550781 149.816406 182.546875 149.910156 182.546875 C 149.960938 182.546875 150.011719 182.546875 150.0625 182.546875 C 150.429688 181.933594 150.785156 181.316406 151.117188 180.6875 C 152.46875 178.125 153.84375 175.703125 155.703125 173.632812 C 155.699219 173.632812 155.695312 173.628906 155.695312 173.628906 C 155.5625 173.527344 155.429688 173.429688 155.296875 173.332031 C 155.289062 173.328125 155.28125 173.320312 155.273438 173.316406 C 155.144531 173.222656 155.011719 173.128906 154.878906 173.035156 C 154.863281 173.027344 154.851562 173.015625 154.835938 173.007812 C 154.707031 172.917969 154.582031 172.832031 154.453125 172.746094 C 154.429688 172.730469 154.410156 172.71875 154.386719 172.703125 C 154.265625 172.621094 154.140625 172.539062 154.015625 172.460938 C 153.984375 172.441406 153.953125 172.425781 153.925781 172.40625 C 153.804688 172.332031 153.6875 172.257812 153.566406 172.1875 C 153.527344 172.164062 153.488281 172.140625 153.453125 172.117188 C 153.339844 172.050781 153.222656 171.984375 153.109375 171.917969 C 153.0625 171.894531 153.015625 171.867188 152.96875 171.839844 C 152.859375 171.78125 152.75 171.722656 152.640625 171.664062 C 152.585938 171.636719 152.53125 171.609375 152.476562 171.578125 C 152.371094 171.527344 152.265625 171.472656 152.160156 171.421875 C 152.097656 171.390625 152.035156 171.359375 151.972656 171.332031 C 151.875 171.285156 151.773438 171.234375 151.671875 171.191406 C 151.601562 171.160156 151.53125 171.128906 151.460938 171.097656 C 151.363281 171.058594 151.269531 171.015625 151.175781 170.976562 C 151.09375 170.941406 151.011719 170.910156 150.933594 170.878906 C 150.84375 170.84375 150.757812 170.808594 150.667969 170.777344 C 150.578125 170.742188 150.484375 170.710938 150.394531 170.679688 C 150.3125 170.652344 150.234375 170.621094 150.152344 170.59375 C 150.050781 170.5625 149.945312 170.53125 149.84375 170.5 C 149.769531 170.476562 149.699219 170.453125 149.625 170.433594 C 149.511719 170.398438 149.398438 170.371094 149.285156 170.34375 C 149.21875 170.324219 149.15625 170.304688 149.089844 170.289062 C 148.957031 170.257812 148.828125 170.230469 148.695312 170.203125 C 148.644531 170.191406 148.59375 170.179688 148.542969 170.171875 C 148.359375 170.132812 148.175781 170.101562 147.988281 170.074219 L 148.316406 165.671875 Z M 239.929688 150.910156 L 239.929688 212.78125 L 237.765625 212.78125 L 237.765625 189.71875 L 214.742188 189.71875 L 214.742188 212.78125 L 212.582031 212.78125 L 212.582031 187.558594 L 212.914062 187.558594 C 213.082031 184.863281 215.246094 182.714844 217.949219 182.582031 C 215.492188 182.582031 212.746094 182.582031 210.140625 182.582031 C 210.363281 183.179688 211.386719 184.0625 211.648438 186.660156 C 212.191406 191.972656 211.46875 212.625 211.46875 212.625 C 211.46875 212.625 203.058594 212.460938 201.933594 212.460938 L 203.058594 212.460938 L 203.058594 212.457031 L 197.273438 212.457031 L 197.640625 172.21875 L 166.390625 172.21875 L 166.386719 212.457031 L 160.929688 212.457031 L 160.929688 212.421875 L 154.050781 212.421875 C 154.050781 212.421875 154.050781 212.398438 154.050781 212.367188 C 154.042969 212.027344 154.003906 209.949219 153.949219 207.054688 C 154.230469 207.09375 154.515625 207.121094 154.808594 207.121094 C 155.457031 207.121094 156.085938 207.015625 156.679688 206.820312 C 156.660156 206.863281 156.640625 206.910156 156.621094 206.953125 C 156.601562 206.992188 156.59375 207.035156 156.597656 207.074219 C 156.597656 207.101562 156.605469 207.125 156.613281 207.152344 C 156.621094 207.171875 156.621094 207.1875 156.628906 207.207031 C 156.640625 207.238281 156.664062 207.273438 156.6875 207.304688 C 156.695312 207.320312 156.699219 207.335938 156.710938 207.351562 C 156.738281 207.382812 156.769531 207.417969 156.800781 207.453125 C 156.816406 207.46875 156.828125 207.484375 156.84375 207.503906 C 156.878906 207.535156 156.921875 207.574219 156.960938 207.609375 C 156.984375 207.625 157 207.644531 157.023438 207.664062 C 157.066406 207.699219 157.117188 207.734375 157.167969 207.773438 C 157.191406 207.792969 157.214844 207.8125 157.242188 207.828125 C 157.292969 207.867188 157.351562 207.902344 157.40625 207.941406 C 157.4375 207.960938 157.464844 207.984375 157.5 208.003906 C 157.550781 208.039062 157.613281 208.074219 157.667969 208.109375 C 157.710938 208.132812 157.746094 208.160156 157.789062 208.183594 C 157.847656 208.21875 157.910156 208.253906 157.96875 208.289062 C 158.015625 208.316406 158.0625 208.339844 158.113281 208.371094 C 158.164062 208.398438 158.222656 208.429688 158.277344 208.460938 C 158.339844 208.492188 158.398438 208.527344 158.460938 208.558594 C 158.503906 208.582031 158.546875 208.601562 158.585938 208.625 C 158.667969 208.667969 158.75 208.710938 158.835938 208.753906 C 158.867188 208.769531 158.898438 208.785156 158.929688 208.800781 C 159.027344 208.851562 159.128906 208.898438 159.230469 208.949219 C 159.25 208.960938 159.269531 208.96875 159.289062 208.980469 C 159.40625 209.035156 159.519531 209.09375 159.640625 209.148438 C 159.644531 209.152344 159.644531 209.152344 159.648438 209.152344 C 160.058594 209.351562 160.484375 209.546875 160.917969 209.746094 L 160.851562 196.699219 L 160.761719 178.089844 L 160.691406 164.140625 C 160.703125 164.152344 203.058594 164.171875 203.058594 164.171875 L 203.058594 173.957031 C 205.65625 171.648438 210.007812 173.167969 216.980469 172.722656 C 216.808594 172.722656 216.644531 172.726562 216.476562 172.730469 C 216.429688 172.730469 216.386719 172.730469 216.339844 172.730469 C 216.082031 172.734375 215.828125 172.738281 215.582031 172.738281 C 215.257812 168.960938 214.367188 163.046875 211.9375 157.113281 C 211.847656 157.128906 211.761719 157.152344 211.671875 157.164062 C 211.234375 157.21875 208.902344 158.148438 205.980469 159.296875 C 200.199219 161.566406 192.109375 164.695312 191.800781 163.640625 C 191.367188 162.160156 188.738281 152.648438 187.117188 146.761719 C 187.0625 146.5625 187.007812 146.371094 186.957031 146.183594 C 187.308594 145.949219 187.625 145.546875 187.984375 145.003906 C 188.019531 144.945312 188.058594 144.871094 188.097656 144.792969 C 188.59375 144.988281 189.078125 145.238281 189.558594 145.519531 C 192.53125 147.265625 195.085938 150.457031 196.390625 152.683594 C 198.449219 151.605469 205.832031 144.707031 207.773438 143.886719 L 208.324219 143.542969 L 214.894531 139.457031 C 214.894531 139.457031 215.125 139.496094 215.511719 139.589844 C 217.109375 139.972656 221.429688 141.285156 223.992188 144.679688 C 224.128906 144.863281 224.261719 145.042969 224.394531 145.226562 C 224.4375 145.289062 224.480469 145.347656 224.523438 145.410156 C 224.613281 145.53125 224.699219 145.65625 224.785156 145.777344 C 224.835938 145.851562 224.882812 145.925781 224.933594 146 C 225.011719 146.113281 225.085938 146.222656 225.164062 146.335938 C 225.214844 146.414062 225.265625 146.496094 225.316406 146.574219 C 225.386719 146.683594 225.457031 146.789062 225.527344 146.898438 C 225.578125 146.980469 225.628906 147.0625 225.679688 147.144531 C 225.746094 147.25 225.8125 147.359375 225.878906 147.46875 C 225.929688 147.550781 225.980469 147.632812 226.027344 147.714844 C 226.09375 147.824219 226.15625 147.929688 226.21875 148.039062 C 226.269531 148.125 226.316406 148.207031 226.367188 148.292969 C 226.425781 148.398438 226.488281 148.507812 226.546875 148.613281 C 226.597656 148.699219 226.640625 148.785156 226.6875 148.871094 C 226.75 148.976562 226.808594 149.085938 226.867188 149.195312 C 226.910156 149.28125 226.957031 149.367188 227 149.449219 C 227.058594 149.558594 227.113281 149.667969 227.171875 149.777344 C 227.214844 149.863281 227.257812 149.949219 227.304688 150.035156 C 227.355469 150.144531 227.414062 150.253906 227.464844 150.359375 C 227.507812 150.445312 227.550781 150.53125 227.589844 150.617188 C 227.644531 150.726562 227.699219 150.839844 227.75 150.949219 C 227.789062 151.035156 227.828125 151.117188 227.867188 151.203125 C 227.921875 151.316406 227.972656 151.425781 228.023438 151.535156 C 228.058594 151.621094 228.097656 151.707031 228.136719 151.792969 C 228.1875 151.902344 228.234375 152.015625 228.28125 152.125 C 228.320312 152.210938 228.355469 152.296875 228.394531 152.382812 C 228.441406 152.492188 228.488281 152.605469 228.535156 152.714844 C 228.570312 152.800781 228.605469 152.886719 228.640625 152.96875 C 228.6875 153.082031 228.730469 153.195312 228.777344 153.308594 C 228.808594 153.390625 228.84375 153.472656 228.875 153.558594 C 228.921875 153.671875 228.964844 153.785156 229.007812 153.898438 C 229.039062 153.980469 229.070312 154.0625 229.101562 154.144531 C 229.144531 154.257812 229.1875 154.375 229.230469 154.492188 C 229.257812 154.570312 229.289062 154.648438 229.316406 154.730469 C 229.359375 154.84375 229.402344 154.960938 229.441406 155.078125 C 229.46875 155.15625 229.496094 155.234375 229.523438 155.3125 C 229.566406 155.433594 229.605469 155.550781 229.644531 155.667969 C 229.671875 155.742188 229.699219 155.820312 229.722656 155.894531 C 229.761719 156.015625 229.800781 156.136719 229.839844 156.253906 C 229.863281 156.328125 229.886719 156.402344 229.910156 156.476562 C 229.949219 156.597656 229.988281 156.714844 230.023438 156.835938 C 230.046875 156.910156 230.070312 156.984375 230.09375 157.054688 C 230.128906 157.175781 230.164062 157.296875 230.203125 157.421875 C 230.222656 157.488281 230.242188 157.558594 230.261719 157.625 C 230.300781 157.753906 230.335938 157.875 230.371094 158 C 230.390625 158.066406 230.40625 158.132812 230.425781 158.199219 C 230.460938 158.324219 230.496094 158.449219 230.53125 158.578125 C 230.546875 158.640625 230.5625 158.703125 230.582031 158.765625 C 230.613281 158.890625 230.648438 159.019531 230.679688 159.148438 C 230.695312 159.207031 230.710938 159.265625 230.726562 159.328125 C 230.761719 159.457031 230.792969 159.589844 230.824219 159.71875 C 230.839844 159.773438 230.851562 159.828125 230.867188 159.882812 C 230.898438 160.015625 230.929688 160.148438 230.960938 160.285156 C 230.972656 160.332031 230.988281 160.382812 231 160.433594 C 231.03125 160.570312 231.0625 160.707031 231.09375 160.84375 C 231.101562 160.890625 231.113281 160.933594 231.121094 160.980469 C 231.15625 161.121094 231.183594 161.261719 231.214844 161.40625 C 231.222656 161.441406 231.230469 161.480469 231.238281 161.519531 C 231.269531 161.664062 231.300781 161.8125 231.332031 161.957031 C 231.335938 161.988281 231.34375 162.019531 231.351562 162.050781 C 231.382812 162.214844 231.414062 162.375 231.445312 162.535156 C 231.449219 162.546875 231.449219 162.558594 231.453125 162.574219 C 231.757812 164.152344 231.972656 165.625 232.121094 166.925781 C 232.121094 166.929688 232.121094 166.933594 232.121094 166.9375 C 232.140625 167.078125 232.152344 167.214844 232.167969 167.351562 C 232.167969 167.363281 232.171875 167.375 232.171875 167.382812 C 232.1875 167.511719 232.199219 167.636719 232.210938 167.761719 C 232.214844 167.78125 232.214844 167.800781 232.214844 167.816406 C 232.226562 167.933594 232.238281 168.046875 232.25 168.160156 C 232.253906 168.183594 232.253906 168.203125 232.257812 168.226562 C 232.265625 168.335938 232.277344 168.445312 232.285156 168.550781 C 232.285156 168.570312 232.289062 168.589844 232.289062 168.613281 C 232.300781 168.71875 232.308594 168.820312 232.316406 168.921875 C 232.316406 168.945312 232.320312 168.964844 232.320312 168.988281 C 232.328125 169.085938 232.335938 169.179688 232.34375 169.273438 C 232.34375 169.300781 232.347656 169.328125 232.347656 169.355469 C 232.355469 169.445312 232.363281 169.53125 232.367188 169.617188 C 232.371094 169.644531 232.371094 169.667969 232.371094 169.695312 C 232.378906 169.78125 232.382812 169.863281 232.386719 169.945312 C 232.390625 169.96875 232.390625 169.996094 232.394531 170.023438 C 232.398438 170.101562 232.402344 170.179688 232.40625 170.257812 C 232.40625 170.28125 232.410156 170.304688 232.410156 170.328125 C 232.414062 170.40625 232.417969 170.480469 232.421875 170.550781 C 232.421875 170.574219 232.425781 170.597656 232.425781 170.621094 C 232.429688 170.691406 232.433594 170.761719 232.433594 170.832031 C 232.4375 170.851562 232.4375 170.875 232.4375 170.898438 C 232.441406 170.960938 232.441406 171.023438 232.445312 171.085938 C 232.445312 171.109375 232.445312 171.132812 232.449219 171.15625 C 232.449219 171.21875 232.453125 171.273438 232.453125 171.332031 C 232.453125 171.351562 232.457031 171.375 232.457031 171.394531 C 232.457031 171.449219 232.460938 171.503906 232.460938 171.554688 C 232.460938 171.574219 232.460938 171.59375 232.460938 171.613281 C 232.464844 171.664062 232.464844 171.714844 232.464844 171.761719 C 232.464844 171.78125 232.464844 171.796875 232.464844 171.816406 C 232.46875 171.863281 232.46875 171.90625 232.46875 171.949219 C 232.46875 171.964844 232.46875 171.980469 232.46875 171.996094 C 232.46875 172.039062 232.472656 172.082031 232.472656 172.121094 C 232.472656 172.132812 232.472656 172.144531 232.472656 172.15625 C 232.472656 172.199219 232.472656 172.238281 232.472656 172.277344 C 232.472656 172.28125 232.472656 172.289062 232.472656 172.296875 C 232.472656 172.332031 232.472656 172.367188 232.472656 172.398438 C 232.472656 172.40625 232.472656 172.414062 232.472656 172.417969 C 232.472656 172.449219 232.472656 172.480469 232.472656 172.503906 C 232.472656 172.507812 232.472656 172.515625 232.472656 172.519531 C 232.472656 172.546875 232.472656 172.570312 232.472656 172.589844 C 232.472656 172.59375 232.472656 172.59375 232.472656 172.597656 C 232.472656 172.617188 232.472656 172.636719 232.472656 172.652344 C 232.472656 172.65625 232.472656 172.660156 232.472656 172.660156 C 232.515625 172.664062 232.546875 172.664062 232.546875 172.664062 C 232.546875 172.664062 233.894531 182.292969 225.523438 182.566406 L 232.140625 182.566406 C 234.964844 182.566406 237.265625 184.773438 237.4375 187.558594 L 237.769531 187.558594 L 237.769531 173.082031 C 235.019531 172.902344 232.847656 170.921875 232.847656 168.492188 L 232.847656 156.414062 C 232.847656 153.984375 235.019531 152.003906 237.769531 151.824219 L 237.769531 150.910156 Z M 207.171875 207.121094 C 206 204.109375 204.507812 200.222656 203.058594 196.292969 L 203.058594 208.878906 C 205.316406 208.203125 207.335938 207.539062 207.171875 207.121094 Z M 147.539062 182.667969 C 147.207031 182.601562 146.863281 182.566406 146.511719 182.566406 L 132.589844 182.566406 C 131.359375 182.566406 130.226562 182.988281 129.328125 183.691406 C 128.160156 184.601562 127.386719 185.988281 127.292969 187.558594 L 126.957031 187.558594 L 126.957031 173.082031 C 128.503906 172.980469 129.863281 172.316406 130.761719 171.316406 C 131.460938 170.535156 131.882812 169.558594 131.882812 168.492188 L 131.882812 156.414062 C 131.882812 153.984375 129.707031 152.003906 126.957031 151.824219 L 126.957031 150.910156 L 124.796875 150.910156 L 124.796875 211.320312 C 123.765625 211.226562 122.710938 211.167969 122.105469 210.925781 C 121.421875 210.652344 119.886719 208.980469 119.886719 208.980469 L 119.832031 208.980469 L 115.199219 157.222656 C 116.300781 156.550781 117.398438 155.488281 117.714844 153.832031 C 118.128906 151.660156 118.804688 142.371094 119.285156 135.179688 C 119.285156 135.179688 128.457031 130.25 133.101562 127.464844 C 134.511719 126.617188 135.507812 125.96875 135.699219 125.714844 C 135.734375 125.667969 135.773438 125.613281 135.816406 125.554688 C 135.832031 125.535156 135.84375 125.511719 135.859375 125.492188 C 135.890625 125.449219 135.917969 125.40625 135.953125 125.359375 C 135.96875 125.332031 135.988281 125.304688 136.007812 125.277344 C 136.035156 125.230469 136.066406 125.1875 136.101562 125.136719 C 136.121094 125.105469 136.144531 125.070312 136.167969 125.035156 C 136.199219 124.984375 136.230469 124.933594 136.261719 124.882812 C 136.285156 124.847656 136.308594 124.808594 136.332031 124.773438 C 136.367188 124.71875 136.402344 124.664062 136.4375 124.605469 C 136.464844 124.5625 136.488281 124.523438 136.515625 124.480469 C 136.550781 124.421875 136.589844 124.359375 136.625 124.300781 C 136.652344 124.257812 136.679688 124.210938 136.703125 124.167969 C 136.746094 124.101562 136.785156 124.035156 136.824219 123.96875 C 136.851562 123.921875 136.878906 123.878906 136.90625 123.832031 C 136.949219 123.761719 136.988281 123.691406 137.03125 123.621094 C 137.058594 123.570312 137.089844 123.519531 137.117188 123.46875 C 137.160156 123.398438 137.203125 123.324219 137.246094 123.25 C 137.277344 123.195312 137.308594 123.144531 137.335938 123.089844 C 137.378906 123.015625 137.425781 122.9375 137.46875 122.859375 C 137.5 122.804688 137.53125 122.75 137.5625 122.691406 C 137.609375 122.613281 137.652344 122.53125 137.699219 122.449219 C 137.730469 122.394531 137.761719 122.335938 137.792969 122.28125 C 137.839844 122.191406 137.890625 122.105469 137.9375 122.015625 C 137.96875 121.960938 137.996094 121.90625 138.027344 121.851562 C 138.082031 121.757812 138.132812 121.660156 138.1875 121.5625 C 138.214844 121.511719 138.242188 121.460938 138.269531 121.410156 C 138.328125 121.296875 138.386719 121.183594 138.449219 121.070312 C 138.46875 121.03125 138.488281 120.996094 138.511719 120.957031 C 138.59375 120.800781 138.675781 120.644531 138.757812 120.488281 C 138.839844 120.332031 138.917969 120.171875 139 120.015625 C 139.023438 119.96875 139.046875 119.921875 139.070312 119.875 C 139.128906 119.761719 139.1875 119.648438 139.242188 119.535156 C 139.273438 119.472656 139.304688 119.414062 139.332031 119.355469 C 139.382812 119.253906 139.433594 119.152344 139.484375 119.046875 C 139.519531 118.980469 139.550781 118.914062 139.582031 118.847656 C 139.632812 118.753906 139.679688 118.65625 139.726562 118.558594 C 139.761719 118.488281 139.792969 118.414062 139.828125 118.34375 C 139.875 118.25 139.917969 118.160156 139.960938 118.066406 C 139.996094 117.992188 140.03125 117.917969 140.066406 117.84375 C 140.109375 117.753906 140.148438 117.664062 140.191406 117.574219 C 140.226562 117.496094 140.261719 117.417969 140.296875 117.34375 C 140.339844 117.253906 140.378906 117.167969 140.417969 117.078125 C 140.453125 117.003906 140.488281 116.925781 140.523438 116.847656 C 140.5625 116.761719 140.601562 116.675781 140.636719 116.589844 C 140.671875 116.511719 140.707031 116.433594 140.742188 116.355469 C 140.777344 116.269531 140.8125 116.1875 140.851562 116.101562 C 140.882812 116.023438 140.917969 115.945312 140.949219 115.867188 C 140.984375 115.78125 141.019531 115.699219 141.054688 115.617188 C 141.085938 115.539062 141.121094 115.460938 141.152344 115.382812 C 141.183594 115.300781 141.21875 115.21875 141.25 115.136719 C 141.28125 115.0625 141.308594 114.984375 141.339844 114.910156 C 141.371094 114.828125 141.402344 114.746094 141.433594 114.664062 C 141.460938 114.59375 141.492188 114.519531 141.519531 114.445312 C 141.550781 114.363281 141.578125 114.285156 141.609375 114.203125 C 141.632812 114.132812 141.660156 114.058594 141.6875 113.988281 C 141.714844 113.90625 141.742188 113.824219 141.773438 113.742188 C 141.792969 113.675781 141.816406 113.609375 141.839844 113.546875 C 141.878906 113.429688 141.914062 113.3125 141.953125 113.199219 C 141.960938 113.175781 141.96875 113.148438 141.976562 113.125 C 140.753906 112.5 139.757812 111.476562 139.167969 110.234375 C 139.050781 110.304688 138.929688 110.378906 138.808594 110.453125 C 138.804688 110.457031 138.804688 110.457031 138.800781 110.460938 C 138.679688 110.535156 138.5625 110.613281 138.441406 110.691406 C 138.433594 110.699219 138.425781 110.703125 138.417969 110.707031 C 138.296875 110.785156 138.175781 110.871094 138.054688 110.953125 C 138.046875 110.960938 138.039062 110.964844 138.03125 110.972656 C 137.90625 111.054688 137.785156 111.144531 137.660156 111.234375 C 137.648438 111.238281 137.640625 111.246094 137.628906 111.253906 C 137.503906 111.34375 137.378906 111.433594 137.253906 111.53125 C 137.246094 111.535156 137.238281 111.542969 137.226562 111.546875 C 137.097656 111.644531 136.96875 111.742188 136.839844 111.84375 C 136.832031 111.84375 136.828125 111.847656 136.824219 111.851562 C 136.6875 111.957031 136.554688 112.0625 136.417969 112.167969 C 134.902344 113.359375 133.316406 114.769531 131.933594 116.085938 C 131.921875 116.097656 131.90625 116.109375 131.894531 116.121094 C 131.789062 116.222656 131.683594 116.324219 131.578125 116.421875 C 131.558594 116.445312 131.535156 116.46875 131.511719 116.488281 C 131.414062 116.582031 131.320312 116.671875 131.226562 116.765625 C 131.195312 116.792969 131.167969 116.824219 131.136719 116.851562 C 131.050781 116.933594 130.964844 117.019531 130.882812 117.101562 C 130.847656 117.136719 130.808594 117.171875 130.773438 117.207031 C 130.699219 117.285156 130.621094 117.359375 130.546875 117.433594 C 130.507812 117.472656 130.464844 117.515625 130.425781 117.554688 C 130.359375 117.625 130.289062 117.691406 130.222656 117.757812 C 130.179688 117.800781 130.140625 117.84375 130.097656 117.886719 C 130.035156 117.949219 129.972656 118.015625 129.914062 118.078125 C 129.871094 118.121094 129.828125 118.164062 129.785156 118.207031 C 129.730469 118.265625 129.675781 118.324219 129.621094 118.378906 C 129.578125 118.425781 129.535156 118.46875 129.492188 118.511719 C 129.441406 118.566406 129.390625 118.617188 129.34375 118.671875 C 129.304688 118.714844 129.261719 118.757812 129.222656 118.796875 C 129.179688 118.847656 129.132812 118.894531 129.089844 118.941406 C 129.046875 118.988281 129.011719 119.027344 128.972656 119.070312 C 128.933594 119.113281 128.894531 119.15625 128.855469 119.199219 C 128.816406 119.242188 128.78125 119.28125 128.746094 119.324219 C 128.710938 119.359375 128.679688 119.398438 128.648438 119.433594 C 128.609375 119.476562 128.578125 119.515625 128.542969 119.554688 C 128.515625 119.585938 128.488281 119.617188 128.460938 119.648438 C 128.425781 119.691406 128.394531 119.730469 128.359375 119.769531 C 128.34375 119.792969 128.320312 119.816406 128.304688 119.835938 C 128.257812 119.898438 128.214844 119.953125 128.175781 120.003906 L 113.796875 122.617188 L 112.519531 122.847656 C 112.15625 123.34375 112.21875 124.644531 112.519531 126.265625 L 112.519531 152.5625 L 107.152344 152.5625 C 107.15625 152.511719 107.15625 152.476562 107.160156 152.449219 C 107.160156 152.421875 107.160156 152.40625 107.160156 152.40625 L 98.234375 152.40625 L 98.234375 122.660156 L 95.046875 122.667969 C 94.019531 122.636719 92.644531 122.882812 92.007812 124.058594 C 91.914062 124.128906 91.847656 124.222656 91.789062 124.324219 C 90.972656 124.929688 90.015625 125.855469 88.890625 127.195312 C 88.890625 127.195312 84.371094 136.890625 81.980469 142.699219 C 81.082031 144.878906 80.484375 146.511719 80.535156 146.882812 C 80.546875 146.941406 80.554688 147.007812 80.570312 147.082031 C 80.570312 147.097656 80.574219 147.121094 80.578125 147.140625 C 80.589844 147.195312 80.601562 147.253906 80.613281 147.3125 C 80.617188 147.339844 80.621094 147.367188 80.628906 147.390625 C 80.640625 147.453125 80.652344 147.515625 80.667969 147.578125 C 80.671875 147.609375 80.679688 147.640625 80.6875 147.671875 C 80.699219 147.738281 80.714844 147.804688 80.730469 147.875 C 80.738281 147.910156 80.746094 147.945312 80.757812 147.976562 C 80.773438 148.046875 80.789062 148.121094 80.808594 148.195312 C 80.816406 148.234375 80.828125 148.273438 80.835938 148.3125 C 80.855469 148.390625 80.875 148.46875 80.894531 148.546875 C 80.902344 148.585938 80.914062 148.628906 80.925781 148.667969 C 80.945312 148.75 80.964844 148.835938 80.988281 148.921875 C 81 148.964844 81.011719 149.007812 81.023438 149.050781 C 81.046875 149.136719 81.070312 149.226562 81.09375 149.316406 C 81.105469 149.363281 81.117188 149.40625 81.128906 149.453125 C 81.15625 149.546875 81.179688 149.640625 81.207031 149.738281 C 81.21875 149.78125 81.234375 149.828125 81.246094 149.875 C 81.273438 149.972656 81.300781 150.074219 81.328125 150.171875 C 81.34375 150.222656 81.355469 150.269531 81.371094 150.316406 C 81.398438 150.417969 81.429688 150.519531 81.457031 150.625 C 81.472656 150.675781 81.488281 150.726562 81.503906 150.777344 C 81.535156 150.878906 81.566406 150.984375 81.59375 151.085938 C 81.613281 151.140625 81.628906 151.195312 81.644531 151.25 C 81.675781 151.359375 81.710938 151.472656 81.746094 151.582031 C 81.757812 151.632812 81.773438 151.679688 81.789062 151.730469 C 81.828125 151.851562 81.867188 151.976562 81.902344 152.097656 C 81.917969 152.140625 81.929688 152.183594 81.945312 152.226562 C 81.996094 152.390625 82.046875 152.558594 82.101562 152.726562 C 82.113281 152.753906 82.121094 152.785156 82.128906 152.8125 C 82.175781 152.949219 82.21875 153.089844 82.265625 153.230469 C 82.292969 153.304688 82.316406 153.382812 82.34375 153.460938 C 82.375 153.550781 82.402344 153.644531 82.433594 153.734375 C 82.464844 153.824219 82.496094 153.914062 82.523438 154 C 82.554688 154.082031 82.582031 154.164062 82.609375 154.246094 C 82.640625 154.339844 82.671875 154.429688 82.703125 154.519531 C 82.730469 154.597656 82.757812 154.679688 82.789062 154.761719 C 82.820312 154.855469 82.855469 154.945312 82.886719 155.039062 C 82.914062 155.117188 82.941406 155.195312 82.96875 155.273438 C 83.003906 155.367188 83.039062 155.460938 83.074219 155.554688 C 83.101562 155.628906 83.128906 155.707031 83.15625 155.78125 C 83.191406 155.875 83.230469 155.96875 83.265625 156.066406 C 83.292969 156.140625 83.320312 156.214844 83.347656 156.285156 C 83.386719 156.382812 83.421875 156.476562 83.457031 156.570312 C 83.484375 156.640625 83.515625 156.714844 83.542969 156.785156 C 83.578125 156.878906 83.617188 156.972656 83.652344 157.066406 C 83.683594 157.136719 83.710938 157.207031 83.738281 157.277344 C 83.777344 157.371094 83.816406 157.464844 83.851562 157.554688 C 83.878906 157.625 83.910156 157.691406 83.9375 157.757812 C 83.976562 157.851562 84.015625 157.945312 84.054688 158.035156 C 84.082031 158.101562 84.109375 158.167969 84.140625 158.234375 C 84.179688 158.324219 84.214844 158.410156 84.253906 158.5 C 84.285156 158.566406 84.316406 158.628906 84.34375 158.695312 C 84.382812 158.78125 84.421875 158.867188 84.460938 158.949219 C 84.488281 159.015625 84.519531 159.078125 84.546875 159.140625 C 84.585938 159.222656 84.625 159.304688 84.664062 159.386719 C 84.695312 159.445312 84.722656 159.503906 84.75 159.5625 C 84.792969 159.644531 84.832031 159.726562 84.871094 159.804688 C 84.890625 159.84375 84.90625 159.875 84.925781 159.910156 C 84.976562 160.007812 85.023438 160.101562 85.074219 160.195312 C 86.378906 159.765625 87.804688 159.777344 89.105469 160.230469 C 89.773438 157.53125 90.023438 153.242188 90.042969 149.925781 C 90.042969 149.917969 90.042969 149.914062 90.042969 149.90625 C 90.046875 149.753906 90.046875 149.605469 90.046875 149.457031 C 90.046875 149.4375 90.046875 149.417969 90.046875 149.398438 C 90.046875 149.261719 90.046875 149.125 90.046875 148.992188 C 90.046875 148.964844 90.042969 148.941406 90.042969 148.914062 C 90.042969 148.785156 90.042969 148.660156 90.039062 148.535156 C 90.039062 148.507812 90.039062 148.476562 90.039062 148.449219 C 90.039062 148.332031 90.035156 148.21875 90.035156 148.105469 C 90.03125 148.070312 90.03125 148.035156 90.03125 147.996094 C 90.027344 147.894531 90.027344 147.792969 90.023438 147.691406 C 90.023438 147.652344 90.023438 147.613281 90.019531 147.574219 C 90.015625 147.480469 90.015625 147.386719 90.011719 147.296875 C 90.007812 147.257812 90.007812 147.21875 90.007812 147.179688 C 90.003906 147.09375 90 147.011719 89.996094 146.929688 C 89.992188 146.886719 89.992188 146.847656 89.988281 146.804688 C 89.984375 146.730469 89.980469 146.65625 89.976562 146.589844 C 89.976562 146.546875 89.972656 146.507812 89.96875 146.464844 C 89.964844 146.402344 89.960938 146.335938 89.957031 146.277344 C 89.953125 146.234375 89.953125 146.195312 89.949219 146.152344 C 89.945312 146.101562 89.941406 146.046875 89.9375 146 C 89.933594 145.949219 89.925781 145.90625 89.921875 145.863281 C 89.917969 145.828125 89.914062 145.789062 89.910156 145.753906 C 89.902344 145.679688 89.894531 145.609375 89.886719 145.546875 L 92.855469 141.203125 C 93.449219 148.105469 94.152344 156.042969 94.75 162.066406 C 94.761719 162.1875 95.15625 162.226562 95.679688 162.226562 L 94.90625 181.523438 L 82.066406 200.789062 L 80.699219 202.839844 L 80.578125 203.023438 L 83.289062 204.839844 L 83.410156 204.917969 L 85.335938 206.207031 C 85.335938 206.207031 104.863281 182.976562 105.300781 179.816406 C 105.453125 178.710938 105.726562 175.03125 106.019531 170.714844 L 115.527344 209.21875 L 116.738281 209.21875 L 116.300781 213.605469 L 125.625 213.605469 C 125.625 213.605469 127.734375 213.652344 127.695312 212.613281 C 127.679688 212.199219 127.394531 211.925781 126.957031 211.738281 L 126.957031 189.71875 L 149.980469 189.71875 L 149.980469 212.78125 L 152.144531 212.78125 L 152.144531 187.558594 L 151.808594 187.558594 C 151.660156 185.121094 149.878906 183.125 147.539062 182.667969 Z M 105.355469 111.226562 C 105.550781 111.203125 105.6875 110.929688 105.65625 110.609375 C 105.625 110.292969 105.441406 110.050781 105.246094 110.070312 C 105.050781 110.09375 104.914062 110.367188 104.949219 110.6875 C 104.980469 111.003906 105.160156 111.246094 105.355469 111.226562 Z M 109.320312 110.070312 C 109.125 110.09375 108.988281 110.367188 109.023438 110.6875 C 109.054688 111.003906 109.234375 111.246094 109.433594 111.226562 C 109.625 111.203125 109.761719 110.929688 109.730469 110.609375 C 109.699219 110.292969 109.515625 110.050781 109.320312 110.070312 Z M 100.222656 114.84375 C 100.21875 114.746094 100.132812 110.839844 101.203125 110.222656 C 101.855469 109.847656 102.496094 112.554688 102.496094 112.554688 C 102.496094 112.554688 102.644531 111.769531 102.644531 111.226562 C 102.644531 110.683594 102.671875 109.773438 103.886719 108.449219 C 104.304688 107.988281 104.390625 107.335938 104.328125 106.683594 C 105.011719 107.53125 106.265625 108.417969 108.527344 108.449219 C 109.480469 108.460938 110.25 108.246094 110.867188 107.914062 C 112.71875 106.921875 113.191406 104.894531 113.191406 104.894531 C 113.191406 103.332031 110.34375 105.949219 109.316406 104.949219 C 109.3125 104.945312 109.308594 104.945312 109.304688 104.941406 C 108.277344 103.917969 106.867188 103.285156 105.300781 103.285156 C 104.660156 103.285156 104.042969 103.398438 103.46875 103.59375 L 103.46875 103.589844 C 103.398438 103.613281 103.324219 103.640625 103.257812 103.667969 C 103.125 103.71875 102.996094 103.773438 102.867188 103.832031 C 100.960938 104.742188 99.640625 106.6875 99.640625 108.945312 L 99.640625 112.351562 C 99.640625 113.246094 99.851562 114.09375 100.222656 114.847656 C 100.222656 114.847656 100.222656 114.84375 100.222656 114.84375 Z M 106.03125 148.507812 L 107.664062 147.507812 L 107.003906 128.628906 L 107.574219 128.628906 L 107.574219 125.546875 L 106.03125 124.488281 L 104.492188 125.546875 L 104.492188 128.628906 L 105.0625 128.628906 L 104.402344 147.507812 Z M 186.410156 127.339844 L 187.019531 125.082031 L 186.460938 131.09375 C 186.363281 132.707031 184.890625 133.976562 183.167969 133.976562 L 177.097656 133.976562 C 175.378906 133.976562 173.90625 132.707031 173.808594 131.09375 L 173.300781 124.914062 L 173.957031 127.339844 Z M 185.808594 129.164062 C 181.96875 129.328125 178.117188 129.132812 174.273438 129.304688 C 173.933594 129.316406 173.957031 129.816406 174.292969 129.828125 C 178.136719 129.953125 181.992188 129.714844 185.835938 129.839844 C 186.265625 129.851562 186.246094 129.148438 185.808594 129.164062 Z M 185.808594 127.496094 C 181.96875 127.660156 178.117188 127.464844 174.273438 127.632812 C 173.933594 127.648438 173.957031 128.148438 174.292969 128.160156 C 178.136719 128.285156 181.992188 128.046875 185.835938 128.171875 C 186.265625 128.183594 186.246094 127.480469 185.808594 127.496094 Z M 185.808594 127.496094 " fill-opacity="1" fill-rule="nonzero"/><g fill="#000000" fill-opacity="1"><g transform="translate(51.488324, 37.587856)"><g><path d="M 0.40625 -7.40625 C 0.40625 -9.550781 1.132812 -11.363281 2.59375 -12.84375 C 4.0625 -14.320312 5.820312 -15.0625 7.875 -15.0625 C 9.945312 -15.0625 11.703125 -14.320312 13.140625 -12.84375 C 14.585938 -11.375 15.3125 -9.5625 15.3125 -7.40625 C 15.3125 -5.238281 14.597656 -3.414062 13.171875 -1.9375 C 11.753906 -0.46875 9.988281 0.265625 7.875 0.265625 C 5.707031 0.265625 3.921875 -0.460938 2.515625 -1.921875 C 1.109375 -3.390625 0.40625 -5.21875 0.40625 -7.40625 Z M 4.046875 -7.40625 C 4.046875 -6.632812 4.164062 -5.925781 4.40625 -5.28125 C 4.644531 -4.644531 5.0625 -4.101562 5.65625 -3.65625 C 6.257812 -3.21875 7 -3 7.875 -3 C 9.132812 -3 10.082031 -3.425781 10.71875 -4.28125 C 11.351562 -5.144531 11.671875 -6.1875 11.671875 -7.40625 C 11.671875 -8.613281 11.34375 -9.648438 10.6875 -10.515625 C 10.039062 -11.390625 9.101562 -11.828125 7.875 -11.828125 C 6.65625 -11.828125 5.710938 -11.390625 5.046875 -10.515625 C 4.378906 -9.648438 4.046875 -8.613281 4.046875 -7.40625 Z M 4.046875 -7.40625 "/></g></g></g><g fill="#000000" fill-opacity="1"><g transform="translate(67.212642, 37.587856)"><g><path d="M 1.078125 0 L 1.078125 -9.203125 L 4.25 -9.203125 L 4.25 -8.234375 L 4.28125 -8.234375 C 5.113281 -9.054688 5.992188 -9.46875 6.921875 -9.46875 C 7.378906 -9.46875 7.832031 -9.40625 8.28125 -9.28125 C 8.726562 -9.164062 9.15625 -8.984375 9.5625 -8.734375 C 9.976562 -8.484375 10.3125 -8.128906 10.5625 -7.671875 C 10.820312 -7.210938 10.953125 -6.675781 10.953125 -6.0625 L 10.953125 0 L 7.78125 0 L 7.78125 -5.203125 C 7.78125 -5.679688 7.628906 -6.097656 7.328125 -6.453125 C 7.023438 -6.816406 6.628906 -7 6.140625 -7 C 5.660156 -7 5.222656 -6.8125 4.828125 -6.4375 C 4.441406 -6.070312 4.25 -5.660156 4.25 -5.203125 L 4.25 0 Z M 1.078125 0 "/></g></g></g><g fill="#000000" fill-opacity="1"><g transform="translate(79.064154, 37.587856)"><g><path d="M 1.078125 0 L 1.078125 -15.421875 L 4.25 -15.421875 L 4.25 0 Z M 1.078125 0 "/></g></g></g><g fill="#000000" fill-opacity="1"><g transform="translate(84.389261, 37.587856)"><g><path d="M 1.375 -14.328125 C 1.75 -14.703125 2.191406 -14.890625 2.703125 -14.890625 C 3.222656 -14.890625 3.664062 -14.703125 4.03125 -14.328125 C 4.40625 -13.960938 4.59375 -13.519531 4.59375 -13 C 4.59375 -12.488281 4.40625 -12.046875 4.03125 -11.671875 C 3.664062 -11.304688 3.222656 -11.125 2.703125 -11.125 C 2.191406 -11.125 1.75 -11.304688 1.375 -11.671875 C 1.007812 -12.046875 0.828125 -12.488281 0.828125 -13 C 0.828125 -13.519531 1.007812 -13.960938 1.375 -14.328125 Z M 1.078125 -9.203125 L 1.078125 0 L 4.25 0 L 4.25 -9.203125 Z M 1.078125 -9.203125 "/></g></g></g><g fill="#000000" fill-opacity="1"><g transform="translate(89.804021, 37.587856)"><g><path d="M 1.078125 0 L 1.078125 -9.203125 L 4.25 -9.203125 L 4.25 -8.234375 L 4.28125 -8.234375 C 5.113281 -9.054688 5.992188 -9.46875 6.921875 -9.46875 C 7.378906 -9.46875 7.832031 -9.40625 8.28125 -9.28125 C 8.726562 -9.164062 9.15625 -8.984375 9.5625 -8.734375 C 9.976562 -8.484375 10.3125 -8.128906 10.5625 -7.671875 C 10.820312 -7.210938 10.953125 -6.675781 10.953125 -6.0625 L 10.953125 0 L 7.78125 0 L 7.78125 -5.203125 C 7.78125 -5.679688 7.628906 -6.097656 7.328125 -6.453125 C 7.023438 -6.816406 6.628906 -7 6.140625 -7 C 5.660156 -7 5.222656 -6.8125 4.828125 -6.4375 C 4.441406 -6.070312 4.25 -5.660156 4.25 -5.203125 L 4.25 0 Z M 1.078125 0 "/></g></g></g><g fill="#000000" fill-opacity="1"><g transform="translate(101.655533, 37.587856)"><g><path d="M 10.390625 -4.15625 L 3.71875 -4.15625 C 3.71875 -3.507812 3.925781 -3.03125 4.34375 -2.71875 C 4.757812 -2.414062 5.210938 -2.265625 5.703125 -2.265625 C 6.210938 -2.265625 6.617188 -2.332031 6.921875 -2.46875 C 7.222656 -2.601562 7.566406 -2.875 7.953125 -3.28125 L 10.25 -2.140625 C 9.289062 -0.535156 7.695312 0.265625 5.46875 0.265625 C 4.082031 0.265625 2.890625 -0.207031 1.890625 -1.15625 C 0.898438 -2.101562 0.40625 -3.242188 0.40625 -4.578125 C 0.40625 -5.921875 0.898438 -7.070312 1.890625 -8.03125 C 2.890625 -8.988281 4.082031 -9.46875 5.46875 -9.46875 C 6.925781 -9.46875 8.113281 -9.046875 9.03125 -8.203125 C 9.945312 -7.359375 10.40625 -6.15625 10.40625 -4.59375 C 10.40625 -4.375 10.398438 -4.226562 10.390625 -4.15625 Z M 3.796875 -5.921875 L 7.296875 -5.921875 C 7.222656 -6.398438 7.035156 -6.765625 6.734375 -7.015625 C 6.429688 -7.273438 6.039062 -7.40625 5.5625 -7.40625 C 5.03125 -7.40625 4.609375 -7.265625 4.296875 -6.984375 C 3.992188 -6.710938 3.828125 -6.359375 3.796875 -5.921875 Z M 3.796875 -5.921875 "/></g></g></g><g fill="#000000" fill-opacity="1"><g transform="translate(112.46712, 37.587856)"><g><path d="M 10.546875 -15.421875 L 3.15625 2.15625 L 0.40625 2.15625 L 7.796875 -15.421875 Z M 10.546875 -15.421875 "/></g></g></g><g fill="#000000" fill-opacity="1"><g transform="translate(123.422147, 37.587856)"><g><path d="M 1.078125 -14.796875 L 5.359375 -14.796875 C 7.421875 -14.796875 9.179688 -14.09375 10.640625 -12.6875 C 12.097656 -11.28125 12.828125 -9.519531 12.828125 -7.40625 C 12.828125 -5.28125 12.097656 -3.515625 10.640625 -2.109375 C 9.191406 -0.703125 7.429688 0 5.359375 0 L 1.078125 0 Z M 4.453125 -3.015625 L 4.96875 -3.015625 C 6.195312 -3.015625 7.203125 -3.425781 7.984375 -4.25 C 8.773438 -5.082031 9.175781 -6.128906 9.1875 -7.390625 C 9.1875 -8.648438 8.789062 -9.695312 8 -10.53125 C 7.21875 -11.363281 6.207031 -11.78125 4.96875 -11.78125 L 4.453125 -11.78125 Z M 4.453125 -3.015625 "/></g></g></g><g fill="#000000" fill-opacity="1"><g transform="translate(136.65424, 37.587856)"><g><path d="M 1.375 -14.328125 C 1.75 -14.703125 2.191406 -14.890625 2.703125 -14.890625 C 3.222656 -14.890625 3.664062 -14.703125 4.03125 -14.328125 C 4.40625 -13.960938 4.59375 -13.519531 4.59375 -13 C 4.59375 -12.488281 4.40625 -12.046875 4.03125 -11.671875 C 3.664062 -11.304688 3.222656 -11.125 2.703125 -11.125 C 2.191406 -11.125 1.75 -11.304688 1.375 -11.671875 C 1.007812 -12.046875 0.828125 -12.488281 0.828125 -13 C 0.828125 -13.519531 1.007812 -13.960938 1.375 -14.328125 Z M 1.078125 -9.203125 L 1.078125 0 L 4.25 0 L 4.25 -9.203125 Z M 1.078125 -9.203125 "/></g></g></g><g fill="#000000" fill-opacity="1"><g transform="translate(142.069, 37.587856)"><g><path d="M 5.078125 -9.46875 C 5.597656 -9.46875 6.113281 -9.40625 6.625 -9.28125 C 7.144531 -9.164062 7.53125 -9.050781 7.78125 -8.9375 L 8.15625 -8.75 L 7.125 -6.671875 C 6.40625 -7.054688 5.722656 -7.25 5.078125 -7.25 C 4.710938 -7.25 4.457031 -7.207031 4.3125 -7.125 C 4.164062 -7.050781 4.09375 -6.90625 4.09375 -6.6875 C 4.09375 -6.644531 4.097656 -6.597656 4.109375 -6.546875 C 4.117188 -6.492188 4.140625 -6.445312 4.171875 -6.40625 C 4.210938 -6.363281 4.25 -6.328125 4.28125 -6.296875 C 4.3125 -6.273438 4.359375 -6.242188 4.421875 -6.203125 C 4.492188 -6.171875 4.550781 -6.144531 4.59375 -6.125 C 4.632812 -6.101562 4.703125 -6.070312 4.796875 -6.03125 C 4.898438 -6 4.972656 -5.972656 5.015625 -5.953125 C 5.066406 -5.941406 5.148438 -5.914062 5.265625 -5.875 C 5.378906 -5.84375 5.46875 -5.820312 5.53125 -5.8125 C 5.894531 -5.707031 6.210938 -5.585938 6.484375 -5.453125 C 6.765625 -5.316406 7.054688 -5.132812 7.359375 -4.90625 C 7.671875 -4.6875 7.910156 -4.398438 8.078125 -4.046875 C 8.242188 -3.703125 8.328125 -3.3125 8.328125 -2.875 C 8.328125 -0.78125 6.875 0.265625 3.96875 0.265625 C 3.3125 0.265625 2.6875 0.164062 2.09375 -0.03125 C 1.5 -0.238281 1.070312 -0.441406 0.8125 -0.640625 L 0.40625 -0.96875 L 1.703125 -3.140625 C 1.796875 -3.054688 1.921875 -2.957031 2.078125 -2.84375 C 2.234375 -2.726562 2.515625 -2.570312 2.921875 -2.375 C 3.328125 -2.175781 3.679688 -2.078125 3.984375 -2.078125 C 4.640625 -2.078125 4.96875 -2.300781 4.96875 -2.75 C 4.96875 -2.945312 4.882812 -3.101562 4.71875 -3.21875 C 4.550781 -3.332031 4.265625 -3.460938 3.859375 -3.609375 C 3.460938 -3.753906 3.148438 -3.882812 2.921875 -4 C 2.347656 -4.300781 1.894531 -4.640625 1.5625 -5.015625 C 1.226562 -5.390625 1.0625 -5.890625 1.0625 -6.515625 C 1.0625 -7.441406 1.421875 -8.164062 2.140625 -8.6875 C 2.867188 -9.207031 3.847656 -9.46875 5.078125 -9.46875 Z M 5.078125 -9.46875 "/></g></g></g><g fill="#000000" fill-opacity="1"><g transform="translate(150.890403, 37.587856)"><g><path d="M 1.609375 -9.203125 L 1.609375 -12.625 L 4.796875 -12.625 L 4.796875 -9.203125 L 6.71875 -9.203125 L 6.71875 -6.78125 L 4.796875 -6.78125 L 4.796875 -3.859375 C 4.796875 -3.003906 5.03125 -2.578125 5.5 -2.578125 C 5.625 -2.578125 5.75 -2.597656 5.875 -2.640625 C 6.007812 -2.691406 6.113281 -2.742188 6.1875 -2.796875 L 6.296875 -2.875 L 7.078125 -0.3125 C 6.398438 0.0703125 5.625 0.265625 4.75 0.265625 C 4.15625 0.265625 3.640625 0.160156 3.203125 -0.046875 C 2.773438 -0.253906 2.453125 -0.535156 2.234375 -0.890625 C 2.015625 -1.242188 1.851562 -1.613281 1.75 -2 C 1.65625 -2.382812 1.609375 -2.800781 1.609375 -3.25 L 1.609375 -6.78125 L 0.28125 -6.78125 L 0.28125 -9.203125 Z M 1.609375 -9.203125 "/></g></g></g><g fill="#000000" fill-opacity="1"><g transform="translate(157.972624, 37.587856)"><g><path d="M 1.703125 -1.140625 C 0.835938 -2.078125 0.40625 -3.226562 0.40625 -4.59375 C 0.40625 -5.957031 0.835938 -7.109375 1.703125 -8.046875 C 2.566406 -8.992188 3.660156 -9.46875 4.984375 -9.46875 C 6.203125 -9.46875 7.207031 -9.085938 8 -8.328125 L 8 -9.203125 L 11.171875 -9.203125 L 11.171875 0 L 8.03125 0 L 8.03125 -1.046875 L 8 -1.046875 C 7.207031 -0.171875 6.203125 0.265625 4.984375 0.265625 C 3.660156 0.265625 2.566406 -0.203125 1.703125 -1.140625 Z M 4.390625 -6.15625 C 3.984375 -5.75 3.78125 -5.226562 3.78125 -4.59375 C 3.78125 -3.957031 3.976562 -3.4375 4.375 -3.03125 C 4.769531 -2.632812 5.289062 -2.4375 5.9375 -2.4375 C 6.5625 -2.4375 7.070312 -2.640625 7.46875 -3.046875 C 7.875 -3.453125 8.078125 -3.96875 8.078125 -4.59375 C 8.078125 -5.226562 7.867188 -5.75 7.453125 -6.15625 C 7.035156 -6.5625 6.53125 -6.765625 5.9375 -6.765625 C 5.320312 -6.765625 4.804688 -6.5625 4.390625 -6.15625 Z M 4.390625 -6.15625 "/></g></g></g><g fill="#000000" fill-opacity="1"><g transform="translate(170.218591, 37.587856)"><g><path d="M 1.078125 0 L 1.078125 -9.203125 L 4.25 -9.203125 L 4.25 -8.234375 L 4.28125 -8.234375 C 5.113281 -9.054688 5.992188 -9.46875 6.921875 -9.46875 C 7.378906 -9.46875 7.832031 -9.40625 8.28125 -9.28125 C 8.726562 -9.164062 9.15625 -8.984375 9.5625 -8.734375 C 9.976562 -8.484375 10.3125 -8.128906 10.5625 -7.671875 C 10.820312 -7.210938 10.953125 -6.675781 10.953125 -6.0625 L 10.953125 0 L 7.78125 0 L 7.78125 -5.203125 C 7.78125 -5.679688 7.628906 -6.097656 7.328125 -6.453125 C 7.023438 -6.816406 6.628906 -7 6.140625 -7 C 5.660156 -7 5.222656 -6.8125 4.828125 -6.4375 C 4.441406 -6.070312 4.25 -5.660156 4.25 -5.203125 L 4.25 0 Z M 1.078125 0 "/></g></g></g><g fill="#000000" fill-opacity="1"><g transform="translate(182.070103, 37.587856)"><g><path d="M 5.96875 -6.875 C 5.375 -6.875 4.859375 -6.648438 4.421875 -6.203125 C 3.992188 -5.765625 3.78125 -5.234375 3.78125 -4.609375 C 3.78125 -3.972656 3.992188 -3.429688 4.421875 -2.984375 C 4.859375 -2.546875 5.375 -2.328125 5.96875 -2.328125 C 6.257812 -2.328125 6.53125 -2.363281 6.78125 -2.4375 C 7.039062 -2.507812 7.234375 -2.582031 7.359375 -2.65625 L 7.515625 -2.765625 L 8.59375 -0.5625 C 8.507812 -0.5 8.390625 -0.421875 8.234375 -0.328125 C 8.085938 -0.242188 7.75 -0.125 7.21875 0.03125 C 6.6875 0.1875 6.113281 0.265625 5.5 0.265625 C 4.15625 0.265625 2.96875 -0.207031 1.9375 -1.15625 C 0.914062 -2.101562 0.40625 -3.242188 0.40625 -4.578125 C 0.40625 -5.910156 0.914062 -7.054688 1.9375 -8.015625 C 2.96875 -8.984375 4.15625 -9.46875 5.5 -9.46875 C 6.113281 -9.46875 6.675781 -9.394531 7.1875 -9.25 C 7.707031 -9.113281 8.070312 -8.972656 8.28125 -8.828125 L 8.59375 -8.609375 L 7.515625 -6.4375 C 7.117188 -6.726562 6.601562 -6.875 5.96875 -6.875 Z M 5.96875 -6.875 "/></g></g></g><g fill="#000000" fill-opacity="1"><g transform="translate(190.873572, 37.587856)"><g><path d="M 10.390625 -4.15625 L 3.71875 -4.15625 C 3.71875 -3.507812 3.925781 -3.03125 4.34375 -2.71875 C 4.757812 -2.414062 5.210938 -2.265625 5.703125 -2.265625 C 6.210938 -2.265625 6.617188 -2.332031 6.921875 -2.46875 C 7.222656 -2.601562 7.566406 -2.875 7.953125 -3.28125 L 10.25 -2.140625 C 9.289062 -0.535156 7.695312 0.265625 5.46875 0.265625 C 4.082031 0.265625 2.890625 -0.207031 1.890625 -1.15625 C 0.898438 -2.101562 0.40625 -3.242188 0.40625 -4.578125 C 0.40625 -5.921875 0.898438 -7.070312 1.890625 -8.03125 C 2.890625 -8.988281 4.082031 -9.46875 5.46875 -9.46875 C 6.925781 -9.46875 8.113281 -9.046875 9.03125 -8.203125 C 9.945312 -7.359375 10.40625 -6.15625 10.40625 -4.59375 C 10.40625 -4.375 10.398438 -4.226562 10.390625 -4.15625 Z M 3.796875 -5.921875 L 7.296875 -5.921875 C 7.222656 -6.398438 7.035156 -6.765625 6.734375 -7.015625 C 6.429688 -7.273438 6.039062 -7.40625 5.5625 -7.40625 C 5.03125 -7.40625 4.609375 -7.265625 4.296875 -6.984375 C 3.992188 -6.710938 3.828125 -6.359375 3.796875 -5.921875 Z M 3.796875 -5.921875 "/></g></g></g><g fill="#000000" fill-opacity="1"><g transform="translate(201.68516, 37.587856)"><g/></g></g><g fill="#104e91" fill-opacity="1"><g transform="translate(206.574247, 37.587856)"><g><path d="M 1.078125 -14.796875 L 5.671875 -14.796875 C 7.054688 -14.796875 8.160156 -14.5 8.984375 -13.90625 C 9.804688 -13.3125 10.21875 -12.351562 10.21875 -11.03125 C 10.21875 -9.550781 9.601562 -8.492188 8.375 -7.859375 C 10.476562 -7.484375 11.53125 -6.238281 11.53125 -4.125 C 11.53125 -2.882812 11.097656 -1.882812 10.234375 -1.125 C 9.378906 -0.375 8.195312 0 6.6875 0 L 1.078125 0 Z M 4.453125 -9 L 4.71875 -9 C 5.46875 -9 6.023438 -9.128906 6.390625 -9.390625 C 6.765625 -9.660156 6.953125 -10.09375 6.953125 -10.6875 C 6.953125 -11.695312 6.207031 -12.203125 4.71875 -12.203125 L 4.453125 -12.203125 Z M 4.453125 -2.59375 L 5.5 -2.59375 C 7.15625 -2.59375 7.984375 -3.144531 7.984375 -4.25 C 7.984375 -4.90625 7.773438 -5.375 7.359375 -5.65625 C 6.953125 -5.945312 6.332031 -6.09375 5.5 -6.09375 L 4.453125 -6.09375 Z M 4.453125 -2.59375 "/></g></g></g><g fill="#104e91" fill-opacity="1"><g transform="translate(218.515412, 37.587856)"><g><path d="M 1.078125 -14.796875 L 5.671875 -14.796875 C 7.054688 -14.796875 8.160156 -14.5 8.984375 -13.90625 C 9.804688 -13.3125 10.21875 -12.351562 10.21875 -11.03125 C 10.21875 -9.550781 9.601562 -8.492188 8.375 -7.859375 C 10.476562 -7.484375 11.53125 -6.238281 11.53125 -4.125 C 11.53125 -2.882812 11.097656 -1.882812 10.234375 -1.125 C 9.378906 -0.375 8.195312 0 6.6875 0 L 1.078125 0 Z M 4.453125 -9 L 4.71875 -9 C 5.46875 -9 6.023438 -9.128906 6.390625 -9.390625 C 6.765625 -9.660156 6.953125 -10.09375 6.953125 -10.6875 C 6.953125 -11.695312 6.207031 -12.203125 4.71875 -12.203125 L 4.453125 -12.203125 Z M 4.453125 -2.59375 L 5.5 -2.59375 C 7.15625 -2.59375 7.984375 -3.144531 7.984375 -4.25 C 7.984375 -4.90625 7.773438 -5.375 7.359375 -5.65625 C 6.953125 -5.945312 6.332031 -6.09375 5.5 -6.09375 L 4.453125 -6.09375 Z M 4.453125 -2.59375 "/></g></g></g><g fill="#104e91" fill-opacity="1"><g transform="translate(230.456577, 37.587856)"><g><path d="M 8.59375 -14.796875 L 14.5625 0 L 10.9375 0 L 9.84375 -2.953125 L 4.21875 -2.953125 L 3.125 0 L -0.5 0 L 5.46875 -14.796875 Z M 8.703125 -5.921875 L 7.046875 -10.21875 L 7.015625 -10.21875 L 5.359375 -5.921875 Z M 8.703125 -5.921875 "/></g></g></g></svg>