<svg xmlns="http://www.w3.org/2000/svg" xmlns:xlink="http://www.w3.org/1999/xlink" width="400" zoomAndPan="magnify" viewBox="0 0 300 225" height="300" preserveAspectRatio="xMidYMid meet" version="1.0"><defs><g/><clipPath id="db148b5da0"><path d="M 0.300781 0.59375 L 299.207031 0.59375 L 299.207031 224.476562 L 0.300781 224.476562 Z M 0.300781 0.59375 " clip-rule="nonzero"/></clipPath><clipPath id="665d52aa64"><path d="M 196.042969 22.5 L 263.542969 22.5 L 263.542969 49.796875 L 196.042969 49.796875 Z M 196.042969 22.5 " clip-rule="nonzero"/></clipPath></defs><rect x="-30" width="360" fill="#ffffff" y="-22.5" height="270" fill-opacity="1"/><rect x="-30" width="360" fill="#ffffff" y="-22.5" height="270" fill-opacity="1"/><rect x="-30" width="360" fill="#ffffff" y="-22.5" height="270" fill-opacity="1"/><g clip-path="url(#db148b5da0)"><path fill="#ffffff" d="M 0.300781 0.59375 L 299.699219 0.59375 L 299.699219 232.21875 L 0.300781 232.21875 Z M 0.300781 0.59375 " fill-opacity="1" fill-rule="nonzero"/><path fill="#ffffff" d="M 0.300781 0.59375 L 299.699219 0.59375 L 299.699219 224.84375 L 0.300781 224.84375 Z M 0.300781 0.59375 " fill-opacity="1" fill-rule="nonzero"/><path fill="#eaf8ff" d="M 0.300781 0.59375 L 299.699219 0.59375 L 299.699219 224.84375 L 0.300781 224.84375 Z M 0.300781 0.59375 " fill-opacity="1" fill-rule="nonzero"/></g><path fill="#ffd2bb" d="M 138.195312 188.691406 C 138.195312 188.691406 139.996094 190.832031 138.402344 191.933594 C 136.921875 192.953125 133.726562 191.960938 131.945312 191.242188 L 131.765625 191.4375 C 131.601562 191.296875 131.460938 191.144531 131.351562 190.992188 C 130.644531 190.785156 129.855469 190.449219 129.023438 190.019531 C 129.183594 187.53125 129.21875 185.214844 129.046875 183.363281 C 129.277344 183.652344 129.410156 183.828125 129.410156 183.828125 C 129.410156 183.828125 131.386719 185.984375 132.71875 187.96875 C 133.828125 186.9375 135.214844 185.9375 136.039062 185.945312 C 136.203125 185.945312 136.382812 186.046875 136.570312 186.207031 L 136.371094 186.417969 C 137.027344 187.292969 138.195312 188.691406 138.195312 188.691406 Z M 215.578125 119.203125 C 215.203125 119.3125 214.832031 119.445312 214.480469 119.601562 C 214.476562 119.605469 214.46875 119.605469 214.464844 119.609375 C 214.300781 119.683594 214.148438 119.761719 213.992188 119.839844 C 213.972656 119.851562 213.953125 119.859375 213.933594 119.867188 C 213.765625 119.960938 213.597656 120.0625 213.429688 120.164062 L 212.855469 116.988281 C 212.019531 117.40625 211.21875 117.683594 210.570312 117.757812 C 208.503906 118.007812 208.550781 116.191406 208.523438 113.886719 C 208.304688 113.871094 208.105469 113.832031 207.957031 113.769531 C 207.308594 113.5 207.929688 112.890625 208.257812 112.121094 C 208.304688 112.011719 208.359375 111.90625 208.425781 111.8125 C 208.417969 111.742188 208.410156 111.675781 208.402344 111.609375 C 208.289062 110.660156 208.375 109.746094 208.617188 108.910156 L 208.65625 108.90625 C 208.910156 108.875 212.105469 108.597656 211.796875 108.726562 C 211.34375 110.140625 211.421875 111.519531 212.039062 112.5 C 213.375 115.140625 214.507812 117.355469 215.578125 119.203125 Z M 210.148438 111.65625 C 210.121094 111.371094 209.953125 111.152344 209.773438 111.171875 C 209.597656 111.1875 209.476562 111.4375 209.503906 111.726562 C 209.535156 112.015625 209.699219 112.234375 209.878906 112.214844 C 210.050781 112.195312 210.171875 111.945312 210.148438 111.65625 Z M 130.191406 155.425781 C 129.144531 157.753906 128.390625 159.625 126.398438 158.457031 C 125.511719 157.933594 124.492188 156.875 123.601562 155.578125 L 122.113281 155.980469 L 116.101562 149.699219 L 120.484375 147.921875 C 120.488281 147.933594 120.488281 147.949219 120.492188 147.960938 C 120.550781 148.199219 120.625 148.433594 120.707031 148.660156 C 120.765625 148.828125 120.832031 148.992188 120.902344 149.152344 C 121.023438 149.445312 121.160156 149.722656 121.304688 149.984375 C 121.328125 150.03125 121.355469 150.085938 121.382812 150.132812 C 121.386719 150.140625 121.394531 150.152344 121.398438 150.164062 C 121.957031 151.117188 122.667969 151.871094 123.453125 152.359375 C 123.832031 152.605469 124.230469 152.78125 124.636719 152.886719 C 124.671875 152.898438 124.695312 152.90625 124.730469 152.914062 C 124.730469 152.914062 124.730469 152.910156 124.730469 152.910156 C 124.523438 152.726562 124.351562 152.515625 124.214844 152.273438 C 124.074219 152.019531 123.984375 151.734375 123.949219 151.433594 C 123.851562 150.746094 124.152344 150.058594 124.84375 149.851562 C 125.714844 149.585938 126.621094 150.132812 127.015625 150.898438 C 127.042969 150.945312 127.066406 150.996094 127.089844 151.050781 C 127.113281 151.113281 127.132812 151.175781 127.152344 151.242188 C 127.167969 151.292969 127.1875 151.339844 127.199219 151.390625 C 127.222656 151.484375 127.234375 151.582031 127.246094 151.675781 C 127.25 151.699219 127.253906 151.71875 127.257812 151.742188 C 127.28125 151.976562 127.269531 152.21875 127.230469 152.457031 C 127.234375 152.457031 127.234375 152.457031 127.234375 152.457031 C 127.234375 152.457031 127.234375 152.460938 127.234375 152.460938 C 128.125 151.855469 128.941406 150.445312 129.277344 149.042969 C 130.277344 149.851562 131.25 150.628906 132.105469 151.308594 C 131.933594 151.9375 131.675781 152.5625 131.320312 153.164062 C 131.285156 153.230469 131.25 153.292969 131.210938 153.359375 C 131.234375 153.484375 131.25 153.617188 131.246094 153.75 C 131.234375 154.675781 131.597656 155.570312 130.820312 155.5625 C 130.640625 155.558594 130.421875 155.511719 130.191406 155.425781 Z M 130.152344 152.796875 C 130.308594 152.519531 130.292969 152.207031 130.125 152.109375 C 129.949219 152.015625 129.6875 152.164062 129.527344 152.441406 C 129.371094 152.722656 129.386719 153.03125 129.558594 153.128906 C 129.726562 153.226562 129.992188 153.074219 130.152344 152.796875 Z M 180.5625 128.050781 C 180.371094 128.015625 180.167969 128 179.964844 128 C 178.378906 128 177.066406 129.113281 176.785156 130.578125 C 176.777344 130.605469 176.773438 130.632812 176.769531 130.660156 C 176.738281 130.820312 176.722656 130.992188 176.722656 131.164062 C 176.722656 132.664062 177.789062 133.910156 179.222656 134.242188 C 179.457031 134.300781 179.707031 134.328125 179.964844 134.328125 C 180.929688 134.328125 181.792969 133.917969 182.390625 133.265625 C 182.464844 133.179688 182.539062 133.09375 182.609375 132.996094 C 182.785156 132.753906 182.925781 132.484375 183.03125 132.199219 C 183.144531 131.875 183.210938 131.523438 183.210938 131.164062 C 183.210938 131.03125 183.199219 130.898438 183.183594 130.769531 C 183.007812 129.402344 181.941406 128.300781 180.5625 128.050781 Z M 157.582031 168.582031 C 157.371094 168.472656 157.148438 168.402344 156.941406 168.339844 C 156.445312 168.203125 156.03125 168.179688 156.03125 168.179688 C 156.03125 168.179688 155.726562 168.082031 155.296875 167.96875 C 154.808594 167.847656 154.164062 167.707031 153.605469 167.671875 C 153.140625 167.644531 152.738281 167.691406 152.558594 167.882812 C 152.265625 168.183594 152.070312 168.777344 151.949219 169.480469 L 150.105469 171.480469 C 148.226562 171.300781 146.480469 171.28125 146.480469 171.28125 C 146.480469 171.28125 142.523438 170.914062 139.21875 170.832031 C 138.144531 170.804688 137.136719 170.808594 136.363281 170.863281 C 136.363281 170.863281 136.359375 170.863281 136.359375 170.863281 C 136.359375 170.867188 136.359375 170.867188 136.359375 170.867188 C 135.855469 170.902344 135.445312 170.960938 135.175781 171.046875 C 135.011719 171.101562 134.859375 171.167969 134.710938 171.234375 C 134.695312 171.242188 134.675781 171.25 134.660156 171.261719 C 134.53125 171.320312 134.421875 171.390625 134.308594 171.464844 C 134.289062 171.476562 134.261719 171.492188 134.238281 171.503906 C 134.164062 171.554688 134.097656 171.613281 134.035156 171.667969 C 134 171.691406 133.960938 171.71875 133.925781 171.75 C 133.90625 171.761719 133.890625 171.773438 133.871094 171.789062 C 133.859375 171.800781 133.847656 171.816406 133.835938 171.828125 C 133.746094 171.914062 133.65625 172 133.578125 172.089844 C 133.570312 172.097656 133.5625 172.105469 133.558594 172.113281 C 133.460938 172.21875 133.375 172.335938 133.289062 172.453125 C 133.289062 172.453125 133.285156 172.457031 133.285156 172.460938 C 133.199219 172.582031 133.128906 172.703125 133.0625 172.832031 C 133.058594 172.835938 133.054688 172.839844 133.054688 172.847656 C 132.996094 172.949219 132.945312 173.0625 132.902344 173.171875 C 132.894531 173.191406 132.882812 173.210938 132.875 173.230469 C 132.875 173.238281 132.871094 173.242188 132.871094 173.246094 C 132.804688 173.402344 132.753906 173.558594 132.710938 173.726562 C 132.699219 173.773438 132.691406 173.820312 132.679688 173.867188 C 132.652344 173.988281 132.628906 174.101562 132.609375 174.222656 C 132.601562 174.273438 132.59375 174.332031 132.589844 174.386719 C 132.574219 174.503906 132.566406 174.625 132.5625 174.738281 C 132.558594 174.789062 132.554688 174.839844 132.554688 174.886719 C 132.554688 175.214844 132.585938 175.539062 132.65625 175.851562 C 132.664062 175.894531 132.679688 175.941406 132.691406 175.988281 C 132.714844 176.097656 132.746094 176.199219 132.78125 176.304688 C 132.800781 176.355469 132.816406 176.402344 132.835938 176.453125 C 132.875 176.554688 132.921875 176.648438 132.964844 176.742188 C 132.988281 176.785156 133.007812 176.824219 133.027344 176.867188 C 133.101562 176.996094 133.179688 177.121094 133.265625 177.238281 C 133.394531 177.359375 133.535156 177.457031 133.6875 177.507812 C 134.25 177.699219 135.035156 177.816406 135.976562 177.882812 C 136.269531 177.902344 136.574219 177.914062 136.890625 177.921875 C 139.132812 177.972656 142.003906 177.738281 144.785156 177.269531 C 145.597656 177.128906 146.402344 176.976562 147.179688 176.800781 C 147.726562 176.675781 148.265625 176.546875 148.777344 176.402344 C 149.390625 176.238281 149.976562 176.0625 150.527344 175.871094 C 150.75 175.792969 150.960938 175.714844 151.167969 175.636719 C 151.878906 175.363281 152.515625 175.066406 153.046875 174.75 C 153.828125 174.855469 154.886719 174.566406 155.863281 173.976562 C 156.566406 173.554688 157.226562 172.96875 157.722656 172.253906 C 158.097656 171.71875 158.367188 171.113281 158.5 170.449219 C 158.511719 170.378906 158.53125 170.308594 158.542969 170.242188 C 158.667969 169.375 158.167969 168.875 157.582031 168.582031 Z M 157.582031 168.582031 " fill-opacity="1" fill-rule="nonzero"/><path fill="#e84393" d="M 210.269531 170.101562 C 209.035156 171.003906 207.769531 171.859375 206.46875 172.625 C 206.933594 174.113281 207.191406 176 207.15625 178.105469 C 207.078125 182.875 203.210938 204.097656 202.386719 208.554688 C 202.292969 209.082031 202.238281 209.378906 202.238281 209.378906 C 202.238281 209.378906 198.828125 185.164062 198.914062 179.832031 C 198.941406 178.273438 199.121094 176.773438 199.417969 175.414062 C 198.84375 174.820312 200.21875 172.117188 202.386719 168.660156 C 203.457031 166.96875 204.714844 165.089844 206.03125 163.195312 C 206.035156 163.199219 207.597656 166.871094 210.269531 170.101562 Z M 219.390625 178.941406 C 219.117188 177.992188 218.777344 177.109375 218.386719 176.332031 C 218.566406 176.058594 218.742188 175.785156 218.917969 175.515625 C 217.621094 175.183594 216.277344 174.707031 214.933594 174.039062 C 213.648438 173.40625 212.472656 172.460938 211.429688 171.394531 C 211.726562 173.542969 212.074219 175.660156 212.46875 177.527344 C 212.308594 179.265625 212.488281 181.265625 213.054688 183.253906 C 214.394531 187.945312 223.804688 209.378906 223.804688 209.378906 C 223.804688 209.378906 220.730469 183.632812 219.390625 178.941406 Z M 116.101562 149.699219 L 116.039062 149.632812 C 116.039062 149.632812 114.835938 148.238281 112.042969 149.78125 C 111.085938 150.3125 101.792969 159.121094 94.632812 165.976562 C 91.542969 168.929688 88.855469 171.515625 87.390625 172.925781 C 86.648438 173.640625 86.222656 174.050781 86.222656 174.050781 C 86.148438 174.148438 80.480469 180.609375 83.148438 195.332031 C 83.191406 195.363281 83.664062 200.253906 84.632812 205.140625 C 80.003906 204.59375 73.585938 204.363281 73.585938 204.363281 L 63.097656 205.753906 L 71.308594 209.8125 C 77.625 212.410156 85.386719 215.203125 88.953125 214.929688 C 89.140625 214.953125 89.34375 214.9375 89.542969 214.871094 C 89.757812 214.800781 89.972656 214.683594 90.179688 214.539062 C 93.730469 212.03125 96.015625 199.027344 96.960938 192.402344 C 97.296875 190.058594 97.464844 188.511719 97.464844 188.511719 C 97.464844 188.511719 110.679688 186.976562 119.898438 184.769531 C 120.03125 186.851562 120.574219 190.070312 121.105469 192.847656 C 121.679688 195.824219 122.226562 198.296875 122.226562 198.296875 L 122.496094 199.007812 L 123.78125 202.261719 L 126.59375 209.378906 C 126.824219 207.648438 127.566406 202.234375 128.171875 197.484375 L 128.152344 197.503906 C 128.332031 196.039062 128.546875 194.296875 128.714844 192.847656 C 128.875 191.464844 129.003906 190.351562 129.023438 190.019531 C 129.179688 187.535156 129.21875 185.214844 129.046875 183.363281 C 128.964844 182.414062 128.820312 181.585938 128.617188 180.925781 C 128.648438 180.765625 128.636719 180.601562 128.566406 180.4375 C 127.675781 178.257812 125.328125 176.6875 122.230469 175.644531 C 121.441406 175.378906 120.605469 175.148438 119.730469 174.953125 C 116.515625 174.222656 112.804688 173.941406 109.175781 174.042969 C 109.554688 173.855469 114.960938 171.167969 118.875 167.226562 C 119.085938 167.441406 132.085938 177.246094 133.269531 177.246094 C 133.269531 177.242188 133.269531 177.242188 133.265625 177.238281 C 133.175781 177.121094 133.101562 177 133.027344 176.867188 C 133.003906 176.828125 132.988281 176.785156 132.964844 176.746094 C 132.921875 176.648438 132.875 176.554688 132.835938 176.453125 C 132.816406 176.402344 132.796875 176.359375 132.78125 176.304688 C 132.746094 176.203125 132.714844 176.097656 132.691406 175.988281 C 132.679688 175.941406 132.664062 175.894531 132.65625 175.851562 C 132.585938 175.539062 132.554688 175.214844 132.554688 174.886719 C 132.554688 174.839844 132.558594 174.789062 132.5625 174.742188 C 132.566406 174.625 132.574219 174.503906 132.589844 174.386719 C 132.59375 174.332031 132.601562 174.277344 132.609375 174.222656 C 132.628906 174.105469 132.652344 173.988281 132.679688 173.871094 C 132.691406 173.820312 132.699219 173.773438 132.710938 173.726562 C 132.757812 173.558594 132.808594 173.394531 132.875 173.234375 C 132.882812 173.214844 132.894531 173.195312 132.902344 173.175781 C 132.949219 173.058594 133 172.941406 133.0625 172.835938 C 133.0625 172.832031 133.0625 172.832031 133.0625 172.832031 C 133.128906 172.703125 133.199219 172.585938 133.28125 172.464844 C 133.285156 172.460938 133.289062 172.457031 133.289062 172.453125 C 133.289062 172.453125 133.292969 172.449219 133.292969 172.449219 C 133.375 172.335938 133.460938 172.21875 133.554688 172.113281 C 133.554688 172.113281 133.554688 172.113281 133.558594 172.113281 C 133.640625 172.011719 133.738281 171.921875 133.835938 171.832031 C 133.847656 171.820312 133.859375 171.804688 133.871094 171.792969 C 133.886719 171.777344 133.90625 171.765625 133.921875 171.75 C 133.925781 171.75 133.925781 171.75 133.925781 171.75 C 133.960938 171.71875 134 171.695312 134.035156 171.667969 C 134.222656 171.515625 134.425781 171.378906 134.65625 171.261719 C 134.675781 171.253906 134.691406 171.246094 134.710938 171.238281 C 134.855469 171.167969 135.007812 171.101562 135.175781 171.046875 C 135.445312 170.964844 135.855469 170.90625 136.359375 170.867188 L 122.113281 155.980469 Z M 136.210938 152.246094 L 134.019531 149.585938 C 134.453125 148.65625 134.699219 147.617188 134.699219 146.519531 C 134.699219 145.300781 134.402344 144.152344 133.871094 143.148438 C 132.667969 140.835938 130.253906 139.257812 127.46875 139.257812 C 126.324219 139.257812 125.234375 139.527344 124.269531 140.007812 C 123.859375 140.210938 123.46875 140.457031 123.101562 140.734375 C 122.625 141.097656 122.195312 141.523438 121.824219 141.996094 C 121.703125 142.152344 121.597656 142.308594 121.496094 142.46875 C 121.792969 142.964844 125.714844 146.179688 129.277344 149.042969 C 129.277344 149.042969 129.277344 149.046875 129.277344 149.046875 C 130.277344 149.851562 131.25 150.628906 132.105469 151.308594 C 133.871094 152.714844 135.144531 153.71875 135.144531 153.71875 C 135.574219 154.003906 136.164062 153.910156 136.457031 153.5 C 136.753906 153.09375 136.640625 152.53125 136.210938 152.246094 Z M 136.210938 152.246094 " fill-opacity="1" fill-rule="nonzero"/><path fill="#fbc02d" d="M 218.917969 175.515625 C 217.617188 175.183594 216.277344 174.707031 214.933594 174.039062 C 213.648438 173.40625 212.472656 172.460938 211.429688 171.394531 C 211.023438 170.980469 210.632812 170.542969 210.269531 170.101562 C 207.597656 166.871094 206.03125 163.199219 206.03125 163.195312 C 206.03125 163.195312 215.316406 147.390625 214.324219 144.871094 C 213.011719 141.519531 211.238281 137.492188 210.117188 136.957031 C 210.042969 137.019531 209.972656 137.082031 209.902344 137.140625 C 206.972656 139.652344 204.03125 141.863281 202.386719 142.363281 C 201.914062 142.507812 201.539062 142.507812 201.316406 142.324219 C 201.265625 142.285156 198.523438 141.121094 195.152344 139.59375 C 191.554688 137.960938 187.238281 135.917969 184.695312 134.375 C 183.886719 133.882812 183.175781 133.417969 182.609375 132.996094 C 182.785156 132.753906 182.925781 132.484375 183.03125 132.199219 C 183.144531 131.875 183.210938 131.523438 183.210938 131.164062 C 183.210938 131.03125 183.199219 130.898438 183.183594 130.769531 C 184.398438 130.804688 186.0625 131.027344 187.902344 131.347656 C 190.222656 131.75 192.816406 132.320312 195.152344 132.871094 C 198.300781 133.609375 200.976562 134.328125 201.835938 134.589844 C 202.027344 134.648438 202.210938 134.71875 202.386719 134.789062 C 202.769531 134.953125 203.125 135.140625 203.449219 135.363281 C 203.667969 134.945312 203.898438 134.523438 204.136719 134.09375 C 206.105469 130.527344 208.539062 126.730469 209.90625 124.695312 C 210.515625 122.804688 211.777344 121.203125 213.429688 120.164062 C 213.597656 120.0625 213.761719 119.960938 213.933594 119.871094 C 213.953125 119.859375 213.972656 119.851562 213.992188 119.839844 C 214.144531 119.761719 214.300781 119.683594 214.464844 119.609375 C 214.46875 119.605469 214.472656 119.605469 214.480469 119.601562 C 214.832031 119.445312 215.203125 119.3125 215.578125 119.203125 C 218.648438 124.488281 221.191406 126.699219 226.273438 126.890625 C 226.613281 129.074219 226.761719 132.257812 226.015625 136.300781 C 224.492188 144.589844 229.859375 175.644531 229.859375 175.644531 C 229.859375 175.644531 224.828125 177.039062 218.917969 175.515625 Z M 214.9375 214.792969 C 214.929688 214.796875 214.949219 214.792969 214.949219 214.792969 L 226.015625 214.792969 L 223.800781 209.378906 C 218.996094 212.144531 215.125 214.667969 214.9375 214.792969 Z M 202.238281 209.378906 C 197.429688 212.144531 193.558594 214.667969 193.371094 214.792969 C 193.367188 214.796875 193.382812 214.792969 193.382812 214.792969 L 204.449219 214.792969 L 202.386719 209.753906 Z M 55.644531 212.957031 C 55.644531 212.957031 55.636719 212.972656 55.640625 212.96875 C 55.804688 212.8125 59.203125 209.703125 63.097656 205.753906 L 58.378906 202.226562 Z M 124.378906 214.792969 L 135.449219 214.792969 C 135.449219 214.792969 135.464844 214.796875 135.460938 214.792969 C 135.273438 214.667969 131.398438 212.144531 126.59375 209.378906 Z M 128.113281 120.945312 C 128.398438 120.46875 128.566406 119.917969 128.566406 119.324219 C 128.566406 119.300781 128.566406 119.28125 128.566406 119.257812 C 128.53125 117.539062 127.125 116.152344 125.398438 116.152344 C 123.648438 116.152344 122.230469 117.574219 122.230469 119.324219 C 122.230469 121.074219 123.648438 122.492188 125.398438 122.492188 C 126.554688 122.492188 127.566406 121.871094 128.113281 120.945312 Z M 141.722656 100.613281 C 140.484375 100.613281 139.40625 101.332031 138.886719 102.371094 C 138.675781 102.792969 138.554688 103.273438 138.554688 103.78125 C 138.554688 103.910156 138.566406 104.03125 138.578125 104.15625 C 138.761719 105.726562 140.097656 106.953125 141.722656 106.953125 C 143.472656 106.953125 144.890625 105.53125 144.890625 103.78125 C 144.890625 102.03125 143.472656 100.613281 141.722656 100.613281 Z M 164.992188 117.097656 C 164.738281 117.03125 164.472656 116.996094 164.203125 116.996094 C 163.839844 116.996094 163.492188 117.058594 163.167969 117.171875 C 161.925781 117.601562 161.035156 118.777344 161.035156 120.164062 C 161.035156 121.914062 162.453125 123.332031 164.203125 123.332031 C 165.949219 123.332031 167.367188 121.914062 167.367188 120.164062 C 167.367188 118.683594 166.359375 117.449219 164.992188 117.097656 Z M 178.976562 124.707031 C 178.523438 124.457031 178 124.3125 177.445312 124.3125 C 175.804688 124.3125 174.457031 125.5625 174.296875 127.160156 C 174.285156 127.265625 174.277344 127.375 174.277344 127.484375 C 174.277344 128.003906 174.410156 128.5 174.636719 128.9375 C 175.066406 129.765625 175.84375 130.378906 176.785156 130.578125 C 177.066406 129.113281 178.378906 128 179.964844 128 C 180.167969 128 180.371094 128.015625 180.5625 128.050781 C 180.597656 127.867188 180.613281 127.675781 180.613281 127.484375 C 180.613281 126.945312 180.480469 126.4375 180.242188 125.992188 C 179.953125 125.449219 179.511719 125.003906 178.976562 124.707031 Z M 157.984375 95.121094 C 158.058594 94.851562 158.105469 94.570312 158.105469 94.273438 C 158.105469 93.9375 158.050781 93.617188 157.953125 93.3125 C 157.546875 92.03125 156.347656 91.101562 154.933594 91.101562 C 153.183594 91.101562 151.765625 92.523438 151.765625 94.273438 C 151.765625 96.023438 153.183594 97.441406 154.933594 97.441406 C 156.390625 97.441406 157.613281 96.460938 157.984375 95.121094 Z M 159.285156 129.964844 C 157.535156 129.964844 156.117188 131.382812 156.117188 133.132812 C 156.117188 134.882812 157.535156 136.300781 159.285156 136.300781 C 159.453125 136.300781 159.609375 136.285156 159.765625 136.261719 C 160.394531 136.167969 160.953125 135.890625 161.402344 135.484375 C 162.046875 134.90625 162.457031 134.070312 162.457031 133.132812 C 162.457031 131.382812 161.035156 129.964844 159.285156 129.964844 Z M 177.445312 168.238281 C 177.28125 168.238281 177.125 168.257812 176.960938 168.28125 C 176.339844 168.378906 175.78125 168.652344 175.328125 169.058594 C 174.898438 169.445312 174.578125 169.949219 174.410156 170.519531 C 174.324219 170.800781 174.277344 171.101562 174.277344 171.410156 C 174.277344 171.71875 174.328125 172.019531 174.410156 172.300781 C 174.792969 173.617188 176.007812 174.578125 177.445312 174.578125 C 179.199219 174.578125 180.613281 173.160156 180.613281 171.410156 C 180.613281 169.660156 179.199219 168.238281 177.445312 168.238281 Z M 157.714844 168.238281 C 157.449219 168.238281 157.1875 168.277344 156.941406 168.339844 C 157.148438 168.402344 157.371094 168.472656 157.582031 168.582031 C 158.167969 168.875 158.667969 169.375 158.542969 170.242188 C 158.53125 170.3125 158.511719 170.378906 158.5 170.449219 C 158.367188 171.117188 158.097656 171.722656 157.722656 172.253906 C 157.226562 172.96875 156.566406 173.554688 155.863281 173.980469 C 156.382812 174.355469 157.019531 174.578125 157.714844 174.578125 C 159.167969 174.578125 160.390625 173.597656 160.761719 172.265625 C 160.839844 171.992188 160.882812 171.707031 160.882812 171.410156 C 160.882812 171.078125 160.832031 170.753906 160.734375 170.457031 C 160.332031 169.171875 159.132812 168.238281 157.714844 168.238281 Z M 157.714844 168.238281 " fill-opacity="1" fill-rule="nonzero"/><path fill="#0984e3" d="M 202.390625 57.519531 L 202.390625 134.789062 C 202.210938 134.71875 202.027344 134.648438 201.835938 134.585938 C 200.976562 134.328125 198.300781 133.609375 195.152344 132.871094 L 195.152344 65.628906 C 195.152344 63.691406 193.121094 62.121094 190.613281 62.121094 L 99.167969 62.121094 C 96.664062 62.121094 94.632812 63.691406 94.632812 65.628906 L 94.632812 165.976562 C 91.542969 168.929688 88.855469 171.515625 87.390625 172.925781 L 87.390625 57.519531 C 87.390625 55.121094 89.714844 53.175781 92.582031 53.175781 L 197.199219 53.175781 C 200.066406 53.175781 202.390625 55.121094 202.390625 57.519531 Z M 202.390625 142.363281 L 202.390625 168.660156 C 200.21875 172.117188 198.84375 174.820312 199.417969 175.414062 C 199.121094 176.773438 198.941406 178.273438 198.914062 179.832031 C 198.828125 185.164062 202.238281 209.378906 202.238281 209.378906 C 197.429688 212.144531 193.558594 214.667969 193.371094 214.792969 C 193.367188 214.796875 193.382812 214.792969 193.382812 214.792969 L 198.898438 214.792969 C 198.363281 214.945312 197.792969 215.035156 197.199219 215.035156 L 92.582031 215.035156 C 91.714844 215.035156 90.898438 214.855469 90.179688 214.539062 C 93.730469 212.03125 96.015625 199.027344 96.960938 192.402344 C 97.617188 192.6875 98.367188 192.847656 99.167969 192.847656 L 121.105469 192.847656 C 121.679688 195.824219 122.230469 198.296875 122.230469 198.296875 L 122.496094 199.007812 L 123.78125 202.261719 L 126.59375 209.378906 L 124.378906 214.792969 L 135.449219 214.792969 C 135.449219 214.792969 135.464844 214.796875 135.460938 214.792969 C 135.273438 214.667969 131.398438 212.144531 126.59375 209.378906 C 126.824219 207.648438 127.566406 202.234375 128.171875 197.484375 L 128.152344 197.503906 C 128.335938 196.039062 128.546875 194.296875 128.714844 192.847656 L 190.613281 192.847656 C 193.121094 192.847656 195.152344 191.277344 195.152344 189.339844 L 195.152344 139.59375 C 198.523438 141.121094 201.265625 142.285156 201.316406 142.324219 C 201.542969 142.507812 201.914062 142.507812 202.390625 142.363281 Z M 148.136719 204.746094 C 148.136719 202.953125 146.679688 201.5 144.890625 201.5 C 143.101562 201.5 141.644531 202.953125 141.644531 204.746094 C 141.644531 206.535156 143.101562 207.988281 144.890625 207.988281 C 146.679688 207.988281 148.136719 206.535156 148.136719 204.746094 Z M 202.390625 208.554688 C 202.292969 209.082031 202.238281 209.378906 202.238281 209.378906 L 202.390625 209.753906 Z M 231.769531 116.144531 C 228.699219 113.613281 227.25 115.152344 224.359375 111.894531 C 221.90625 109.136719 220.457031 105.984375 220.070312 105.082031 C 220.035156 104.996094 220.003906 104.910156 219.964844 104.828125 C 219.316406 103.375 217.882812 102.128906 214.769531 102.242188 L 214.753906 102.242188 C 214.695312 102.25 214.632812 102.253906 214.570312 102.265625 C 213.335938 102.410156 213.789062 102.515625 212.703125 102.691406 C 212.492188 102.730469 212.226562 102.839844 211.867188 102.804688 C 205.546875 102.234375 206.863281 109.101562 208.617188 108.914062 L 208.617188 108.910156 L 208.65625 108.90625 C 208.910156 108.875 212.109375 108.597656 211.796875 108.726562 C 211.34375 110.140625 211.421875 111.519531 212.039062 112.5 C 213.375 115.140625 214.507812 117.355469 215.578125 119.203125 C 218.648438 124.488281 221.195312 126.699219 226.273438 126.890625 C 226.441406 126.898438 226.601562 126.910156 226.769531 126.910156 C 234.539062 127.003906 234.847656 118.679688 231.769531 116.144531 Z M 209.773438 111.171875 C 209.597656 111.1875 209.476562 111.4375 209.503906 111.726562 C 209.53125 112.015625 209.699219 112.234375 209.878906 112.214844 C 210.050781 112.195312 210.171875 111.945312 210.148438 111.65625 C 210.121094 111.371094 209.953125 111.152344 209.773438 111.171875 Z M 129.527344 152.441406 C 129.371094 152.722656 129.386719 153.03125 129.558594 153.128906 C 129.726562 153.226562 129.992188 153.074219 130.152344 152.796875 C 130.308594 152.519531 130.292969 152.207031 130.125 152.109375 C 129.949219 152.015625 129.6875 152.164062 129.527344 152.441406 Z M 127.234375 152.457031 C 128.125 151.851562 128.9375 150.445312 129.277344 149.042969 C 125.714844 146.179688 121.792969 142.964844 121.496094 142.46875 C 121.316406 142.75 121.160156 143.035156 121.023438 143.308594 C 120.246094 144.890625 120.261719 147.011719 120.484375 147.917969 C 120.484375 147.921875 120.484375 147.921875 120.484375 147.921875 C 120.488281 147.933594 120.488281 147.949219 120.492188 147.960938 C 120.550781 148.199219 120.625 148.429688 120.703125 148.660156 C 120.765625 148.828125 120.832031 148.992188 120.902344 149.152344 C 121.023438 149.441406 121.160156 149.722656 121.304688 149.984375 C 121.328125 150.03125 121.355469 150.082031 121.382812 150.128906 C 121.386719 150.140625 121.390625 150.152344 121.398438 150.164062 C 121.953125 151.113281 122.667969 151.867188 123.453125 152.355469 C 123.832031 152.601562 124.230469 152.777344 124.636719 152.886719 C 124.671875 152.894531 124.695312 152.902344 124.730469 152.910156 C 124.523438 152.726562 124.351562 152.515625 124.214844 152.269531 C 124.074219 152.015625 123.984375 151.734375 123.945312 151.433594 C 123.851562 150.746094 124.152344 150.058594 124.84375 149.847656 C 125.714844 149.582031 126.621094 150.128906 127.015625 150.898438 C 127.042969 150.945312 127.066406 150.996094 127.089844 151.050781 C 127.113281 151.113281 127.132812 151.175781 127.152344 151.238281 C 127.167969 151.289062 127.1875 151.339844 127.199219 151.386719 C 127.21875 151.484375 127.234375 151.582031 127.246094 151.675781 C 127.25 151.695312 127.253906 151.71875 127.257812 151.742188 C 127.277344 151.976562 127.269531 152.21875 127.230469 152.457031 C 127.234375 152.457031 127.234375 152.457031 127.234375 152.457031 Z M 179.5625 104.269531 C 179.5625 105.917969 179.191406 107.535156 178.480469 109.011719 C 181.605469 111.007812 183.515625 114.457031 183.515625 118.207031 C 183.515625 121.253906 182.257812 124.011719 180.242188 125.992188 C 179.953125 125.449219 179.511719 125 178.976562 124.707031 C 180.65625 123.054688 181.707031 120.753906 181.707031 118.207031 C 181.707031 114.824219 179.847656 111.738281 176.851562 110.152344 C 176.632812 110.03125 176.472656 109.832031 176.402344 109.597656 C 176.335938 109.359375 176.371094 109.101562 176.492188 108.890625 C 177.316406 107.496094 177.753906 105.898438 177.753906 104.269531 C 177.753906 99.246094 173.667969 95.15625 168.644531 95.15625 L 167.554688 95.15625 C 167.496094 95.171875 167.433594 95.179688 167.367188 95.179688 C 167.367188 95.179688 167.363281 95.179688 167.363281 95.179688 L 164.046875 95.15625 L 162.667969 95.15625 C 162.636719 95.15625 162.609375 95.152344 162.578125 95.148438 L 157.984375 95.121094 C 158.0625 94.851562 158.105469 94.570312 158.105469 94.273438 C 158.105469 93.9375 158.050781 93.617188 157.953125 93.3125 L 161.722656 93.335938 C 161.296875 88.710938 157.394531 85.070312 152.652344 85.070312 L 140.601562 85.070312 C 137.652344 85.070312 134.941406 86.488281 133.25 88.804688 C 132.277344 90.214844 131.707031 91.921875 131.707031 93.761719 C 131.707031 98.050781 134.808594 101.628906 138.886719 102.371094 C 138.675781 102.792969 138.554688 103.273438 138.554688 103.777344 C 138.554688 103.90625 138.566406 104.03125 138.578125 104.152344 C 137.859375 104.023438 137.167969 103.820312 136.507812 103.550781 C 138.136719 105.410156 139.125 107.84375 139.125 110.503906 C 139.125 116.328125 134.386719 121.066406 128.566406 121.066406 C 128.402344 121.066406 128.25 121.019531 128.113281 120.945312 C 128.398438 120.46875 128.566406 119.914062 128.566406 119.324219 C 128.566406 119.300781 128.566406 119.28125 128.566406 119.257812 C 133.390625 119.257812 137.316406 115.332031 137.316406 110.503906 C 137.316406 105.675781 133.390625 101.75 128.566406 101.75 L 112.726562 101.75 C 112.375 101.75 112.074219 101.550781 111.925781 101.257812 C 107.4375 101.820312 103.949219 105.65625 103.949219 110.296875 C 103.949219 115.324219 108.035156 119.410156 113.058594 119.410156 L 113.738281 119.410156 C 114.117188 119.410156 114.453125 119.644531 114.585938 120 C 115.914062 123.535156 119.34375 125.910156 123.117188 125.910156 L 127.082031 125.910156 C 127.5625 125.910156 127.960938 126.292969 127.984375 126.773438 C 128.210938 131.640625 132.207031 135.457031 137.082031 135.457031 C 139.730469 135.457031 142.246094 134.304688 143.980469 132.289062 C 143.980469 132.289062 143.984375 132.285156 143.988281 132.28125 L 143.988281 118.667969 C 143.988281 112.84375 148.726562 108.109375 154.546875 108.109375 C 159.835938 108.109375 164.226562 112.015625 164.992188 117.09375 C 164.738281 117.03125 164.476562 116.996094 164.203125 116.996094 C 163.839844 116.996094 163.492188 117.054688 163.167969 117.171875 C 162.453125 113.054688 158.859375 109.917969 154.546875 109.917969 C 149.722656 109.917969 145.796875 113.84375 145.796875 118.667969 L 145.796875 133.472656 C 147.089844 137.050781 150.496094 139.480469 154.363281 139.480469 C 154.769531 139.480469 155.195312 139.449219 155.621094 139.394531 C 155.664062 139.390625 155.703125 139.386719 155.746094 139.386719 C 156.109375 139.386719 156.449219 139.609375 156.585938 139.953125 L 160.070312 148.6875 C 161.035156 151.113281 163.347656 152.679688 165.953125 152.679688 C 166.46875 152.679688 166.972656 152.609375 167.46875 152.488281 L 159.769531 136.257812 C 160.394531 136.164062 160.957031 135.886719 161.402344 135.480469 L 169.148438 151.808594 C 170.3125 151.128906 171.234375 150.105469 171.777344 148.839844 C 172.445312 147.285156 172.46875 145.5625 171.839844 143.988281 L 165.6875 128.558594 C 165.574219 128.28125 165.609375 127.96875 165.777344 127.71875 C 165.945312 127.46875 166.226562 127.320312 166.527344 127.320312 L 172.59375 127.320312 C 173.175781 127.320312 173.742188 127.265625 174.296875 127.160156 C 174.285156 127.265625 174.28125 127.371094 174.28125 127.484375 C 174.28125 128.003906 174.410156 128.5 174.636719 128.9375 C 173.972656 129.0625 173.289062 129.132812 172.59375 129.132812 L 167.859375 129.132812 L 173.519531 143.320312 C 174.328125 145.339844 174.296875 147.554688 173.4375 149.554688 C 172.722656 151.226562 171.488281 152.574219 169.925781 153.445312 L 176.960938 168.28125 C 176.339844 168.378906 175.78125 168.652344 175.328125 169.058594 L 168.257812 154.15625 C 167.511719 154.378906 166.738281 154.488281 165.953125 154.488281 C 162.601562 154.488281 159.632812 152.476562 158.386719 149.355469 L 155.15625 141.261719 C 154.890625 141.28125 154.625 141.292969 154.363281 141.292969 C 150.210938 141.292969 146.503906 138.957031 144.660156 135.386719 C 144.355469 135.304688 144.113281 135.070312 144.027344 134.765625 C 142.085938 136.367188 139.636719 137.261719 137.082031 137.261719 C 131.53125 137.261719 126.929688 133.136719 126.25 127.71875 L 123.117188 127.71875 C 118.800781 127.71875 114.867188 125.132812 113.132812 121.222656 L 113.058594 121.222656 C 107.035156 121.222656 102.140625 116.320312 102.140625 110.296875 C 102.140625 104.550781 106.59375 99.828125 112.234375 99.40625 C 112.679688 93.789062 117.390625 89.359375 123.113281 89.359375 L 130.804688 89.359375 C 131.0625 88.832031 131.363281 88.339844 131.695312 87.871094 C 133.59375 85.050781 136.8125 83.195312 140.457031 83.195312 C 140.574219 83.195312 140.683594 83.21875 140.785156 83.261719 L 152.652344 83.261719 C 158.390625 83.261719 163.113281 87.710938 163.539062 93.34375 L 164.058594 93.347656 L 168.644531 93.347656 C 174.660156 93.351562 179.5625 98.25 179.5625 104.269531 Z M 129.898438 93.761719 C 129.898438 92.867188 130.007812 92 130.21875 91.167969 L 123.117188 91.167969 C 118.207031 91.167969 114.195312 95.070312 114.015625 99.945312 L 128.566406 99.945312 C 129.960938 99.945312 131.296875 100.214844 132.515625 100.710938 C 130.886719 98.851562 129.898438 96.421875 129.898438 93.761719 Z M 174.28125 170.507812 L 160.734375 170.457031 C 160.832031 170.753906 160.882812 171.078125 160.882812 171.410156 C 160.882812 171.707031 160.839844 171.992188 160.761719 172.265625 L 174.277344 172.316406 C 174.324219 172.316406 174.367188 172.308594 174.410156 172.300781 C 174.324219 172.019531 174.277344 171.71875 174.277344 171.410156 C 174.277344 171.097656 174.328125 170.800781 174.410156 170.519531 C 174.367188 170.515625 174.324219 170.507812 174.28125 170.507812 Z M 174.28125 170.507812 " fill-opacity="1" fill-rule="nonzero"/><path fill="#000000" d="M 48.09375 30.09375 C 48.09375 27.984375 48.808594 26.203125 50.242188 24.746094 C 51.6875 23.292969 53.417969 22.5625 55.4375 22.5625 C 57.472656 22.5625 59.199219 23.292969 60.613281 24.746094 C 62.035156 26.191406 62.75 27.972656 62.75 30.09375 C 62.75 32.226562 62.046875 34.019531 60.644531 35.472656 C 59.25 36.917969 57.515625 37.640625 55.4375 37.640625 C 53.304688 37.640625 51.550781 36.925781 50.167969 35.488281 C 48.785156 34.042969 48.09375 32.246094 48.09375 30.09375 Z M 51.671875 30.09375 C 51.671875 30.855469 51.789062 31.550781 52.027344 32.183594 C 52.261719 32.8125 52.671875 33.34375 53.253906 33.78125 C 53.847656 34.214844 54.574219 34.429688 55.4375 34.429688 C 56.671875 34.429688 57.605469 34.007812 58.234375 33.167969 C 58.855469 32.320312 59.167969 31.292969 59.167969 30.09375 C 59.167969 28.90625 58.847656 27.890625 58.203125 27.035156 C 57.5625 26.175781 56.640625 25.746094 55.4375 25.746094 C 54.238281 25.746094 53.308594 26.175781 52.65625 27.035156 C 52 27.890625 51.671875 28.90625 51.671875 30.09375 Z M 51.671875 30.09375 " fill-opacity="1" fill-rule="nonzero"/><path fill="#000000" d="M 64.214844 37.378906 L 64.214844 28.328125 L 67.332031 28.328125 L 67.332031 29.28125 L 67.363281 29.28125 C 68.183594 28.472656 69.046875 28.066406 69.960938 28.066406 C 70.410156 28.066406 70.855469 28.128906 71.296875 28.25 C 71.734375 28.367188 72.15625 28.542969 72.558594 28.789062 C 72.964844 29.035156 73.292969 29.382812 73.539062 29.832031 C 73.792969 30.285156 73.925781 30.8125 73.925781 31.417969 L 73.925781 37.378906 L 70.804688 37.378906 L 70.804688 32.261719 C 70.804688 31.792969 70.65625 31.382812 70.359375 31.03125 C 70.0625 30.675781 69.671875 30.492188 69.191406 30.492188 C 68.71875 30.492188 68.289062 30.679688 67.902344 31.046875 C 67.523438 31.410156 67.332031 31.8125 67.332031 32.261719 L 67.332031 37.378906 Z M 64.214844 37.378906 " fill-opacity="1" fill-rule="nonzero"/><path fill="#000000" d="M 75.867188 22.210938 L 78.984375 22.210938 L 78.984375 37.378906 L 75.867188 37.378906 Z M 75.867188 22.210938 " fill-opacity="1" fill-rule="nonzero"/><path fill="#000000" d="M 81.394531 23.285156 C 81.765625 22.917969 82.199219 22.734375 82.703125 22.734375 C 83.210938 22.734375 83.648438 22.917969 84.007812 23.285156 C 84.375 23.648438 84.5625 24.082031 84.5625 24.59375 C 84.5625 25.097656 84.375 25.53125 84.007812 25.898438 C 83.648438 26.261719 83.210938 26.4375 82.703125 26.4375 C 82.199219 26.4375 81.765625 26.261719 81.394531 25.898438 C 81.035156 25.53125 80.859375 25.097656 80.859375 24.59375 C 80.859375 24.082031 81.035156 23.648438 81.394531 23.285156 Z M 81.105469 28.328125 L 81.105469 37.378906 L 84.222656 37.378906 L 84.222656 28.328125 Z M 81.105469 28.328125 " fill-opacity="1" fill-rule="nonzero"/><path fill="#000000" d="M 86.425781 37.378906 L 86.425781 28.328125 L 89.546875 28.328125 L 89.546875 29.28125 L 89.578125 29.28125 C 90.394531 28.472656 91.257812 28.066406 92.171875 28.066406 C 92.621094 28.066406 93.066406 28.128906 93.511719 28.25 C 93.949219 28.367188 94.371094 28.542969 94.769531 28.789062 C 95.175781 29.035156 95.507812 29.382812 95.753906 29.832031 C 96.007812 30.285156 96.136719 30.8125 96.136719 31.417969 L 96.136719 37.378906 L 93.019531 37.378906 L 93.019531 32.261719 C 93.019531 31.792969 92.867188 31.382812 92.574219 31.03125 C 92.273438 30.675781 91.886719 30.492188 91.40625 30.492188 C 90.933594 30.492188 90.503906 30.679688 90.113281 31.046875 C 89.734375 31.410156 89.546875 31.8125 89.546875 32.261719 L 89.546875 37.378906 Z M 86.425781 37.378906 " fill-opacity="1" fill-rule="nonzero"/><path fill="#000000" d="M 107.238281 33.289062 L 100.675781 33.289062 C 100.675781 33.929688 100.878906 34.398438 101.292969 34.703125 C 101.699219 35.003906 102.144531 35.152344 102.628906 35.152344 C 103.128906 35.152344 103.527344 35.085938 103.828125 34.949219 C 104.121094 34.820312 104.460938 34.550781 104.839844 34.152344 L 107.097656 35.273438 C 106.152344 36.851562 104.585938 37.640625 102.398438 37.640625 C 101.035156 37.640625 99.863281 37.175781 98.878906 36.242188 C 97.902344 35.3125 97.421875 34.191406 97.421875 32.875 C 97.421875 31.554688 97.902344 30.425781 98.878906 29.480469 C 99.863281 28.539062 101.035156 28.066406 102.398438 28.066406 C 103.832031 28.066406 105 28.480469 105.902344 29.3125 C 106.800781 30.140625 107.253906 31.324219 107.253906 32.859375 C 107.253906 33.074219 107.246094 33.222656 107.238281 33.289062 Z M 100.753906 31.554688 L 104.195312 31.554688 C 104.121094 31.085938 103.9375 30.722656 103.640625 30.480469 C 103.34375 30.226562 102.957031 30.09375 102.488281 30.09375 C 101.96875 30.09375 101.554688 30.234375 101.246094 30.507812 C 100.945312 30.777344 100.785156 31.125 100.753906 31.554688 Z M 100.753906 31.554688 " fill-opacity="1" fill-rule="nonzero"/><path fill="#000000" d="M 118.023438 22.210938 L 110.753906 39.5 L 108.050781 39.5 L 115.316406 22.210938 Z M 118.023438 22.210938 " fill-opacity="1" fill-rule="nonzero"/><path fill="#000000" d="M 119.480469 22.824219 L 123.691406 22.824219 C 125.71875 22.824219 127.449219 23.515625 128.882812 24.898438 C 130.316406 26.28125 131.035156 28.015625 131.035156 30.09375 C 131.035156 32.183594 130.316406 33.921875 128.882812 35.304688 C 127.460938 36.6875 125.726562 37.378906 123.691406 37.378906 L 119.480469 37.378906 Z M 122.800781 34.414062 L 123.308594 34.414062 C 124.511719 34.414062 125.503906 34.007812 126.273438 33.199219 C 127.046875 32.378906 127.445312 31.351562 127.457031 30.109375 C 127.457031 28.871094 127.0625 27.84375 126.289062 27.019531 C 125.519531 26.203125 124.523438 25.792969 123.308594 25.792969 L 122.800781 25.792969 Z M 122.800781 34.414062 " fill-opacity="1" fill-rule="nonzero"/><path fill="#000000" d="M 132.785156 23.285156 C 133.152344 22.917969 133.585938 22.734375 134.089844 22.734375 C 134.601562 22.734375 135.035156 22.917969 135.394531 23.285156 C 135.765625 23.648438 135.949219 24.082031 135.949219 24.59375 C 135.949219 25.097656 135.765625 25.53125 135.394531 25.898438 C 135.035156 26.261719 134.601562 26.4375 134.089844 26.4375 C 133.585938 26.4375 133.152344 26.261719 132.785156 25.898438 C 132.421875 25.53125 132.246094 25.097656 132.246094 24.59375 C 132.246094 24.082031 132.421875 23.648438 132.785156 23.285156 Z M 132.492188 28.328125 L 132.492188 37.378906 L 135.609375 37.378906 L 135.609375 28.328125 Z M 132.492188 28.328125 " fill-opacity="1" fill-rule="nonzero"/><path fill="#000000" d="M 141.75 28.066406 C 142.261719 28.066406 142.765625 28.128906 143.269531 28.25 C 143.78125 28.367188 144.160156 28.476562 144.40625 28.589844 L 144.777344 28.773438 L 143.761719 30.816406 C 143.054688 30.441406 142.382812 30.25 141.75 30.25 C 141.390625 30.25 141.140625 30.289062 140.996094 30.371094 C 140.851562 30.445312 140.78125 30.585938 140.78125 30.800781 C 140.78125 30.84375 140.785156 30.890625 140.796875 30.941406 C 140.804688 30.992188 140.828125 31.039062 140.859375 31.078125 C 140.898438 31.121094 140.933594 31.15625 140.964844 31.1875 C 140.996094 31.207031 141.042969 31.238281 141.105469 31.277344 C 141.171875 31.308594 141.230469 31.335938 141.273438 31.355469 C 141.3125 31.378906 141.382812 31.410156 141.472656 31.445312 C 141.574219 31.476562 141.644531 31.503906 141.6875 31.523438 C 141.738281 31.535156 141.820312 31.5625 141.933594 31.601562 C 142.046875 31.632812 142.132812 31.652344 142.195312 31.660156 C 142.550781 31.765625 142.863281 31.886719 143.132812 32.015625 C 143.410156 32.148438 143.691406 32.332031 143.992188 32.554688 C 144.300781 32.769531 144.535156 33.054688 144.699219 33.398438 C 144.859375 33.738281 144.945312 34.121094 144.945312 34.550781 C 144.945312 36.609375 143.515625 37.640625 140.660156 37.640625 C 140.015625 37.640625 139.398438 37.539062 138.816406 37.347656 C 138.230469 37.144531 137.808594 36.945312 137.554688 36.75 L 137.15625 36.425781 L 138.429688 34.289062 C 138.523438 34.375 138.644531 34.46875 138.800781 34.582031 C 138.953125 34.695312 139.230469 34.851562 139.628906 35.042969 C 140.027344 35.238281 140.375 35.335938 140.675781 35.335938 C 141.320312 35.335938 141.640625 35.117188 141.640625 34.675781 C 141.640625 34.480469 141.558594 34.328125 141.394531 34.214844 C 141.230469 34.101562 140.949219 33.976562 140.550781 33.828125 C 140.160156 33.6875 139.851562 33.558594 139.628906 33.445312 C 139.066406 33.148438 138.621094 32.816406 138.292969 32.445312 C 137.960938 32.078125 137.800781 31.585938 137.800781 30.96875 C 137.800781 30.058594 138.15625 29.347656 138.863281 28.835938 C 139.574219 28.324219 140.539062 28.066406 141.75 28.066406 Z M 141.75 28.066406 " fill-opacity="1" fill-rule="nonzero"/><path fill="#000000" d="M 147.011719 28.328125 L 147.011719 24.960938 L 150.148438 24.960938 L 150.148438 28.328125 L 152.035156 28.328125 L 152.035156 30.710938 L 150.148438 30.710938 L 150.148438 33.582031 C 150.148438 34.425781 150.378906 34.84375 150.839844 34.84375 C 150.960938 34.84375 151.085938 34.824219 151.207031 34.78125 C 151.339844 34.730469 151.441406 34.683594 151.515625 34.628906 L 151.621094 34.550781 L 152.390625 37.070312 C 151.722656 37.449219 150.960938 37.640625 150.101562 37.640625 C 149.515625 37.640625 149.011719 37.535156 148.582031 37.332031 C 148.15625 37.128906 147.84375 36.851562 147.628906 36.503906 C 147.414062 36.15625 147.25 35.792969 147.152344 35.410156 C 147.058594 35.035156 147.011719 34.625 147.011719 34.183594 L 147.011719 30.710938 L 145.707031 30.710938 L 145.707031 28.328125 Z M 147.011719 28.328125 " fill-opacity="1" fill-rule="nonzero"/><path fill="#000000" d="M 154.070312 36.257812 C 153.214844 35.335938 152.792969 34.207031 152.792969 32.859375 C 152.792969 31.519531 153.214844 30.386719 154.070312 29.464844 C 154.917969 28.535156 155.992188 28.066406 157.296875 28.066406 C 158.492188 28.066406 159.480469 28.441406 160.261719 29.1875 L 160.261719 28.328125 L 163.378906 28.328125 L 163.378906 37.378906 L 160.289062 37.378906 L 160.289062 36.347656 L 160.261719 36.347656 C 159.480469 37.210938 158.492188 37.640625 157.296875 37.640625 C 155.992188 37.640625 154.917969 37.179688 154.070312 36.257812 Z M 156.710938 31.324219 C 156.3125 31.722656 156.113281 32.238281 156.113281 32.859375 C 156.113281 33.488281 156.304688 33.996094 156.695312 34.398438 C 157.082031 34.789062 157.59375 34.980469 158.230469 34.980469 C 158.847656 34.980469 159.347656 34.78125 159.738281 34.382812 C 160.136719 33.984375 160.335938 33.476562 160.335938 32.859375 C 160.335938 32.238281 160.128906 31.722656 159.722656 31.324219 C 159.3125 30.925781 158.816406 30.722656 158.230469 30.722656 C 157.625 30.722656 157.117188 30.925781 156.710938 31.324219 Z M 156.710938 31.324219 " fill-opacity="1" fill-rule="nonzero"/><path fill="#000000" d="M 165.492188 37.378906 L 165.492188 28.328125 L 168.613281 28.328125 L 168.613281 29.28125 L 168.644531 29.28125 C 169.460938 28.472656 170.324219 28.066406 171.238281 28.066406 C 171.6875 28.066406 172.136719 28.128906 172.578125 28.25 C 173.015625 28.367188 173.4375 28.542969 173.835938 28.789062 C 174.242188 29.035156 174.574219 29.382812 174.820312 29.832031 C 175.074219 30.285156 175.203125 30.8125 175.203125 31.417969 L 175.203125 37.378906 L 172.085938 37.378906 L 172.085938 32.261719 C 172.085938 31.792969 171.933594 31.382812 171.640625 31.03125 C 171.339844 30.675781 170.953125 30.492188 170.472656 30.492188 C 170 30.492188 169.570312 30.679688 169.179688 31.046875 C 168.800781 31.410156 168.613281 31.8125 168.613281 32.261719 L 168.613281 37.378906 Z M 165.492188 37.378906 " fill-opacity="1" fill-rule="nonzero"/><path fill="#000000" d="M 181.957031 30.617188 C 181.371094 30.617188 180.867188 30.839844 180.433594 31.277344 C 180.011719 31.707031 179.804688 32.230469 179.804688 32.84375 C 179.804688 33.472656 180.011719 34.003906 180.433594 34.445312 C 180.867188 34.875 181.371094 35.089844 181.957031 35.089844 C 182.242188 35.089844 182.507812 35.054688 182.753906 34.980469 C 183.007812 34.914062 183.199219 34.839844 183.324219 34.765625 L 183.476562 34.660156 L 184.539062 36.824219 C 184.453125 36.886719 184.335938 36.964844 184.183594 37.054688 C 184.039062 37.140625 183.707031 37.257812 183.183594 37.410156 C 182.664062 37.5625 182.097656 37.640625 181.496094 37.640625 C 180.175781 37.640625 179.007812 37.175781 177.992188 36.242188 C 176.984375 35.3125 176.488281 34.191406 176.488281 32.875 C 176.488281 31.566406 176.984375 30.441406 177.992188 29.496094 C 179.007812 28.542969 180.175781 28.066406 181.496094 28.066406 C 182.097656 28.066406 182.652344 28.140625 183.15625 28.28125 C 183.664062 28.414062 184.023438 28.554688 184.230469 28.695312 L 184.539062 28.910156 L 183.476562 31.046875 C 183.085938 30.761719 182.578125 30.617188 181.957031 30.617188 Z M 181.957031 30.617188 " fill-opacity="1" fill-rule="nonzero"/><path fill="#000000" d="M 194.960938 33.289062 L 188.398438 33.289062 C 188.398438 33.929688 188.605469 34.398438 189.015625 34.703125 C 189.421875 35.003906 189.867188 35.152344 190.351562 35.152344 C 190.851562 35.152344 191.25 35.085938 191.550781 34.949219 C 191.84375 34.820312 192.183594 34.550781 192.5625 34.152344 L 194.820312 35.273438 C 193.878906 36.851562 192.308594 37.640625 190.121094 37.640625 C 188.757812 37.640625 187.585938 37.175781 186.601562 36.242188 C 185.628906 35.3125 185.144531 34.191406 185.144531 32.875 C 185.144531 31.554688 185.628906 30.425781 186.601562 29.480469 C 187.585938 28.539062 188.757812 28.066406 190.121094 28.066406 C 191.554688 28.066406 192.722656 28.480469 193.625 29.3125 C 194.523438 30.140625 194.976562 31.324219 194.976562 32.859375 C 194.976562 33.074219 194.96875 33.222656 194.960938 33.289062 Z M 188.476562 31.554688 L 191.917969 31.554688 C 191.84375 31.085938 191.660156 30.722656 191.367188 30.480469 C 191.066406 30.226562 190.683594 30.09375 190.214844 30.09375 C 189.691406 30.09375 189.277344 30.234375 188.96875 30.507812 C 188.667969 30.777344 188.507812 31.125 188.476562 31.554688 Z M 188.476562 31.554688 " fill-opacity="1" fill-rule="nonzero"/><path fill="#104e91" d="M 213.269531 37.378906 L 212.578125 28.757812 L 212.488281 28.757812 L 209.507812 37.285156 L 207.539062 37.285156 L 204.558594 28.757812 L 204.46875 28.757812 L 203.777344 37.378906 L 200.457031 37.378906 L 201.761719 22.824219 L 205.296875 22.824219 L 208.523438 31.214844 L 211.75 22.824219 L 215.28125 22.824219 L 216.589844 37.378906 Z M 213.269531 37.378906 " fill-opacity="1" fill-rule="nonzero"/><path fill="#104e91" d="M 225.660156 34.382812 C 226.160156 34.382812 226.648438 34.304688 227.121094 34.152344 C 227.601562 33.996094 227.953125 33.851562 228.179688 33.707031 L 228.519531 33.476562 L 229.933594 36.304688 C 229.878906 36.332031 229.8125 36.378906 229.734375 36.441406 C 229.648438 36.503906 229.457031 36.617188 229.148438 36.78125 C 228.847656 36.933594 228.535156 37.070312 228.195312 37.195312 C 227.859375 37.308594 227.414062 37.410156 226.859375 37.5 C 226.308594 37.59375 225.738281 37.640625 225.15625 37.640625 C 223.804688 37.640625 222.515625 37.308594 221.296875 36.640625 C 220.089844 35.976562 219.109375 35.066406 218.363281 33.90625 C 217.625 32.738281 217.257812 31.476562 217.257812 30.125 C 217.257812 29.101562 217.472656 28.125 217.902344 27.191406 C 218.339844 26.25 218.925781 25.445312 219.65625 24.777344 C 220.378906 24.101562 221.226562 23.5625 222.191406 23.164062 C 223.148438 22.765625 224.140625 22.5625 225.15625 22.5625 C 226.085938 22.5625 226.945312 22.679688 227.734375 22.902344 C 228.535156 23.117188 229.101562 23.339844 229.441406 23.5625 L 229.933594 23.902344 L 228.519531 26.730469 C 228.433594 26.660156 228.3125 26.570312 228.152344 26.46875 C 227.984375 26.367188 227.652344 26.234375 227.152344 26.066406 C 226.660156 25.90625 226.160156 25.820312 225.660156 25.820312 C 224.863281 25.820312 224.144531 25.957031 223.511719 26.222656 C 222.875 26.480469 222.367188 26.816406 221.988281 27.234375 C 221.621094 27.660156 221.335938 28.113281 221.144531 28.605469 C 220.960938 29.09375 220.867188 29.59375 220.867188 30.09375 C 220.867188 31.199219 221.277344 32.195312 222.097656 33.074219 C 222.925781 33.949219 224.113281 34.382812 225.660156 34.382812 Z M 225.660156 34.382812 " fill-opacity="1" fill-rule="nonzero"/><path fill="#104e91" d="M 238.582031 22.824219 L 244.453125 37.378906 L 240.886719 37.378906 L 239.8125 34.472656 L 234.28125 34.472656 L 233.207031 37.378906 L 229.640625 37.378906 L 235.511719 22.824219 Z M 238.691406 31.554688 L 237.0625 27.328125 L 237.03125 27.328125 L 235.402344 31.554688 Z M 238.691406 31.554688 " fill-opacity="1" fill-rule="nonzero"/><g clip-path="url(#665d52aa64)"><path fill="#eaf8ff" d="M 196.042969 22.5 L 263.542969 22.5 L 263.542969 49.921875 L 196.042969 49.921875 Z M 196.042969 22.5 " fill-opacity="1" fill-rule="nonzero"/></g><g fill="#104e91" fill-opacity="1"><g transform="translate(200.365715, 36.899963)"><g><path d="M 10.015625 0 L 9.484375 -6.59375 L 9.421875 -6.59375 L 7.140625 -0.0625 L 5.625 -0.0625 L 3.34375 -6.59375 L 3.28125 -6.59375 L 2.75 0 L 0.21875 0 L 1.21875 -11.140625 L 3.921875 -11.140625 L 6.390625 -4.71875 L 8.859375 -11.140625 L 11.5625 -11.140625 L 12.5625 0 Z M 10.015625 0 "/></g></g></g><g fill="#104e91" fill-opacity="1"><g transform="translate(213.136634, 36.899963)"><g><path d="M 6.46875 -11.140625 L 10.96875 0 L 8.234375 0 L 7.40625 -2.234375 L 3.171875 -2.234375 L 2.34375 0 L -0.375 0 L 4.125 -11.140625 Z M 6.546875 -4.453125 L 5.3125 -7.6875 L 5.28125 -7.6875 L 4.03125 -4.453125 Z M 6.546875 -4.453125 "/></g></g></g></svg>